%TF.GenerationSoftware,KiCad,Pcbnew,10.0.4*%
%TF.CreationDate,2026-09-15T11:26:04+03:00*%
%TF.ProjectId,AVR microcontroller,41565220-6d69-4637-926f-636f6e74726f,rev?*%
%TF.SameCoordinates,Original*%
%TF.FileFunction,Legend,Bot*%
%TF.FilePolarity,Positive*%
%FSLAX46Y46*%
G04 Gerber Fmt 4.6, Leading zero omitted, Abs format (unit mm)*
G04 Created by KiCad (PCBNEW 10.0.4) date 2026-09-15 11:26:04*
%MOMM*%
%LPD*%
G01*
G04 APERTURE LIST*
%ADD10C,0.150000*%
%ADD11C,0.000000*%
G04 APERTURE END LIST*
D10*
X121910839Y-89574160D02*
X121434649Y-89574160D01*
X122006077Y-89859875D02*
X121672744Y-88859875D01*
X121672744Y-88859875D02*
X121339411Y-89859875D01*
X120863220Y-89859875D02*
X120958458Y-89812256D01*
X120958458Y-89812256D02*
X121006077Y-89717017D01*
X121006077Y-89717017D02*
X121006077Y-88859875D01*
X120577505Y-89193208D02*
X120339410Y-89859875D01*
X120101315Y-89193208D02*
X120339410Y-89859875D01*
X120339410Y-89859875D02*
X120434648Y-90097970D01*
X120434648Y-90097970D02*
X120482267Y-90145589D01*
X120482267Y-90145589D02*
X120577505Y-90193208D01*
X118625124Y-89336065D02*
X118482267Y-89383684D01*
X118482267Y-89383684D02*
X118434648Y-89431303D01*
X118434648Y-89431303D02*
X118387029Y-89526541D01*
X118387029Y-89526541D02*
X118387029Y-89669398D01*
X118387029Y-89669398D02*
X118434648Y-89764636D01*
X118434648Y-89764636D02*
X118482267Y-89812256D01*
X118482267Y-89812256D02*
X118577505Y-89859875D01*
X118577505Y-89859875D02*
X118958457Y-89859875D01*
X118958457Y-89859875D02*
X118958457Y-88859875D01*
X118958457Y-88859875D02*
X118625124Y-88859875D01*
X118625124Y-88859875D02*
X118529886Y-88907494D01*
X118529886Y-88907494D02*
X118482267Y-88955113D01*
X118482267Y-88955113D02*
X118434648Y-89050351D01*
X118434648Y-89050351D02*
X118434648Y-89145589D01*
X118434648Y-89145589D02*
X118482267Y-89240827D01*
X118482267Y-89240827D02*
X118529886Y-89288446D01*
X118529886Y-89288446D02*
X118625124Y-89336065D01*
X118625124Y-89336065D02*
X118958457Y-89336065D01*
X117529886Y-89859875D02*
X117529886Y-89336065D01*
X117529886Y-89336065D02*
X117577505Y-89240827D01*
X117577505Y-89240827D02*
X117672743Y-89193208D01*
X117672743Y-89193208D02*
X117863219Y-89193208D01*
X117863219Y-89193208D02*
X117958457Y-89240827D01*
X117529886Y-89812256D02*
X117625124Y-89859875D01*
X117625124Y-89859875D02*
X117863219Y-89859875D01*
X117863219Y-89859875D02*
X117958457Y-89812256D01*
X117958457Y-89812256D02*
X118006076Y-89717017D01*
X118006076Y-89717017D02*
X118006076Y-89621779D01*
X118006076Y-89621779D02*
X117958457Y-89526541D01*
X117958457Y-89526541D02*
X117863219Y-89478922D01*
X117863219Y-89478922D02*
X117625124Y-89478922D01*
X117625124Y-89478922D02*
X117529886Y-89431303D01*
X116625124Y-89859875D02*
X116625124Y-88859875D01*
X116625124Y-89812256D02*
X116720362Y-89859875D01*
X116720362Y-89859875D02*
X116910838Y-89859875D01*
X116910838Y-89859875D02*
X117006076Y-89812256D01*
X117006076Y-89812256D02*
X117053695Y-89764636D01*
X117053695Y-89764636D02*
X117101314Y-89669398D01*
X117101314Y-89669398D02*
X117101314Y-89383684D01*
X117101314Y-89383684D02*
X117053695Y-89288446D01*
X117053695Y-89288446D02*
X117006076Y-89240827D01*
X117006076Y-89240827D02*
X116910838Y-89193208D01*
X116910838Y-89193208D02*
X116720362Y-89193208D01*
X116720362Y-89193208D02*
X116625124Y-89240827D01*
X115720362Y-89859875D02*
X115720362Y-89336065D01*
X115720362Y-89336065D02*
X115767981Y-89240827D01*
X115767981Y-89240827D02*
X115863219Y-89193208D01*
X115863219Y-89193208D02*
X116053695Y-89193208D01*
X116053695Y-89193208D02*
X116148933Y-89240827D01*
X115720362Y-89812256D02*
X115815600Y-89859875D01*
X115815600Y-89859875D02*
X116053695Y-89859875D01*
X116053695Y-89859875D02*
X116148933Y-89812256D01*
X116148933Y-89812256D02*
X116196552Y-89717017D01*
X116196552Y-89717017D02*
X116196552Y-89621779D01*
X116196552Y-89621779D02*
X116148933Y-89526541D01*
X116148933Y-89526541D02*
X116053695Y-89478922D01*
X116053695Y-89478922D02*
X115815600Y-89478922D01*
X115815600Y-89478922D02*
X115720362Y-89431303D01*
X115339409Y-89193208D02*
X115148933Y-89859875D01*
X115148933Y-89859875D02*
X114958457Y-89383684D01*
X114958457Y-89383684D02*
X114767981Y-89859875D01*
X114767981Y-89859875D02*
X114577505Y-89193208D01*
X114291790Y-89193208D02*
X114053695Y-89859875D01*
X113815600Y-89193208D02*
X114053695Y-89859875D01*
X114053695Y-89859875D02*
X114148933Y-90097970D01*
X114148933Y-90097970D02*
X114196552Y-90145589D01*
X114196552Y-90145589D02*
X114291790Y-90193208D01*
X121339411Y-91469819D02*
X121910839Y-91469819D01*
X121625125Y-91469819D02*
X121625125Y-90469819D01*
X121625125Y-90469819D02*
X121720363Y-90612676D01*
X121720363Y-90612676D02*
X121815601Y-90707914D01*
X121815601Y-90707914D02*
X121910839Y-90755533D01*
X120482268Y-90803152D02*
X120482268Y-91469819D01*
X120720363Y-90422200D02*
X120958458Y-91136485D01*
X120958458Y-91136485D02*
X120339411Y-91136485D01*
X120053696Y-90469819D02*
X119387030Y-90469819D01*
X119387030Y-90469819D02*
X119815601Y-91469819D01*
X118482268Y-91469819D02*
X119053696Y-91469819D01*
X118767982Y-91469819D02*
X118767982Y-90469819D01*
X118767982Y-90469819D02*
X118863220Y-90612676D01*
X118863220Y-90612676D02*
X118958458Y-90707914D01*
X118958458Y-90707914D02*
X119053696Y-90755533D01*
X117863220Y-90469819D02*
X117767982Y-90469819D01*
X117767982Y-90469819D02*
X117672744Y-90517438D01*
X117672744Y-90517438D02*
X117625125Y-90565057D01*
X117625125Y-90565057D02*
X117577506Y-90660295D01*
X117577506Y-90660295D02*
X117529887Y-90850771D01*
X117529887Y-90850771D02*
X117529887Y-91088866D01*
X117529887Y-91088866D02*
X117577506Y-91279342D01*
X117577506Y-91279342D02*
X117625125Y-91374580D01*
X117625125Y-91374580D02*
X117672744Y-91422200D01*
X117672744Y-91422200D02*
X117767982Y-91469819D01*
X117767982Y-91469819D02*
X117863220Y-91469819D01*
X117863220Y-91469819D02*
X117958458Y-91422200D01*
X117958458Y-91422200D02*
X118006077Y-91374580D01*
X118006077Y-91374580D02*
X118053696Y-91279342D01*
X118053696Y-91279342D02*
X118101315Y-91088866D01*
X118101315Y-91088866D02*
X118101315Y-90850771D01*
X118101315Y-90850771D02*
X118053696Y-90660295D01*
X118053696Y-90660295D02*
X118006077Y-90565057D01*
X118006077Y-90565057D02*
X117958458Y-90517438D01*
X117958458Y-90517438D02*
X117863220Y-90469819D01*
X116910839Y-90469819D02*
X116815601Y-90469819D01*
X116815601Y-90469819D02*
X116720363Y-90517438D01*
X116720363Y-90517438D02*
X116672744Y-90565057D01*
X116672744Y-90565057D02*
X116625125Y-90660295D01*
X116625125Y-90660295D02*
X116577506Y-90850771D01*
X116577506Y-90850771D02*
X116577506Y-91088866D01*
X116577506Y-91088866D02*
X116625125Y-91279342D01*
X116625125Y-91279342D02*
X116672744Y-91374580D01*
X116672744Y-91374580D02*
X116720363Y-91422200D01*
X116720363Y-91422200D02*
X116815601Y-91469819D01*
X116815601Y-91469819D02*
X116910839Y-91469819D01*
X116910839Y-91469819D02*
X117006077Y-91422200D01*
X117006077Y-91422200D02*
X117053696Y-91374580D01*
X117053696Y-91374580D02*
X117101315Y-91279342D01*
X117101315Y-91279342D02*
X117148934Y-91088866D01*
X117148934Y-91088866D02*
X117148934Y-90850771D01*
X117148934Y-90850771D02*
X117101315Y-90660295D01*
X117101315Y-90660295D02*
X117053696Y-90565057D01*
X117053696Y-90565057D02*
X117006077Y-90517438D01*
X117006077Y-90517438D02*
X116910839Y-90469819D01*
X116244172Y-90469819D02*
X115577506Y-90469819D01*
X115577506Y-90469819D02*
X116006077Y-91469819D01*
X115244172Y-90565057D02*
X115196553Y-90517438D01*
X115196553Y-90517438D02*
X115101315Y-90469819D01*
X115101315Y-90469819D02*
X114863220Y-90469819D01*
X114863220Y-90469819D02*
X114767982Y-90517438D01*
X114767982Y-90517438D02*
X114720363Y-90565057D01*
X114720363Y-90565057D02*
X114672744Y-90660295D01*
X114672744Y-90660295D02*
X114672744Y-90755533D01*
X114672744Y-90755533D02*
X114720363Y-90898390D01*
X114720363Y-90898390D02*
X115291791Y-91469819D01*
X115291791Y-91469819D02*
X114672744Y-91469819D01*
X113815601Y-90469819D02*
X114006077Y-90469819D01*
X114006077Y-90469819D02*
X114101315Y-90517438D01*
X114101315Y-90517438D02*
X114148934Y-90565057D01*
X114148934Y-90565057D02*
X114244172Y-90707914D01*
X114244172Y-90707914D02*
X114291791Y-90898390D01*
X114291791Y-90898390D02*
X114291791Y-91279342D01*
X114291791Y-91279342D02*
X114244172Y-91374580D01*
X114244172Y-91374580D02*
X114196553Y-91422200D01*
X114196553Y-91422200D02*
X114101315Y-91469819D01*
X114101315Y-91469819D02*
X113910839Y-91469819D01*
X113910839Y-91469819D02*
X113815601Y-91422200D01*
X113815601Y-91422200D02*
X113767982Y-91374580D01*
X113767982Y-91374580D02*
X113720363Y-91279342D01*
X113720363Y-91279342D02*
X113720363Y-91041247D01*
X113720363Y-91041247D02*
X113767982Y-90946009D01*
X113767982Y-90946009D02*
X113815601Y-90898390D01*
X113815601Y-90898390D02*
X113910839Y-90850771D01*
X113910839Y-90850771D02*
X114101315Y-90850771D01*
X114101315Y-90850771D02*
X114196553Y-90898390D01*
X114196553Y-90898390D02*
X114244172Y-90946009D01*
X114244172Y-90946009D02*
X114291791Y-91041247D01*
X112767982Y-91469819D02*
X113339410Y-91469819D01*
X113053696Y-91469819D02*
X113053696Y-90469819D01*
X113053696Y-90469819D02*
X113148934Y-90612676D01*
X113148934Y-90612676D02*
X113244172Y-90707914D01*
X113244172Y-90707914D02*
X113339410Y-90755533D01*
X111815601Y-91469819D02*
X112387029Y-91469819D01*
X112101315Y-91469819D02*
X112101315Y-90469819D01*
X112101315Y-90469819D02*
X112196553Y-90612676D01*
X112196553Y-90612676D02*
X112291791Y-90707914D01*
X112291791Y-90707914D02*
X112387029Y-90755533D01*
D11*
%TO.C,G\u002A\u002A\u002A*%
G36*
X106224153Y-89818892D02*
G01*
X106221851Y-89836403D01*
X106200079Y-89897058D01*
X106164205Y-89966673D01*
X106125200Y-90025456D01*
X106094036Y-90053613D01*
X106020834Y-90066172D01*
X105956780Y-90050176D01*
X105891188Y-89994513D01*
X105880507Y-89983299D01*
X105841995Y-89937987D01*
X105838324Y-89913766D01*
X105865974Y-89897030D01*
X105905535Y-89883821D01*
X105977700Y-89864581D01*
X106061596Y-89844988D01*
X106141271Y-89828522D01*
X106200774Y-89818664D01*
X106224153Y-89818892D01*
G37*
G36*
X106427902Y-89324758D02*
G01*
X106429972Y-89333148D01*
X106421240Y-89379732D01*
X106397252Y-89449501D01*
X106366135Y-89515623D01*
X106330235Y-89551514D01*
X106279257Y-89560487D01*
X106235791Y-89564343D01*
X106131657Y-89588510D01*
X106014372Y-89628252D01*
X105905384Y-89675848D01*
X105826140Y-89723579D01*
X105753284Y-89781160D01*
X105744603Y-89709445D01*
X105744240Y-89706228D01*
X105760258Y-89609541D01*
X105828951Y-89521252D01*
X105949739Y-89442115D01*
X106022911Y-89410908D01*
X106120102Y-89378440D01*
X106223394Y-89350106D01*
X106318590Y-89329392D01*
X106391491Y-89319781D01*
X106427902Y-89324758D01*
G37*
G36*
X108032955Y-88000256D02*
G01*
X108820657Y-88000618D01*
X108905478Y-88195330D01*
X108908585Y-88202436D01*
X108941901Y-88277340D01*
X108994154Y-88393492D01*
X109062309Y-88544197D01*
X109143328Y-88722763D01*
X109234176Y-88922495D01*
X109331816Y-89136701D01*
X109433211Y-89358686D01*
X109453142Y-89402275D01*
X109552527Y-89619659D01*
X109646569Y-89825398D01*
X109732428Y-90013275D01*
X109807264Y-90177076D01*
X109868238Y-90310585D01*
X109912510Y-90407586D01*
X109937240Y-90461864D01*
X109938942Y-90465609D01*
X109970865Y-90535621D01*
X110020215Y-90643600D01*
X110082364Y-90779430D01*
X110152683Y-90932993D01*
X110226541Y-91094173D01*
X110287379Y-91227000D01*
X110382036Y-91433995D01*
X110479751Y-91647993D01*
X110572015Y-91850358D01*
X110650323Y-92022457D01*
X110704635Y-92141915D01*
X110799582Y-92350460D01*
X110902497Y-92576217D01*
X111008340Y-92808153D01*
X111112072Y-93035232D01*
X111208656Y-93246422D01*
X111293051Y-93430689D01*
X111360219Y-93576997D01*
X111366849Y-93591451D01*
X111406002Y-93678620D01*
X111433615Y-93743185D01*
X111444068Y-93772072D01*
X111442535Y-93772876D01*
X111404833Y-93776075D01*
X111321634Y-93778940D01*
X111199647Y-93781360D01*
X111045578Y-93783226D01*
X110866136Y-93784427D01*
X110668028Y-93784851D01*
X109891988Y-93784851D01*
X109789004Y-93549417D01*
X109763046Y-93490704D01*
X109719548Y-93395282D01*
X109685851Y-93325158D01*
X109667659Y-93292413D01*
X109655280Y-93285894D01*
X109598335Y-93269961D01*
X109507801Y-93251176D01*
X109396418Y-93232362D01*
X108730117Y-93112324D01*
X108036084Y-92944127D01*
X107346122Y-92730810D01*
X107290781Y-92711915D01*
X107132498Y-92658244D01*
X106993045Y-92611495D01*
X106880434Y-92574321D01*
X106802677Y-92549375D01*
X106767785Y-92539310D01*
X106752232Y-92548043D01*
X106727036Y-92581922D01*
X106690952Y-92644501D01*
X106642262Y-92739243D01*
X106579252Y-92869608D01*
X106500207Y-93039057D01*
X106403409Y-93251053D01*
X106287144Y-93509057D01*
X106163430Y-93784851D01*
X105383709Y-93784851D01*
X105363978Y-93784849D01*
X105134172Y-93784309D01*
X104953166Y-93782689D01*
X104816309Y-93779782D01*
X104718951Y-93775386D01*
X104656441Y-93769296D01*
X104624129Y-93761308D01*
X104617363Y-93751218D01*
X104630252Y-93721972D01*
X104662874Y-93649705D01*
X104711930Y-93541736D01*
X104774315Y-93404885D01*
X104846925Y-93245973D01*
X104926655Y-93071822D01*
X104984501Y-92945557D01*
X105073962Y-92750183D01*
X105160954Y-92560084D01*
X105240489Y-92386172D01*
X105307574Y-92239356D01*
X105357220Y-92130547D01*
X105491868Y-91835035D01*
X105346066Y-91677552D01*
X105291687Y-91616294D01*
X105165990Y-91443386D01*
X105090352Y-91279051D01*
X105063139Y-91120068D01*
X105063145Y-91071855D01*
X105067858Y-91002296D01*
X105077078Y-90967660D01*
X105087155Y-90967641D01*
X105094321Y-91002242D01*
X105101427Y-91035671D01*
X105130079Y-91107309D01*
X105173159Y-91190825D01*
X105256006Y-91313237D01*
X105418360Y-91489644D01*
X105629360Y-91665747D01*
X105885991Y-91839990D01*
X106185240Y-92010821D01*
X106524093Y-92176684D01*
X106899535Y-92336026D01*
X107308552Y-92487293D01*
X107748130Y-92628930D01*
X108215255Y-92759383D01*
X108235638Y-92764640D01*
X108550905Y-92840413D01*
X108881635Y-92910617D01*
X109211281Y-92972150D01*
X109523297Y-93021907D01*
X109801139Y-93056787D01*
X109885291Y-93066081D01*
X109972997Y-93080023D01*
X110033009Y-93099464D01*
X110080734Y-93130022D01*
X110131576Y-93177316D01*
X110148893Y-93193878D01*
X110250538Y-93259658D01*
X110356775Y-93272808D01*
X110473425Y-93234296D01*
X110481611Y-93229639D01*
X110541031Y-93172373D01*
X110590611Y-93089896D01*
X110620397Y-93002721D01*
X110620434Y-92931360D01*
X110601694Y-92879206D01*
X110545569Y-92780170D01*
X110470985Y-92719738D01*
X110424823Y-92699929D01*
X110303454Y-92683703D01*
X110189710Y-92717161D01*
X110094384Y-92798057D01*
X110085644Y-92808784D01*
X110062904Y-92829796D01*
X110031854Y-92840660D01*
X109981231Y-92842160D01*
X109899777Y-92835079D01*
X109776228Y-92820202D01*
X109696188Y-92809840D01*
X109588800Y-92794648D01*
X109508630Y-92781708D01*
X109468792Y-92773034D01*
X109443957Y-92748414D01*
X109404025Y-92687070D01*
X109360315Y-92604137D01*
X109285823Y-92448282D01*
X109066693Y-92415266D01*
X108985364Y-92402537D01*
X108645717Y-92340610D01*
X108289944Y-92263332D01*
X107935523Y-92174988D01*
X107599931Y-92079864D01*
X107300645Y-91982244D01*
X107253118Y-91965662D01*
X107154055Y-91932731D01*
X107078667Y-91909911D01*
X107040391Y-91901377D01*
X107035178Y-91902479D01*
X107005606Y-91934038D01*
X106977543Y-91995550D01*
X106972398Y-92010342D01*
X106946615Y-92066846D01*
X106925231Y-92089724D01*
X106888360Y-92082188D01*
X106805722Y-92051960D01*
X106692320Y-92002784D01*
X106557134Y-91939150D01*
X106409147Y-91865552D01*
X106257341Y-91786481D01*
X106110696Y-91706430D01*
X105978195Y-91629890D01*
X105868819Y-91561355D01*
X105808704Y-91520293D01*
X105737028Y-91464553D01*
X105703260Y-91424403D01*
X105701269Y-91393703D01*
X105710342Y-91371319D01*
X105725791Y-91314872D01*
X105721163Y-91263360D01*
X105691743Y-91206264D01*
X105632813Y-91133065D01*
X105539659Y-91033244D01*
X105453769Y-90945054D01*
X105391983Y-90886566D01*
X105352434Y-90858209D01*
X105328030Y-90854962D01*
X105311680Y-90871804D01*
X105308202Y-90877431D01*
X105294047Y-90885757D01*
X105287319Y-90851696D01*
X105286641Y-90769635D01*
X105286418Y-90709766D01*
X105281631Y-90623527D01*
X105272811Y-90567834D01*
X105268159Y-90509760D01*
X105280529Y-90434957D01*
X105283734Y-90424740D01*
X105299416Y-90390834D01*
X105307010Y-90402396D01*
X105326973Y-90478770D01*
X105378319Y-90580820D01*
X105452750Y-90692430D01*
X105542051Y-90799713D01*
X105709127Y-90953617D01*
X105933619Y-91115753D01*
X106201889Y-91275029D01*
X106508778Y-91429506D01*
X106849127Y-91577246D01*
X107217777Y-91716310D01*
X107609569Y-91844760D01*
X108019344Y-91960656D01*
X108441944Y-92062062D01*
X108872208Y-92147038D01*
X109304979Y-92213645D01*
X109306836Y-92213889D01*
X109447693Y-92233657D01*
X109545820Y-92251381D01*
X109611939Y-92270088D01*
X109656770Y-92292800D01*
X109691036Y-92322543D01*
X109721185Y-92351211D01*
X109827440Y-92413945D01*
X109936976Y-92431387D01*
X110039713Y-92407394D01*
X110125574Y-92345821D01*
X110184481Y-92250525D01*
X110206356Y-92125362D01*
X110202102Y-92053598D01*
X110178196Y-91988033D01*
X110122791Y-91925625D01*
X110055189Y-91876726D01*
X109942848Y-91843808D01*
X109828350Y-91861017D01*
X109722034Y-91928283D01*
X109700392Y-91947593D01*
X109648740Y-91982922D01*
X109589644Y-92002512D01*
X109511785Y-92007593D01*
X109403846Y-91999399D01*
X109254508Y-91979160D01*
X109053851Y-91949316D01*
X108987678Y-91797539D01*
X108921505Y-91645762D01*
X108588560Y-91582733D01*
X108492737Y-91563992D01*
X108276480Y-91518034D01*
X108053904Y-91466430D01*
X107836868Y-91412202D01*
X107637231Y-91358371D01*
X107466852Y-91307959D01*
X107337589Y-91263988D01*
X107327813Y-91264931D01*
X107296845Y-91297116D01*
X107264465Y-91360089D01*
X107253815Y-91386149D01*
X107225998Y-91438832D01*
X107195311Y-91454996D01*
X107146580Y-91445655D01*
X107095862Y-91428873D01*
X106976883Y-91382343D01*
X106829283Y-91318589D01*
X106664872Y-91243097D01*
X106495460Y-91161347D01*
X106332858Y-91078824D01*
X106188876Y-91001012D01*
X106113669Y-90958022D01*
X106031928Y-90907498D01*
X105985716Y-90870751D01*
X105967492Y-90841300D01*
X105969713Y-90812664D01*
X105980100Y-90777418D01*
X105991343Y-90676900D01*
X105963875Y-90613227D01*
X105898429Y-90587295D01*
X105795734Y-90599996D01*
X105789275Y-90601708D01*
X105719065Y-90615559D01*
X105674722Y-90606551D01*
X105633146Y-90570494D01*
X105623282Y-90559758D01*
X105584438Y-90502248D01*
X105592615Y-90460860D01*
X105648980Y-90424886D01*
X105694685Y-90401304D01*
X105702023Y-90376889D01*
X105669446Y-90333120D01*
X105633001Y-90288976D01*
X105612475Y-90262470D01*
X105590975Y-90269537D01*
X105547621Y-90302830D01*
X105489615Y-90354237D01*
X105507096Y-90222674D01*
X105510917Y-90190620D01*
X105520669Y-90069954D01*
X105524577Y-89955050D01*
X105524577Y-89818989D01*
X105593631Y-89957562D01*
X105599398Y-89968856D01*
X105706832Y-90124895D01*
X105864469Y-90281243D01*
X106068982Y-90436195D01*
X106317045Y-90588042D01*
X106605330Y-90735077D01*
X106930512Y-90875593D01*
X107289265Y-91007883D01*
X107678261Y-91130239D01*
X108094174Y-91240954D01*
X108177840Y-91260724D01*
X108347147Y-91297928D01*
X108527528Y-91334625D01*
X108708394Y-91368915D01*
X108879150Y-91398895D01*
X109029205Y-91422664D01*
X109147967Y-91438320D01*
X109224844Y-91443961D01*
X109268496Y-91449669D01*
X109291526Y-91467199D01*
X109292320Y-91471462D01*
X109316041Y-91509249D01*
X109362462Y-91561373D01*
X109446413Y-91616487D01*
X109555697Y-91637624D01*
X109665495Y-91617310D01*
X109758371Y-91555789D01*
X109762117Y-91551820D01*
X109829490Y-91443739D01*
X109846158Y-91324025D01*
X109810769Y-91201800D01*
X109807582Y-91195798D01*
X109735038Y-91113457D01*
X109636704Y-91067201D01*
X109527073Y-91058351D01*
X109420636Y-91088228D01*
X109331886Y-91158153D01*
X109278073Y-91222943D01*
X108982903Y-91178036D01*
X108687733Y-91133129D01*
X108538941Y-90809682D01*
X108530700Y-90791764D01*
X108459514Y-90636688D01*
X108376939Y-90456414D01*
X108292565Y-90271895D01*
X108215982Y-90104082D01*
X108180101Y-90026172D01*
X108122913Y-89905583D01*
X108075047Y-89809116D01*
X108040694Y-89745115D01*
X108024046Y-89721927D01*
X108012342Y-89729271D01*
X107992145Y-89769014D01*
X107982407Y-89794417D01*
X107952879Y-89863081D01*
X107908343Y-89962952D01*
X107852929Y-90085113D01*
X107790769Y-90220650D01*
X107725992Y-90360645D01*
X107662727Y-90496182D01*
X107605106Y-90618347D01*
X107557259Y-90718222D01*
X107523315Y-90786892D01*
X107507406Y-90815440D01*
X107505263Y-90816888D01*
X107464355Y-90814593D01*
X107384414Y-90792543D01*
X107273558Y-90754256D01*
X107139905Y-90703249D01*
X106991573Y-90643041D01*
X106836680Y-90577147D01*
X106683344Y-90509087D01*
X106539683Y-90442378D01*
X106413816Y-90380537D01*
X106313860Y-90327082D01*
X106247933Y-90285530D01*
X106224153Y-90259400D01*
X106232073Y-90236218D01*
X106259704Y-90169479D01*
X106304296Y-90066497D01*
X106362859Y-89934084D01*
X106432402Y-89779054D01*
X106509936Y-89608217D01*
X106559318Y-89499990D01*
X106646849Y-89308074D01*
X106732108Y-89121048D01*
X106810076Y-88949929D01*
X106875731Y-88805731D01*
X106924055Y-88699470D01*
X106961890Y-88616319D01*
X107029623Y-88467964D01*
X107095287Y-88324671D01*
X107148822Y-88208421D01*
X107245252Y-87999894D01*
X108032955Y-88000256D01*
G37*
%TD*%
M02*
