M48
; DRILL file KiCad 10.0.4 date 2026-09-15T11:30:16
; FORMAT={-:-/ absolute / metric / decimal}
; #@! TF.CreationDate,2026-09-15T11:30:16+03:00
; #@! TF.GenerationSoftware,Kicad,Pcbnew,10.0.4
; #@! TF.FileFunction,Plated,1,2,PTH
FMAT,2
METRIC
; #@! TA.AperFunction,Plated,PTH,ViaDrill
T1C0.300
; #@! TA.AperFunction,Plated,PTH,ComponentDrill
T2C0.800
; #@! TA.AperFunction,Plated,PTH,ComponentDrill
T3C1.000
%
G90
G05
T1
X114.75Y-118.24
X116.25Y-132.5
X117.0Y-110.75
X118.0Y-119.25
X119.5Y-126.75
X125.0Y-127.25
X128.0Y-113.25
X130.75Y-116.75
X131.25Y-101.25
X131.75Y-96.5
X137.5Y-94.75
X139.5Y-94.0
X139.5Y-96.75
X148.25Y-96.75
T2
X106.31Y-125.0
X111.19Y-125.0
T3
X98.5Y-98.94
X98.5Y-101.48
X98.5Y-104.02
X98.5Y-106.56
X98.5Y-113.75
X98.5Y-116.29
X98.5Y-118.83
X98.5Y-121.37
X98.5Y-123.91
X98.5Y-126.45
X98.5Y-128.99
X98.5Y-131.53
X98.5Y-134.07
X119.9Y-132.5
X122.44Y-132.5
X124.98Y-132.5
X127.52Y-132.5
X130.06Y-132.5
X132.5Y-91.75
X132.6Y-132.5
X135.04Y-91.75
X137.58Y-91.75
X140.12Y-91.75
X153.25Y-116.485
X153.25Y-119.025
M30
