%TF.GenerationSoftware,KiCad,Pcbnew,10.0.4*%
%TF.CreationDate,2026-09-15T11:26:03+03:00*%
%TF.ProjectId,AVR microcontroller,41565220-6d69-4637-926f-636f6e74726f,rev?*%
%TF.SameCoordinates,Original*%
%TF.FileFunction,Legend,Top*%
%TF.FilePolarity,Positive*%
%FSLAX46Y46*%
G04 Gerber Fmt 4.6, Leading zero omitted, Abs format (unit mm)*
G04 Created by KiCad (PCBNEW 10.0.4) date 2026-09-15 11:26:03*
%MOMM*%
%LPD*%
G01*
G04 APERTURE LIST*
%ADD10C,0.080000*%
%ADD11C,0.150000*%
%ADD12C,0.120000*%
%ADD13C,0.000000*%
G04 APERTURE END LIST*
D10*
X94628821Y-98847935D02*
X94895488Y-99647935D01*
X94895488Y-99647935D02*
X95162154Y-98847935D01*
X95885964Y-99571744D02*
X95847868Y-99609840D01*
X95847868Y-99609840D02*
X95733583Y-99647935D01*
X95733583Y-99647935D02*
X95657392Y-99647935D01*
X95657392Y-99647935D02*
X95543106Y-99609840D01*
X95543106Y-99609840D02*
X95466916Y-99533649D01*
X95466916Y-99533649D02*
X95428821Y-99457459D01*
X95428821Y-99457459D02*
X95390725Y-99305078D01*
X95390725Y-99305078D02*
X95390725Y-99190792D01*
X95390725Y-99190792D02*
X95428821Y-99038411D01*
X95428821Y-99038411D02*
X95466916Y-98962220D01*
X95466916Y-98962220D02*
X95543106Y-98886030D01*
X95543106Y-98886030D02*
X95657392Y-98847935D01*
X95657392Y-98847935D02*
X95733583Y-98847935D01*
X95733583Y-98847935D02*
X95847868Y-98886030D01*
X95847868Y-98886030D02*
X95885964Y-98924125D01*
X96685964Y-99571744D02*
X96647868Y-99609840D01*
X96647868Y-99609840D02*
X96533583Y-99647935D01*
X96533583Y-99647935D02*
X96457392Y-99647935D01*
X96457392Y-99647935D02*
X96343106Y-99609840D01*
X96343106Y-99609840D02*
X96266916Y-99533649D01*
X96266916Y-99533649D02*
X96228821Y-99457459D01*
X96228821Y-99457459D02*
X96190725Y-99305078D01*
X96190725Y-99305078D02*
X96190725Y-99190792D01*
X96190725Y-99190792D02*
X96228821Y-99038411D01*
X96228821Y-99038411D02*
X96266916Y-98962220D01*
X96266916Y-98962220D02*
X96343106Y-98886030D01*
X96343106Y-98886030D02*
X96457392Y-98847935D01*
X96457392Y-98847935D02*
X96533583Y-98847935D01*
X96533583Y-98847935D02*
X96647868Y-98886030D01*
X96647868Y-98886030D02*
X96685964Y-98924125D01*
X95162154Y-101136030D02*
X95085964Y-101097935D01*
X95085964Y-101097935D02*
X94971678Y-101097935D01*
X94971678Y-101097935D02*
X94857392Y-101136030D01*
X94857392Y-101136030D02*
X94781202Y-101212220D01*
X94781202Y-101212220D02*
X94743107Y-101288411D01*
X94743107Y-101288411D02*
X94705011Y-101440792D01*
X94705011Y-101440792D02*
X94705011Y-101555078D01*
X94705011Y-101555078D02*
X94743107Y-101707459D01*
X94743107Y-101707459D02*
X94781202Y-101783649D01*
X94781202Y-101783649D02*
X94857392Y-101859840D01*
X94857392Y-101859840D02*
X94971678Y-101897935D01*
X94971678Y-101897935D02*
X95047869Y-101897935D01*
X95047869Y-101897935D02*
X95162154Y-101859840D01*
X95162154Y-101859840D02*
X95200250Y-101821744D01*
X95200250Y-101821744D02*
X95200250Y-101555078D01*
X95200250Y-101555078D02*
X95047869Y-101555078D01*
X95543107Y-101897935D02*
X95543107Y-101097935D01*
X95543107Y-101097935D02*
X96000250Y-101897935D01*
X96000250Y-101897935D02*
X96000250Y-101097935D01*
X96381202Y-101897935D02*
X96381202Y-101097935D01*
X96381202Y-101097935D02*
X96571678Y-101097935D01*
X96571678Y-101097935D02*
X96685964Y-101136030D01*
X96685964Y-101136030D02*
X96762154Y-101212220D01*
X96762154Y-101212220D02*
X96800249Y-101288411D01*
X96800249Y-101288411D02*
X96838345Y-101440792D01*
X96838345Y-101440792D02*
X96838345Y-101555078D01*
X96838345Y-101555078D02*
X96800249Y-101707459D01*
X96800249Y-101707459D02*
X96762154Y-101783649D01*
X96762154Y-101783649D02*
X96685964Y-101859840D01*
X96685964Y-101859840D02*
X96571678Y-101897935D01*
X96571678Y-101897935D02*
X96381202Y-101897935D01*
X95162154Y-131136030D02*
X95085964Y-131097935D01*
X95085964Y-131097935D02*
X94971678Y-131097935D01*
X94971678Y-131097935D02*
X94857392Y-131136030D01*
X94857392Y-131136030D02*
X94781202Y-131212220D01*
X94781202Y-131212220D02*
X94743107Y-131288411D01*
X94743107Y-131288411D02*
X94705011Y-131440792D01*
X94705011Y-131440792D02*
X94705011Y-131555078D01*
X94705011Y-131555078D02*
X94743107Y-131707459D01*
X94743107Y-131707459D02*
X94781202Y-131783649D01*
X94781202Y-131783649D02*
X94857392Y-131859840D01*
X94857392Y-131859840D02*
X94971678Y-131897935D01*
X94971678Y-131897935D02*
X95047869Y-131897935D01*
X95047869Y-131897935D02*
X95162154Y-131859840D01*
X95162154Y-131859840D02*
X95200250Y-131821744D01*
X95200250Y-131821744D02*
X95200250Y-131555078D01*
X95200250Y-131555078D02*
X95047869Y-131555078D01*
X95543107Y-131897935D02*
X95543107Y-131097935D01*
X95543107Y-131097935D02*
X96000250Y-131897935D01*
X96000250Y-131897935D02*
X96000250Y-131097935D01*
X96381202Y-131897935D02*
X96381202Y-131097935D01*
X96381202Y-131097935D02*
X96571678Y-131097935D01*
X96571678Y-131097935D02*
X96685964Y-131136030D01*
X96685964Y-131136030D02*
X96762154Y-131212220D01*
X96762154Y-131212220D02*
X96800249Y-131288411D01*
X96800249Y-131288411D02*
X96838345Y-131440792D01*
X96838345Y-131440792D02*
X96838345Y-131555078D01*
X96838345Y-131555078D02*
X96800249Y-131707459D01*
X96800249Y-131707459D02*
X96762154Y-131783649D01*
X96762154Y-131783649D02*
X96685964Y-131859840D01*
X96685964Y-131859840D02*
X96571678Y-131897935D01*
X96571678Y-131897935D02*
X96381202Y-131897935D01*
X94628821Y-133847935D02*
X94895488Y-134647935D01*
X94895488Y-134647935D02*
X95162154Y-133847935D01*
X95885964Y-134571744D02*
X95847868Y-134609840D01*
X95847868Y-134609840D02*
X95733583Y-134647935D01*
X95733583Y-134647935D02*
X95657392Y-134647935D01*
X95657392Y-134647935D02*
X95543106Y-134609840D01*
X95543106Y-134609840D02*
X95466916Y-134533649D01*
X95466916Y-134533649D02*
X95428821Y-134457459D01*
X95428821Y-134457459D02*
X95390725Y-134305078D01*
X95390725Y-134305078D02*
X95390725Y-134190792D01*
X95390725Y-134190792D02*
X95428821Y-134038411D01*
X95428821Y-134038411D02*
X95466916Y-133962220D01*
X95466916Y-133962220D02*
X95543106Y-133886030D01*
X95543106Y-133886030D02*
X95657392Y-133847935D01*
X95657392Y-133847935D02*
X95733583Y-133847935D01*
X95733583Y-133847935D02*
X95847868Y-133886030D01*
X95847868Y-133886030D02*
X95885964Y-133924125D01*
X96685964Y-134571744D02*
X96647868Y-134609840D01*
X96647868Y-134609840D02*
X96533583Y-134647935D01*
X96533583Y-134647935D02*
X96457392Y-134647935D01*
X96457392Y-134647935D02*
X96343106Y-134609840D01*
X96343106Y-134609840D02*
X96266916Y-134533649D01*
X96266916Y-134533649D02*
X96228821Y-134457459D01*
X96228821Y-134457459D02*
X96190725Y-134305078D01*
X96190725Y-134305078D02*
X96190725Y-134190792D01*
X96190725Y-134190792D02*
X96228821Y-134038411D01*
X96228821Y-134038411D02*
X96266916Y-133962220D01*
X96266916Y-133962220D02*
X96343106Y-133886030D01*
X96343106Y-133886030D02*
X96457392Y-133847935D01*
X96457392Y-133847935D02*
X96533583Y-133847935D01*
X96533583Y-133847935D02*
X96647868Y-133886030D01*
X96647868Y-133886030D02*
X96685964Y-133924125D01*
X95450250Y-104647935D02*
X95183583Y-104266982D01*
X94993107Y-104647935D02*
X94993107Y-103847935D01*
X94993107Y-103847935D02*
X95297869Y-103847935D01*
X95297869Y-103847935D02*
X95374059Y-103886030D01*
X95374059Y-103886030D02*
X95412154Y-103924125D01*
X95412154Y-103924125D02*
X95450250Y-104000316D01*
X95450250Y-104000316D02*
X95450250Y-104114601D01*
X95450250Y-104114601D02*
X95412154Y-104190792D01*
X95412154Y-104190792D02*
X95374059Y-104228887D01*
X95374059Y-104228887D02*
X95297869Y-104266982D01*
X95297869Y-104266982D02*
X94993107Y-104266982D01*
X95716916Y-103847935D02*
X96250250Y-104647935D01*
X96250250Y-103847935D02*
X95716916Y-104647935D01*
X95128821Y-106097935D02*
X95585964Y-106097935D01*
X95357392Y-106897935D02*
X95357392Y-106097935D01*
X95776440Y-106097935D02*
X96309774Y-106897935D01*
X96309774Y-106097935D02*
X95776440Y-106897935D01*
X95243107Y-114147935D02*
X95243107Y-113347935D01*
X95243107Y-113347935D02*
X95433583Y-113347935D01*
X95433583Y-113347935D02*
X95547869Y-113386030D01*
X95547869Y-113386030D02*
X95624059Y-113462220D01*
X95624059Y-113462220D02*
X95662154Y-113538411D01*
X95662154Y-113538411D02*
X95700250Y-113690792D01*
X95700250Y-113690792D02*
X95700250Y-113805078D01*
X95700250Y-113805078D02*
X95662154Y-113957459D01*
X95662154Y-113957459D02*
X95624059Y-114033649D01*
X95624059Y-114033649D02*
X95547869Y-114109840D01*
X95547869Y-114109840D02*
X95433583Y-114147935D01*
X95433583Y-114147935D02*
X95243107Y-114147935D01*
X96005011Y-113424125D02*
X96043107Y-113386030D01*
X96043107Y-113386030D02*
X96119297Y-113347935D01*
X96119297Y-113347935D02*
X96309773Y-113347935D01*
X96309773Y-113347935D02*
X96385964Y-113386030D01*
X96385964Y-113386030D02*
X96424059Y-113424125D01*
X96424059Y-113424125D02*
X96462154Y-113500316D01*
X96462154Y-113500316D02*
X96462154Y-113576506D01*
X96462154Y-113576506D02*
X96424059Y-113690792D01*
X96424059Y-113690792D02*
X95966916Y-114147935D01*
X95966916Y-114147935D02*
X96462154Y-114147935D01*
X95243107Y-116647935D02*
X95243107Y-115847935D01*
X95243107Y-115847935D02*
X95433583Y-115847935D01*
X95433583Y-115847935D02*
X95547869Y-115886030D01*
X95547869Y-115886030D02*
X95624059Y-115962220D01*
X95624059Y-115962220D02*
X95662154Y-116038411D01*
X95662154Y-116038411D02*
X95700250Y-116190792D01*
X95700250Y-116190792D02*
X95700250Y-116305078D01*
X95700250Y-116305078D02*
X95662154Y-116457459D01*
X95662154Y-116457459D02*
X95624059Y-116533649D01*
X95624059Y-116533649D02*
X95547869Y-116609840D01*
X95547869Y-116609840D02*
X95433583Y-116647935D01*
X95433583Y-116647935D02*
X95243107Y-116647935D01*
X95966916Y-115847935D02*
X96462154Y-115847935D01*
X96462154Y-115847935D02*
X96195488Y-116152697D01*
X96195488Y-116152697D02*
X96309773Y-116152697D01*
X96309773Y-116152697D02*
X96385964Y-116190792D01*
X96385964Y-116190792D02*
X96424059Y-116228887D01*
X96424059Y-116228887D02*
X96462154Y-116305078D01*
X96462154Y-116305078D02*
X96462154Y-116495554D01*
X96462154Y-116495554D02*
X96424059Y-116571744D01*
X96424059Y-116571744D02*
X96385964Y-116609840D01*
X96385964Y-116609840D02*
X96309773Y-116647935D01*
X96309773Y-116647935D02*
X96081202Y-116647935D01*
X96081202Y-116647935D02*
X96005011Y-116609840D01*
X96005011Y-116609840D02*
X95966916Y-116571744D01*
X95243107Y-119397935D02*
X95243107Y-118597935D01*
X95243107Y-118597935D02*
X95433583Y-118597935D01*
X95433583Y-118597935D02*
X95547869Y-118636030D01*
X95547869Y-118636030D02*
X95624059Y-118712220D01*
X95624059Y-118712220D02*
X95662154Y-118788411D01*
X95662154Y-118788411D02*
X95700250Y-118940792D01*
X95700250Y-118940792D02*
X95700250Y-119055078D01*
X95700250Y-119055078D02*
X95662154Y-119207459D01*
X95662154Y-119207459D02*
X95624059Y-119283649D01*
X95624059Y-119283649D02*
X95547869Y-119359840D01*
X95547869Y-119359840D02*
X95433583Y-119397935D01*
X95433583Y-119397935D02*
X95243107Y-119397935D01*
X96385964Y-118864601D02*
X96385964Y-119397935D01*
X96195488Y-118559840D02*
X96005011Y-119131268D01*
X96005011Y-119131268D02*
X96500250Y-119131268D01*
X95243107Y-121647935D02*
X95243107Y-120847935D01*
X95243107Y-120847935D02*
X95433583Y-120847935D01*
X95433583Y-120847935D02*
X95547869Y-120886030D01*
X95547869Y-120886030D02*
X95624059Y-120962220D01*
X95624059Y-120962220D02*
X95662154Y-121038411D01*
X95662154Y-121038411D02*
X95700250Y-121190792D01*
X95700250Y-121190792D02*
X95700250Y-121305078D01*
X95700250Y-121305078D02*
X95662154Y-121457459D01*
X95662154Y-121457459D02*
X95624059Y-121533649D01*
X95624059Y-121533649D02*
X95547869Y-121609840D01*
X95547869Y-121609840D02*
X95433583Y-121647935D01*
X95433583Y-121647935D02*
X95243107Y-121647935D01*
X96424059Y-120847935D02*
X96043107Y-120847935D01*
X96043107Y-120847935D02*
X96005011Y-121228887D01*
X96005011Y-121228887D02*
X96043107Y-121190792D01*
X96043107Y-121190792D02*
X96119297Y-121152697D01*
X96119297Y-121152697D02*
X96309773Y-121152697D01*
X96309773Y-121152697D02*
X96385964Y-121190792D01*
X96385964Y-121190792D02*
X96424059Y-121228887D01*
X96424059Y-121228887D02*
X96462154Y-121305078D01*
X96462154Y-121305078D02*
X96462154Y-121495554D01*
X96462154Y-121495554D02*
X96424059Y-121571744D01*
X96424059Y-121571744D02*
X96385964Y-121609840D01*
X96385964Y-121609840D02*
X96309773Y-121647935D01*
X96309773Y-121647935D02*
X96119297Y-121647935D01*
X96119297Y-121647935D02*
X96043107Y-121609840D01*
X96043107Y-121609840D02*
X96005011Y-121571744D01*
X95243107Y-124147935D02*
X95243107Y-123347935D01*
X95243107Y-123347935D02*
X95433583Y-123347935D01*
X95433583Y-123347935D02*
X95547869Y-123386030D01*
X95547869Y-123386030D02*
X95624059Y-123462220D01*
X95624059Y-123462220D02*
X95662154Y-123538411D01*
X95662154Y-123538411D02*
X95700250Y-123690792D01*
X95700250Y-123690792D02*
X95700250Y-123805078D01*
X95700250Y-123805078D02*
X95662154Y-123957459D01*
X95662154Y-123957459D02*
X95624059Y-124033649D01*
X95624059Y-124033649D02*
X95547869Y-124109840D01*
X95547869Y-124109840D02*
X95433583Y-124147935D01*
X95433583Y-124147935D02*
X95243107Y-124147935D01*
X96385964Y-123347935D02*
X96233583Y-123347935D01*
X96233583Y-123347935D02*
X96157392Y-123386030D01*
X96157392Y-123386030D02*
X96119297Y-123424125D01*
X96119297Y-123424125D02*
X96043107Y-123538411D01*
X96043107Y-123538411D02*
X96005011Y-123690792D01*
X96005011Y-123690792D02*
X96005011Y-123995554D01*
X96005011Y-123995554D02*
X96043107Y-124071744D01*
X96043107Y-124071744D02*
X96081202Y-124109840D01*
X96081202Y-124109840D02*
X96157392Y-124147935D01*
X96157392Y-124147935D02*
X96309773Y-124147935D01*
X96309773Y-124147935D02*
X96385964Y-124109840D01*
X96385964Y-124109840D02*
X96424059Y-124071744D01*
X96424059Y-124071744D02*
X96462154Y-123995554D01*
X96462154Y-123995554D02*
X96462154Y-123805078D01*
X96462154Y-123805078D02*
X96424059Y-123728887D01*
X96424059Y-123728887D02*
X96385964Y-123690792D01*
X96385964Y-123690792D02*
X96309773Y-123652697D01*
X96309773Y-123652697D02*
X96157392Y-123652697D01*
X96157392Y-123652697D02*
X96081202Y-123690792D01*
X96081202Y-123690792D02*
X96043107Y-123728887D01*
X96043107Y-123728887D02*
X96005011Y-123805078D01*
X95243107Y-126897935D02*
X95243107Y-126097935D01*
X95243107Y-126097935D02*
X95433583Y-126097935D01*
X95433583Y-126097935D02*
X95547869Y-126136030D01*
X95547869Y-126136030D02*
X95624059Y-126212220D01*
X95624059Y-126212220D02*
X95662154Y-126288411D01*
X95662154Y-126288411D02*
X95700250Y-126440792D01*
X95700250Y-126440792D02*
X95700250Y-126555078D01*
X95700250Y-126555078D02*
X95662154Y-126707459D01*
X95662154Y-126707459D02*
X95624059Y-126783649D01*
X95624059Y-126783649D02*
X95547869Y-126859840D01*
X95547869Y-126859840D02*
X95433583Y-126897935D01*
X95433583Y-126897935D02*
X95243107Y-126897935D01*
X95966916Y-126097935D02*
X96500250Y-126097935D01*
X96500250Y-126097935D02*
X96157392Y-126897935D01*
X95243107Y-129397935D02*
X95243107Y-128597935D01*
X95243107Y-128597935D02*
X95433583Y-128597935D01*
X95433583Y-128597935D02*
X95547869Y-128636030D01*
X95547869Y-128636030D02*
X95624059Y-128712220D01*
X95624059Y-128712220D02*
X95662154Y-128788411D01*
X95662154Y-128788411D02*
X95700250Y-128940792D01*
X95700250Y-128940792D02*
X95700250Y-129055078D01*
X95700250Y-129055078D02*
X95662154Y-129207459D01*
X95662154Y-129207459D02*
X95624059Y-129283649D01*
X95624059Y-129283649D02*
X95547869Y-129359840D01*
X95547869Y-129359840D02*
X95433583Y-129397935D01*
X95433583Y-129397935D02*
X95243107Y-129397935D01*
X96157392Y-128940792D02*
X96081202Y-128902697D01*
X96081202Y-128902697D02*
X96043107Y-128864601D01*
X96043107Y-128864601D02*
X96005011Y-128788411D01*
X96005011Y-128788411D02*
X96005011Y-128750316D01*
X96005011Y-128750316D02*
X96043107Y-128674125D01*
X96043107Y-128674125D02*
X96081202Y-128636030D01*
X96081202Y-128636030D02*
X96157392Y-128597935D01*
X96157392Y-128597935D02*
X96309773Y-128597935D01*
X96309773Y-128597935D02*
X96385964Y-128636030D01*
X96385964Y-128636030D02*
X96424059Y-128674125D01*
X96424059Y-128674125D02*
X96462154Y-128750316D01*
X96462154Y-128750316D02*
X96462154Y-128788411D01*
X96462154Y-128788411D02*
X96424059Y-128864601D01*
X96424059Y-128864601D02*
X96385964Y-128902697D01*
X96385964Y-128902697D02*
X96309773Y-128940792D01*
X96309773Y-128940792D02*
X96157392Y-128940792D01*
X96157392Y-128940792D02*
X96081202Y-128978887D01*
X96081202Y-128978887D02*
X96043107Y-129016982D01*
X96043107Y-129016982D02*
X96005011Y-129093173D01*
X96005011Y-129093173D02*
X96005011Y-129245554D01*
X96005011Y-129245554D02*
X96043107Y-129321744D01*
X96043107Y-129321744D02*
X96081202Y-129359840D01*
X96081202Y-129359840D02*
X96157392Y-129397935D01*
X96157392Y-129397935D02*
X96309773Y-129397935D01*
X96309773Y-129397935D02*
X96385964Y-129359840D01*
X96385964Y-129359840D02*
X96424059Y-129321744D01*
X96424059Y-129321744D02*
X96462154Y-129245554D01*
X96462154Y-129245554D02*
X96462154Y-129093173D01*
X96462154Y-129093173D02*
X96424059Y-129016982D01*
X96424059Y-129016982D02*
X96385964Y-128978887D01*
X96385964Y-128978887D02*
X96309773Y-128940792D01*
X96993107Y-108597935D02*
X96993107Y-109245554D01*
X96993107Y-109245554D02*
X97031202Y-109321744D01*
X97031202Y-109321744D02*
X97069297Y-109359840D01*
X97069297Y-109359840D02*
X97145488Y-109397935D01*
X97145488Y-109397935D02*
X97297869Y-109397935D01*
X97297869Y-109397935D02*
X97374059Y-109359840D01*
X97374059Y-109359840D02*
X97412154Y-109321744D01*
X97412154Y-109321744D02*
X97450250Y-109245554D01*
X97450250Y-109245554D02*
X97450250Y-108597935D01*
X97793106Y-109169363D02*
X98174059Y-109169363D01*
X97716916Y-109397935D02*
X97983583Y-108597935D01*
X97983583Y-108597935D02*
X98250249Y-109397935D01*
X98974059Y-109397935D02*
X98707392Y-109016982D01*
X98516916Y-109397935D02*
X98516916Y-108597935D01*
X98516916Y-108597935D02*
X98821678Y-108597935D01*
X98821678Y-108597935D02*
X98897868Y-108636030D01*
X98897868Y-108636030D02*
X98935963Y-108674125D01*
X98935963Y-108674125D02*
X98974059Y-108750316D01*
X98974059Y-108750316D02*
X98974059Y-108864601D01*
X98974059Y-108864601D02*
X98935963Y-108940792D01*
X98935963Y-108940792D02*
X98897868Y-108978887D01*
X98897868Y-108978887D02*
X98821678Y-109016982D01*
X98821678Y-109016982D02*
X98516916Y-109016982D01*
X99202630Y-108597935D02*
X99659773Y-108597935D01*
X99431201Y-109397935D02*
X99431201Y-108597935D01*
X97662154Y-136136030D02*
X97585964Y-136097935D01*
X97585964Y-136097935D02*
X97471678Y-136097935D01*
X97471678Y-136097935D02*
X97357392Y-136136030D01*
X97357392Y-136136030D02*
X97281202Y-136212220D01*
X97281202Y-136212220D02*
X97243107Y-136288411D01*
X97243107Y-136288411D02*
X97205011Y-136440792D01*
X97205011Y-136440792D02*
X97205011Y-136555078D01*
X97205011Y-136555078D02*
X97243107Y-136707459D01*
X97243107Y-136707459D02*
X97281202Y-136783649D01*
X97281202Y-136783649D02*
X97357392Y-136859840D01*
X97357392Y-136859840D02*
X97471678Y-136897935D01*
X97471678Y-136897935D02*
X97547869Y-136897935D01*
X97547869Y-136897935D02*
X97662154Y-136859840D01*
X97662154Y-136859840D02*
X97700250Y-136821744D01*
X97700250Y-136821744D02*
X97700250Y-136555078D01*
X97700250Y-136555078D02*
X97547869Y-136555078D01*
X98043107Y-136897935D02*
X98043107Y-136097935D01*
X98043107Y-136097935D02*
X98347869Y-136097935D01*
X98347869Y-136097935D02*
X98424059Y-136136030D01*
X98424059Y-136136030D02*
X98462154Y-136174125D01*
X98462154Y-136174125D02*
X98500250Y-136250316D01*
X98500250Y-136250316D02*
X98500250Y-136364601D01*
X98500250Y-136364601D02*
X98462154Y-136440792D01*
X98462154Y-136440792D02*
X98424059Y-136478887D01*
X98424059Y-136478887D02*
X98347869Y-136516982D01*
X98347869Y-136516982D02*
X98043107Y-136516982D01*
X98843107Y-136897935D02*
X98843107Y-136097935D01*
X99376440Y-136097935D02*
X99528821Y-136097935D01*
X99528821Y-136097935D02*
X99605011Y-136136030D01*
X99605011Y-136136030D02*
X99681202Y-136212220D01*
X99681202Y-136212220D02*
X99719297Y-136364601D01*
X99719297Y-136364601D02*
X99719297Y-136631268D01*
X99719297Y-136631268D02*
X99681202Y-136783649D01*
X99681202Y-136783649D02*
X99605011Y-136859840D01*
X99605011Y-136859840D02*
X99528821Y-136897935D01*
X99528821Y-136897935D02*
X99376440Y-136897935D01*
X99376440Y-136897935D02*
X99300249Y-136859840D01*
X99300249Y-136859840D02*
X99224059Y-136783649D01*
X99224059Y-136783649D02*
X99185963Y-136631268D01*
X99185963Y-136631268D02*
X99185963Y-136364601D01*
X99185963Y-136364601D02*
X99224059Y-136212220D01*
X99224059Y-136212220D02*
X99300249Y-136136030D01*
X99300249Y-136136030D02*
X99376440Y-136097935D01*
X147300250Y-132897935D02*
X147033583Y-132516982D01*
X146843107Y-132897935D02*
X146843107Y-132097935D01*
X146843107Y-132097935D02*
X147147869Y-132097935D01*
X147147869Y-132097935D02*
X147224059Y-132136030D01*
X147224059Y-132136030D02*
X147262154Y-132174125D01*
X147262154Y-132174125D02*
X147300250Y-132250316D01*
X147300250Y-132250316D02*
X147300250Y-132364601D01*
X147300250Y-132364601D02*
X147262154Y-132440792D01*
X147262154Y-132440792D02*
X147224059Y-132478887D01*
X147224059Y-132478887D02*
X147147869Y-132516982D01*
X147147869Y-132516982D02*
X146843107Y-132516982D01*
X147643107Y-132478887D02*
X147909773Y-132478887D01*
X148024059Y-132897935D02*
X147643107Y-132897935D01*
X147643107Y-132897935D02*
X147643107Y-132097935D01*
X147643107Y-132097935D02*
X148024059Y-132097935D01*
X148328821Y-132859840D02*
X148443107Y-132897935D01*
X148443107Y-132897935D02*
X148633583Y-132897935D01*
X148633583Y-132897935D02*
X148709774Y-132859840D01*
X148709774Y-132859840D02*
X148747869Y-132821744D01*
X148747869Y-132821744D02*
X148785964Y-132745554D01*
X148785964Y-132745554D02*
X148785964Y-132669363D01*
X148785964Y-132669363D02*
X148747869Y-132593173D01*
X148747869Y-132593173D02*
X148709774Y-132555078D01*
X148709774Y-132555078D02*
X148633583Y-132516982D01*
X148633583Y-132516982D02*
X148481202Y-132478887D01*
X148481202Y-132478887D02*
X148405012Y-132440792D01*
X148405012Y-132440792D02*
X148366917Y-132402697D01*
X148366917Y-132402697D02*
X148328821Y-132326506D01*
X148328821Y-132326506D02*
X148328821Y-132250316D01*
X148328821Y-132250316D02*
X148366917Y-132174125D01*
X148366917Y-132174125D02*
X148405012Y-132136030D01*
X148405012Y-132136030D02*
X148481202Y-132097935D01*
X148481202Y-132097935D02*
X148671679Y-132097935D01*
X148671679Y-132097935D02*
X148785964Y-132136030D01*
X149128822Y-132478887D02*
X149395488Y-132478887D01*
X149509774Y-132897935D02*
X149128822Y-132897935D01*
X149128822Y-132897935D02*
X149128822Y-132097935D01*
X149128822Y-132097935D02*
X149509774Y-132097935D01*
X149738346Y-132097935D02*
X150195489Y-132097935D01*
X149966917Y-132897935D02*
X149966917Y-132097935D01*
X151493107Y-122147935D02*
X151493107Y-121347935D01*
X151493107Y-121347935D02*
X151797869Y-121347935D01*
X151797869Y-121347935D02*
X151874059Y-121386030D01*
X151874059Y-121386030D02*
X151912154Y-121424125D01*
X151912154Y-121424125D02*
X151950250Y-121500316D01*
X151950250Y-121500316D02*
X151950250Y-121614601D01*
X151950250Y-121614601D02*
X151912154Y-121690792D01*
X151912154Y-121690792D02*
X151874059Y-121728887D01*
X151874059Y-121728887D02*
X151797869Y-121766982D01*
X151797869Y-121766982D02*
X151493107Y-121766982D01*
X152445488Y-121347935D02*
X152597869Y-121347935D01*
X152597869Y-121347935D02*
X152674059Y-121386030D01*
X152674059Y-121386030D02*
X152750250Y-121462220D01*
X152750250Y-121462220D02*
X152788345Y-121614601D01*
X152788345Y-121614601D02*
X152788345Y-121881268D01*
X152788345Y-121881268D02*
X152750250Y-122033649D01*
X152750250Y-122033649D02*
X152674059Y-122109840D01*
X152674059Y-122109840D02*
X152597869Y-122147935D01*
X152597869Y-122147935D02*
X152445488Y-122147935D01*
X152445488Y-122147935D02*
X152369297Y-122109840D01*
X152369297Y-122109840D02*
X152293107Y-122033649D01*
X152293107Y-122033649D02*
X152255011Y-121881268D01*
X152255011Y-121881268D02*
X152255011Y-121614601D01*
X152255011Y-121614601D02*
X152293107Y-121462220D01*
X152293107Y-121462220D02*
X152369297Y-121386030D01*
X152369297Y-121386030D02*
X152445488Y-121347935D01*
X153055011Y-121347935D02*
X153245487Y-122147935D01*
X153245487Y-122147935D02*
X153397868Y-121576506D01*
X153397868Y-121576506D02*
X153550249Y-122147935D01*
X153550249Y-122147935D02*
X153740726Y-121347935D01*
X154045488Y-121728887D02*
X154312154Y-121728887D01*
X154426440Y-122147935D02*
X154045488Y-122147935D01*
X154045488Y-122147935D02*
X154045488Y-121347935D01*
X154045488Y-121347935D02*
X154426440Y-121347935D01*
X155226441Y-122147935D02*
X154959774Y-121766982D01*
X154769298Y-122147935D02*
X154769298Y-121347935D01*
X154769298Y-121347935D02*
X155074060Y-121347935D01*
X155074060Y-121347935D02*
X155150250Y-121386030D01*
X155150250Y-121386030D02*
X155188345Y-121424125D01*
X155188345Y-121424125D02*
X155226441Y-121500316D01*
X155226441Y-121500316D02*
X155226441Y-121614601D01*
X155226441Y-121614601D02*
X155188345Y-121690792D01*
X155188345Y-121690792D02*
X155150250Y-121728887D01*
X155150250Y-121728887D02*
X155074060Y-121766982D01*
X155074060Y-121766982D02*
X154769298Y-121766982D01*
X155378821Y-116097935D02*
X155645488Y-116897935D01*
X155645488Y-116897935D02*
X155912154Y-116097935D01*
X156635964Y-116821744D02*
X156597868Y-116859840D01*
X156597868Y-116859840D02*
X156483583Y-116897935D01*
X156483583Y-116897935D02*
X156407392Y-116897935D01*
X156407392Y-116897935D02*
X156293106Y-116859840D01*
X156293106Y-116859840D02*
X156216916Y-116783649D01*
X156216916Y-116783649D02*
X156178821Y-116707459D01*
X156178821Y-116707459D02*
X156140725Y-116555078D01*
X156140725Y-116555078D02*
X156140725Y-116440792D01*
X156140725Y-116440792D02*
X156178821Y-116288411D01*
X156178821Y-116288411D02*
X156216916Y-116212220D01*
X156216916Y-116212220D02*
X156293106Y-116136030D01*
X156293106Y-116136030D02*
X156407392Y-116097935D01*
X156407392Y-116097935D02*
X156483583Y-116097935D01*
X156483583Y-116097935D02*
X156597868Y-116136030D01*
X156597868Y-116136030D02*
X156635964Y-116174125D01*
X157435964Y-116821744D02*
X157397868Y-116859840D01*
X157397868Y-116859840D02*
X157283583Y-116897935D01*
X157283583Y-116897935D02*
X157207392Y-116897935D01*
X157207392Y-116897935D02*
X157093106Y-116859840D01*
X157093106Y-116859840D02*
X157016916Y-116783649D01*
X157016916Y-116783649D02*
X156978821Y-116707459D01*
X156978821Y-116707459D02*
X156940725Y-116555078D01*
X156940725Y-116555078D02*
X156940725Y-116440792D01*
X156940725Y-116440792D02*
X156978821Y-116288411D01*
X156978821Y-116288411D02*
X157016916Y-116212220D01*
X157016916Y-116212220D02*
X157093106Y-116136030D01*
X157093106Y-116136030D02*
X157207392Y-116097935D01*
X157207392Y-116097935D02*
X157283583Y-116097935D01*
X157283583Y-116097935D02*
X157397868Y-116136030D01*
X157397868Y-116136030D02*
X157435964Y-116174125D01*
X155912154Y-118636030D02*
X155835964Y-118597935D01*
X155835964Y-118597935D02*
X155721678Y-118597935D01*
X155721678Y-118597935D02*
X155607392Y-118636030D01*
X155607392Y-118636030D02*
X155531202Y-118712220D01*
X155531202Y-118712220D02*
X155493107Y-118788411D01*
X155493107Y-118788411D02*
X155455011Y-118940792D01*
X155455011Y-118940792D02*
X155455011Y-119055078D01*
X155455011Y-119055078D02*
X155493107Y-119207459D01*
X155493107Y-119207459D02*
X155531202Y-119283649D01*
X155531202Y-119283649D02*
X155607392Y-119359840D01*
X155607392Y-119359840D02*
X155721678Y-119397935D01*
X155721678Y-119397935D02*
X155797869Y-119397935D01*
X155797869Y-119397935D02*
X155912154Y-119359840D01*
X155912154Y-119359840D02*
X155950250Y-119321744D01*
X155950250Y-119321744D02*
X155950250Y-119055078D01*
X155950250Y-119055078D02*
X155797869Y-119055078D01*
X156293107Y-119397935D02*
X156293107Y-118597935D01*
X156293107Y-118597935D02*
X156750250Y-119397935D01*
X156750250Y-119397935D02*
X156750250Y-118597935D01*
X157131202Y-119397935D02*
X157131202Y-118597935D01*
X157131202Y-118597935D02*
X157321678Y-118597935D01*
X157321678Y-118597935D02*
X157435964Y-118636030D01*
X157435964Y-118636030D02*
X157512154Y-118712220D01*
X157512154Y-118712220D02*
X157550249Y-118788411D01*
X157550249Y-118788411D02*
X157588345Y-118940792D01*
X157588345Y-118940792D02*
X157588345Y-119055078D01*
X157588345Y-119055078D02*
X157550249Y-119207459D01*
X157550249Y-119207459D02*
X157512154Y-119283649D01*
X157512154Y-119283649D02*
X157435964Y-119359840D01*
X157435964Y-119359840D02*
X157321678Y-119397935D01*
X157321678Y-119397935D02*
X157131202Y-119397935D01*
X119597935Y-136371178D02*
X120397935Y-136104511D01*
X120397935Y-136104511D02*
X119597935Y-135837845D01*
X120321744Y-135114035D02*
X120359840Y-135152131D01*
X120359840Y-135152131D02*
X120397935Y-135266416D01*
X120397935Y-135266416D02*
X120397935Y-135342607D01*
X120397935Y-135342607D02*
X120359840Y-135456893D01*
X120359840Y-135456893D02*
X120283649Y-135533083D01*
X120283649Y-135533083D02*
X120207459Y-135571178D01*
X120207459Y-135571178D02*
X120055078Y-135609274D01*
X120055078Y-135609274D02*
X119940792Y-135609274D01*
X119940792Y-135609274D02*
X119788411Y-135571178D01*
X119788411Y-135571178D02*
X119712220Y-135533083D01*
X119712220Y-135533083D02*
X119636030Y-135456893D01*
X119636030Y-135456893D02*
X119597935Y-135342607D01*
X119597935Y-135342607D02*
X119597935Y-135266416D01*
X119597935Y-135266416D02*
X119636030Y-135152131D01*
X119636030Y-135152131D02*
X119674125Y-135114035D01*
X120321744Y-134314035D02*
X120359840Y-134352131D01*
X120359840Y-134352131D02*
X120397935Y-134466416D01*
X120397935Y-134466416D02*
X120397935Y-134542607D01*
X120397935Y-134542607D02*
X120359840Y-134656893D01*
X120359840Y-134656893D02*
X120283649Y-134733083D01*
X120283649Y-134733083D02*
X120207459Y-134771178D01*
X120207459Y-134771178D02*
X120055078Y-134809274D01*
X120055078Y-134809274D02*
X119940792Y-134809274D01*
X119940792Y-134809274D02*
X119788411Y-134771178D01*
X119788411Y-134771178D02*
X119712220Y-134733083D01*
X119712220Y-134733083D02*
X119636030Y-134656893D01*
X119636030Y-134656893D02*
X119597935Y-134542607D01*
X119597935Y-134542607D02*
X119597935Y-134466416D01*
X119597935Y-134466416D02*
X119636030Y-134352131D01*
X119636030Y-134352131D02*
X119674125Y-134314035D01*
X121886030Y-136087845D02*
X121847935Y-136164035D01*
X121847935Y-136164035D02*
X121847935Y-136278321D01*
X121847935Y-136278321D02*
X121886030Y-136392607D01*
X121886030Y-136392607D02*
X121962220Y-136468797D01*
X121962220Y-136468797D02*
X122038411Y-136506892D01*
X122038411Y-136506892D02*
X122190792Y-136544988D01*
X122190792Y-136544988D02*
X122305078Y-136544988D01*
X122305078Y-136544988D02*
X122457459Y-136506892D01*
X122457459Y-136506892D02*
X122533649Y-136468797D01*
X122533649Y-136468797D02*
X122609840Y-136392607D01*
X122609840Y-136392607D02*
X122647935Y-136278321D01*
X122647935Y-136278321D02*
X122647935Y-136202130D01*
X122647935Y-136202130D02*
X122609840Y-136087845D01*
X122609840Y-136087845D02*
X122571744Y-136049749D01*
X122571744Y-136049749D02*
X122305078Y-136049749D01*
X122305078Y-136049749D02*
X122305078Y-136202130D01*
X122647935Y-135706892D02*
X121847935Y-135706892D01*
X121847935Y-135706892D02*
X122647935Y-135249749D01*
X122647935Y-135249749D02*
X121847935Y-135249749D01*
X122647935Y-134868797D02*
X121847935Y-134868797D01*
X121847935Y-134868797D02*
X121847935Y-134678321D01*
X121847935Y-134678321D02*
X121886030Y-134564035D01*
X121886030Y-134564035D02*
X121962220Y-134487845D01*
X121962220Y-134487845D02*
X122038411Y-134449750D01*
X122038411Y-134449750D02*
X122190792Y-134411654D01*
X122190792Y-134411654D02*
X122305078Y-134411654D01*
X122305078Y-134411654D02*
X122457459Y-134449750D01*
X122457459Y-134449750D02*
X122533649Y-134487845D01*
X122533649Y-134487845D02*
X122609840Y-134564035D01*
X122609840Y-134564035D02*
X122647935Y-134678321D01*
X122647935Y-134678321D02*
X122647935Y-134868797D01*
X125397935Y-136756892D02*
X124597935Y-136756892D01*
X124597935Y-136756892D02*
X125169363Y-136490226D01*
X125169363Y-136490226D02*
X124597935Y-136223559D01*
X124597935Y-136223559D02*
X125397935Y-136223559D01*
X124597935Y-135690225D02*
X124597935Y-135537844D01*
X124597935Y-135537844D02*
X124636030Y-135461654D01*
X124636030Y-135461654D02*
X124712220Y-135385463D01*
X124712220Y-135385463D02*
X124864601Y-135347368D01*
X124864601Y-135347368D02*
X125131268Y-135347368D01*
X125131268Y-135347368D02*
X125283649Y-135385463D01*
X125283649Y-135385463D02*
X125359840Y-135461654D01*
X125359840Y-135461654D02*
X125397935Y-135537844D01*
X125397935Y-135537844D02*
X125397935Y-135690225D01*
X125397935Y-135690225D02*
X125359840Y-135766416D01*
X125359840Y-135766416D02*
X125283649Y-135842606D01*
X125283649Y-135842606D02*
X125131268Y-135880702D01*
X125131268Y-135880702D02*
X124864601Y-135880702D01*
X124864601Y-135880702D02*
X124712220Y-135842606D01*
X124712220Y-135842606D02*
X124636030Y-135766416D01*
X124636030Y-135766416D02*
X124597935Y-135690225D01*
X125359840Y-135042607D02*
X125397935Y-134928321D01*
X125397935Y-134928321D02*
X125397935Y-134737845D01*
X125397935Y-134737845D02*
X125359840Y-134661654D01*
X125359840Y-134661654D02*
X125321744Y-134623559D01*
X125321744Y-134623559D02*
X125245554Y-134585464D01*
X125245554Y-134585464D02*
X125169363Y-134585464D01*
X125169363Y-134585464D02*
X125093173Y-134623559D01*
X125093173Y-134623559D02*
X125055078Y-134661654D01*
X125055078Y-134661654D02*
X125016982Y-134737845D01*
X125016982Y-134737845D02*
X124978887Y-134890226D01*
X124978887Y-134890226D02*
X124940792Y-134966416D01*
X124940792Y-134966416D02*
X124902697Y-135004511D01*
X124902697Y-135004511D02*
X124826506Y-135042607D01*
X124826506Y-135042607D02*
X124750316Y-135042607D01*
X124750316Y-135042607D02*
X124674125Y-135004511D01*
X124674125Y-135004511D02*
X124636030Y-134966416D01*
X124636030Y-134966416D02*
X124597935Y-134890226D01*
X124597935Y-134890226D02*
X124597935Y-134699749D01*
X124597935Y-134699749D02*
X124636030Y-134585464D01*
X125397935Y-134242606D02*
X124597935Y-134242606D01*
X127897935Y-136756892D02*
X127097935Y-136756892D01*
X127097935Y-136756892D02*
X127669363Y-136490226D01*
X127669363Y-136490226D02*
X127097935Y-136223559D01*
X127097935Y-136223559D02*
X127897935Y-136223559D01*
X127897935Y-135842606D02*
X127097935Y-135842606D01*
X127859840Y-135499750D02*
X127897935Y-135385464D01*
X127897935Y-135385464D02*
X127897935Y-135194988D01*
X127897935Y-135194988D02*
X127859840Y-135118797D01*
X127859840Y-135118797D02*
X127821744Y-135080702D01*
X127821744Y-135080702D02*
X127745554Y-135042607D01*
X127745554Y-135042607D02*
X127669363Y-135042607D01*
X127669363Y-135042607D02*
X127593173Y-135080702D01*
X127593173Y-135080702D02*
X127555078Y-135118797D01*
X127555078Y-135118797D02*
X127516982Y-135194988D01*
X127516982Y-135194988D02*
X127478887Y-135347369D01*
X127478887Y-135347369D02*
X127440792Y-135423559D01*
X127440792Y-135423559D02*
X127402697Y-135461654D01*
X127402697Y-135461654D02*
X127326506Y-135499750D01*
X127326506Y-135499750D02*
X127250316Y-135499750D01*
X127250316Y-135499750D02*
X127174125Y-135461654D01*
X127174125Y-135461654D02*
X127136030Y-135423559D01*
X127136030Y-135423559D02*
X127097935Y-135347369D01*
X127097935Y-135347369D02*
X127097935Y-135156892D01*
X127097935Y-135156892D02*
X127136030Y-135042607D01*
X127097935Y-134547368D02*
X127097935Y-134394987D01*
X127097935Y-134394987D02*
X127136030Y-134318797D01*
X127136030Y-134318797D02*
X127212220Y-134242606D01*
X127212220Y-134242606D02*
X127364601Y-134204511D01*
X127364601Y-134204511D02*
X127631268Y-134204511D01*
X127631268Y-134204511D02*
X127783649Y-134242606D01*
X127783649Y-134242606D02*
X127859840Y-134318797D01*
X127859840Y-134318797D02*
X127897935Y-134394987D01*
X127897935Y-134394987D02*
X127897935Y-134547368D01*
X127897935Y-134547368D02*
X127859840Y-134623559D01*
X127859840Y-134623559D02*
X127783649Y-134699749D01*
X127783649Y-134699749D02*
X127631268Y-134737845D01*
X127631268Y-134737845D02*
X127364601Y-134737845D01*
X127364601Y-134737845D02*
X127212220Y-134699749D01*
X127212220Y-134699749D02*
X127136030Y-134623559D01*
X127136030Y-134623559D02*
X127097935Y-134547368D01*
X130359840Y-136044988D02*
X130397935Y-135930702D01*
X130397935Y-135930702D02*
X130397935Y-135740226D01*
X130397935Y-135740226D02*
X130359840Y-135664035D01*
X130359840Y-135664035D02*
X130321744Y-135625940D01*
X130321744Y-135625940D02*
X130245554Y-135587845D01*
X130245554Y-135587845D02*
X130169363Y-135587845D01*
X130169363Y-135587845D02*
X130093173Y-135625940D01*
X130093173Y-135625940D02*
X130055078Y-135664035D01*
X130055078Y-135664035D02*
X130016982Y-135740226D01*
X130016982Y-135740226D02*
X129978887Y-135892607D01*
X129978887Y-135892607D02*
X129940792Y-135968797D01*
X129940792Y-135968797D02*
X129902697Y-136006892D01*
X129902697Y-136006892D02*
X129826506Y-136044988D01*
X129826506Y-136044988D02*
X129750316Y-136044988D01*
X129750316Y-136044988D02*
X129674125Y-136006892D01*
X129674125Y-136006892D02*
X129636030Y-135968797D01*
X129636030Y-135968797D02*
X129597935Y-135892607D01*
X129597935Y-135892607D02*
X129597935Y-135702130D01*
X129597935Y-135702130D02*
X129636030Y-135587845D01*
X130359840Y-135283083D02*
X130397935Y-135168797D01*
X130397935Y-135168797D02*
X130397935Y-134978321D01*
X130397935Y-134978321D02*
X130359840Y-134902130D01*
X130359840Y-134902130D02*
X130321744Y-134864035D01*
X130321744Y-134864035D02*
X130245554Y-134825940D01*
X130245554Y-134825940D02*
X130169363Y-134825940D01*
X130169363Y-134825940D02*
X130093173Y-134864035D01*
X130093173Y-134864035D02*
X130055078Y-134902130D01*
X130055078Y-134902130D02*
X130016982Y-134978321D01*
X130016982Y-134978321D02*
X129978887Y-135130702D01*
X129978887Y-135130702D02*
X129940792Y-135206892D01*
X129940792Y-135206892D02*
X129902697Y-135244987D01*
X129902697Y-135244987D02*
X129826506Y-135283083D01*
X129826506Y-135283083D02*
X129750316Y-135283083D01*
X129750316Y-135283083D02*
X129674125Y-135244987D01*
X129674125Y-135244987D02*
X129636030Y-135206892D01*
X129636030Y-135206892D02*
X129597935Y-135130702D01*
X129597935Y-135130702D02*
X129597935Y-134940225D01*
X129597935Y-134940225D02*
X129636030Y-134825940D01*
X132609840Y-88794988D02*
X132647935Y-88680702D01*
X132647935Y-88680702D02*
X132647935Y-88490226D01*
X132647935Y-88490226D02*
X132609840Y-88414035D01*
X132609840Y-88414035D02*
X132571744Y-88375940D01*
X132571744Y-88375940D02*
X132495554Y-88337845D01*
X132495554Y-88337845D02*
X132419363Y-88337845D01*
X132419363Y-88337845D02*
X132343173Y-88375940D01*
X132343173Y-88375940D02*
X132305078Y-88414035D01*
X132305078Y-88414035D02*
X132266982Y-88490226D01*
X132266982Y-88490226D02*
X132228887Y-88642607D01*
X132228887Y-88642607D02*
X132190792Y-88718797D01*
X132190792Y-88718797D02*
X132152697Y-88756892D01*
X132152697Y-88756892D02*
X132076506Y-88794988D01*
X132076506Y-88794988D02*
X132000316Y-88794988D01*
X132000316Y-88794988D02*
X131924125Y-88756892D01*
X131924125Y-88756892D02*
X131886030Y-88718797D01*
X131886030Y-88718797D02*
X131847935Y-88642607D01*
X131847935Y-88642607D02*
X131847935Y-88452130D01*
X131847935Y-88452130D02*
X131886030Y-88337845D01*
X132571744Y-87537844D02*
X132609840Y-87575940D01*
X132609840Y-87575940D02*
X132647935Y-87690225D01*
X132647935Y-87690225D02*
X132647935Y-87766416D01*
X132647935Y-87766416D02*
X132609840Y-87880702D01*
X132609840Y-87880702D02*
X132533649Y-87956892D01*
X132533649Y-87956892D02*
X132457459Y-87994987D01*
X132457459Y-87994987D02*
X132305078Y-88033083D01*
X132305078Y-88033083D02*
X132190792Y-88033083D01*
X132190792Y-88033083D02*
X132038411Y-87994987D01*
X132038411Y-87994987D02*
X131962220Y-87956892D01*
X131962220Y-87956892D02*
X131886030Y-87880702D01*
X131886030Y-87880702D02*
X131847935Y-87766416D01*
X131847935Y-87766416D02*
X131847935Y-87690225D01*
X131847935Y-87690225D02*
X131886030Y-87575940D01*
X131886030Y-87575940D02*
X131924125Y-87537844D01*
X132647935Y-86814035D02*
X132647935Y-87194987D01*
X132647935Y-87194987D02*
X131847935Y-87194987D01*
X132859840Y-136544988D02*
X132897935Y-136430702D01*
X132897935Y-136430702D02*
X132897935Y-136240226D01*
X132897935Y-136240226D02*
X132859840Y-136164035D01*
X132859840Y-136164035D02*
X132821744Y-136125940D01*
X132821744Y-136125940D02*
X132745554Y-136087845D01*
X132745554Y-136087845D02*
X132669363Y-136087845D01*
X132669363Y-136087845D02*
X132593173Y-136125940D01*
X132593173Y-136125940D02*
X132555078Y-136164035D01*
X132555078Y-136164035D02*
X132516982Y-136240226D01*
X132516982Y-136240226D02*
X132478887Y-136392607D01*
X132478887Y-136392607D02*
X132440792Y-136468797D01*
X132440792Y-136468797D02*
X132402697Y-136506892D01*
X132402697Y-136506892D02*
X132326506Y-136544988D01*
X132326506Y-136544988D02*
X132250316Y-136544988D01*
X132250316Y-136544988D02*
X132174125Y-136506892D01*
X132174125Y-136506892D02*
X132136030Y-136468797D01*
X132136030Y-136468797D02*
X132097935Y-136392607D01*
X132097935Y-136392607D02*
X132097935Y-136202130D01*
X132097935Y-136202130D02*
X132136030Y-136087845D01*
X132821744Y-135287844D02*
X132859840Y-135325940D01*
X132859840Y-135325940D02*
X132897935Y-135440225D01*
X132897935Y-135440225D02*
X132897935Y-135516416D01*
X132897935Y-135516416D02*
X132859840Y-135630702D01*
X132859840Y-135630702D02*
X132783649Y-135706892D01*
X132783649Y-135706892D02*
X132707459Y-135744987D01*
X132707459Y-135744987D02*
X132555078Y-135783083D01*
X132555078Y-135783083D02*
X132440792Y-135783083D01*
X132440792Y-135783083D02*
X132288411Y-135744987D01*
X132288411Y-135744987D02*
X132212220Y-135706892D01*
X132212220Y-135706892D02*
X132136030Y-135630702D01*
X132136030Y-135630702D02*
X132097935Y-135516416D01*
X132097935Y-135516416D02*
X132097935Y-135440225D01*
X132097935Y-135440225D02*
X132136030Y-135325940D01*
X132136030Y-135325940D02*
X132174125Y-135287844D01*
X132897935Y-134944987D02*
X132097935Y-134944987D01*
X132897935Y-134487844D02*
X132440792Y-134830702D01*
X132097935Y-134487844D02*
X132555078Y-134944987D01*
X135359840Y-88794988D02*
X135397935Y-88680702D01*
X135397935Y-88680702D02*
X135397935Y-88490226D01*
X135397935Y-88490226D02*
X135359840Y-88414035D01*
X135359840Y-88414035D02*
X135321744Y-88375940D01*
X135321744Y-88375940D02*
X135245554Y-88337845D01*
X135245554Y-88337845D02*
X135169363Y-88337845D01*
X135169363Y-88337845D02*
X135093173Y-88375940D01*
X135093173Y-88375940D02*
X135055078Y-88414035D01*
X135055078Y-88414035D02*
X135016982Y-88490226D01*
X135016982Y-88490226D02*
X134978887Y-88642607D01*
X134978887Y-88642607D02*
X134940792Y-88718797D01*
X134940792Y-88718797D02*
X134902697Y-88756892D01*
X134902697Y-88756892D02*
X134826506Y-88794988D01*
X134826506Y-88794988D02*
X134750316Y-88794988D01*
X134750316Y-88794988D02*
X134674125Y-88756892D01*
X134674125Y-88756892D02*
X134636030Y-88718797D01*
X134636030Y-88718797D02*
X134597935Y-88642607D01*
X134597935Y-88642607D02*
X134597935Y-88452130D01*
X134597935Y-88452130D02*
X134636030Y-88337845D01*
X135397935Y-87994987D02*
X134597935Y-87994987D01*
X134597935Y-87994987D02*
X134597935Y-87804511D01*
X134597935Y-87804511D02*
X134636030Y-87690225D01*
X134636030Y-87690225D02*
X134712220Y-87614035D01*
X134712220Y-87614035D02*
X134788411Y-87575940D01*
X134788411Y-87575940D02*
X134940792Y-87537844D01*
X134940792Y-87537844D02*
X135055078Y-87537844D01*
X135055078Y-87537844D02*
X135207459Y-87575940D01*
X135207459Y-87575940D02*
X135283649Y-87614035D01*
X135283649Y-87614035D02*
X135359840Y-87690225D01*
X135359840Y-87690225D02*
X135397935Y-87804511D01*
X135397935Y-87804511D02*
X135397935Y-87994987D01*
X135169363Y-87233083D02*
X135169363Y-86852130D01*
X135397935Y-87309273D02*
X134597935Y-87042606D01*
X134597935Y-87042606D02*
X135397935Y-86775940D01*
X135609840Y-133294988D02*
X135647935Y-133180702D01*
X135647935Y-133180702D02*
X135647935Y-132990226D01*
X135647935Y-132990226D02*
X135609840Y-132914035D01*
X135609840Y-132914035D02*
X135571744Y-132875940D01*
X135571744Y-132875940D02*
X135495554Y-132837845D01*
X135495554Y-132837845D02*
X135419363Y-132837845D01*
X135419363Y-132837845D02*
X135343173Y-132875940D01*
X135343173Y-132875940D02*
X135305078Y-132914035D01*
X135305078Y-132914035D02*
X135266982Y-132990226D01*
X135266982Y-132990226D02*
X135228887Y-133142607D01*
X135228887Y-133142607D02*
X135190792Y-133218797D01*
X135190792Y-133218797D02*
X135152697Y-133256892D01*
X135152697Y-133256892D02*
X135076506Y-133294988D01*
X135076506Y-133294988D02*
X135000316Y-133294988D01*
X135000316Y-133294988D02*
X134924125Y-133256892D01*
X134924125Y-133256892D02*
X134886030Y-133218797D01*
X134886030Y-133218797D02*
X134847935Y-133142607D01*
X134847935Y-133142607D02*
X134847935Y-132952130D01*
X134847935Y-132952130D02*
X134886030Y-132837845D01*
X135647935Y-132494987D02*
X134847935Y-132494987D01*
X134847935Y-132494987D02*
X134847935Y-132190225D01*
X134847935Y-132190225D02*
X134886030Y-132114035D01*
X134886030Y-132114035D02*
X134924125Y-132075940D01*
X134924125Y-132075940D02*
X135000316Y-132037844D01*
X135000316Y-132037844D02*
X135114601Y-132037844D01*
X135114601Y-132037844D02*
X135190792Y-132075940D01*
X135190792Y-132075940D02*
X135228887Y-132114035D01*
X135228887Y-132114035D02*
X135266982Y-132190225D01*
X135266982Y-132190225D02*
X135266982Y-132494987D01*
X135647935Y-131694987D02*
X134847935Y-131694987D01*
X137386030Y-88587845D02*
X137347935Y-88664035D01*
X137347935Y-88664035D02*
X137347935Y-88778321D01*
X137347935Y-88778321D02*
X137386030Y-88892607D01*
X137386030Y-88892607D02*
X137462220Y-88968797D01*
X137462220Y-88968797D02*
X137538411Y-89006892D01*
X137538411Y-89006892D02*
X137690792Y-89044988D01*
X137690792Y-89044988D02*
X137805078Y-89044988D01*
X137805078Y-89044988D02*
X137957459Y-89006892D01*
X137957459Y-89006892D02*
X138033649Y-88968797D01*
X138033649Y-88968797D02*
X138109840Y-88892607D01*
X138109840Y-88892607D02*
X138147935Y-88778321D01*
X138147935Y-88778321D02*
X138147935Y-88702130D01*
X138147935Y-88702130D02*
X138109840Y-88587845D01*
X138109840Y-88587845D02*
X138071744Y-88549749D01*
X138071744Y-88549749D02*
X137805078Y-88549749D01*
X137805078Y-88549749D02*
X137805078Y-88702130D01*
X138147935Y-88206892D02*
X137347935Y-88206892D01*
X137347935Y-88206892D02*
X138147935Y-87749749D01*
X138147935Y-87749749D02*
X137347935Y-87749749D01*
X138147935Y-87368797D02*
X137347935Y-87368797D01*
X137347935Y-87368797D02*
X137347935Y-87178321D01*
X137347935Y-87178321D02*
X137386030Y-87064035D01*
X137386030Y-87064035D02*
X137462220Y-86987845D01*
X137462220Y-86987845D02*
X137538411Y-86949750D01*
X137538411Y-86949750D02*
X137690792Y-86911654D01*
X137690792Y-86911654D02*
X137805078Y-86911654D01*
X137805078Y-86911654D02*
X137957459Y-86949750D01*
X137957459Y-86949750D02*
X138033649Y-86987845D01*
X138033649Y-86987845D02*
X138109840Y-87064035D01*
X138109840Y-87064035D02*
X138147935Y-87178321D01*
X138147935Y-87178321D02*
X138147935Y-87368797D01*
X139847935Y-88871178D02*
X140647935Y-88604511D01*
X140647935Y-88604511D02*
X139847935Y-88337845D01*
X140571744Y-87614035D02*
X140609840Y-87652131D01*
X140609840Y-87652131D02*
X140647935Y-87766416D01*
X140647935Y-87766416D02*
X140647935Y-87842607D01*
X140647935Y-87842607D02*
X140609840Y-87956893D01*
X140609840Y-87956893D02*
X140533649Y-88033083D01*
X140533649Y-88033083D02*
X140457459Y-88071178D01*
X140457459Y-88071178D02*
X140305078Y-88109274D01*
X140305078Y-88109274D02*
X140190792Y-88109274D01*
X140190792Y-88109274D02*
X140038411Y-88071178D01*
X140038411Y-88071178D02*
X139962220Y-88033083D01*
X139962220Y-88033083D02*
X139886030Y-87956893D01*
X139886030Y-87956893D02*
X139847935Y-87842607D01*
X139847935Y-87842607D02*
X139847935Y-87766416D01*
X139847935Y-87766416D02*
X139886030Y-87652131D01*
X139886030Y-87652131D02*
X139924125Y-87614035D01*
X140571744Y-86814035D02*
X140609840Y-86852131D01*
X140609840Y-86852131D02*
X140647935Y-86966416D01*
X140647935Y-86966416D02*
X140647935Y-87042607D01*
X140647935Y-87042607D02*
X140609840Y-87156893D01*
X140609840Y-87156893D02*
X140533649Y-87233083D01*
X140533649Y-87233083D02*
X140457459Y-87271178D01*
X140457459Y-87271178D02*
X140305078Y-87309274D01*
X140305078Y-87309274D02*
X140190792Y-87309274D01*
X140190792Y-87309274D02*
X140038411Y-87271178D01*
X140038411Y-87271178D02*
X139962220Y-87233083D01*
X139962220Y-87233083D02*
X139886030Y-87156893D01*
X139886030Y-87156893D02*
X139847935Y-87042607D01*
X139847935Y-87042607D02*
X139847935Y-86966416D01*
X139847935Y-86966416D02*
X139886030Y-86852131D01*
X139886030Y-86852131D02*
X139924125Y-86814035D01*
X142897935Y-92506892D02*
X142097935Y-92506892D01*
X142174125Y-92164036D02*
X142136030Y-92125940D01*
X142136030Y-92125940D02*
X142097935Y-92049750D01*
X142097935Y-92049750D02*
X142097935Y-91859274D01*
X142097935Y-91859274D02*
X142136030Y-91783083D01*
X142136030Y-91783083D02*
X142174125Y-91744988D01*
X142174125Y-91744988D02*
X142250316Y-91706893D01*
X142250316Y-91706893D02*
X142326506Y-91706893D01*
X142326506Y-91706893D02*
X142440792Y-91744988D01*
X142440792Y-91744988D02*
X142897935Y-92202131D01*
X142897935Y-92202131D02*
X142897935Y-91706893D01*
X142821744Y-90906892D02*
X142859840Y-90944988D01*
X142859840Y-90944988D02*
X142897935Y-91059273D01*
X142897935Y-91059273D02*
X142897935Y-91135464D01*
X142897935Y-91135464D02*
X142859840Y-91249750D01*
X142859840Y-91249750D02*
X142783649Y-91325940D01*
X142783649Y-91325940D02*
X142707459Y-91364035D01*
X142707459Y-91364035D02*
X142555078Y-91402131D01*
X142555078Y-91402131D02*
X142440792Y-91402131D01*
X142440792Y-91402131D02*
X142288411Y-91364035D01*
X142288411Y-91364035D02*
X142212220Y-91325940D01*
X142212220Y-91325940D02*
X142136030Y-91249750D01*
X142136030Y-91249750D02*
X142097935Y-91135464D01*
X142097935Y-91135464D02*
X142097935Y-91059273D01*
X142097935Y-91059273D02*
X142136030Y-90944988D01*
X142136030Y-90944988D02*
X142174125Y-90906892D01*
D11*
X144963095Y-103009819D02*
X144963095Y-103819342D01*
X144963095Y-103819342D02*
X145010714Y-103914580D01*
X145010714Y-103914580D02*
X145058333Y-103962200D01*
X145058333Y-103962200D02*
X145153571Y-104009819D01*
X145153571Y-104009819D02*
X145344047Y-104009819D01*
X145344047Y-104009819D02*
X145439285Y-103962200D01*
X145439285Y-103962200D02*
X145486904Y-103914580D01*
X145486904Y-103914580D02*
X145534523Y-103819342D01*
X145534523Y-103819342D02*
X145534523Y-103009819D01*
X145915476Y-103009819D02*
X146534523Y-103009819D01*
X146534523Y-103009819D02*
X146201190Y-103390771D01*
X146201190Y-103390771D02*
X146344047Y-103390771D01*
X146344047Y-103390771D02*
X146439285Y-103438390D01*
X146439285Y-103438390D02*
X146486904Y-103486009D01*
X146486904Y-103486009D02*
X146534523Y-103581247D01*
X146534523Y-103581247D02*
X146534523Y-103819342D01*
X146534523Y-103819342D02*
X146486904Y-103914580D01*
X146486904Y-103914580D02*
X146439285Y-103962200D01*
X146439285Y-103962200D02*
X146344047Y-104009819D01*
X146344047Y-104009819D02*
X146058333Y-104009819D01*
X146058333Y-104009819D02*
X145963095Y-103962200D01*
X145963095Y-103962200D02*
X145915476Y-103914580D01*
X147784819Y-113166666D02*
X147308628Y-113499999D01*
X147784819Y-113738094D02*
X146784819Y-113738094D01*
X146784819Y-113738094D02*
X146784819Y-113357142D01*
X146784819Y-113357142D02*
X146832438Y-113261904D01*
X146832438Y-113261904D02*
X146880057Y-113214285D01*
X146880057Y-113214285D02*
X146975295Y-113166666D01*
X146975295Y-113166666D02*
X147118152Y-113166666D01*
X147118152Y-113166666D02*
X147213390Y-113214285D01*
X147213390Y-113214285D02*
X147261009Y-113261904D01*
X147261009Y-113261904D02*
X147308628Y-113357142D01*
X147308628Y-113357142D02*
X147308628Y-113738094D01*
X147118152Y-112309523D02*
X147784819Y-112309523D01*
X146737200Y-112547618D02*
X147451485Y-112785713D01*
X147451485Y-112785713D02*
X147451485Y-112166666D01*
X144124819Y-119238094D02*
X143124819Y-119238094D01*
X143124819Y-119238094D02*
X143124819Y-118999999D01*
X143124819Y-118999999D02*
X143172438Y-118857142D01*
X143172438Y-118857142D02*
X143267676Y-118761904D01*
X143267676Y-118761904D02*
X143362914Y-118714285D01*
X143362914Y-118714285D02*
X143553390Y-118666666D01*
X143553390Y-118666666D02*
X143696247Y-118666666D01*
X143696247Y-118666666D02*
X143886723Y-118714285D01*
X143886723Y-118714285D02*
X143981961Y-118761904D01*
X143981961Y-118761904D02*
X144077200Y-118857142D01*
X144077200Y-118857142D02*
X144124819Y-118999999D01*
X144124819Y-118999999D02*
X144124819Y-119238094D01*
X143458152Y-117809523D02*
X144124819Y-117809523D01*
X143077200Y-118047618D02*
X143791485Y-118285713D01*
X143791485Y-118285713D02*
X143791485Y-117666666D01*
X129454819Y-103916666D02*
X128978628Y-104249999D01*
X129454819Y-104488094D02*
X128454819Y-104488094D01*
X128454819Y-104488094D02*
X128454819Y-104107142D01*
X128454819Y-104107142D02*
X128502438Y-104011904D01*
X128502438Y-104011904D02*
X128550057Y-103964285D01*
X128550057Y-103964285D02*
X128645295Y-103916666D01*
X128645295Y-103916666D02*
X128788152Y-103916666D01*
X128788152Y-103916666D02*
X128883390Y-103964285D01*
X128883390Y-103964285D02*
X128931009Y-104011904D01*
X128931009Y-104011904D02*
X128978628Y-104107142D01*
X128978628Y-104107142D02*
X128978628Y-104488094D01*
X128454819Y-103583332D02*
X128454819Y-102964285D01*
X128454819Y-102964285D02*
X128835771Y-103297618D01*
X128835771Y-103297618D02*
X128835771Y-103154761D01*
X128835771Y-103154761D02*
X128883390Y-103059523D01*
X128883390Y-103059523D02*
X128931009Y-103011904D01*
X128931009Y-103011904D02*
X129026247Y-102964285D01*
X129026247Y-102964285D02*
X129264342Y-102964285D01*
X129264342Y-102964285D02*
X129359580Y-103011904D01*
X129359580Y-103011904D02*
X129407200Y-103059523D01*
X129407200Y-103059523D02*
X129454819Y-103154761D01*
X129454819Y-103154761D02*
X129454819Y-103440475D01*
X129454819Y-103440475D02*
X129407200Y-103535713D01*
X129407200Y-103535713D02*
X129359580Y-103583332D01*
X104929580Y-119916666D02*
X104977200Y-119964285D01*
X104977200Y-119964285D02*
X105024819Y-120107142D01*
X105024819Y-120107142D02*
X105024819Y-120202380D01*
X105024819Y-120202380D02*
X104977200Y-120345237D01*
X104977200Y-120345237D02*
X104881961Y-120440475D01*
X104881961Y-120440475D02*
X104786723Y-120488094D01*
X104786723Y-120488094D02*
X104596247Y-120535713D01*
X104596247Y-120535713D02*
X104453390Y-120535713D01*
X104453390Y-120535713D02*
X104262914Y-120488094D01*
X104262914Y-120488094D02*
X104167676Y-120440475D01*
X104167676Y-120440475D02*
X104072438Y-120345237D01*
X104072438Y-120345237D02*
X104024819Y-120202380D01*
X104024819Y-120202380D02*
X104024819Y-120107142D01*
X104024819Y-120107142D02*
X104072438Y-119964285D01*
X104072438Y-119964285D02*
X104120057Y-119916666D01*
X104024819Y-119011904D02*
X104024819Y-119488094D01*
X104024819Y-119488094D02*
X104501009Y-119535713D01*
X104501009Y-119535713D02*
X104453390Y-119488094D01*
X104453390Y-119488094D02*
X104405771Y-119392856D01*
X104405771Y-119392856D02*
X104405771Y-119154761D01*
X104405771Y-119154761D02*
X104453390Y-119059523D01*
X104453390Y-119059523D02*
X104501009Y-119011904D01*
X104501009Y-119011904D02*
X104596247Y-118964285D01*
X104596247Y-118964285D02*
X104834342Y-118964285D01*
X104834342Y-118964285D02*
X104929580Y-119011904D01*
X104929580Y-119011904D02*
X104977200Y-119059523D01*
X104977200Y-119059523D02*
X105024819Y-119154761D01*
X105024819Y-119154761D02*
X105024819Y-119392856D01*
X105024819Y-119392856D02*
X104977200Y-119488094D01*
X104977200Y-119488094D02*
X104929580Y-119535713D01*
X103261905Y-101204819D02*
X103261905Y-100204819D01*
X103261905Y-100204819D02*
X103500000Y-100204819D01*
X103500000Y-100204819D02*
X103642857Y-100252438D01*
X103642857Y-100252438D02*
X103738095Y-100347676D01*
X103738095Y-100347676D02*
X103785714Y-100442914D01*
X103785714Y-100442914D02*
X103833333Y-100633390D01*
X103833333Y-100633390D02*
X103833333Y-100776247D01*
X103833333Y-100776247D02*
X103785714Y-100966723D01*
X103785714Y-100966723D02*
X103738095Y-101061961D01*
X103738095Y-101061961D02*
X103642857Y-101157200D01*
X103642857Y-101157200D02*
X103500000Y-101204819D01*
X103500000Y-101204819D02*
X103261905Y-101204819D01*
X104690476Y-100204819D02*
X104500000Y-100204819D01*
X104500000Y-100204819D02*
X104404762Y-100252438D01*
X104404762Y-100252438D02*
X104357143Y-100300057D01*
X104357143Y-100300057D02*
X104261905Y-100442914D01*
X104261905Y-100442914D02*
X104214286Y-100633390D01*
X104214286Y-100633390D02*
X104214286Y-101014342D01*
X104214286Y-101014342D02*
X104261905Y-101109580D01*
X104261905Y-101109580D02*
X104309524Y-101157200D01*
X104309524Y-101157200D02*
X104404762Y-101204819D01*
X104404762Y-101204819D02*
X104595238Y-101204819D01*
X104595238Y-101204819D02*
X104690476Y-101157200D01*
X104690476Y-101157200D02*
X104738095Y-101109580D01*
X104738095Y-101109580D02*
X104785714Y-101014342D01*
X104785714Y-101014342D02*
X104785714Y-100776247D01*
X104785714Y-100776247D02*
X104738095Y-100681009D01*
X104738095Y-100681009D02*
X104690476Y-100633390D01*
X104690476Y-100633390D02*
X104595238Y-100585771D01*
X104595238Y-100585771D02*
X104404762Y-100585771D01*
X104404762Y-100585771D02*
X104309524Y-100633390D01*
X104309524Y-100633390D02*
X104261905Y-100681009D01*
X104261905Y-100681009D02*
X104214286Y-100776247D01*
X120333333Y-111284819D02*
X120000000Y-110808628D01*
X119761905Y-111284819D02*
X119761905Y-110284819D01*
X119761905Y-110284819D02*
X120142857Y-110284819D01*
X120142857Y-110284819D02*
X120238095Y-110332438D01*
X120238095Y-110332438D02*
X120285714Y-110380057D01*
X120285714Y-110380057D02*
X120333333Y-110475295D01*
X120333333Y-110475295D02*
X120333333Y-110618152D01*
X120333333Y-110618152D02*
X120285714Y-110713390D01*
X120285714Y-110713390D02*
X120238095Y-110761009D01*
X120238095Y-110761009D02*
X120142857Y-110808628D01*
X120142857Y-110808628D02*
X119761905Y-110808628D01*
X121285714Y-111284819D02*
X120714286Y-111284819D01*
X121000000Y-111284819D02*
X121000000Y-110284819D01*
X121000000Y-110284819D02*
X120904762Y-110427676D01*
X120904762Y-110427676D02*
X120809524Y-110522914D01*
X120809524Y-110522914D02*
X120714286Y-110570533D01*
X98166666Y-110704819D02*
X98166666Y-111419104D01*
X98166666Y-111419104D02*
X98119047Y-111561961D01*
X98119047Y-111561961D02*
X98023809Y-111657200D01*
X98023809Y-111657200D02*
X97880952Y-111704819D01*
X97880952Y-111704819D02*
X97785714Y-111704819D01*
X99071428Y-110704819D02*
X98880952Y-110704819D01*
X98880952Y-110704819D02*
X98785714Y-110752438D01*
X98785714Y-110752438D02*
X98738095Y-110800057D01*
X98738095Y-110800057D02*
X98642857Y-110942914D01*
X98642857Y-110942914D02*
X98595238Y-111133390D01*
X98595238Y-111133390D02*
X98595238Y-111514342D01*
X98595238Y-111514342D02*
X98642857Y-111609580D01*
X98642857Y-111609580D02*
X98690476Y-111657200D01*
X98690476Y-111657200D02*
X98785714Y-111704819D01*
X98785714Y-111704819D02*
X98976190Y-111704819D01*
X98976190Y-111704819D02*
X99071428Y-111657200D01*
X99071428Y-111657200D02*
X99119047Y-111609580D01*
X99119047Y-111609580D02*
X99166666Y-111514342D01*
X99166666Y-111514342D02*
X99166666Y-111276247D01*
X99166666Y-111276247D02*
X99119047Y-111181009D01*
X99119047Y-111181009D02*
X99071428Y-111133390D01*
X99071428Y-111133390D02*
X98976190Y-111085771D01*
X98976190Y-111085771D02*
X98785714Y-111085771D01*
X98785714Y-111085771D02*
X98690476Y-111133390D01*
X98690476Y-111133390D02*
X98642857Y-111181009D01*
X98642857Y-111181009D02*
X98595238Y-111276247D01*
X108273809Y-121458628D02*
X108273809Y-121934819D01*
X107940476Y-120934819D02*
X108273809Y-121458628D01*
X108273809Y-121458628D02*
X108607142Y-120934819D01*
X109464285Y-121934819D02*
X108892857Y-121934819D01*
X109178571Y-121934819D02*
X109178571Y-120934819D01*
X109178571Y-120934819D02*
X109083333Y-121077676D01*
X109083333Y-121077676D02*
X108988095Y-121172914D01*
X108988095Y-121172914D02*
X108892857Y-121220533D01*
X122988095Y-114854819D02*
X122988095Y-115664342D01*
X122988095Y-115664342D02*
X123035714Y-115759580D01*
X123035714Y-115759580D02*
X123083333Y-115807200D01*
X123083333Y-115807200D02*
X123178571Y-115854819D01*
X123178571Y-115854819D02*
X123369047Y-115854819D01*
X123369047Y-115854819D02*
X123464285Y-115807200D01*
X123464285Y-115807200D02*
X123511904Y-115759580D01*
X123511904Y-115759580D02*
X123559523Y-115664342D01*
X123559523Y-115664342D02*
X123559523Y-114854819D01*
X124559523Y-115854819D02*
X123988095Y-115854819D01*
X124273809Y-115854819D02*
X124273809Y-114854819D01*
X124273809Y-114854819D02*
X124178571Y-114997676D01*
X124178571Y-114997676D02*
X124083333Y-115092914D01*
X124083333Y-115092914D02*
X123988095Y-115140533D01*
X134333333Y-125624819D02*
X134000000Y-125148628D01*
X133761905Y-125624819D02*
X133761905Y-124624819D01*
X133761905Y-124624819D02*
X134142857Y-124624819D01*
X134142857Y-124624819D02*
X134238095Y-124672438D01*
X134238095Y-124672438D02*
X134285714Y-124720057D01*
X134285714Y-124720057D02*
X134333333Y-124815295D01*
X134333333Y-124815295D02*
X134333333Y-124958152D01*
X134333333Y-124958152D02*
X134285714Y-125053390D01*
X134285714Y-125053390D02*
X134238095Y-125101009D01*
X134238095Y-125101009D02*
X134142857Y-125148628D01*
X134142857Y-125148628D02*
X133761905Y-125148628D01*
X134666667Y-124624819D02*
X135333333Y-124624819D01*
X135333333Y-124624819D02*
X134904762Y-125624819D01*
X118289580Y-119666666D02*
X118337200Y-119714285D01*
X118337200Y-119714285D02*
X118384819Y-119857142D01*
X118384819Y-119857142D02*
X118384819Y-119952380D01*
X118384819Y-119952380D02*
X118337200Y-120095237D01*
X118337200Y-120095237D02*
X118241961Y-120190475D01*
X118241961Y-120190475D02*
X118146723Y-120238094D01*
X118146723Y-120238094D02*
X117956247Y-120285713D01*
X117956247Y-120285713D02*
X117813390Y-120285713D01*
X117813390Y-120285713D02*
X117622914Y-120238094D01*
X117622914Y-120238094D02*
X117527676Y-120190475D01*
X117527676Y-120190475D02*
X117432438Y-120095237D01*
X117432438Y-120095237D02*
X117384819Y-119952380D01*
X117384819Y-119952380D02*
X117384819Y-119857142D01*
X117384819Y-119857142D02*
X117432438Y-119714285D01*
X117432438Y-119714285D02*
X117480057Y-119666666D01*
X117384819Y-119333332D02*
X117384819Y-118666666D01*
X117384819Y-118666666D02*
X118384819Y-119095237D01*
X134011905Y-120874819D02*
X134011905Y-119874819D01*
X134011905Y-119874819D02*
X134250000Y-119874819D01*
X134250000Y-119874819D02*
X134392857Y-119922438D01*
X134392857Y-119922438D02*
X134488095Y-120017676D01*
X134488095Y-120017676D02*
X134535714Y-120112914D01*
X134535714Y-120112914D02*
X134583333Y-120303390D01*
X134583333Y-120303390D02*
X134583333Y-120446247D01*
X134583333Y-120446247D02*
X134535714Y-120636723D01*
X134535714Y-120636723D02*
X134488095Y-120731961D01*
X134488095Y-120731961D02*
X134392857Y-120827200D01*
X134392857Y-120827200D02*
X134250000Y-120874819D01*
X134250000Y-120874819D02*
X134011905Y-120874819D01*
X135488095Y-119874819D02*
X135011905Y-119874819D01*
X135011905Y-119874819D02*
X134964286Y-120351009D01*
X134964286Y-120351009D02*
X135011905Y-120303390D01*
X135011905Y-120303390D02*
X135107143Y-120255771D01*
X135107143Y-120255771D02*
X135345238Y-120255771D01*
X135345238Y-120255771D02*
X135440476Y-120303390D01*
X135440476Y-120303390D02*
X135488095Y-120351009D01*
X135488095Y-120351009D02*
X135535714Y-120446247D01*
X135535714Y-120446247D02*
X135535714Y-120684342D01*
X135535714Y-120684342D02*
X135488095Y-120779580D01*
X135488095Y-120779580D02*
X135440476Y-120827200D01*
X135440476Y-120827200D02*
X135345238Y-120874819D01*
X135345238Y-120874819D02*
X135107143Y-120874819D01*
X135107143Y-120874819D02*
X135011905Y-120827200D01*
X135011905Y-120827200D02*
X134964286Y-120779580D01*
X131333333Y-95454819D02*
X131000000Y-94978628D01*
X130761905Y-95454819D02*
X130761905Y-94454819D01*
X130761905Y-94454819D02*
X131142857Y-94454819D01*
X131142857Y-94454819D02*
X131238095Y-94502438D01*
X131238095Y-94502438D02*
X131285714Y-94550057D01*
X131285714Y-94550057D02*
X131333333Y-94645295D01*
X131333333Y-94645295D02*
X131333333Y-94788152D01*
X131333333Y-94788152D02*
X131285714Y-94883390D01*
X131285714Y-94883390D02*
X131238095Y-94931009D01*
X131238095Y-94931009D02*
X131142857Y-94978628D01*
X131142857Y-94978628D02*
X130761905Y-94978628D01*
X132238095Y-94454819D02*
X131761905Y-94454819D01*
X131761905Y-94454819D02*
X131714286Y-94931009D01*
X131714286Y-94931009D02*
X131761905Y-94883390D01*
X131761905Y-94883390D02*
X131857143Y-94835771D01*
X131857143Y-94835771D02*
X132095238Y-94835771D01*
X132095238Y-94835771D02*
X132190476Y-94883390D01*
X132190476Y-94883390D02*
X132238095Y-94931009D01*
X132238095Y-94931009D02*
X132285714Y-95026247D01*
X132285714Y-95026247D02*
X132285714Y-95264342D01*
X132285714Y-95264342D02*
X132238095Y-95359580D01*
X132238095Y-95359580D02*
X132190476Y-95407200D01*
X132190476Y-95407200D02*
X132095238Y-95454819D01*
X132095238Y-95454819D02*
X131857143Y-95454819D01*
X131857143Y-95454819D02*
X131761905Y-95407200D01*
X131761905Y-95407200D02*
X131714286Y-95359580D01*
X129204819Y-90833333D02*
X129919104Y-90833333D01*
X129919104Y-90833333D02*
X130061961Y-90880952D01*
X130061961Y-90880952D02*
X130157200Y-90976190D01*
X130157200Y-90976190D02*
X130204819Y-91119047D01*
X130204819Y-91119047D02*
X130204819Y-91214285D01*
X129538152Y-89928571D02*
X130204819Y-89928571D01*
X129157200Y-90166666D02*
X129871485Y-90404761D01*
X129871485Y-90404761D02*
X129871485Y-89785714D01*
X133539580Y-119166666D02*
X133587200Y-119214285D01*
X133587200Y-119214285D02*
X133634819Y-119357142D01*
X133634819Y-119357142D02*
X133634819Y-119452380D01*
X133634819Y-119452380D02*
X133587200Y-119595237D01*
X133587200Y-119595237D02*
X133491961Y-119690475D01*
X133491961Y-119690475D02*
X133396723Y-119738094D01*
X133396723Y-119738094D02*
X133206247Y-119785713D01*
X133206247Y-119785713D02*
X133063390Y-119785713D01*
X133063390Y-119785713D02*
X132872914Y-119738094D01*
X132872914Y-119738094D02*
X132777676Y-119690475D01*
X132777676Y-119690475D02*
X132682438Y-119595237D01*
X132682438Y-119595237D02*
X132634819Y-119452380D01*
X132634819Y-119452380D02*
X132634819Y-119357142D01*
X132634819Y-119357142D02*
X132682438Y-119214285D01*
X132682438Y-119214285D02*
X132730057Y-119166666D01*
X133063390Y-118595237D02*
X133015771Y-118690475D01*
X133015771Y-118690475D02*
X132968152Y-118738094D01*
X132968152Y-118738094D02*
X132872914Y-118785713D01*
X132872914Y-118785713D02*
X132825295Y-118785713D01*
X132825295Y-118785713D02*
X132730057Y-118738094D01*
X132730057Y-118738094D02*
X132682438Y-118690475D01*
X132682438Y-118690475D02*
X132634819Y-118595237D01*
X132634819Y-118595237D02*
X132634819Y-118404761D01*
X132634819Y-118404761D02*
X132682438Y-118309523D01*
X132682438Y-118309523D02*
X132730057Y-118261904D01*
X132730057Y-118261904D02*
X132825295Y-118214285D01*
X132825295Y-118214285D02*
X132872914Y-118214285D01*
X132872914Y-118214285D02*
X132968152Y-118261904D01*
X132968152Y-118261904D02*
X133015771Y-118309523D01*
X133015771Y-118309523D02*
X133063390Y-118404761D01*
X133063390Y-118404761D02*
X133063390Y-118595237D01*
X133063390Y-118595237D02*
X133111009Y-118690475D01*
X133111009Y-118690475D02*
X133158628Y-118738094D01*
X133158628Y-118738094D02*
X133253866Y-118785713D01*
X133253866Y-118785713D02*
X133444342Y-118785713D01*
X133444342Y-118785713D02*
X133539580Y-118738094D01*
X133539580Y-118738094D02*
X133587200Y-118690475D01*
X133587200Y-118690475D02*
X133634819Y-118595237D01*
X133634819Y-118595237D02*
X133634819Y-118404761D01*
X133634819Y-118404761D02*
X133587200Y-118309523D01*
X133587200Y-118309523D02*
X133539580Y-118261904D01*
X133539580Y-118261904D02*
X133444342Y-118214285D01*
X133444342Y-118214285D02*
X133253866Y-118214285D01*
X133253866Y-118214285D02*
X133158628Y-118261904D01*
X133158628Y-118261904D02*
X133111009Y-118309523D01*
X133111009Y-118309523D02*
X133063390Y-118404761D01*
X151289580Y-119166666D02*
X151337200Y-119214285D01*
X151337200Y-119214285D02*
X151384819Y-119357142D01*
X151384819Y-119357142D02*
X151384819Y-119452380D01*
X151384819Y-119452380D02*
X151337200Y-119595237D01*
X151337200Y-119595237D02*
X151241961Y-119690475D01*
X151241961Y-119690475D02*
X151146723Y-119738094D01*
X151146723Y-119738094D02*
X150956247Y-119785713D01*
X150956247Y-119785713D02*
X150813390Y-119785713D01*
X150813390Y-119785713D02*
X150622914Y-119738094D01*
X150622914Y-119738094D02*
X150527676Y-119690475D01*
X150527676Y-119690475D02*
X150432438Y-119595237D01*
X150432438Y-119595237D02*
X150384819Y-119452380D01*
X150384819Y-119452380D02*
X150384819Y-119357142D01*
X150384819Y-119357142D02*
X150432438Y-119214285D01*
X150432438Y-119214285D02*
X150480057Y-119166666D01*
X150718152Y-118309523D02*
X151384819Y-118309523D01*
X150337200Y-118547618D02*
X151051485Y-118785713D01*
X151051485Y-118785713D02*
X151051485Y-118166666D01*
X129333333Y-109874819D02*
X129000000Y-109398628D01*
X128761905Y-109874819D02*
X128761905Y-108874819D01*
X128761905Y-108874819D02*
X129142857Y-108874819D01*
X129142857Y-108874819D02*
X129238095Y-108922438D01*
X129238095Y-108922438D02*
X129285714Y-108970057D01*
X129285714Y-108970057D02*
X129333333Y-109065295D01*
X129333333Y-109065295D02*
X129333333Y-109208152D01*
X129333333Y-109208152D02*
X129285714Y-109303390D01*
X129285714Y-109303390D02*
X129238095Y-109351009D01*
X129238095Y-109351009D02*
X129142857Y-109398628D01*
X129142857Y-109398628D02*
X128761905Y-109398628D01*
X130190476Y-108874819D02*
X130000000Y-108874819D01*
X130000000Y-108874819D02*
X129904762Y-108922438D01*
X129904762Y-108922438D02*
X129857143Y-108970057D01*
X129857143Y-108970057D02*
X129761905Y-109112914D01*
X129761905Y-109112914D02*
X129714286Y-109303390D01*
X129714286Y-109303390D02*
X129714286Y-109684342D01*
X129714286Y-109684342D02*
X129761905Y-109779580D01*
X129761905Y-109779580D02*
X129809524Y-109827200D01*
X129809524Y-109827200D02*
X129904762Y-109874819D01*
X129904762Y-109874819D02*
X130095238Y-109874819D01*
X130095238Y-109874819D02*
X130190476Y-109827200D01*
X130190476Y-109827200D02*
X130238095Y-109779580D01*
X130238095Y-109779580D02*
X130285714Y-109684342D01*
X130285714Y-109684342D02*
X130285714Y-109446247D01*
X130285714Y-109446247D02*
X130238095Y-109351009D01*
X130238095Y-109351009D02*
X130190476Y-109303390D01*
X130190476Y-109303390D02*
X130095238Y-109255771D01*
X130095238Y-109255771D02*
X129904762Y-109255771D01*
X129904762Y-109255771D02*
X129809524Y-109303390D01*
X129809524Y-109303390D02*
X129761905Y-109351009D01*
X129761905Y-109351009D02*
X129714286Y-109446247D01*
X117228628Y-105476190D02*
X117704819Y-105476190D01*
X116704819Y-105809523D02*
X117228628Y-105476190D01*
X117228628Y-105476190D02*
X116704819Y-105142857D01*
X116800057Y-104857142D02*
X116752438Y-104809523D01*
X116752438Y-104809523D02*
X116704819Y-104714285D01*
X116704819Y-104714285D02*
X116704819Y-104476190D01*
X116704819Y-104476190D02*
X116752438Y-104380952D01*
X116752438Y-104380952D02*
X116800057Y-104333333D01*
X116800057Y-104333333D02*
X116895295Y-104285714D01*
X116895295Y-104285714D02*
X116990533Y-104285714D01*
X116990533Y-104285714D02*
X117133390Y-104333333D01*
X117133390Y-104333333D02*
X117704819Y-104904761D01*
X117704819Y-104904761D02*
X117704819Y-104285714D01*
X109929580Y-119666666D02*
X109977200Y-119714285D01*
X109977200Y-119714285D02*
X110024819Y-119857142D01*
X110024819Y-119857142D02*
X110024819Y-119952380D01*
X110024819Y-119952380D02*
X109977200Y-120095237D01*
X109977200Y-120095237D02*
X109881961Y-120190475D01*
X109881961Y-120190475D02*
X109786723Y-120238094D01*
X109786723Y-120238094D02*
X109596247Y-120285713D01*
X109596247Y-120285713D02*
X109453390Y-120285713D01*
X109453390Y-120285713D02*
X109262914Y-120238094D01*
X109262914Y-120238094D02*
X109167676Y-120190475D01*
X109167676Y-120190475D02*
X109072438Y-120095237D01*
X109072438Y-120095237D02*
X109024819Y-119952380D01*
X109024819Y-119952380D02*
X109024819Y-119857142D01*
X109024819Y-119857142D02*
X109072438Y-119714285D01*
X109072438Y-119714285D02*
X109120057Y-119666666D01*
X109024819Y-118809523D02*
X109024819Y-118999999D01*
X109024819Y-118999999D02*
X109072438Y-119095237D01*
X109072438Y-119095237D02*
X109120057Y-119142856D01*
X109120057Y-119142856D02*
X109262914Y-119238094D01*
X109262914Y-119238094D02*
X109453390Y-119285713D01*
X109453390Y-119285713D02*
X109834342Y-119285713D01*
X109834342Y-119285713D02*
X109929580Y-119238094D01*
X109929580Y-119238094D02*
X109977200Y-119190475D01*
X109977200Y-119190475D02*
X110024819Y-119095237D01*
X110024819Y-119095237D02*
X110024819Y-118904761D01*
X110024819Y-118904761D02*
X109977200Y-118809523D01*
X109977200Y-118809523D02*
X109929580Y-118761904D01*
X109929580Y-118761904D02*
X109834342Y-118714285D01*
X109834342Y-118714285D02*
X109596247Y-118714285D01*
X109596247Y-118714285D02*
X109501009Y-118761904D01*
X109501009Y-118761904D02*
X109453390Y-118809523D01*
X109453390Y-118809523D02*
X109405771Y-118904761D01*
X109405771Y-118904761D02*
X109405771Y-119095237D01*
X109405771Y-119095237D02*
X109453390Y-119190475D01*
X109453390Y-119190475D02*
X109501009Y-119238094D01*
X109501009Y-119238094D02*
X109596247Y-119285713D01*
X116974819Y-132833333D02*
X117689104Y-132833333D01*
X117689104Y-132833333D02*
X117831961Y-132880952D01*
X117831961Y-132880952D02*
X117927200Y-132976190D01*
X117927200Y-132976190D02*
X117974819Y-133119047D01*
X117974819Y-133119047D02*
X117974819Y-133214285D01*
X117070057Y-132404761D02*
X117022438Y-132357142D01*
X117022438Y-132357142D02*
X116974819Y-132261904D01*
X116974819Y-132261904D02*
X116974819Y-132023809D01*
X116974819Y-132023809D02*
X117022438Y-131928571D01*
X117022438Y-131928571D02*
X117070057Y-131880952D01*
X117070057Y-131880952D02*
X117165295Y-131833333D01*
X117165295Y-131833333D02*
X117260533Y-131833333D01*
X117260533Y-131833333D02*
X117403390Y-131880952D01*
X117403390Y-131880952D02*
X117974819Y-132452380D01*
X117974819Y-132452380D02*
X117974819Y-131833333D01*
X117039580Y-99716666D02*
X117087200Y-99764285D01*
X117087200Y-99764285D02*
X117134819Y-99907142D01*
X117134819Y-99907142D02*
X117134819Y-100002380D01*
X117134819Y-100002380D02*
X117087200Y-100145237D01*
X117087200Y-100145237D02*
X116991961Y-100240475D01*
X116991961Y-100240475D02*
X116896723Y-100288094D01*
X116896723Y-100288094D02*
X116706247Y-100335713D01*
X116706247Y-100335713D02*
X116563390Y-100335713D01*
X116563390Y-100335713D02*
X116372914Y-100288094D01*
X116372914Y-100288094D02*
X116277676Y-100240475D01*
X116277676Y-100240475D02*
X116182438Y-100145237D01*
X116182438Y-100145237D02*
X116134819Y-100002380D01*
X116134819Y-100002380D02*
X116134819Y-99907142D01*
X116134819Y-99907142D02*
X116182438Y-99764285D01*
X116182438Y-99764285D02*
X116230057Y-99716666D01*
X116134819Y-99383332D02*
X116134819Y-98764285D01*
X116134819Y-98764285D02*
X116515771Y-99097618D01*
X116515771Y-99097618D02*
X116515771Y-98954761D01*
X116515771Y-98954761D02*
X116563390Y-98859523D01*
X116563390Y-98859523D02*
X116611009Y-98811904D01*
X116611009Y-98811904D02*
X116706247Y-98764285D01*
X116706247Y-98764285D02*
X116944342Y-98764285D01*
X116944342Y-98764285D02*
X117039580Y-98811904D01*
X117039580Y-98811904D02*
X117087200Y-98859523D01*
X117087200Y-98859523D02*
X117134819Y-98954761D01*
X117134819Y-98954761D02*
X117134819Y-99240475D01*
X117134819Y-99240475D02*
X117087200Y-99335713D01*
X117087200Y-99335713D02*
X117039580Y-99383332D01*
X151704819Y-113988094D02*
X150704819Y-113988094D01*
X150704819Y-113988094D02*
X150704819Y-113749999D01*
X150704819Y-113749999D02*
X150752438Y-113607142D01*
X150752438Y-113607142D02*
X150847676Y-113511904D01*
X150847676Y-113511904D02*
X150942914Y-113464285D01*
X150942914Y-113464285D02*
X151133390Y-113416666D01*
X151133390Y-113416666D02*
X151276247Y-113416666D01*
X151276247Y-113416666D02*
X151466723Y-113464285D01*
X151466723Y-113464285D02*
X151561961Y-113511904D01*
X151561961Y-113511904D02*
X151657200Y-113607142D01*
X151657200Y-113607142D02*
X151704819Y-113749999D01*
X151704819Y-113749999D02*
X151704819Y-113988094D01*
X150704819Y-113083332D02*
X150704819Y-112416666D01*
X150704819Y-112416666D02*
X151704819Y-112845237D01*
X138429580Y-124166666D02*
X138477200Y-124214285D01*
X138477200Y-124214285D02*
X138524819Y-124357142D01*
X138524819Y-124357142D02*
X138524819Y-124452380D01*
X138524819Y-124452380D02*
X138477200Y-124595237D01*
X138477200Y-124595237D02*
X138381961Y-124690475D01*
X138381961Y-124690475D02*
X138286723Y-124738094D01*
X138286723Y-124738094D02*
X138096247Y-124785713D01*
X138096247Y-124785713D02*
X137953390Y-124785713D01*
X137953390Y-124785713D02*
X137762914Y-124738094D01*
X137762914Y-124738094D02*
X137667676Y-124690475D01*
X137667676Y-124690475D02*
X137572438Y-124595237D01*
X137572438Y-124595237D02*
X137524819Y-124452380D01*
X137524819Y-124452380D02*
X137524819Y-124357142D01*
X137524819Y-124357142D02*
X137572438Y-124214285D01*
X137572438Y-124214285D02*
X137620057Y-124166666D01*
X138524819Y-123690475D02*
X138524819Y-123499999D01*
X138524819Y-123499999D02*
X138477200Y-123404761D01*
X138477200Y-123404761D02*
X138429580Y-123357142D01*
X138429580Y-123357142D02*
X138286723Y-123261904D01*
X138286723Y-123261904D02*
X138096247Y-123214285D01*
X138096247Y-123214285D02*
X137715295Y-123214285D01*
X137715295Y-123214285D02*
X137620057Y-123261904D01*
X137620057Y-123261904D02*
X137572438Y-123309523D01*
X137572438Y-123309523D02*
X137524819Y-123404761D01*
X137524819Y-123404761D02*
X137524819Y-123595237D01*
X137524819Y-123595237D02*
X137572438Y-123690475D01*
X137572438Y-123690475D02*
X137620057Y-123738094D01*
X137620057Y-123738094D02*
X137715295Y-123785713D01*
X137715295Y-123785713D02*
X137953390Y-123785713D01*
X137953390Y-123785713D02*
X138048628Y-123738094D01*
X138048628Y-123738094D02*
X138096247Y-123690475D01*
X138096247Y-123690475D02*
X138143866Y-123595237D01*
X138143866Y-123595237D02*
X138143866Y-123404761D01*
X138143866Y-123404761D02*
X138096247Y-123309523D01*
X138096247Y-123309523D02*
X138048628Y-123261904D01*
X138048628Y-123261904D02*
X137953390Y-123214285D01*
X133238095Y-104954819D02*
X133238095Y-105764342D01*
X133238095Y-105764342D02*
X133285714Y-105859580D01*
X133285714Y-105859580D02*
X133333333Y-105907200D01*
X133333333Y-105907200D02*
X133428571Y-105954819D01*
X133428571Y-105954819D02*
X133619047Y-105954819D01*
X133619047Y-105954819D02*
X133714285Y-105907200D01*
X133714285Y-105907200D02*
X133761904Y-105859580D01*
X133761904Y-105859580D02*
X133809523Y-105764342D01*
X133809523Y-105764342D02*
X133809523Y-104954819D01*
X134238095Y-105050057D02*
X134285714Y-105002438D01*
X134285714Y-105002438D02*
X134380952Y-104954819D01*
X134380952Y-104954819D02*
X134619047Y-104954819D01*
X134619047Y-104954819D02*
X134714285Y-105002438D01*
X134714285Y-105002438D02*
X134761904Y-105050057D01*
X134761904Y-105050057D02*
X134809523Y-105145295D01*
X134809523Y-105145295D02*
X134809523Y-105240533D01*
X134809523Y-105240533D02*
X134761904Y-105383390D01*
X134761904Y-105383390D02*
X134190476Y-105954819D01*
X134190476Y-105954819D02*
X134809523Y-105954819D01*
X142333333Y-103929580D02*
X142285714Y-103977200D01*
X142285714Y-103977200D02*
X142142857Y-104024819D01*
X142142857Y-104024819D02*
X142047619Y-104024819D01*
X142047619Y-104024819D02*
X141904762Y-103977200D01*
X141904762Y-103977200D02*
X141809524Y-103881961D01*
X141809524Y-103881961D02*
X141761905Y-103786723D01*
X141761905Y-103786723D02*
X141714286Y-103596247D01*
X141714286Y-103596247D02*
X141714286Y-103453390D01*
X141714286Y-103453390D02*
X141761905Y-103262914D01*
X141761905Y-103262914D02*
X141809524Y-103167676D01*
X141809524Y-103167676D02*
X141904762Y-103072438D01*
X141904762Y-103072438D02*
X142047619Y-103024819D01*
X142047619Y-103024819D02*
X142142857Y-103024819D01*
X142142857Y-103024819D02*
X142285714Y-103072438D01*
X142285714Y-103072438D02*
X142333333Y-103120057D01*
X143285714Y-104024819D02*
X142714286Y-104024819D01*
X143000000Y-104024819D02*
X143000000Y-103024819D01*
X143000000Y-103024819D02*
X142904762Y-103167676D01*
X142904762Y-103167676D02*
X142809524Y-103262914D01*
X142809524Y-103262914D02*
X142714286Y-103310533D01*
X146916667Y-127607200D02*
X147059524Y-127654819D01*
X147059524Y-127654819D02*
X147297619Y-127654819D01*
X147297619Y-127654819D02*
X147392857Y-127607200D01*
X147392857Y-127607200D02*
X147440476Y-127559580D01*
X147440476Y-127559580D02*
X147488095Y-127464342D01*
X147488095Y-127464342D02*
X147488095Y-127369104D01*
X147488095Y-127369104D02*
X147440476Y-127273866D01*
X147440476Y-127273866D02*
X147392857Y-127226247D01*
X147392857Y-127226247D02*
X147297619Y-127178628D01*
X147297619Y-127178628D02*
X147107143Y-127131009D01*
X147107143Y-127131009D02*
X147011905Y-127083390D01*
X147011905Y-127083390D02*
X146964286Y-127035771D01*
X146964286Y-127035771D02*
X146916667Y-126940533D01*
X146916667Y-126940533D02*
X146916667Y-126845295D01*
X146916667Y-126845295D02*
X146964286Y-126750057D01*
X146964286Y-126750057D02*
X147011905Y-126702438D01*
X147011905Y-126702438D02*
X147107143Y-126654819D01*
X147107143Y-126654819D02*
X147345238Y-126654819D01*
X147345238Y-126654819D02*
X147488095Y-126702438D01*
X147821429Y-126654819D02*
X148059524Y-127654819D01*
X148059524Y-127654819D02*
X148250000Y-126940533D01*
X148250000Y-126940533D02*
X148440476Y-127654819D01*
X148440476Y-127654819D02*
X148678572Y-126654819D01*
X149583333Y-127654819D02*
X149011905Y-127654819D01*
X149297619Y-127654819D02*
X149297619Y-126654819D01*
X149297619Y-126654819D02*
X149202381Y-126797676D01*
X149202381Y-126797676D02*
X149107143Y-126892914D01*
X149107143Y-126892914D02*
X149011905Y-126940533D01*
X137083333Y-107289580D02*
X137035714Y-107337200D01*
X137035714Y-107337200D02*
X136892857Y-107384819D01*
X136892857Y-107384819D02*
X136797619Y-107384819D01*
X136797619Y-107384819D02*
X136654762Y-107337200D01*
X136654762Y-107337200D02*
X136559524Y-107241961D01*
X136559524Y-107241961D02*
X136511905Y-107146723D01*
X136511905Y-107146723D02*
X136464286Y-106956247D01*
X136464286Y-106956247D02*
X136464286Y-106813390D01*
X136464286Y-106813390D02*
X136511905Y-106622914D01*
X136511905Y-106622914D02*
X136559524Y-106527676D01*
X136559524Y-106527676D02*
X136654762Y-106432438D01*
X136654762Y-106432438D02*
X136797619Y-106384819D01*
X136797619Y-106384819D02*
X136892857Y-106384819D01*
X136892857Y-106384819D02*
X137035714Y-106432438D01*
X137035714Y-106432438D02*
X137083333Y-106480057D01*
X137464286Y-106480057D02*
X137511905Y-106432438D01*
X137511905Y-106432438D02*
X137607143Y-106384819D01*
X137607143Y-106384819D02*
X137845238Y-106384819D01*
X137845238Y-106384819D02*
X137940476Y-106432438D01*
X137940476Y-106432438D02*
X137988095Y-106480057D01*
X137988095Y-106480057D02*
X138035714Y-106575295D01*
X138035714Y-106575295D02*
X138035714Y-106670533D01*
X138035714Y-106670533D02*
X137988095Y-106813390D01*
X137988095Y-106813390D02*
X137416667Y-107384819D01*
X137416667Y-107384819D02*
X138035714Y-107384819D01*
X152916666Y-113454819D02*
X152916666Y-114169104D01*
X152916666Y-114169104D02*
X152869047Y-114311961D01*
X152869047Y-114311961D02*
X152773809Y-114407200D01*
X152773809Y-114407200D02*
X152630952Y-114454819D01*
X152630952Y-114454819D02*
X152535714Y-114454819D01*
X153916666Y-114454819D02*
X153345238Y-114454819D01*
X153630952Y-114454819D02*
X153630952Y-113454819D01*
X153630952Y-113454819D02*
X153535714Y-113597676D01*
X153535714Y-113597676D02*
X153440476Y-113692914D01*
X153440476Y-113692914D02*
X153345238Y-113740533D01*
X98166666Y-96014819D02*
X98166666Y-96729104D01*
X98166666Y-96729104D02*
X98119047Y-96871961D01*
X98119047Y-96871961D02*
X98023809Y-96967200D01*
X98023809Y-96967200D02*
X97880952Y-97014819D01*
X97880952Y-97014819D02*
X97785714Y-97014819D01*
X98547619Y-96014819D02*
X99166666Y-96014819D01*
X99166666Y-96014819D02*
X98833333Y-96395771D01*
X98833333Y-96395771D02*
X98976190Y-96395771D01*
X98976190Y-96395771D02*
X99071428Y-96443390D01*
X99071428Y-96443390D02*
X99119047Y-96491009D01*
X99119047Y-96491009D02*
X99166666Y-96586247D01*
X99166666Y-96586247D02*
X99166666Y-96824342D01*
X99166666Y-96824342D02*
X99119047Y-96919580D01*
X99119047Y-96919580D02*
X99071428Y-96967200D01*
X99071428Y-96967200D02*
X98976190Y-97014819D01*
X98976190Y-97014819D02*
X98690476Y-97014819D01*
X98690476Y-97014819D02*
X98595238Y-96967200D01*
X98595238Y-96967200D02*
X98547619Y-96919580D01*
X117304819Y-102011904D02*
X118114342Y-102011904D01*
X118114342Y-102011904D02*
X118209580Y-101964285D01*
X118209580Y-101964285D02*
X118257200Y-101916666D01*
X118257200Y-101916666D02*
X118304819Y-101821428D01*
X118304819Y-101821428D02*
X118304819Y-101630952D01*
X118304819Y-101630952D02*
X118257200Y-101535714D01*
X118257200Y-101535714D02*
X118209580Y-101488095D01*
X118209580Y-101488095D02*
X118114342Y-101440476D01*
X118114342Y-101440476D02*
X117304819Y-101440476D01*
X117638152Y-100535714D02*
X118304819Y-100535714D01*
X117257200Y-100773809D02*
X117971485Y-101011904D01*
X117971485Y-101011904D02*
X117971485Y-100392857D01*
X118833333Y-97284819D02*
X118500000Y-96808628D01*
X118261905Y-97284819D02*
X118261905Y-96284819D01*
X118261905Y-96284819D02*
X118642857Y-96284819D01*
X118642857Y-96284819D02*
X118738095Y-96332438D01*
X118738095Y-96332438D02*
X118785714Y-96380057D01*
X118785714Y-96380057D02*
X118833333Y-96475295D01*
X118833333Y-96475295D02*
X118833333Y-96618152D01*
X118833333Y-96618152D02*
X118785714Y-96713390D01*
X118785714Y-96713390D02*
X118738095Y-96761009D01*
X118738095Y-96761009D02*
X118642857Y-96808628D01*
X118642857Y-96808628D02*
X118261905Y-96808628D01*
X119214286Y-96380057D02*
X119261905Y-96332438D01*
X119261905Y-96332438D02*
X119357143Y-96284819D01*
X119357143Y-96284819D02*
X119595238Y-96284819D01*
X119595238Y-96284819D02*
X119690476Y-96332438D01*
X119690476Y-96332438D02*
X119738095Y-96380057D01*
X119738095Y-96380057D02*
X119785714Y-96475295D01*
X119785714Y-96475295D02*
X119785714Y-96570533D01*
X119785714Y-96570533D02*
X119738095Y-96713390D01*
X119738095Y-96713390D02*
X119166667Y-97284819D01*
X119166667Y-97284819D02*
X119785714Y-97284819D01*
%TO.C,U3*%
D12*
X143665000Y-97595000D02*
X147785000Y-97595000D01*
X143665000Y-97690000D02*
X143665000Y-97595000D01*
X143665000Y-102715000D02*
X143665000Y-102620000D01*
X147785000Y-97595000D02*
X147785000Y-97690000D01*
X147785000Y-102620000D02*
X147785000Y-102715000D01*
X147785000Y-102715000D02*
X143665000Y-102715000D01*
X148325000Y-102625000D02*
X148565000Y-102955000D01*
X148085000Y-102955000D01*
X148325000Y-102625000D01*
G36*
X148565000Y-102955000D02*
G01*
X148085000Y-102955000D01*
X148325000Y-102625000D01*
X148565000Y-102955000D01*
G37*
D13*
%TO.C,G\u002A\u002A\u002A*%
G36*
X109858729Y-89828522D02*
G01*
X109938404Y-89844988D01*
X110022300Y-89864581D01*
X110094465Y-89883821D01*
X110134026Y-89897030D01*
X110161676Y-89913766D01*
X110158005Y-89937987D01*
X110119493Y-89983299D01*
X110108812Y-89994513D01*
X110043220Y-90050176D01*
X109979166Y-90066172D01*
X109905964Y-90053613D01*
X109874800Y-90025456D01*
X109835795Y-89966673D01*
X109799921Y-89897058D01*
X109778149Y-89836403D01*
X109775847Y-89818892D01*
X109799226Y-89818664D01*
X109858729Y-89828522D01*
G37*
G36*
X109681410Y-89329392D02*
G01*
X109776606Y-89350106D01*
X109879898Y-89378440D01*
X109977089Y-89410908D01*
X110050261Y-89442115D01*
X110171049Y-89521252D01*
X110239742Y-89609541D01*
X110255760Y-89706228D01*
X110255397Y-89709445D01*
X110246716Y-89781160D01*
X110173860Y-89723579D01*
X110094616Y-89675848D01*
X109985628Y-89628252D01*
X109868343Y-89588510D01*
X109764209Y-89564343D01*
X109720743Y-89560487D01*
X109669765Y-89551514D01*
X109633865Y-89515623D01*
X109602748Y-89449501D01*
X109578760Y-89379732D01*
X109570028Y-89333148D01*
X109572098Y-89324758D01*
X109608509Y-89319781D01*
X109681410Y-89329392D01*
G37*
G36*
X108851178Y-88208421D02*
G01*
X108904713Y-88324671D01*
X108970377Y-88467964D01*
X109038110Y-88616319D01*
X109075945Y-88699470D01*
X109124269Y-88805731D01*
X109189924Y-88949929D01*
X109267892Y-89121048D01*
X109353151Y-89308074D01*
X109440682Y-89499990D01*
X109490064Y-89608217D01*
X109567598Y-89779054D01*
X109637141Y-89934084D01*
X109695704Y-90066497D01*
X109740296Y-90169479D01*
X109767927Y-90236218D01*
X109775847Y-90259400D01*
X109752067Y-90285530D01*
X109686140Y-90327082D01*
X109586184Y-90380537D01*
X109460317Y-90442378D01*
X109316656Y-90509087D01*
X109163320Y-90577147D01*
X109008427Y-90643041D01*
X108860095Y-90703249D01*
X108726442Y-90754256D01*
X108615586Y-90792543D01*
X108535645Y-90814593D01*
X108494737Y-90816888D01*
X108492594Y-90815440D01*
X108476685Y-90786892D01*
X108442741Y-90718222D01*
X108394894Y-90618347D01*
X108337273Y-90496182D01*
X108274008Y-90360645D01*
X108209231Y-90220650D01*
X108147071Y-90085113D01*
X108091657Y-89962952D01*
X108047121Y-89863081D01*
X108017593Y-89794417D01*
X108007855Y-89769014D01*
X107987658Y-89729271D01*
X107975954Y-89721927D01*
X107959306Y-89745115D01*
X107924953Y-89809116D01*
X107877087Y-89905583D01*
X107819899Y-90026172D01*
X107784018Y-90104082D01*
X107707435Y-90271895D01*
X107623061Y-90456414D01*
X107540486Y-90636688D01*
X107469300Y-90791764D01*
X107461059Y-90809682D01*
X107312267Y-91133129D01*
X107017097Y-91178036D01*
X106721927Y-91222943D01*
X106668114Y-91158153D01*
X106579364Y-91088228D01*
X106472927Y-91058351D01*
X106363296Y-91067201D01*
X106264962Y-91113457D01*
X106192418Y-91195798D01*
X106189231Y-91201800D01*
X106153842Y-91324025D01*
X106170510Y-91443739D01*
X106237883Y-91551820D01*
X106241629Y-91555789D01*
X106334505Y-91617310D01*
X106444303Y-91637624D01*
X106553587Y-91616487D01*
X106637538Y-91561373D01*
X106683959Y-91509249D01*
X106707680Y-91471462D01*
X106708474Y-91467199D01*
X106731504Y-91449669D01*
X106775156Y-91443961D01*
X106852033Y-91438320D01*
X106970795Y-91422664D01*
X107120850Y-91398895D01*
X107291606Y-91368915D01*
X107472472Y-91334625D01*
X107652853Y-91297928D01*
X107822160Y-91260724D01*
X107905826Y-91240954D01*
X108321739Y-91130239D01*
X108710735Y-91007883D01*
X109069488Y-90875593D01*
X109394670Y-90735077D01*
X109682955Y-90588042D01*
X109931018Y-90436195D01*
X110135531Y-90281243D01*
X110293168Y-90124895D01*
X110400602Y-89968856D01*
X110406369Y-89957562D01*
X110475423Y-89818989D01*
X110475423Y-89955050D01*
X110479331Y-90069954D01*
X110489083Y-90190620D01*
X110492904Y-90222674D01*
X110510385Y-90354237D01*
X110452379Y-90302830D01*
X110409025Y-90269537D01*
X110387525Y-90262470D01*
X110366999Y-90288976D01*
X110330554Y-90333120D01*
X110297977Y-90376889D01*
X110305315Y-90401304D01*
X110351020Y-90424886D01*
X110407385Y-90460860D01*
X110415562Y-90502248D01*
X110376718Y-90559758D01*
X110366854Y-90570494D01*
X110325278Y-90606551D01*
X110280935Y-90615559D01*
X110210725Y-90601708D01*
X110204266Y-90599996D01*
X110101571Y-90587295D01*
X110036125Y-90613227D01*
X110008657Y-90676900D01*
X110019900Y-90777418D01*
X110030287Y-90812664D01*
X110032508Y-90841300D01*
X110014284Y-90870751D01*
X109968072Y-90907498D01*
X109886331Y-90958022D01*
X109811124Y-91001012D01*
X109667142Y-91078824D01*
X109504540Y-91161347D01*
X109335128Y-91243097D01*
X109170717Y-91318589D01*
X109023117Y-91382343D01*
X108904138Y-91428873D01*
X108853420Y-91445655D01*
X108804689Y-91454996D01*
X108774002Y-91438832D01*
X108746185Y-91386149D01*
X108735535Y-91360089D01*
X108703155Y-91297116D01*
X108672187Y-91264931D01*
X108662411Y-91263988D01*
X108533148Y-91307959D01*
X108362769Y-91358371D01*
X108163132Y-91412202D01*
X107946096Y-91466430D01*
X107723520Y-91518034D01*
X107507263Y-91563992D01*
X107411440Y-91582733D01*
X107078495Y-91645762D01*
X107012322Y-91797539D01*
X106946149Y-91949316D01*
X106745492Y-91979160D01*
X106596154Y-91999399D01*
X106488215Y-92007593D01*
X106410356Y-92002512D01*
X106351260Y-91982922D01*
X106299608Y-91947593D01*
X106277966Y-91928283D01*
X106171650Y-91861017D01*
X106057152Y-91843808D01*
X105944811Y-91876726D01*
X105877209Y-91925625D01*
X105821804Y-91988033D01*
X105797898Y-92053598D01*
X105793644Y-92125362D01*
X105815519Y-92250525D01*
X105874426Y-92345821D01*
X105960287Y-92407394D01*
X106063024Y-92431387D01*
X106172560Y-92413945D01*
X106278815Y-92351211D01*
X106308964Y-92322543D01*
X106343230Y-92292800D01*
X106388061Y-92270088D01*
X106454180Y-92251381D01*
X106552307Y-92233657D01*
X106693164Y-92213889D01*
X106695021Y-92213645D01*
X107127792Y-92147038D01*
X107558056Y-92062062D01*
X107980656Y-91960656D01*
X108390431Y-91844760D01*
X108782223Y-91716310D01*
X109150873Y-91577246D01*
X109491222Y-91429506D01*
X109798111Y-91275029D01*
X110066381Y-91115753D01*
X110290873Y-90953617D01*
X110457949Y-90799713D01*
X110547250Y-90692430D01*
X110621681Y-90580820D01*
X110673027Y-90478770D01*
X110692990Y-90402396D01*
X110700584Y-90390834D01*
X110716266Y-90424740D01*
X110719471Y-90434957D01*
X110731841Y-90509760D01*
X110727189Y-90567834D01*
X110718369Y-90623527D01*
X110713582Y-90709766D01*
X110713359Y-90769635D01*
X110712681Y-90851696D01*
X110705953Y-90885757D01*
X110691798Y-90877431D01*
X110688320Y-90871804D01*
X110671970Y-90854962D01*
X110647566Y-90858209D01*
X110608017Y-90886566D01*
X110546231Y-90945054D01*
X110460341Y-91033244D01*
X110367187Y-91133065D01*
X110308257Y-91206264D01*
X110278837Y-91263360D01*
X110274209Y-91314872D01*
X110289658Y-91371319D01*
X110298731Y-91393703D01*
X110296740Y-91424403D01*
X110262972Y-91464553D01*
X110191296Y-91520293D01*
X110131181Y-91561355D01*
X110021805Y-91629890D01*
X109889304Y-91706430D01*
X109742659Y-91786481D01*
X109590853Y-91865552D01*
X109442866Y-91939150D01*
X109307680Y-92002784D01*
X109194278Y-92051960D01*
X109111640Y-92082188D01*
X109074769Y-92089724D01*
X109053385Y-92066846D01*
X109027602Y-92010342D01*
X109022457Y-91995550D01*
X108994394Y-91934038D01*
X108964822Y-91902479D01*
X108959609Y-91901377D01*
X108921333Y-91909911D01*
X108845945Y-91932731D01*
X108746882Y-91965662D01*
X108699355Y-91982244D01*
X108400069Y-92079864D01*
X108064477Y-92174988D01*
X107710056Y-92263332D01*
X107354283Y-92340610D01*
X107014636Y-92402537D01*
X106933307Y-92415266D01*
X106714177Y-92448282D01*
X106639685Y-92604137D01*
X106595975Y-92687070D01*
X106556043Y-92748414D01*
X106531208Y-92773034D01*
X106491370Y-92781708D01*
X106411200Y-92794648D01*
X106303812Y-92809840D01*
X106223772Y-92820202D01*
X106100223Y-92835079D01*
X106018769Y-92842160D01*
X105968146Y-92840660D01*
X105937096Y-92829796D01*
X105914356Y-92808784D01*
X105905616Y-92798057D01*
X105810290Y-92717161D01*
X105696546Y-92683703D01*
X105575177Y-92699929D01*
X105529015Y-92719738D01*
X105454431Y-92780170D01*
X105398306Y-92879206D01*
X105379566Y-92931360D01*
X105379603Y-93002721D01*
X105409389Y-93089896D01*
X105458969Y-93172373D01*
X105518389Y-93229639D01*
X105526575Y-93234296D01*
X105643225Y-93272808D01*
X105749462Y-93259658D01*
X105851107Y-93193878D01*
X105868424Y-93177316D01*
X105919266Y-93130022D01*
X105966991Y-93099464D01*
X106027003Y-93080023D01*
X106114709Y-93066081D01*
X106198861Y-93056787D01*
X106476703Y-93021907D01*
X106788719Y-92972150D01*
X107118365Y-92910617D01*
X107449095Y-92840413D01*
X107764362Y-92764640D01*
X107784745Y-92759383D01*
X108251870Y-92628930D01*
X108691448Y-92487293D01*
X109100465Y-92336026D01*
X109475907Y-92176684D01*
X109814760Y-92010821D01*
X110114009Y-91839990D01*
X110370640Y-91665747D01*
X110581640Y-91489644D01*
X110743994Y-91313237D01*
X110826841Y-91190825D01*
X110869921Y-91107309D01*
X110898573Y-91035671D01*
X110905679Y-91002242D01*
X110912845Y-90967641D01*
X110922922Y-90967660D01*
X110932142Y-91002296D01*
X110936855Y-91071855D01*
X110936861Y-91120068D01*
X110909648Y-91279051D01*
X110834010Y-91443386D01*
X110708313Y-91616294D01*
X110653934Y-91677552D01*
X110508132Y-91835035D01*
X110642780Y-92130547D01*
X110692426Y-92239356D01*
X110759511Y-92386172D01*
X110839046Y-92560084D01*
X110926038Y-92750183D01*
X111015499Y-92945557D01*
X111073345Y-93071822D01*
X111153075Y-93245973D01*
X111225685Y-93404885D01*
X111288070Y-93541736D01*
X111337126Y-93649705D01*
X111369748Y-93721972D01*
X111382637Y-93751218D01*
X111375871Y-93761308D01*
X111343559Y-93769296D01*
X111281049Y-93775386D01*
X111183691Y-93779782D01*
X111046834Y-93782689D01*
X110865828Y-93784309D01*
X110636022Y-93784849D01*
X110616291Y-93784851D01*
X109836570Y-93784851D01*
X109712856Y-93509057D01*
X109596591Y-93251053D01*
X109499793Y-93039057D01*
X109420748Y-92869608D01*
X109357738Y-92739243D01*
X109309048Y-92644501D01*
X109272964Y-92581922D01*
X109247768Y-92548043D01*
X109232215Y-92539310D01*
X109197323Y-92549375D01*
X109119566Y-92574321D01*
X109006955Y-92611495D01*
X108867502Y-92658244D01*
X108709219Y-92711915D01*
X108653878Y-92730810D01*
X107963916Y-92944127D01*
X107269883Y-93112324D01*
X106603582Y-93232362D01*
X106492199Y-93251176D01*
X106401665Y-93269961D01*
X106344720Y-93285894D01*
X106332341Y-93292413D01*
X106314149Y-93325158D01*
X106280452Y-93395282D01*
X106236954Y-93490704D01*
X106210996Y-93549417D01*
X106108012Y-93784851D01*
X105331972Y-93784851D01*
X105133864Y-93784427D01*
X104954422Y-93783226D01*
X104800353Y-93781360D01*
X104678366Y-93778940D01*
X104595167Y-93776075D01*
X104557465Y-93772876D01*
X104555932Y-93772072D01*
X104566385Y-93743185D01*
X104593998Y-93678620D01*
X104633151Y-93591451D01*
X104639781Y-93576997D01*
X104706949Y-93430689D01*
X104791344Y-93246422D01*
X104887928Y-93035232D01*
X104991660Y-92808153D01*
X105097503Y-92576217D01*
X105200418Y-92350460D01*
X105295365Y-92141915D01*
X105349677Y-92022457D01*
X105427985Y-91850358D01*
X105520249Y-91647993D01*
X105617964Y-91433995D01*
X105712621Y-91227000D01*
X105773459Y-91094173D01*
X105847317Y-90932993D01*
X105917636Y-90779430D01*
X105979785Y-90643600D01*
X106029135Y-90535621D01*
X106061058Y-90465609D01*
X106062760Y-90461864D01*
X106087490Y-90407586D01*
X106131762Y-90310585D01*
X106192736Y-90177076D01*
X106267572Y-90013275D01*
X106353431Y-89825398D01*
X106447473Y-89619659D01*
X106546858Y-89402275D01*
X106566789Y-89358686D01*
X106668184Y-89136701D01*
X106765824Y-88922495D01*
X106856672Y-88722763D01*
X106937691Y-88544197D01*
X107005846Y-88393492D01*
X107058099Y-88277340D01*
X107091415Y-88202436D01*
X107094522Y-88195330D01*
X107179343Y-88000618D01*
X107967045Y-88000256D01*
X108754748Y-87999894D01*
X108851178Y-88208421D01*
G37*
%TO.C,R4*%
D12*
X144590000Y-112272936D02*
X144590000Y-113727064D01*
X146410000Y-112272936D02*
X146410000Y-113727064D01*
%TO.C,D4*%
X144365000Y-116900000D02*
X144365000Y-120785000D01*
X144365000Y-120785000D02*
X146635000Y-120785000D01*
X146635000Y-120785000D02*
X146635000Y-116900000D01*
%TO.C,R3*%
X128340000Y-99022936D02*
X128340000Y-100477064D01*
X130160000Y-99022936D02*
X130160000Y-100477064D01*
%TO.C,C5*%
X105515000Y-120011252D02*
X105515000Y-119488748D01*
X106985000Y-120011252D02*
X106985000Y-119488748D01*
%TO.C,D6*%
X106360000Y-97750000D02*
X102350000Y-97750000D01*
X106360000Y-99750000D02*
X102350000Y-99750000D01*
X106360000Y-99750000D02*
X106360000Y-97750000D01*
%TO.C,R1*%
X121227064Y-108090000D02*
X119772936Y-108090000D01*
X121227064Y-109910000D02*
X119772936Y-109910000D01*
%TO.C,J6*%
X97120000Y-132800000D02*
X97120000Y-112370000D01*
X99880000Y-112370000D02*
X97120000Y-112370000D01*
X99880000Y-132800000D02*
X97120000Y-132800000D01*
X99880000Y-132800000D02*
X99880000Y-112370000D01*
X99880000Y-134070000D02*
X99880000Y-135450000D01*
X99880000Y-135450000D02*
X98500000Y-135450000D01*
%TO.C,Y1*%
X105550000Y-122565000D02*
X111950000Y-122565000D01*
X111950000Y-127435000D02*
X105550000Y-127435000D01*
X105550000Y-127435000D02*
G75*
G02*
X105550000Y-122565000I0J2435000D01*
G01*
X111950000Y-122565000D02*
G75*
G02*
X111950000Y-127435000I0J-2435000D01*
G01*
%TO.C,U1*%
X120140000Y-117640000D02*
X120415000Y-117640000D01*
X120140000Y-117915000D02*
X120140000Y-117640000D01*
X120140000Y-124860000D02*
X120140000Y-124585000D01*
X120415000Y-124860000D02*
X120140000Y-124860000D01*
X127085000Y-117640000D02*
X127360000Y-117640000D01*
X127360000Y-117640000D02*
X127360000Y-117915000D01*
X127360000Y-124585000D02*
X127360000Y-124860000D01*
X127360000Y-124860000D02*
X127085000Y-124860000D01*
X119500000Y-117910000D02*
X119160000Y-117440000D01*
X119840000Y-117440000D01*
X119500000Y-117910000D01*
G36*
X119500000Y-117910000D02*
G01*
X119160000Y-117440000D01*
X119840000Y-117440000D01*
X119500000Y-117910000D01*
G37*
%TO.C,R7*%
X133772936Y-126090000D02*
X135227064Y-126090000D01*
X133772936Y-127910000D02*
X135227064Y-127910000D01*
%TO.C,C7*%
X115515000Y-119238748D02*
X115515000Y-119761252D01*
X116985000Y-119238748D02*
X116985000Y-119761252D01*
%TO.C,D5*%
X132465000Y-121115000D02*
X132465000Y-123385000D01*
X132465000Y-123385000D02*
X136350000Y-123385000D01*
X136350000Y-121115000D02*
X132465000Y-121115000D01*
%TO.C,R5*%
X126772936Y-93590000D02*
X128227064Y-93590000D01*
X126772936Y-95410000D02*
X128227064Y-95410000D01*
%TO.C,J4*%
X131120000Y-90370000D02*
X131120000Y-93130000D01*
X138850000Y-90370000D02*
X131120000Y-90370000D01*
X138850000Y-90370000D02*
X138850000Y-93130000D01*
X138850000Y-93130000D02*
X131120000Y-93130000D01*
X140120000Y-90370000D02*
X141500000Y-90370000D01*
X141500000Y-90370000D02*
X141500000Y-91750000D01*
%TO.C,C8*%
X130765000Y-118738748D02*
X130765000Y-119261252D01*
X132235000Y-118738748D02*
X132235000Y-119261252D01*
%TO.C,C4*%
X148515000Y-118738748D02*
X148515000Y-119261252D01*
X149985000Y-118738748D02*
X149985000Y-119261252D01*
%TO.C,R6*%
X128772936Y-110340000D02*
X130227064Y-110340000D01*
X128772936Y-112160000D02*
X130227064Y-112160000D01*
%TO.C,Y2*%
X114375000Y-104325000D02*
X114375000Y-105675000D01*
X116125000Y-104325000D02*
X116125000Y-105675000D01*
%TO.C,C6*%
X110515000Y-119761252D02*
X110515000Y-119238748D01*
X111985000Y-119761252D02*
X111985000Y-119238748D01*
%TO.C,J2*%
X118520000Y-133880000D02*
X118520000Y-132500000D01*
X119900000Y-133880000D02*
X118520000Y-133880000D01*
X121170000Y-131120000D02*
X133980000Y-131120000D01*
X121170000Y-133880000D02*
X121170000Y-131120000D01*
X121170000Y-133880000D02*
X133980000Y-133880000D01*
X133980000Y-133880000D02*
X133980000Y-131120000D01*
%TO.C,C3*%
X114265000Y-99288748D02*
X114265000Y-99811252D01*
X115735000Y-99288748D02*
X115735000Y-99811252D01*
%TO.C,D7*%
X148250000Y-110890000D02*
X148250000Y-114900000D01*
X150250000Y-110890000D02*
X148250000Y-110890000D01*
X150250000Y-110890000D02*
X150250000Y-114900000D01*
%TO.C,C9*%
X139015000Y-124261252D02*
X139015000Y-123738748D01*
X140485000Y-124261252D02*
X140485000Y-123738748D01*
%TO.C,U2*%
X134965000Y-97535000D02*
X139085000Y-97535000D01*
X134965000Y-97630000D02*
X134965000Y-97535000D01*
X134965000Y-102655000D02*
X134965000Y-102560000D01*
X139085000Y-97535000D02*
X139085000Y-97630000D01*
X139085000Y-102560000D02*
X139085000Y-102655000D01*
X139085000Y-102655000D02*
X134965000Y-102655000D01*
X139625000Y-102565000D02*
X139865000Y-102895000D01*
X139385000Y-102895000D01*
X139625000Y-102565000D01*
G36*
X139865000Y-102895000D02*
G01*
X139385000Y-102895000D01*
X139625000Y-102565000D01*
X139865000Y-102895000D01*
G37*
%TO.C,C1*%
X142238748Y-104515000D02*
X142761252Y-104515000D01*
X142238748Y-105985000D02*
X142761252Y-105985000D01*
%TO.C,SW1*%
X146050000Y-129700000D02*
X146050000Y-129800000D01*
X146050000Y-131300000D02*
X150450000Y-131300000D01*
X150450000Y-128200000D02*
X146050000Y-128200000D01*
X150450000Y-129700000D02*
X150450000Y-129800000D01*
%TO.C,C2*%
X137511252Y-104515000D02*
X136988748Y-104515000D01*
X137511252Y-105985000D02*
X136988748Y-105985000D01*
%TO.C,J1*%
X151870000Y-117755000D02*
X151870000Y-115105000D01*
X154630000Y-115105000D02*
X151870000Y-115105000D01*
X154630000Y-117755000D02*
X151870000Y-117755000D01*
X154630000Y-117755000D02*
X154630000Y-115105000D01*
X154630000Y-119025000D02*
X154630000Y-120405000D01*
X154630000Y-120405000D02*
X153250000Y-120405000D01*
%TO.C,J3*%
X97120000Y-97560000D02*
X98500000Y-97560000D01*
X97120000Y-98940000D02*
X97120000Y-97560000D01*
X97120000Y-100210000D02*
X97120000Y-107940000D01*
X97120000Y-100210000D02*
X99880000Y-100210000D01*
X97120000Y-107940000D02*
X99880000Y-107940000D01*
X99880000Y-100210000D02*
X99880000Y-107940000D01*
%TO.C,U4*%
X118690000Y-99190000D02*
X118785000Y-99190000D01*
X118690000Y-103310000D02*
X118690000Y-99190000D01*
X118785000Y-103310000D02*
X118690000Y-103310000D01*
X123715000Y-99190000D02*
X123810000Y-99190000D01*
X123810000Y-99190000D02*
X123810000Y-103310000D01*
X123810000Y-103310000D02*
X123715000Y-103310000D01*
X118780000Y-103850000D02*
X118450000Y-104090000D01*
X118450000Y-103610000D01*
X118780000Y-103850000D01*
G36*
X118780000Y-103850000D02*
G01*
X118450000Y-104090000D01*
X118450000Y-103610000D01*
X118780000Y-103850000D01*
G37*
%TO.C,R2*%
X119727064Y-94090000D02*
X118272936Y-94090000D01*
X119727064Y-95910000D02*
X118272936Y-95910000D01*
%TD*%
M02*
