%TF.GenerationSoftware,KiCad,Pcbnew,10.0.4*%
%TF.CreationDate,2026-09-15T11:26:03+03:00*%
%TF.ProjectId,AVR microcontroller,41565220-6d69-4637-926f-636f6e74726f,rev?*%
%TF.SameCoordinates,Original*%
%TF.FileFunction,Copper,L2,Bot*%
%TF.FilePolarity,Positive*%
%FSLAX46Y46*%
G04 Gerber Fmt 4.6, Leading zero omitted, Abs format (unit mm)*
G04 Created by KiCad (PCBNEW 10.0.4) date 2026-09-15 11:26:03*
%MOMM*%
%LPD*%
G01*
G04 APERTURE LIST*
%TA.AperFunction,ComponentPad*%
%ADD10R,1.700000X1.700000*%
%TD*%
%TA.AperFunction,ComponentPad*%
%ADD11C,1.700000*%
%TD*%
%TA.AperFunction,ComponentPad*%
%ADD12C,1.500000*%
%TD*%
%TA.AperFunction,ViaPad*%
%ADD13C,0.600000*%
%TD*%
%TA.AperFunction,Conductor*%
%ADD14C,0.200000*%
%TD*%
G04 APERTURE END LIST*
D10*
%TO.P,J6,1,Pin_1_1*%
%TO.N,VCC*%
X98500000Y-134070000D03*
D11*
%TO.P,J6,2,Pin_2_2*%
%TO.N,GND*%
X98500000Y-131530000D03*
%TO.P,J6,3,Pin_3_3*%
%TO.N,Net-(J6-Pin_3)*%
X98500000Y-128990000D03*
%TO.P,J6,4,Pin_4_4*%
%TO.N,Net-(J6-Pin_4)*%
X98500000Y-126450000D03*
%TO.P,J6,5,Pin_5_5*%
%TO.N,Net-(J6-Pin_5)*%
X98500000Y-123910000D03*
%TO.P,J6,6,Pin_6_6*%
%TO.N,Net-(J6-Pin_6)*%
X98500000Y-121370000D03*
%TO.P,J6,7,Pin_7_7*%
%TO.N,Net-(J6-Pin_7)*%
X98500000Y-118830000D03*
%TO.P,J6,8,Pin_8_8*%
%TO.N,Net-(J6-Pin_8)*%
X98500000Y-116290000D03*
%TO.P,J6,9,Pin_9_9*%
%TO.N,Net-(J6-Pin_9)*%
X98500000Y-113750000D03*
%TD*%
D12*
%TO.P,Y1,1,1_1*%
%TO.N,/XTAL2*%
X106310000Y-125000000D03*
%TO.P,Y1,2,2_2*%
%TO.N,/XTAL1*%
X111190000Y-125000000D03*
%TD*%
D10*
%TO.P,J4,1,Pin_1_1*%
%TO.N,VCC*%
X140120000Y-91750000D03*
D11*
%TO.P,J4,2,Pin_2_2*%
%TO.N,GND*%
X137580000Y-91750000D03*
%TO.P,J4,3,Pin_3_3*%
%TO.N,/SDA*%
X135040000Y-91750000D03*
%TO.P,J4,4,Pin_4_4*%
%TO.N,/SCL*%
X132500000Y-91750000D03*
%TD*%
D10*
%TO.P,J2,1,Pin_1_1*%
%TO.N,VCC*%
X119900000Y-132500000D03*
D11*
%TO.P,J2,2,Pin_2_2*%
%TO.N,GND*%
X122440000Y-132500000D03*
%TO.P,J2,3,Pin_3_3*%
%TO.N,/MOSI*%
X124980000Y-132500000D03*
%TO.P,J2,4,Pin_4_4*%
%TO.N,/MISO*%
X127520000Y-132500000D03*
%TO.P,J2,5,Pin_5_5*%
%TO.N,/SS*%
X130060000Y-132500000D03*
%TO.P,J2,6,Pin_6_6*%
%TO.N,/SCK*%
X132600000Y-132500000D03*
%TD*%
D10*
%TO.P,J1,1,Pin_1_1*%
%TO.N,GND*%
X153250000Y-119025000D03*
D11*
%TO.P,J1,2,Pin_2_2*%
%TO.N,VCC*%
X153250000Y-116485000D03*
%TD*%
D10*
%TO.P,J3,1,Pin_1_1*%
%TO.N,Net-(D6-A)*%
X98500000Y-98940000D03*
D11*
%TO.P,J3,2,Pin_2_2*%
%TO.N,GND*%
X98500000Y-101480000D03*
%TO.P,J3,3,Pin_3_3*%
%TO.N,/RXD*%
X98500000Y-104020000D03*
%TO.P,J3,4,Pin_4_4*%
%TO.N,/TXD*%
X98500000Y-106560000D03*
%TD*%
D13*
%TO.N,GND*%
X148250000Y-96750000D03*
X139500000Y-96750000D03*
X137500000Y-94750000D03*
%TO.N,VCC*%
X139500000Y-94000000D03*
X131750000Y-96500000D03*
X114750000Y-118240000D03*
X131250000Y-101250000D03*
X117000000Y-110750000D03*
X128000000Y-113250000D03*
X116250000Y-132500000D03*
X130750000Y-116750000D03*
%TO.N,Net-(J6-Pin_6)*%
X119500000Y-126750000D03*
%TO.N,Net-(J6-Pin_7)*%
X118000000Y-119250000D03*
%TO.N,/SS*%
X125000000Y-127250000D03*
%TD*%
%TO.N,GND*%
D14*
X139500000Y-96750000D02*
X148250000Y-96750000D01*
X137500000Y-94750000D02*
X137500000Y-96250000D01*
X137500000Y-96250000D02*
X138000000Y-96750000D01*
X138000000Y-96750000D02*
X139500000Y-96750000D01*
%TO.N,VCC*%
X134250000Y-94000000D02*
X131750000Y-96500000D01*
X125500000Y-110750000D02*
X128000000Y-113250000D01*
X114750000Y-113000000D02*
X117000000Y-110750000D01*
X120100000Y-120501471D02*
X117838529Y-118240000D01*
X117838529Y-118240000D02*
X114750000Y-118240000D01*
X117000000Y-110750000D02*
X125500000Y-110750000D01*
X139500000Y-94000000D02*
X134250000Y-94000000D01*
X131750000Y-100750000D02*
X131250000Y-101250000D01*
X128000000Y-114000000D02*
X128000000Y-113250000D01*
X131750000Y-96500000D02*
X131750000Y-100750000D01*
X120100000Y-128650000D02*
X120100000Y-120501471D01*
X116250000Y-132500000D02*
X120100000Y-128650000D01*
X114750000Y-118240000D02*
X114750000Y-113000000D01*
X130750000Y-116750000D02*
X128000000Y-114000000D01*
%TO.N,Net-(J6-Pin_6)*%
X119500000Y-126750000D02*
X103870000Y-126750000D01*
X103870000Y-126750000D02*
X98500000Y-121380000D01*
%TO.N,Net-(J6-Pin_7)*%
X117090000Y-118840000D02*
X98500000Y-118840000D01*
X117500000Y-119250000D02*
X117090000Y-118840000D01*
X118000000Y-119250000D02*
X117500000Y-119250000D01*
%TO.N,/SS*%
X129500000Y-127250000D02*
X130060000Y-127810000D01*
X125000000Y-127250000D02*
X129500000Y-127250000D01*
X130060000Y-127810000D02*
X130060000Y-132500000D01*
%TD*%
M02*
