%TF.GenerationSoftware,KiCad,Pcbnew,10.0.4*%
%TF.CreationDate,2026-09-15T11:26:03+03:00*%
%TF.ProjectId,AVR microcontroller,41565220-6d69-4637-926f-636f6e74726f,rev?*%
%TF.SameCoordinates,Original*%
%TF.FileFunction,Copper,L1,Top*%
%TF.FilePolarity,Positive*%
%FSLAX46Y46*%
G04 Gerber Fmt 4.6, Leading zero omitted, Abs format (unit mm)*
G04 Created by KiCad (PCBNEW 10.0.4) date 2026-09-15 11:26:03*
%MOMM*%
%LPD*%
G01*
G04 APERTURE LIST*
G04 Aperture macros list*
%AMRoundRect*
0 Rectangle with rounded corners*
0 $1 Rounding radius*
0 $2 $3 $4 $5 $6 $7 $8 $9 X,Y pos of 4 corners*
0 Add a 4 corners polygon primitive as box body*
4,1,4,$2,$3,$4,$5,$6,$7,$8,$9,$2,$3,0*
0 Add four circle primitives for the rounded corners*
1,1,$1+$1,$2,$3*
1,1,$1+$1,$4,$5*
1,1,$1+$1,$6,$7*
1,1,$1+$1,$8,$9*
0 Add four rect primitives between the rounded corners*
20,1,$1+$1,$2,$3,$4,$5,0*
20,1,$1+$1,$4,$5,$6,$7,0*
20,1,$1+$1,$6,$7,$8,$9,0*
20,1,$1+$1,$8,$9,$2,$3,0*%
G04 Aperture macros list end*
%TA.AperFunction,SMDPad,CuDef*%
%ADD10RoundRect,0.150000X0.825000X0.150000X-0.825000X0.150000X-0.825000X-0.150000X0.825000X-0.150000X0*%
%TD*%
%TA.AperFunction,SMDPad,CuDef*%
%ADD11RoundRect,0.250000X-0.625000X0.312500X-0.625000X-0.312500X0.625000X-0.312500X0.625000X0.312500X0*%
%TD*%
%TA.AperFunction,SMDPad,CuDef*%
%ADD12RoundRect,0.250000X0.625000X-0.375000X0.625000X0.375000X-0.625000X0.375000X-0.625000X-0.375000X0*%
%TD*%
%TA.AperFunction,SMDPad,CuDef*%
%ADD13RoundRect,0.250000X0.475000X-0.250000X0.475000X0.250000X-0.475000X0.250000X-0.475000X-0.250000X0*%
%TD*%
%TA.AperFunction,SMDPad,CuDef*%
%ADD14RoundRect,0.225000X0.225000X0.375000X-0.225000X0.375000X-0.225000X-0.375000X0.225000X-0.375000X0*%
%TD*%
%TA.AperFunction,SMDPad,CuDef*%
%ADD15RoundRect,0.250000X0.312500X0.625000X-0.312500X0.625000X-0.312500X-0.625000X0.312500X-0.625000X0*%
%TD*%
%TA.AperFunction,ComponentPad*%
%ADD16R,1.700000X1.700000*%
%TD*%
%TA.AperFunction,ComponentPad*%
%ADD17C,1.700000*%
%TD*%
%TA.AperFunction,ComponentPad*%
%ADD18C,1.500000*%
%TD*%
%TA.AperFunction,SMDPad,CuDef*%
%ADD19RoundRect,0.137500X-0.600000X-0.137500X0.600000X-0.137500X0.600000X0.137500X-0.600000X0.137500X0*%
%TD*%
%TA.AperFunction,SMDPad,CuDef*%
%ADD20RoundRect,0.137500X-0.137500X-0.600000X0.137500X-0.600000X0.137500X0.600000X-0.137500X0.600000X0*%
%TD*%
%TA.AperFunction,SMDPad,CuDef*%
%ADD21RoundRect,0.250000X-0.312500X-0.625000X0.312500X-0.625000X0.312500X0.625000X-0.312500X0.625000X0*%
%TD*%
%TA.AperFunction,SMDPad,CuDef*%
%ADD22RoundRect,0.250000X-0.475000X0.250000X-0.475000X-0.250000X0.475000X-0.250000X0.475000X0.250000X0*%
%TD*%
%TA.AperFunction,SMDPad,CuDef*%
%ADD23RoundRect,0.250000X-0.375000X-0.625000X0.375000X-0.625000X0.375000X0.625000X-0.375000X0.625000X0*%
%TD*%
%TA.AperFunction,SMDPad,CuDef*%
%ADD24R,1.800000X1.000000*%
%TD*%
%TA.AperFunction,SMDPad,CuDef*%
%ADD25RoundRect,0.225000X-0.375000X0.225000X-0.375000X-0.225000X0.375000X-0.225000X0.375000X0.225000X0*%
%TD*%
%TA.AperFunction,SMDPad,CuDef*%
%ADD26RoundRect,0.250000X-0.250000X-0.475000X0.250000X-0.475000X0.250000X0.475000X-0.250000X0.475000X0*%
%TD*%
%TA.AperFunction,SMDPad,CuDef*%
%ADD27R,0.900000X1.000000*%
%TD*%
%TA.AperFunction,SMDPad,CuDef*%
%ADD28RoundRect,0.250000X0.250000X0.475000X-0.250000X0.475000X-0.250000X-0.475000X0.250000X-0.475000X0*%
%TD*%
%TA.AperFunction,SMDPad,CuDef*%
%ADD29RoundRect,0.150000X0.150000X-0.825000X0.150000X0.825000X-0.150000X0.825000X-0.150000X-0.825000X0*%
%TD*%
%TA.AperFunction,ViaPad*%
%ADD30C,0.600000*%
%TD*%
%TA.AperFunction,Conductor*%
%ADD31C,0.200000*%
%TD*%
G04 APERTURE END LIST*
D10*
%TO.P,U3,1,A0_1*%
%TO.N,GND*%
X148200000Y-102060000D03*
%TO.P,U3,2,A1_2*%
X148200000Y-100790000D03*
%TO.P,U3,3,A2_3*%
X148200000Y-99520000D03*
%TO.P,U3,4,GND_4*%
X148200000Y-98250000D03*
%TO.P,U3,5,SDA_5*%
%TO.N,/SDA*%
X143250000Y-98250000D03*
%TO.P,U3,6,SCL_6*%
%TO.N,/SCL*%
X143250000Y-99520000D03*
%TO.P,U3,7,WP_7*%
%TO.N,GND*%
X143250000Y-100790000D03*
%TO.P,U3,8,VCC_8*%
%TO.N,Net-(U3-VCC)*%
X143250000Y-102060000D03*
%TD*%
D11*
%TO.P,R4,1*%
%TO.N,Net-(D7-K)*%
X145500000Y-111537500D03*
%TO.P,R4,2*%
%TO.N,Net-(D4-A)*%
X145500000Y-114462500D03*
%TD*%
D12*
%TO.P,D4,1,K_1*%
%TO.N,GND*%
X145500000Y-119900000D03*
%TO.P,D4,2,A_2*%
%TO.N,Net-(D4-A)*%
X145500000Y-117100000D03*
%TD*%
D11*
%TO.P,R3,1*%
%TO.N,/SDA*%
X129250000Y-98287500D03*
%TO.P,R3,2*%
%TO.N,VCC*%
X129250000Y-101212500D03*
%TD*%
D13*
%TO.P,C5,1*%
%TO.N,/XTAL2*%
X106250000Y-120700000D03*
%TO.P,C5,2*%
%TO.N,GND*%
X106250000Y-118800000D03*
%TD*%
D14*
%TO.P,D6,1,K_1*%
%TO.N,VCC*%
X105650000Y-98750000D03*
%TO.P,D6,2,A_2*%
%TO.N,Net-(D6-A)*%
X102350000Y-98750000D03*
%TD*%
D15*
%TO.P,R1,1*%
%TO.N,Net-(U4-~{INTA})*%
X121962500Y-109000000D03*
%TO.P,R1,2*%
%TO.N,VCC*%
X119037500Y-109000000D03*
%TD*%
D16*
%TO.P,J6,1,Pin_1_1*%
%TO.N,VCC*%
X98500000Y-134070000D03*
D17*
%TO.P,J6,2,Pin_2_2*%
%TO.N,GND*%
X98500000Y-131530000D03*
%TO.P,J6,3,Pin_3_3*%
%TO.N,Net-(J6-Pin_3)*%
X98500000Y-128990000D03*
%TO.P,J6,4,Pin_4_4*%
%TO.N,Net-(J6-Pin_4)*%
X98500000Y-126450000D03*
%TO.P,J6,5,Pin_5_5*%
%TO.N,Net-(J6-Pin_5)*%
X98500000Y-123910000D03*
%TO.P,J6,6,Pin_6_6*%
%TO.N,Net-(J6-Pin_6)*%
X98500000Y-121370000D03*
%TO.P,J6,7,Pin_7_7*%
%TO.N,Net-(J6-Pin_7)*%
X98500000Y-118830000D03*
%TO.P,J6,8,Pin_8_8*%
%TO.N,Net-(J6-Pin_8)*%
X98500000Y-116290000D03*
%TO.P,J6,9,Pin_9_9*%
%TO.N,Net-(J6-Pin_9)*%
X98500000Y-113750000D03*
%TD*%
D18*
%TO.P,Y1,1,1_1*%
%TO.N,/XTAL2*%
X106310000Y-125000000D03*
%TO.P,Y1,2,2_2*%
%TO.N,/XTAL1*%
X111190000Y-125000000D03*
%TD*%
D19*
%TO.P,U1,1,PD3_1*%
%TO.N,Net-(J6-Pin_8)*%
X119587500Y-118450000D03*
%TO.P,U1,2,PD4_2*%
%TO.N,Net-(J6-Pin_7)*%
X119587500Y-119250000D03*
%TO.P,U1,3,GND_3*%
%TO.N,GND*%
X119587500Y-120050000D03*
%TO.P,U1,4,VCC_4*%
%TO.N,Net-(C7-Pad2)*%
X119587500Y-120850000D03*
%TO.P,U1,5,GND_5*%
%TO.N,GND*%
X119587500Y-121650000D03*
%TO.P,U1,6,VCC_6*%
%TO.N,Net-(C7-Pad2)*%
X119587500Y-122450000D03*
%TO.P,U1,7,XTAL1/PB6_7*%
%TO.N,/XTAL1*%
X119587500Y-123250000D03*
%TO.P,U1,8,XTAL2/PB7_8*%
%TO.N,/XTAL2*%
X119587500Y-124050000D03*
D20*
%TO.P,U1,9,PD5_9*%
%TO.N,Net-(J6-Pin_6)*%
X120950000Y-125412500D03*
%TO.P,U1,10,PD6_10*%
%TO.N,Net-(J6-Pin_5)*%
X121750000Y-125412500D03*
%TO.P,U1,11,PD7_11*%
%TO.N,Net-(J6-Pin_4)*%
X122550000Y-125412500D03*
%TO.P,U1,12,PB0_12*%
%TO.N,Net-(J6-Pin_3)*%
X123350000Y-125412500D03*
%TO.P,U1,13,PB1_13*%
%TO.N,unconnected-(U1-PB1-Pad13)*%
X124150000Y-125412500D03*
%TO.P,U1,14,PB2_14*%
%TO.N,/SS*%
X124950000Y-125412500D03*
%TO.P,U1,15,PB3_15*%
%TO.N,/MOSI*%
X125750000Y-125412500D03*
%TO.P,U1,16,PB4_16*%
%TO.N,/MISO*%
X126550000Y-125412500D03*
D19*
%TO.P,U1,17,PB5_17*%
%TO.N,/SCK*%
X127912500Y-124050000D03*
%TO.P,U1,18,AVCC_18*%
%TO.N,Net-(U1-AVCC)*%
X127912500Y-123250000D03*
%TO.P,U1,19,ADC6_19*%
%TO.N,unconnected-(U1-ADC6-Pad19)*%
X127912500Y-122450000D03*
%TO.P,U1,20,AREF_20*%
%TO.N,Net-(U1-AREF)*%
X127912500Y-121650000D03*
%TO.P,U1,21,GND_21*%
%TO.N,GND*%
X127912500Y-120850000D03*
%TO.P,U1,22,ADC7_22*%
%TO.N,unconnected-(U1-ADC7-Pad22)*%
X127912500Y-120050000D03*
%TO.P,U1,23,PC0_23*%
%TO.N,unconnected-(U1-PC0-Pad23)*%
X127912500Y-119250000D03*
%TO.P,U1,24,PC1_24*%
%TO.N,unconnected-(U1-PC1-Pad24)*%
X127912500Y-118450000D03*
D20*
%TO.P,U1,25,PC2_25*%
%TO.N,unconnected-(U1-PC2-Pad25)*%
X126550000Y-117087500D03*
%TO.P,U1,26,PC3_26*%
%TO.N,unconnected-(U1-PC3-Pad26)*%
X125750000Y-117087500D03*
%TO.P,U1,27,PC4_27*%
%TO.N,/SDA*%
X124950000Y-117087500D03*
%TO.P,U1,28,PC5_28*%
%TO.N,/SCL*%
X124150000Y-117087500D03*
%TO.P,U1,29,~{RESET}/PC6_29*%
%TO.N,/RST*%
X123350000Y-117087500D03*
%TO.P,U1,30,PD0_30*%
%TO.N,/RXD*%
X122550000Y-117087500D03*
%TO.P,U1,31,PD1_31*%
%TO.N,/TXD*%
X121750000Y-117087500D03*
%TO.P,U1,32,PD2_32*%
%TO.N,Net-(J6-Pin_9)*%
X120950000Y-117087500D03*
%TD*%
D21*
%TO.P,R7,1*%
%TO.N,/SCK*%
X133037500Y-127000000D03*
%TO.P,R7,2*%
%TO.N,Net-(D5-A)*%
X135962500Y-127000000D03*
%TD*%
D22*
%TO.P,C7,1*%
%TO.N,VCC*%
X116250000Y-118550000D03*
%TO.P,C7,2*%
%TO.N,Net-(C7-Pad2)*%
X116250000Y-120450000D03*
%TD*%
D23*
%TO.P,D5,1,K_1*%
%TO.N,GND*%
X133350000Y-122250000D03*
%TO.P,D5,2,A_2*%
%TO.N,Net-(D5-A)*%
X136150000Y-122250000D03*
%TD*%
D21*
%TO.P,R5,1*%
%TO.N,/SCL*%
X126037500Y-94500000D03*
%TO.P,R5,2*%
%TO.N,VCC*%
X128962500Y-94500000D03*
%TD*%
D16*
%TO.P,J4,1,Pin_1_1*%
%TO.N,VCC*%
X140120000Y-91750000D03*
D17*
%TO.P,J4,2,Pin_2_2*%
%TO.N,GND*%
X137580000Y-91750000D03*
%TO.P,J4,3,Pin_3_3*%
%TO.N,/SDA*%
X135040000Y-91750000D03*
%TO.P,J4,4,Pin_4_4*%
%TO.N,/SCL*%
X132500000Y-91750000D03*
%TD*%
D22*
%TO.P,C8,1*%
%TO.N,VCC*%
X131500000Y-118050000D03*
%TO.P,C8,2*%
%TO.N,Net-(U1-AVCC)*%
X131500000Y-119950000D03*
%TD*%
%TO.P,C4,1*%
%TO.N,VCC*%
X149250000Y-118050000D03*
%TO.P,C4,2*%
%TO.N,GND*%
X149250000Y-119950000D03*
%TD*%
D21*
%TO.P,R6,1*%
%TO.N,VCC*%
X128037500Y-111250000D03*
%TO.P,R6,2*%
%TO.N,/RST*%
X130962500Y-111250000D03*
%TD*%
D24*
%TO.P,Y2,1,1_1*%
%TO.N,Net-(U4-X2)*%
X115250000Y-106250000D03*
%TO.P,Y2,2,2_2*%
%TO.N,Net-(U4-X1)*%
X115250000Y-103750000D03*
%TD*%
D13*
%TO.P,C6,1*%
%TO.N,/XTAL1*%
X111250000Y-120450000D03*
%TO.P,C6,2*%
%TO.N,GND*%
X111250000Y-118550000D03*
%TD*%
D16*
%TO.P,J2,1,Pin_1_1*%
%TO.N,VCC*%
X119900000Y-132500000D03*
D17*
%TO.P,J2,2,Pin_2_2*%
%TO.N,GND*%
X122440000Y-132500000D03*
%TO.P,J2,3,Pin_3_3*%
%TO.N,/MOSI*%
X124980000Y-132500000D03*
%TO.P,J2,4,Pin_4_4*%
%TO.N,/MISO*%
X127520000Y-132500000D03*
%TO.P,J2,5,Pin_5_5*%
%TO.N,/SS*%
X130060000Y-132500000D03*
%TO.P,J2,6,Pin_6_6*%
%TO.N,/SCK*%
X132600000Y-132500000D03*
%TD*%
D22*
%TO.P,C3,1*%
%TO.N,Net-(U4-VCC)*%
X115000000Y-98600000D03*
%TO.P,C3,2*%
%TO.N,VCC*%
X115000000Y-100500000D03*
%TD*%
D25*
%TO.P,D7,1,K_1*%
%TO.N,Net-(D7-K)*%
X149250000Y-111600000D03*
%TO.P,D7,2,A_2*%
%TO.N,VCC*%
X149250000Y-114900000D03*
%TD*%
D13*
%TO.P,C9,1*%
%TO.N,GND*%
X139750000Y-124950000D03*
%TO.P,C9,2*%
%TO.N,Net-(U1-AREF)*%
X139750000Y-123050000D03*
%TD*%
D10*
%TO.P,U2,1,A0_1*%
%TO.N,VCC*%
X139500000Y-102000000D03*
%TO.P,U2,2,A1_2*%
%TO.N,GND*%
X139500000Y-100730000D03*
%TO.P,U2,3,A2_3*%
X139500000Y-99460000D03*
%TO.P,U2,4,GND_4*%
X139500000Y-98190000D03*
%TO.P,U2,5,SDA_5*%
%TO.N,/SDA*%
X134550000Y-98190000D03*
%TO.P,U2,6,SCL_6*%
%TO.N,/SCL*%
X134550000Y-99460000D03*
%TO.P,U2,7,WP_7*%
%TO.N,GND*%
X134550000Y-100730000D03*
%TO.P,U2,8,VCC_8*%
%TO.N,Net-(U2-VCC)*%
X134550000Y-102000000D03*
%TD*%
D26*
%TO.P,C1,1*%
%TO.N,VCC*%
X141550000Y-105250000D03*
%TO.P,C1,2*%
%TO.N,Net-(U3-VCC)*%
X143450000Y-105250000D03*
%TD*%
D27*
%TO.P,SW1,1,A_1*%
%TO.N,GND*%
X150300000Y-130550000D03*
X146200000Y-130550000D03*
%TO.P,SW1,2,B_2*%
%TO.N,/RST*%
X150300000Y-128950000D03*
X146200000Y-128950000D03*
%TD*%
D28*
%TO.P,C2,1*%
%TO.N,VCC*%
X138200000Y-105250000D03*
%TO.P,C2,2*%
%TO.N,Net-(U2-VCC)*%
X136300000Y-105250000D03*
%TD*%
D16*
%TO.P,J1,1,Pin_1_1*%
%TO.N,GND*%
X153250000Y-119025000D03*
D17*
%TO.P,J1,2,Pin_2_2*%
%TO.N,VCC*%
X153250000Y-116485000D03*
%TD*%
D16*
%TO.P,J3,1,Pin_1_1*%
%TO.N,Net-(D6-A)*%
X98500000Y-98940000D03*
D17*
%TO.P,J3,2,Pin_2_2*%
%TO.N,GND*%
X98500000Y-101480000D03*
%TO.P,J3,3,Pin_3_3*%
%TO.N,/RXD*%
X98500000Y-104020000D03*
%TO.P,J3,4,Pin_4_4*%
%TO.N,/TXD*%
X98500000Y-106560000D03*
%TD*%
D29*
%TO.P,U4,1,X1_1*%
%TO.N,Net-(U4-X1)*%
X119345000Y-103725000D03*
%TO.P,U4,2,X2_2*%
%TO.N,Net-(U4-X2)*%
X120615000Y-103725000D03*
%TO.P,U4,3,~{INTA}_3*%
%TO.N,Net-(U4-~{INTA})*%
X121885000Y-103725000D03*
%TO.P,U4,4,GND_4*%
%TO.N,GND*%
X123155000Y-103725000D03*
%TO.P,U4,5,SDA_5*%
%TO.N,/SDA*%
X123155000Y-98775000D03*
%TO.P,U4,6,SCL_6*%
%TO.N,/SCL*%
X121885000Y-98775000D03*
%TO.P,U4,7,SQW/~INT_7*%
%TO.N,Net-(U4-SQW{slash}~INT)*%
X120615000Y-98775000D03*
%TO.P,U4,8,VCC_8*%
%TO.N,Net-(U4-VCC)*%
X119345000Y-98775000D03*
%TD*%
D15*
%TO.P,R2,1*%
%TO.N,Net-(U4-SQW{slash}~INT)*%
X120462500Y-95000000D03*
%TO.P,R2,2*%
%TO.N,VCC*%
X117537500Y-95000000D03*
%TD*%
D30*
%TO.N,GND*%
X148250000Y-96750000D03*
X139500000Y-96750000D03*
X137500000Y-94750000D03*
%TO.N,VCC*%
X139500000Y-94000000D03*
X131750000Y-96500000D03*
X114750000Y-118240000D03*
X131250000Y-101250000D03*
X117000000Y-110750000D03*
X128000000Y-113250000D03*
X116250000Y-132500000D03*
X130750000Y-116750000D03*
%TO.N,Net-(J6-Pin_6)*%
X119500000Y-126750000D03*
%TO.N,Net-(J6-Pin_7)*%
X118000000Y-119250000D03*
%TO.N,/SS*%
X125000000Y-127250000D03*
%TD*%
%TO.N,GND*%
D31*
X128649999Y-120850000D02*
X129200000Y-120299999D01*
X127912500Y-120850000D02*
X128649999Y-120850000D01*
X148250000Y-96750000D02*
X148250000Y-98200000D01*
X129200000Y-120299999D02*
X129200000Y-116800000D01*
X137580000Y-94670000D02*
X137500000Y-94750000D01*
X141850000Y-124950000D02*
X142200000Y-124600000D01*
X134400000Y-115200000D02*
X142200000Y-123000000D01*
X148250000Y-98200000D02*
X148200000Y-98250000D01*
X129200000Y-116800000D02*
X130800000Y-115200000D01*
X142200000Y-124600000D02*
X142200000Y-123000000D01*
X127912500Y-120850000D02*
X127352472Y-120850000D01*
X112050000Y-119350000D02*
X111250000Y-118550000D01*
X139750000Y-124950000D02*
X141850000Y-124950000D01*
X130800000Y-115200000D02*
X134400000Y-115200000D01*
X119587500Y-121650000D02*
X120147528Y-121650000D01*
X119587500Y-120050000D02*
X117359744Y-120050000D01*
X139500000Y-96750000D02*
X139500000Y-98190000D01*
X137580000Y-91750000D02*
X137580000Y-94670000D01*
X116659744Y-119350000D02*
X112050000Y-119350000D01*
X117359744Y-120050000D02*
X116659744Y-119350000D01*
%TO.N,/SDA*%
X143250000Y-98250000D02*
X140500000Y-95500000D01*
X134550000Y-98190000D02*
X134310000Y-98190000D01*
X135040000Y-91750000D02*
X135040000Y-97700000D01*
X137240000Y-95500000D02*
X134550000Y-98190000D01*
X135040000Y-97700000D02*
X134550000Y-98190000D01*
X134310000Y-98190000D02*
X134212500Y-98287500D01*
X124950000Y-116450000D02*
X126000000Y-115400000D01*
X123642500Y-98287500D02*
X123155000Y-98775000D01*
X134212500Y-98287500D02*
X129250000Y-98287500D01*
X126000000Y-101620000D02*
X123155000Y-98775000D01*
X126000000Y-115400000D02*
X126000000Y-101620000D01*
X124950000Y-117087500D02*
X124950000Y-116450000D01*
X140500000Y-95500000D02*
X137240000Y-95500000D01*
X129250000Y-98287500D02*
X123642500Y-98287500D01*
%TO.N,/SCL*%
X132500000Y-91750000D02*
X128787500Y-91750000D01*
X125175000Y-94500000D02*
X126037500Y-94500000D01*
X134500000Y-89750000D02*
X145250000Y-89750000D01*
X145250000Y-89750000D02*
X145250000Y-98494999D01*
X121885000Y-97790000D02*
X125175000Y-94500000D01*
X124150000Y-116250000D02*
X124600000Y-115800000D01*
X135150000Y-100060000D02*
X142710000Y-100060000D01*
X142710000Y-100060000D02*
X143250000Y-99520000D01*
X124600000Y-115800000D02*
X124600000Y-102400000D01*
X124150000Y-117087500D02*
X124150000Y-116250000D01*
X121885000Y-99685000D02*
X124600000Y-102400000D01*
X132500000Y-91750000D02*
X134500000Y-89750000D01*
X145250000Y-98494999D02*
X144224999Y-99520000D01*
X134550000Y-99460000D02*
X135150000Y-100060000D01*
X144224999Y-99520000D02*
X143250000Y-99520000D01*
X128787500Y-91750000D02*
X126037500Y-94500000D01*
X121885000Y-98775000D02*
X121885000Y-97790000D01*
X121885000Y-98775000D02*
X121885000Y-99685000D01*
X143250000Y-99520000D02*
X142395552Y-99520000D01*
%TO.N,Net-(U3-VCC)*%
X143250000Y-102060000D02*
X143250000Y-105050000D01*
X143250000Y-105050000D02*
X143450000Y-105250000D01*
%TO.N,Net-(D7-K)*%
X145562500Y-111600000D02*
X145500000Y-111537500D01*
X149250000Y-111600000D02*
X145562500Y-111600000D01*
%TO.N,Net-(D4-A)*%
X145500000Y-114462500D02*
X145500000Y-117100000D01*
%TO.N,VCC*%
X131212500Y-101212500D02*
X129250000Y-101212500D01*
X131250000Y-101250000D02*
X131212500Y-101212500D01*
X149250000Y-114900000D02*
X149250000Y-118050000D01*
X139500000Y-102000000D02*
X138200000Y-103300000D01*
X143750000Y-108750000D02*
X141550000Y-106550000D01*
X117000000Y-110750000D02*
X117287500Y-110750000D01*
X129250000Y-106750000D02*
X129250000Y-101212500D01*
X141550000Y-106550000D02*
X141550000Y-105250000D01*
X135450000Y-108000000D02*
X130500000Y-108000000D01*
X151750000Y-109500000D02*
X151000000Y-108750000D01*
X138200000Y-103300000D02*
X138200000Y-105250000D01*
X111250000Y-107250000D02*
X111250000Y-104250000D01*
X138200000Y-105250000D02*
X135450000Y-108000000D01*
X128037500Y-111250000D02*
X128037500Y-113212500D01*
X151685000Y-118050000D02*
X153250000Y-116485000D01*
X119900000Y-132500000D02*
X116250000Y-132500000D01*
X151750000Y-113000000D02*
X151750000Y-109500000D01*
X149250000Y-118050000D02*
X151685000Y-118050000D01*
X117537500Y-95000000D02*
X117000000Y-95000000D01*
X151000000Y-108750000D02*
X143750000Y-108750000D01*
X131500000Y-118050000D02*
X131500000Y-117500000D01*
X116250000Y-118550000D02*
X115060000Y-118550000D01*
X128962500Y-94500000D02*
X130962500Y-96500000D01*
X130962500Y-96500000D02*
X131750000Y-96500000D01*
X117287500Y-110750000D02*
X119037500Y-109000000D01*
X98500000Y-134070000D02*
X114680000Y-134070000D01*
X115060000Y-118550000D02*
X114750000Y-118240000D01*
X128037500Y-107962500D02*
X129250000Y-106750000D01*
X128037500Y-113212500D02*
X128000000Y-113250000D01*
X140120000Y-93380000D02*
X139500000Y-94000000D01*
X130500000Y-108000000D02*
X129250000Y-106750000D01*
X131500000Y-117500000D02*
X130750000Y-116750000D01*
X113000000Y-109000000D02*
X111250000Y-107250000D01*
X113250000Y-98750000D02*
X115000000Y-100500000D01*
X117000000Y-95000000D02*
X113250000Y-98750000D01*
X149250000Y-114900000D02*
X149850000Y-114900000D01*
X119037500Y-109000000D02*
X113000000Y-109000000D01*
X114680000Y-134070000D02*
X116250000Y-132500000D01*
X140120000Y-91750000D02*
X140120000Y-93380000D01*
X111250000Y-104250000D02*
X115000000Y-100500000D01*
X138200000Y-105250000D02*
X141550000Y-105250000D01*
X149850000Y-114900000D02*
X151750000Y-113000000D01*
X105650000Y-98750000D02*
X113250000Y-98750000D01*
X128037500Y-111250000D02*
X128037500Y-107962500D01*
%TO.N,/XTAL2*%
X119587500Y-124050000D02*
X117587500Y-126050000D01*
X106310000Y-125000000D02*
X106310000Y-120760000D01*
X107360000Y-126050000D02*
X106310000Y-125000000D01*
X117587500Y-126050000D02*
X107360000Y-126050000D01*
X106310000Y-120760000D02*
X106250000Y-120700000D01*
%TO.N,Net-(D6-A)*%
X102160000Y-98940000D02*
X102350000Y-98750000D01*
X98500000Y-98940000D02*
X102160000Y-98940000D01*
%TO.N,Net-(U4-~{INTA})*%
X121962500Y-103802500D02*
X121885000Y-103725000D01*
X121962500Y-109000000D02*
X121962500Y-103802500D01*
%TO.N,Net-(J6-Pin_3)*%
X123350000Y-128050000D02*
X123350000Y-125412500D01*
X99510000Y-130000000D02*
X121400000Y-130000000D01*
X98500000Y-128990000D02*
X99510000Y-130000000D01*
X121400000Y-130000000D02*
X123350000Y-128050000D01*
%TO.N,Net-(J6-Pin_4)*%
X98500000Y-126450000D02*
X101050000Y-129000000D01*
X122550000Y-127250000D02*
X122550000Y-125412500D01*
X101050000Y-129000000D02*
X120800000Y-129000000D01*
X120800000Y-129000000D02*
X122550000Y-127250000D01*
%TO.N,Net-(J6-Pin_5)*%
X102680000Y-128100000D02*
X120150000Y-128100000D01*
X121750000Y-126500000D02*
X121250000Y-127000000D01*
X121750000Y-125412500D02*
X121750000Y-126500000D01*
X121250000Y-127000000D02*
X120150000Y-128100000D01*
X98500000Y-123920000D02*
X102680000Y-128100000D01*
%TO.N,Net-(J6-Pin_6)*%
X120950000Y-125412500D02*
X119612500Y-126750000D01*
X119612500Y-126750000D02*
X119500000Y-126750000D01*
%TO.N,Net-(J6-Pin_7)*%
X119587500Y-119250000D02*
X118000000Y-119250000D01*
%TO.N,Net-(J6-Pin_8)*%
X118250000Y-117250000D02*
X99450000Y-117250000D01*
X119587500Y-118450000D02*
X119450000Y-118450000D01*
X99450000Y-117250000D02*
X98500000Y-116300000D01*
X119450000Y-118450000D02*
X118250000Y-117250000D01*
%TO.N,Net-(J6-Pin_9)*%
X100990000Y-116250000D02*
X98500000Y-113760000D01*
X120950000Y-117087500D02*
X120587500Y-117087500D01*
X119750000Y-116250000D02*
X100990000Y-116250000D01*
X120587500Y-117087500D02*
X119750000Y-116250000D01*
%TO.N,/XTAL1*%
X111190000Y-120510000D02*
X111250000Y-120450000D01*
X119587500Y-123250000D02*
X112940000Y-123250000D01*
X111190000Y-125000000D02*
X111190000Y-120510000D01*
X112940000Y-123250000D02*
X111190000Y-125000000D01*
%TO.N,Net-(C7-Pad2)*%
X119587500Y-120850000D02*
X116650000Y-120850000D01*
X116650000Y-120850000D02*
X116250000Y-120450000D01*
X118250000Y-122450000D02*
X116250000Y-120450000D01*
X119587500Y-122450000D02*
X118250000Y-122450000D01*
%TO.N,/SS*%
X124950000Y-127200000D02*
X125000000Y-127250000D01*
X124950000Y-125412500D02*
X124950000Y-127200000D01*
%TO.N,/MOSI*%
X124980000Y-132500000D02*
X124980000Y-128620000D01*
X124980000Y-128620000D02*
X125750000Y-127850000D01*
X125750000Y-125412500D02*
X125750000Y-127850000D01*
%TO.N,/MISO*%
X126550000Y-131530000D02*
X126550000Y-125412500D01*
X127520000Y-132500000D02*
X126550000Y-131530000D01*
%TO.N,/SCK*%
X130087500Y-124050000D02*
X133037500Y-127000000D01*
X133037500Y-127000000D02*
X133037500Y-132062500D01*
X127912500Y-124050000D02*
X130087500Y-124050000D01*
X133037500Y-132062500D02*
X132600000Y-132500000D01*
%TO.N,Net-(U1-AVCC)*%
X128649999Y-123250000D02*
X131500000Y-120399999D01*
X131500000Y-120399999D02*
X131500000Y-119950000D01*
X127912500Y-123250000D02*
X128649999Y-123250000D01*
%TO.N,Net-(U1-AREF)*%
X139750000Y-123050000D02*
X135850000Y-119150000D01*
X128649999Y-121650000D02*
X130475000Y-119824999D01*
X130475000Y-119824999D02*
X130475000Y-119465256D01*
X130475000Y-119465256D02*
X130790256Y-119150000D01*
X127912500Y-121650000D02*
X128649999Y-121650000D01*
X135850000Y-119150000D02*
X130790256Y-119150000D01*
%TO.N,/RST*%
X132650000Y-111250000D02*
X130962500Y-111250000D01*
X123575000Y-118125000D02*
X123350000Y-117900000D01*
X130962500Y-114035028D02*
X126872528Y-118125000D01*
X146200000Y-128950000D02*
X146200000Y-124800000D01*
X150300000Y-128950000D02*
X146200000Y-128950000D01*
X126872528Y-118125000D02*
X123575000Y-118125000D01*
X123350000Y-117900000D02*
X123350000Y-117087500D01*
X146200000Y-124800000D02*
X132650000Y-111250000D01*
X130962500Y-111250000D02*
X130962500Y-114035028D01*
%TO.N,/RXD*%
X108480000Y-114000000D02*
X98500000Y-104020000D01*
X120250000Y-114000000D02*
X108480000Y-114000000D01*
X122550000Y-116300000D02*
X120250000Y-114000000D01*
X122550000Y-117087500D02*
X122550000Y-116300000D01*
%TO.N,/TXD*%
X121750000Y-116350001D02*
X120149999Y-114750000D01*
X120149999Y-114750000D02*
X106690000Y-114750000D01*
X106690000Y-114750000D02*
X98500000Y-106560000D01*
X121750000Y-117087500D02*
X121750000Y-116350001D01*
%TO.N,Net-(D5-A)*%
X136150000Y-122250000D02*
X136150000Y-126812500D01*
X136150000Y-126812500D02*
X135962500Y-127000000D01*
%TO.N,Net-(U4-X2)*%
X120615000Y-104710000D02*
X119075000Y-106250000D01*
X119075000Y-106250000D02*
X115250000Y-106250000D01*
X120615000Y-103725000D02*
X120615000Y-104710000D01*
%TO.N,Net-(U4-X1)*%
X119345000Y-103725000D02*
X115275000Y-103725000D01*
X115275000Y-103725000D02*
X115250000Y-103750000D01*
%TO.N,Net-(U4-VCC)*%
X119170000Y-98600000D02*
X119345000Y-98775000D01*
X115000000Y-98600000D02*
X119170000Y-98600000D01*
%TO.N,Net-(U2-VCC)*%
X136300000Y-103750000D02*
X134550000Y-102000000D01*
X136300000Y-105250000D02*
X136300000Y-103750000D01*
%TO.N,Net-(U4-SQW{slash}~INT)*%
X120462500Y-95000000D02*
X120462500Y-98622500D01*
X120462500Y-98622500D02*
X120615000Y-98775000D01*
%TD*%
%TA.AperFunction,Conductor*%
%TO.N,GND*%
G36*
X124334185Y-126553050D02*
G01*
X124343147Y-126551762D01*
X124367187Y-126562740D01*
X124392539Y-126570185D01*
X124398466Y-126577025D01*
X124406703Y-126580787D01*
X124420992Y-126603021D01*
X124438294Y-126622989D01*
X124440581Y-126633503D01*
X124444477Y-126639565D01*
X124449500Y-126674500D01*
X124449500Y-126775399D01*
X124429815Y-126842438D01*
X124428602Y-126844290D01*
X124379228Y-126918182D01*
X124379221Y-126918195D01*
X124326421Y-127045667D01*
X124326418Y-127045677D01*
X124299500Y-127181004D01*
X124299500Y-127181007D01*
X124299500Y-127318993D01*
X124299500Y-127318995D01*
X124299499Y-127318995D01*
X124326418Y-127454322D01*
X124326421Y-127454332D01*
X124379221Y-127581804D01*
X124379228Y-127581817D01*
X124455885Y-127696541D01*
X124455888Y-127696545D01*
X124553454Y-127794111D01*
X124553458Y-127794114D01*
X124668182Y-127870771D01*
X124668195Y-127870778D01*
X124746501Y-127903213D01*
X124772047Y-127923798D01*
X124798316Y-127943463D01*
X124799117Y-127945612D01*
X124800905Y-127947053D01*
X124811266Y-127978183D01*
X124822733Y-128008927D01*
X124822245Y-128011169D01*
X124822970Y-128013348D01*
X124814853Y-128045149D01*
X124807881Y-128077200D01*
X124806047Y-128079649D01*
X124805691Y-128081047D01*
X124786731Y-128105455D01*
X124672686Y-128219500D01*
X124672685Y-128219500D01*
X124672684Y-128219501D01*
X124579502Y-128312683D01*
X124579500Y-128312686D01*
X124513608Y-128426812D01*
X124479500Y-128554108D01*
X124479500Y-131275560D01*
X124459815Y-131342599D01*
X124411795Y-131386045D01*
X124324594Y-131430476D01*
X124262131Y-131475859D01*
X124165354Y-131546172D01*
X124165352Y-131546174D01*
X124165351Y-131546174D01*
X124026174Y-131685351D01*
X124026174Y-131685352D01*
X124026172Y-131685354D01*
X123985401Y-131741470D01*
X123910474Y-131844597D01*
X123876319Y-131911630D01*
X123828345Y-131962425D01*
X123760524Y-131979220D01*
X123694389Y-131956682D01*
X123655350Y-131911629D01*
X123594624Y-131792449D01*
X123555270Y-131738282D01*
X123555269Y-131738282D01*
X122922962Y-132370590D01*
X122905925Y-132307007D01*
X122840099Y-132192993D01*
X122747007Y-132099901D01*
X122632993Y-132034075D01*
X122569409Y-132017037D01*
X123201716Y-131384728D01*
X123147550Y-131345375D01*
X122958217Y-131248904D01*
X122756129Y-131183242D01*
X122546246Y-131150000D01*
X122333754Y-131150000D01*
X122123872Y-131183242D01*
X122123869Y-131183242D01*
X121921782Y-131248904D01*
X121732439Y-131345380D01*
X121678282Y-131384727D01*
X121678282Y-131384728D01*
X122310591Y-132017037D01*
X122247007Y-132034075D01*
X122132993Y-132099901D01*
X122039901Y-132192993D01*
X121974075Y-132307007D01*
X121957037Y-132370591D01*
X121324728Y-131738282D01*
X121284229Y-131741470D01*
X121215851Y-131727106D01*
X121166094Y-131678055D01*
X121154271Y-131648204D01*
X121150499Y-131633262D01*
X121150499Y-131618482D01*
X121135646Y-131524696D01*
X121078050Y-131411658D01*
X121078048Y-131411656D01*
X121078045Y-131411652D01*
X120988347Y-131321954D01*
X120988344Y-131321952D01*
X120988342Y-131321950D01*
X120897297Y-131275560D01*
X120875301Y-131264352D01*
X120781524Y-131249500D01*
X119018482Y-131249500D01*
X118937519Y-131262323D01*
X118924696Y-131264354D01*
X118811658Y-131321950D01*
X118811657Y-131321951D01*
X118811652Y-131321954D01*
X118721954Y-131411652D01*
X118721952Y-131411656D01*
X118721950Y-131411658D01*
X118712362Y-131430476D01*
X118664352Y-131524698D01*
X118649500Y-131618475D01*
X118649500Y-131875500D01*
X118629815Y-131942539D01*
X118577011Y-131988294D01*
X118525500Y-131999500D01*
X116791519Y-131999500D01*
X116724480Y-131979815D01*
X116703838Y-131963181D01*
X116696545Y-131955888D01*
X116696541Y-131955885D01*
X116581817Y-131879228D01*
X116581804Y-131879221D01*
X116454332Y-131826421D01*
X116454322Y-131826418D01*
X116318995Y-131799500D01*
X116318993Y-131799500D01*
X116181007Y-131799500D01*
X116181005Y-131799500D01*
X116045677Y-131826418D01*
X116045667Y-131826421D01*
X115918195Y-131879221D01*
X115918182Y-131879228D01*
X115803458Y-131955885D01*
X115803454Y-131955888D01*
X115705888Y-132053454D01*
X115705885Y-132053458D01*
X115629228Y-132168182D01*
X115629221Y-132168195D01*
X115576421Y-132295667D01*
X115576418Y-132295677D01*
X115549500Y-132431004D01*
X115549500Y-132441324D01*
X115529815Y-132508363D01*
X115513181Y-132529005D01*
X114509005Y-133533181D01*
X114447682Y-133566666D01*
X114421324Y-133569500D01*
X99874499Y-133569500D01*
X99807460Y-133549815D01*
X99761705Y-133497011D01*
X99750499Y-133445500D01*
X99750499Y-133188482D01*
X99748139Y-133173580D01*
X99735646Y-133094696D01*
X99678050Y-132981658D01*
X99678046Y-132981654D01*
X99678045Y-132981652D01*
X99588347Y-132891954D01*
X99588344Y-132891952D01*
X99588342Y-132891950D01*
X99489390Y-132841531D01*
X99475301Y-132834352D01*
X99381522Y-132819499D01*
X99376669Y-132819118D01*
X99376763Y-132817918D01*
X99315109Y-132799815D01*
X99269354Y-132747011D01*
X99258530Y-132685772D01*
X99261717Y-132645270D01*
X98629408Y-132012962D01*
X98692993Y-131995925D01*
X98807007Y-131930099D01*
X98900099Y-131837007D01*
X98965925Y-131722993D01*
X98982962Y-131659408D01*
X99615270Y-132291717D01*
X99615270Y-132291716D01*
X99654622Y-132237554D01*
X99751095Y-132048217D01*
X99816757Y-131846130D01*
X99816757Y-131846127D01*
X99850000Y-131636246D01*
X99850000Y-131423753D01*
X99816757Y-131213872D01*
X99816757Y-131213869D01*
X99751095Y-131011782D01*
X99654620Y-130822442D01*
X99563762Y-130697385D01*
X99540282Y-130631579D01*
X99556108Y-130563525D01*
X99606213Y-130514830D01*
X99664080Y-130500500D01*
X121465890Y-130500500D01*
X121465892Y-130500500D01*
X121593186Y-130466392D01*
X121707314Y-130400500D01*
X123750499Y-128357315D01*
X123816392Y-128243186D01*
X123850500Y-128115893D01*
X123850500Y-127984108D01*
X123850500Y-126674500D01*
X123870185Y-126607461D01*
X123922989Y-126561706D01*
X123974500Y-126550500D01*
X124325500Y-126550500D01*
X124334185Y-126553050D01*
G37*
%TD.AperFunction*%
%TA.AperFunction,Conductor*%
G36*
X105281516Y-117770185D02*
G01*
X105327271Y-117822989D01*
X105337215Y-117892147D01*
X105308190Y-117955703D01*
X105302158Y-117962181D01*
X105182684Y-118081654D01*
X105090643Y-118230875D01*
X105090641Y-118230880D01*
X105035494Y-118397302D01*
X105035493Y-118397309D01*
X105025000Y-118500013D01*
X105025000Y-118550000D01*
X107474999Y-118550000D01*
X107474999Y-118500028D01*
X107474998Y-118500013D01*
X107464505Y-118397302D01*
X107409358Y-118230880D01*
X107409356Y-118230875D01*
X107317315Y-118081654D01*
X107197842Y-117962181D01*
X107164357Y-117900858D01*
X107169341Y-117831166D01*
X107211213Y-117775233D01*
X107276677Y-117750816D01*
X107285523Y-117750500D01*
X110010566Y-117750500D01*
X110077605Y-117770185D01*
X110123360Y-117822989D01*
X110133304Y-117892147D01*
X110116104Y-117939597D01*
X110090646Y-117980869D01*
X110090641Y-117980880D01*
X110035494Y-118147302D01*
X110035493Y-118147309D01*
X110025000Y-118250013D01*
X110025000Y-118300000D01*
X112474999Y-118300000D01*
X112474999Y-118250028D01*
X112474998Y-118250013D01*
X112464505Y-118147302D01*
X112409358Y-117980880D01*
X112409353Y-117980869D01*
X112383896Y-117939597D01*
X112365455Y-117872205D01*
X112386377Y-117805541D01*
X112440019Y-117760771D01*
X112489434Y-117750500D01*
X114008963Y-117750500D01*
X114076002Y-117770185D01*
X114121757Y-117822989D01*
X114131701Y-117892147D01*
X114123524Y-117921951D01*
X114109544Y-117955703D01*
X114076420Y-118035671D01*
X114076418Y-118035677D01*
X114049500Y-118171004D01*
X114049500Y-118171007D01*
X114049500Y-118308993D01*
X114049500Y-118308995D01*
X114049499Y-118308995D01*
X114076418Y-118444322D01*
X114076421Y-118444332D01*
X114129221Y-118571804D01*
X114129228Y-118571817D01*
X114205885Y-118686541D01*
X114205888Y-118686545D01*
X114303454Y-118784111D01*
X114303458Y-118784114D01*
X114418182Y-118860771D01*
X114418195Y-118860778D01*
X114479889Y-118886332D01*
X114545672Y-118913580D01*
X114545676Y-118913580D01*
X114545677Y-118913581D01*
X114681004Y-118940500D01*
X114681007Y-118940500D01*
X114702141Y-118940500D01*
X114717628Y-118944649D01*
X114731375Y-118943995D01*
X114764137Y-118957111D01*
X114836455Y-118998864D01*
X114866814Y-119016392D01*
X114994107Y-119050500D01*
X114994108Y-119050500D01*
X115096674Y-119050500D01*
X115163713Y-119070185D01*
X115203406Y-119111379D01*
X115256917Y-119201862D01*
X115256923Y-119201870D01*
X115373129Y-119318076D01*
X115373133Y-119318079D01*
X115373135Y-119318081D01*
X115498662Y-119392317D01*
X115500270Y-119393268D01*
X115547953Y-119444337D01*
X115560457Y-119513078D01*
X115533812Y-119577668D01*
X115500270Y-119606732D01*
X115373137Y-119681917D01*
X115373129Y-119681923D01*
X115256923Y-119798129D01*
X115256917Y-119798137D01*
X115173255Y-119939603D01*
X115173254Y-119939606D01*
X115127402Y-120097426D01*
X115127401Y-120097432D01*
X115124500Y-120134298D01*
X115124500Y-120765701D01*
X115127401Y-120802567D01*
X115127402Y-120802573D01*
X115173254Y-120960393D01*
X115173255Y-120960396D01*
X115256917Y-121101862D01*
X115256923Y-121101870D01*
X115373129Y-121218076D01*
X115373133Y-121218079D01*
X115373135Y-121218081D01*
X115514602Y-121301744D01*
X115528821Y-121305875D01*
X115672426Y-121347597D01*
X115672429Y-121347597D01*
X115672431Y-121347598D01*
X115709306Y-121350500D01*
X116391324Y-121350500D01*
X116458363Y-121370185D01*
X116479005Y-121386819D01*
X117630005Y-122537819D01*
X117663490Y-122599142D01*
X117658506Y-122668834D01*
X117616634Y-122724767D01*
X117551170Y-122749184D01*
X117542324Y-122749500D01*
X112874108Y-122749500D01*
X112746812Y-122783608D01*
X112632686Y-122849500D01*
X112632683Y-122849502D01*
X111902181Y-123580005D01*
X111840858Y-123613490D01*
X111771166Y-123608506D01*
X111715233Y-123566634D01*
X111690816Y-123501170D01*
X111690500Y-123492324D01*
X111690500Y-121473010D01*
X111710185Y-121405971D01*
X111762989Y-121360216D01*
X111804771Y-121349392D01*
X111827569Y-121347598D01*
X111827571Y-121347597D01*
X111827573Y-121347597D01*
X111899909Y-121326581D01*
X111985398Y-121301744D01*
X112126865Y-121218081D01*
X112243081Y-121101865D01*
X112326744Y-120960398D01*
X112372598Y-120802569D01*
X112375500Y-120765694D01*
X112375500Y-120134306D01*
X112372598Y-120097431D01*
X112358733Y-120049709D01*
X112326745Y-119939606D01*
X112326744Y-119939603D01*
X112326744Y-119939602D01*
X112243081Y-119798135D01*
X112243079Y-119798133D01*
X112243076Y-119798129D01*
X112126870Y-119681923D01*
X112126867Y-119681921D01*
X112126865Y-119681919D01*
X112097805Y-119664733D01*
X112050123Y-119613666D01*
X112037618Y-119544925D01*
X112064263Y-119480335D01*
X112095831Y-119452463D01*
X112193343Y-119392317D01*
X112317315Y-119268345D01*
X112409356Y-119119124D01*
X112409358Y-119119119D01*
X112464505Y-118952697D01*
X112464506Y-118952690D01*
X112474999Y-118849986D01*
X112475000Y-118849973D01*
X112475000Y-118800000D01*
X110025001Y-118800000D01*
X110025001Y-118849986D01*
X110035494Y-118952697D01*
X110090641Y-119119119D01*
X110090643Y-119119124D01*
X110182684Y-119268345D01*
X110306654Y-119392315D01*
X110404169Y-119452463D01*
X110450893Y-119504411D01*
X110462116Y-119573374D01*
X110434272Y-119637456D01*
X110402193Y-119664734D01*
X110373138Y-119681916D01*
X110373129Y-119681923D01*
X110256923Y-119798129D01*
X110256917Y-119798137D01*
X110173255Y-119939603D01*
X110173254Y-119939606D01*
X110127402Y-120097426D01*
X110127401Y-120097432D01*
X110124500Y-120134298D01*
X110124500Y-120765701D01*
X110127401Y-120802567D01*
X110127402Y-120802573D01*
X110173254Y-120960393D01*
X110173255Y-120960396D01*
X110256917Y-121101862D01*
X110256923Y-121101870D01*
X110373129Y-121218076D01*
X110373133Y-121218079D01*
X110373135Y-121218081D01*
X110514602Y-121301744D01*
X110600096Y-121326582D01*
X110658980Y-121364187D01*
X110688187Y-121427660D01*
X110689500Y-121445658D01*
X110689500Y-123887792D01*
X110669815Y-123954831D01*
X110621798Y-123998275D01*
X110587004Y-124016004D01*
X110440505Y-124122441D01*
X110440500Y-124122445D01*
X110312445Y-124250500D01*
X110312441Y-124250505D01*
X110206006Y-124397002D01*
X110123788Y-124558360D01*
X110123787Y-124558363D01*
X110067829Y-124730589D01*
X110039500Y-124909448D01*
X110039500Y-125090551D01*
X110067829Y-125269410D01*
X110106095Y-125387182D01*
X110108090Y-125457023D01*
X110072009Y-125516856D01*
X110009308Y-125547684D01*
X109988164Y-125549500D01*
X107618675Y-125549500D01*
X107589234Y-125540855D01*
X107559248Y-125534332D01*
X107554232Y-125530577D01*
X107551636Y-125529815D01*
X107530994Y-125513181D01*
X107450355Y-125432542D01*
X107416870Y-125371219D01*
X107420106Y-125306540D01*
X107432170Y-125269412D01*
X107432171Y-125269409D01*
X107446765Y-125177259D01*
X107460500Y-125090551D01*
X107460500Y-124909448D01*
X107434482Y-124745185D01*
X107432171Y-124730591D01*
X107391954Y-124606814D01*
X107376212Y-124558363D01*
X107376211Y-124558360D01*
X107337398Y-124482187D01*
X107293996Y-124397006D01*
X107250904Y-124337695D01*
X107187558Y-124250505D01*
X107187554Y-124250500D01*
X107059499Y-124122445D01*
X107059494Y-124122441D01*
X106912995Y-124016004D01*
X106878202Y-123998275D01*
X106827408Y-123950300D01*
X106810500Y-123887792D01*
X106810500Y-121695658D01*
X106830185Y-121628619D01*
X106882989Y-121582864D01*
X106899894Y-121576585D01*
X106985398Y-121551744D01*
X107126865Y-121468081D01*
X107243081Y-121351865D01*
X107326744Y-121210398D01*
X107372598Y-121052569D01*
X107375500Y-121015694D01*
X107375500Y-120384306D01*
X107372598Y-120347431D01*
X107370945Y-120341743D01*
X107326745Y-120189606D01*
X107326744Y-120189603D01*
X107326744Y-120189602D01*
X107243081Y-120048135D01*
X107243079Y-120048133D01*
X107243076Y-120048129D01*
X107126870Y-119931923D01*
X107126867Y-119931921D01*
X107126865Y-119931919D01*
X107097805Y-119914733D01*
X107050123Y-119863666D01*
X107037618Y-119794925D01*
X107064263Y-119730335D01*
X107095831Y-119702463D01*
X107193343Y-119642317D01*
X107317315Y-119518345D01*
X107409356Y-119369124D01*
X107409358Y-119369119D01*
X107464505Y-119202697D01*
X107464506Y-119202690D01*
X107474999Y-119099986D01*
X107475000Y-119099973D01*
X107475000Y-119050000D01*
X105025001Y-119050000D01*
X105025001Y-119099986D01*
X105035494Y-119202697D01*
X105090641Y-119369119D01*
X105090643Y-119369124D01*
X105182684Y-119518345D01*
X105306654Y-119642315D01*
X105404169Y-119702463D01*
X105450893Y-119754411D01*
X105462116Y-119823374D01*
X105434272Y-119887456D01*
X105402193Y-119914734D01*
X105373138Y-119931916D01*
X105373129Y-119931923D01*
X105256923Y-120048129D01*
X105256917Y-120048137D01*
X105173255Y-120189603D01*
X105173254Y-120189606D01*
X105127402Y-120347426D01*
X105127401Y-120347432D01*
X105124500Y-120384298D01*
X105124500Y-121015701D01*
X105127401Y-121052567D01*
X105127402Y-121052573D01*
X105173254Y-121210393D01*
X105173255Y-121210396D01*
X105256917Y-121351862D01*
X105256923Y-121351870D01*
X105373129Y-121468076D01*
X105373133Y-121468079D01*
X105373135Y-121468081D01*
X105514602Y-121551744D01*
X105550526Y-121562181D01*
X105672426Y-121597597D01*
X105672429Y-121597597D01*
X105672431Y-121597598D01*
X105695228Y-121599392D01*
X105760516Y-121624275D01*
X105801988Y-121680506D01*
X105809500Y-121723010D01*
X105809500Y-123887792D01*
X105789815Y-123954831D01*
X105741798Y-123998275D01*
X105707004Y-124016004D01*
X105560505Y-124122441D01*
X105560500Y-124122445D01*
X105432445Y-124250500D01*
X105432441Y-124250505D01*
X105326006Y-124397002D01*
X105243788Y-124558360D01*
X105243787Y-124558363D01*
X105187829Y-124730589D01*
X105159500Y-124909448D01*
X105159500Y-125090551D01*
X105187829Y-125269410D01*
X105243787Y-125441636D01*
X105243788Y-125441639D01*
X105326006Y-125602997D01*
X105432441Y-125749494D01*
X105432445Y-125749499D01*
X105560500Y-125877554D01*
X105560505Y-125877558D01*
X105660213Y-125949999D01*
X105707006Y-125983996D01*
X105783159Y-126022798D01*
X105868360Y-126066211D01*
X105868363Y-126066212D01*
X105954476Y-126094191D01*
X106040591Y-126122171D01*
X106123429Y-126135291D01*
X106219449Y-126150500D01*
X106219454Y-126150500D01*
X106400551Y-126150500D01*
X106487259Y-126136765D01*
X106579409Y-126122171D01*
X106616541Y-126110105D01*
X106686381Y-126108109D01*
X106742542Y-126140355D01*
X106955159Y-126352972D01*
X106955169Y-126352983D01*
X106959499Y-126357313D01*
X106959500Y-126357314D01*
X107052686Y-126450500D01*
X107147405Y-126505186D01*
X107166814Y-126516392D01*
X107294107Y-126550500D01*
X107294108Y-126550500D01*
X107294109Y-126550500D01*
X117653390Y-126550500D01*
X117653392Y-126550500D01*
X117780686Y-126516392D01*
X117894814Y-126450500D01*
X119583495Y-124761819D01*
X119644818Y-124728334D01*
X119671176Y-124725500D01*
X120150500Y-124725500D01*
X120217539Y-124745185D01*
X120263294Y-124797989D01*
X120274500Y-124849500D01*
X120274500Y-125328823D01*
X120254815Y-125395862D01*
X120238181Y-125416504D01*
X119641504Y-126013181D01*
X119580181Y-126046666D01*
X119553823Y-126049500D01*
X119431005Y-126049500D01*
X119295677Y-126076418D01*
X119295667Y-126076421D01*
X119168195Y-126129221D01*
X119168182Y-126129228D01*
X119053458Y-126205885D01*
X119053454Y-126205888D01*
X118955888Y-126303454D01*
X118955885Y-126303458D01*
X118879228Y-126418182D01*
X118879221Y-126418195D01*
X118826421Y-126545667D01*
X118826418Y-126545677D01*
X118799500Y-126681004D01*
X118799500Y-126681007D01*
X118799500Y-126818993D01*
X118799500Y-126818995D01*
X118799499Y-126818995D01*
X118826418Y-126954322D01*
X118826421Y-126954332D01*
X118879221Y-127081804D01*
X118879228Y-127081817D01*
X118955885Y-127196541D01*
X118955888Y-127196545D01*
X119053454Y-127294111D01*
X119053458Y-127294114D01*
X119170617Y-127372398D01*
X119215422Y-127426010D01*
X119224129Y-127495335D01*
X119193974Y-127558363D01*
X119134531Y-127595082D01*
X119101726Y-127599500D01*
X102938676Y-127599500D01*
X102871637Y-127579815D01*
X102850995Y-127563181D01*
X99717263Y-124429449D01*
X99683778Y-124368126D01*
X99687012Y-124303452D01*
X99719709Y-124202826D01*
X99736504Y-124096784D01*
X99750500Y-124008422D01*
X99750500Y-123811577D01*
X99719709Y-123617173D01*
X99680416Y-123496243D01*
X99658884Y-123429975D01*
X99658882Y-123429972D01*
X99658882Y-123429970D01*
X99611743Y-123337455D01*
X99569524Y-123254595D01*
X99453828Y-123095354D01*
X99314646Y-122956172D01*
X99231126Y-122895491D01*
X99155403Y-122840474D01*
X98978787Y-122750485D01*
X98927990Y-122702511D01*
X98911195Y-122634690D01*
X98933732Y-122568555D01*
X98978787Y-122529515D01*
X99155403Y-122439525D01*
X99155402Y-122439525D01*
X99155405Y-122439524D01*
X99314646Y-122323828D01*
X99453828Y-122184646D01*
X99569524Y-122025405D01*
X99658884Y-121850025D01*
X99719709Y-121662826D01*
X99725815Y-121624275D01*
X99750500Y-121468422D01*
X99750500Y-121271577D01*
X99719709Y-121077173D01*
X99658882Y-120889970D01*
X99600792Y-120775962D01*
X99569524Y-120714595D01*
X99453828Y-120555354D01*
X99314646Y-120416172D01*
X99212204Y-120341743D01*
X99155403Y-120300474D01*
X98978787Y-120210485D01*
X98927990Y-120162511D01*
X98911195Y-120094690D01*
X98933732Y-120028555D01*
X98978787Y-119989515D01*
X99155403Y-119899525D01*
X99155402Y-119899525D01*
X99155405Y-119899524D01*
X99314646Y-119783828D01*
X99453828Y-119644646D01*
X99569524Y-119485405D01*
X99658884Y-119310025D01*
X99719709Y-119122826D01*
X99722108Y-119107680D01*
X99750500Y-118928422D01*
X99750500Y-118731577D01*
X99719709Y-118537173D01*
X99674264Y-118397309D01*
X99658884Y-118349975D01*
X99658882Y-118349972D01*
X99658882Y-118349970D01*
X99586195Y-118207314D01*
X99569524Y-118174595D01*
X99453828Y-118015354D01*
X99400655Y-117962181D01*
X99367170Y-117900858D01*
X99372154Y-117831166D01*
X99414026Y-117775233D01*
X99479490Y-117750816D01*
X99488336Y-117750500D01*
X99515893Y-117750500D01*
X105214477Y-117750500D01*
X105281516Y-117770185D01*
G37*
%TD.AperFunction*%
%TA.AperFunction,Conductor*%
G36*
X122170405Y-118174294D02*
G01*
X122174096Y-118173961D01*
X122195485Y-118180241D01*
X122283923Y-118215117D01*
X122341562Y-118222039D01*
X122370381Y-118225500D01*
X122370382Y-118225500D01*
X122729619Y-118225500D01*
X122816077Y-118215117D01*
X122841699Y-118205013D01*
X122911286Y-118198731D01*
X122973222Y-118231067D01*
X122974871Y-118232686D01*
X123091686Y-118349500D01*
X123174500Y-118432314D01*
X123267686Y-118525500D01*
X123381814Y-118591392D01*
X123509108Y-118625500D01*
X126665432Y-118625500D01*
X126685932Y-118631519D01*
X126707263Y-118632769D01*
X126718789Y-118641167D01*
X126732471Y-118645185D01*
X126746461Y-118661330D01*
X126763732Y-118673915D01*
X126771820Y-118690596D01*
X126778226Y-118697989D01*
X126781045Y-118704671D01*
X126784620Y-118713892D01*
X126784883Y-118716077D01*
X126819845Y-118804736D01*
X126820014Y-118805171D01*
X126822924Y-118839615D01*
X126826037Y-118874098D01*
X126825882Y-118874623D01*
X126825897Y-118874792D01*
X126825753Y-118875062D01*
X126819756Y-118895489D01*
X126784883Y-118983922D01*
X126784882Y-118983924D01*
X126774500Y-119070381D01*
X126774500Y-119429618D01*
X126784882Y-119516075D01*
X126784883Y-119516077D01*
X126819756Y-119604511D01*
X126826037Y-119674098D01*
X126819756Y-119695489D01*
X126784883Y-119783922D01*
X126784882Y-119783924D01*
X126774500Y-119870381D01*
X126774500Y-120229618D01*
X126783487Y-120304453D01*
X126771937Y-120373361D01*
X126767104Y-120382359D01*
X126722782Y-120457302D01*
X126722781Y-120457305D01*
X126681326Y-120600000D01*
X126924384Y-120600000D01*
X126991423Y-120619685D01*
X126999309Y-120625196D01*
X127046342Y-120660862D01*
X127183923Y-120715117D01*
X127241562Y-120722039D01*
X127270381Y-120725500D01*
X127788500Y-120725500D01*
X127797185Y-120728050D01*
X127806147Y-120726762D01*
X127830187Y-120737740D01*
X127855539Y-120745185D01*
X127861466Y-120752025D01*
X127869703Y-120755787D01*
X127883992Y-120778021D01*
X127901294Y-120797989D01*
X127903581Y-120808503D01*
X127907477Y-120814565D01*
X127912500Y-120849500D01*
X127912500Y-120850500D01*
X127892815Y-120917539D01*
X127840011Y-120963294D01*
X127788500Y-120974500D01*
X127270381Y-120974500D01*
X127183925Y-120984882D01*
X127183924Y-120984882D01*
X127046339Y-121039139D01*
X126999309Y-121074804D01*
X126933998Y-121099627D01*
X126924384Y-121100000D01*
X126681326Y-121100000D01*
X126722781Y-121242694D01*
X126767104Y-121317640D01*
X126784287Y-121385364D01*
X126783487Y-121395546D01*
X126774500Y-121470381D01*
X126774500Y-121829618D01*
X126784882Y-121916075D01*
X126784883Y-121916077D01*
X126819756Y-122004511D01*
X126826037Y-122074098D01*
X126819756Y-122095489D01*
X126784883Y-122183922D01*
X126784882Y-122183924D01*
X126774500Y-122270381D01*
X126774500Y-122629618D01*
X126784882Y-122716075D01*
X126784883Y-122716077D01*
X126819756Y-122804511D01*
X126826037Y-122874098D01*
X126819756Y-122895489D01*
X126784883Y-122983922D01*
X126784882Y-122983924D01*
X126774500Y-123070381D01*
X126774500Y-123429618D01*
X126784882Y-123516075D01*
X126784883Y-123516077D01*
X126819756Y-123604511D01*
X126826037Y-123674098D01*
X126819756Y-123695489D01*
X126784883Y-123783922D01*
X126784882Y-123783924D01*
X126774500Y-123870381D01*
X126774500Y-124150500D01*
X126754815Y-124217539D01*
X126702011Y-124263294D01*
X126650500Y-124274500D01*
X126370382Y-124274500D01*
X126283924Y-124284882D01*
X126283922Y-124284883D01*
X126195489Y-124319756D01*
X126125902Y-124326037D01*
X126104511Y-124319756D01*
X126016077Y-124284883D01*
X126016075Y-124284882D01*
X125929618Y-124274500D01*
X125570382Y-124274500D01*
X125483924Y-124284882D01*
X125483922Y-124284883D01*
X125395489Y-124319756D01*
X125325902Y-124326037D01*
X125304511Y-124319756D01*
X125216077Y-124284883D01*
X125216075Y-124284882D01*
X125129618Y-124274500D01*
X124770382Y-124274500D01*
X124683924Y-124284882D01*
X124683922Y-124284883D01*
X124595489Y-124319756D01*
X124525902Y-124326037D01*
X124504511Y-124319756D01*
X124416077Y-124284883D01*
X124416075Y-124284882D01*
X124329618Y-124274500D01*
X123970382Y-124274500D01*
X123883924Y-124284882D01*
X123883922Y-124284883D01*
X123795489Y-124319756D01*
X123725902Y-124326037D01*
X123704511Y-124319756D01*
X123616077Y-124284883D01*
X123616075Y-124284882D01*
X123529618Y-124274500D01*
X123170382Y-124274500D01*
X123083924Y-124284882D01*
X123083922Y-124284883D01*
X122995489Y-124319756D01*
X122925902Y-124326037D01*
X122904511Y-124319756D01*
X122816077Y-124284883D01*
X122816075Y-124284882D01*
X122729618Y-124274500D01*
X122370382Y-124274500D01*
X122283924Y-124284882D01*
X122283922Y-124284883D01*
X122195489Y-124319756D01*
X122125902Y-124326037D01*
X122104511Y-124319756D01*
X122016077Y-124284883D01*
X122016075Y-124284882D01*
X121929618Y-124274500D01*
X121570382Y-124274500D01*
X121483924Y-124284882D01*
X121483922Y-124284883D01*
X121395489Y-124319756D01*
X121325902Y-124326037D01*
X121304511Y-124319756D01*
X121216077Y-124284883D01*
X121216075Y-124284882D01*
X121129618Y-124274500D01*
X120849500Y-124274500D01*
X120782461Y-124254815D01*
X120736706Y-124202011D01*
X120725500Y-124150500D01*
X120725500Y-123870381D01*
X120721283Y-123835264D01*
X120715117Y-123783923D01*
X120680242Y-123695489D01*
X120673961Y-123625904D01*
X120680241Y-123604514D01*
X120715117Y-123516077D01*
X120725500Y-123429618D01*
X120725500Y-123070382D01*
X120715117Y-122983923D01*
X120712610Y-122977567D01*
X120691870Y-122924973D01*
X120680242Y-122895489D01*
X120673961Y-122825904D01*
X120680241Y-122804514D01*
X120715117Y-122716077D01*
X120725500Y-122629618D01*
X120725500Y-122270382D01*
X120716512Y-122195543D01*
X120728062Y-122126638D01*
X120732896Y-122117637D01*
X120777218Y-122042693D01*
X120818674Y-121900000D01*
X120575616Y-121900000D01*
X120508577Y-121880315D01*
X120500691Y-121874804D01*
X120453660Y-121839139D01*
X120453658Y-121839138D01*
X120316077Y-121784883D01*
X120316076Y-121784882D01*
X120316074Y-121784882D01*
X120229619Y-121774500D01*
X120229618Y-121774500D01*
X118945382Y-121774500D01*
X118945381Y-121774500D01*
X118858925Y-121784882D01*
X118858924Y-121784882D01*
X118721339Y-121839139D01*
X118674309Y-121874804D01*
X118653261Y-121882803D01*
X118634319Y-121894977D01*
X118613269Y-121898003D01*
X118608998Y-121899627D01*
X118599384Y-121900000D01*
X118459176Y-121900000D01*
X118392137Y-121880315D01*
X118371495Y-121863681D01*
X118069995Y-121562181D01*
X118036510Y-121500858D01*
X118041494Y-121431166D01*
X118083366Y-121375233D01*
X118148830Y-121350816D01*
X118157676Y-121350500D01*
X118257201Y-121350500D01*
X118324240Y-121370185D01*
X118356310Y-121400000D01*
X118599384Y-121400000D01*
X118666423Y-121419685D01*
X118674309Y-121425196D01*
X118721342Y-121460862D01*
X118858923Y-121515117D01*
X118916562Y-121522039D01*
X118945381Y-121525500D01*
X118945382Y-121525500D01*
X120229619Y-121525500D01*
X120251232Y-121522904D01*
X120316077Y-121515117D01*
X120453658Y-121460862D01*
X120500691Y-121425196D01*
X120566002Y-121400373D01*
X120575616Y-121400000D01*
X120818674Y-121400000D01*
X120777218Y-121257305D01*
X120732895Y-121182359D01*
X120715712Y-121114635D01*
X120716509Y-121104479D01*
X120725500Y-121029618D01*
X120725500Y-120670382D01*
X120716512Y-120595543D01*
X120728062Y-120526638D01*
X120732896Y-120517637D01*
X120777218Y-120442693D01*
X120818674Y-120300000D01*
X120575616Y-120300000D01*
X120508577Y-120280315D01*
X120500691Y-120274804D01*
X120453660Y-120239139D01*
X120453658Y-120239138D01*
X120316077Y-120184883D01*
X120316076Y-120184882D01*
X120316074Y-120184882D01*
X120229619Y-120174500D01*
X120229618Y-120174500D01*
X118945382Y-120174500D01*
X118945381Y-120174500D01*
X118858925Y-120184882D01*
X118858924Y-120184882D01*
X118721339Y-120239139D01*
X118674309Y-120274804D01*
X118608998Y-120299627D01*
X118599384Y-120300000D01*
X118356297Y-120300000D01*
X118300370Y-120341743D01*
X118257201Y-120349500D01*
X117499500Y-120349500D01*
X117432461Y-120329815D01*
X117386706Y-120277011D01*
X117375500Y-120225500D01*
X117375500Y-120134313D01*
X117375499Y-120134298D01*
X117372598Y-120097432D01*
X117372597Y-120097426D01*
X117326745Y-119939606D01*
X117326744Y-119939603D01*
X117326744Y-119939602D01*
X117287684Y-119873556D01*
X117270502Y-119805833D01*
X117292662Y-119739570D01*
X117347128Y-119695807D01*
X117416608Y-119688438D01*
X117479042Y-119719802D01*
X117482098Y-119722755D01*
X117553454Y-119794111D01*
X117553458Y-119794114D01*
X117668182Y-119870771D01*
X117668195Y-119870778D01*
X117774318Y-119914735D01*
X117795672Y-119923580D01*
X117795676Y-119923580D01*
X117795677Y-119923581D01*
X117931004Y-119950500D01*
X117931007Y-119950500D01*
X118068995Y-119950500D01*
X118162420Y-119931916D01*
X118204328Y-119923580D01*
X118331811Y-119870775D01*
X118406457Y-119820897D01*
X118424503Y-119815247D01*
X118440413Y-119805023D01*
X118471372Y-119800571D01*
X118473134Y-119800020D01*
X118475348Y-119800000D01*
X118599384Y-119800000D01*
X118666423Y-119819685D01*
X118674309Y-119825196D01*
X118721342Y-119860862D01*
X118858923Y-119915117D01*
X118916562Y-119922039D01*
X118945381Y-119925500D01*
X118945382Y-119925500D01*
X120229619Y-119925500D01*
X120251876Y-119922827D01*
X120316077Y-119915117D01*
X120453658Y-119860862D01*
X120500691Y-119825196D01*
X120566002Y-119800373D01*
X120575616Y-119800000D01*
X120818674Y-119800000D01*
X120777218Y-119657305D01*
X120732895Y-119582359D01*
X120715712Y-119514635D01*
X120716509Y-119504479D01*
X120725500Y-119429618D01*
X120725500Y-119070382D01*
X120715117Y-118983923D01*
X120680242Y-118895489D01*
X120673961Y-118825904D01*
X120680241Y-118804514D01*
X120715117Y-118716077D01*
X120725500Y-118629618D01*
X120725500Y-118349500D01*
X120745185Y-118282461D01*
X120797989Y-118236706D01*
X120849500Y-118225500D01*
X121129619Y-118225500D01*
X121151232Y-118222904D01*
X121216077Y-118215117D01*
X121304510Y-118180242D01*
X121374096Y-118173961D01*
X121395485Y-118180241D01*
X121483923Y-118215117D01*
X121541562Y-118222039D01*
X121570381Y-118225500D01*
X121570382Y-118225500D01*
X121929619Y-118225500D01*
X121951232Y-118222904D01*
X122016077Y-118215117D01*
X122104510Y-118180242D01*
X122133038Y-118177667D01*
X122161149Y-118172099D01*
X122170405Y-118174294D01*
G37*
%TD.AperFunction*%
%TA.AperFunction,Conductor*%
G36*
X140308363Y-96020185D02*
G01*
X140329005Y-96036819D01*
X141941472Y-97649285D01*
X141974957Y-97710608D01*
X141969973Y-97780300D01*
X141952595Y-97811891D01*
X141940640Y-97827655D01*
X141940637Y-97827661D01*
X141885123Y-97968434D01*
X141885123Y-97968436D01*
X141874500Y-98056898D01*
X141874500Y-98443102D01*
X141877918Y-98471561D01*
X141885122Y-98531561D01*
X141940639Y-98672343D01*
X142032079Y-98792924D01*
X142036474Y-98797319D01*
X142069959Y-98858642D01*
X142064975Y-98928334D01*
X142036474Y-98972681D01*
X142032079Y-98977075D01*
X141940639Y-99097656D01*
X141885122Y-99238438D01*
X141881310Y-99270185D01*
X141874500Y-99326898D01*
X141874500Y-99326903D01*
X141874500Y-99435500D01*
X141854815Y-99502539D01*
X141802011Y-99548294D01*
X141750500Y-99559500D01*
X136049500Y-99559500D01*
X135982461Y-99539815D01*
X135936706Y-99487011D01*
X135925500Y-99435500D01*
X135925500Y-99266903D01*
X135925500Y-99266898D01*
X135914877Y-99178436D01*
X135859361Y-99037658D01*
X135859360Y-99037657D01*
X135859360Y-99037656D01*
X135767920Y-98917075D01*
X135763526Y-98912681D01*
X135730041Y-98851358D01*
X135735025Y-98781666D01*
X135763526Y-98737319D01*
X135767920Y-98732924D01*
X135804940Y-98684107D01*
X135859361Y-98612342D01*
X135914877Y-98471564D01*
X135918667Y-98440001D01*
X138027704Y-98440001D01*
X138027899Y-98442486D01*
X138073718Y-98600198D01*
X138157314Y-98741552D01*
X138162100Y-98747722D01*
X138159753Y-98749542D01*
X138186564Y-98798642D01*
X138181580Y-98868334D01*
X138160541Y-98901069D01*
X138162100Y-98902278D01*
X138157314Y-98908447D01*
X138073718Y-99049801D01*
X138027899Y-99207513D01*
X138027704Y-99209998D01*
X138027705Y-99210000D01*
X139250000Y-99210000D01*
X139750000Y-99210000D01*
X140972295Y-99210000D01*
X140972295Y-99209998D01*
X140972100Y-99207513D01*
X140926281Y-99049801D01*
X140842685Y-98908447D01*
X140837900Y-98902278D01*
X140840252Y-98900453D01*
X140813445Y-98851405D01*
X140818402Y-98781712D01*
X140839465Y-98748936D01*
X140837900Y-98747722D01*
X140842685Y-98741552D01*
X140926281Y-98600198D01*
X140972100Y-98442486D01*
X140972295Y-98440001D01*
X140972295Y-98440000D01*
X139750000Y-98440000D01*
X139750000Y-99210000D01*
X139250000Y-99210000D01*
X139250000Y-98440000D01*
X138027705Y-98440000D01*
X138027704Y-98440001D01*
X135918667Y-98440001D01*
X135925500Y-98383102D01*
X135925500Y-97996898D01*
X135918667Y-97939998D01*
X138027704Y-97939998D01*
X138027705Y-97940000D01*
X139250000Y-97940000D01*
X139750000Y-97940000D01*
X140972295Y-97940000D01*
X140972295Y-97939998D01*
X140972100Y-97937513D01*
X140926281Y-97779801D01*
X140842685Y-97638447D01*
X140842678Y-97638438D01*
X140726561Y-97522321D01*
X140726552Y-97522314D01*
X140585196Y-97438717D01*
X140585193Y-97438716D01*
X140427495Y-97392900D01*
X140427489Y-97392899D01*
X140390649Y-97390000D01*
X139750000Y-97390000D01*
X139750000Y-97940000D01*
X139250000Y-97940000D01*
X139250000Y-97390000D01*
X138609350Y-97390000D01*
X138572510Y-97392899D01*
X138572504Y-97392900D01*
X138414806Y-97438716D01*
X138414803Y-97438717D01*
X138273447Y-97522314D01*
X138273438Y-97522321D01*
X138157321Y-97638438D01*
X138157314Y-97638447D01*
X138073718Y-97779801D01*
X138027899Y-97937513D01*
X138027704Y-97939998D01*
X135918667Y-97939998D01*
X135914877Y-97908436D01*
X135859361Y-97767658D01*
X135847404Y-97751890D01*
X135822581Y-97686582D01*
X135837008Y-97618218D01*
X135858523Y-97589289D01*
X137410995Y-96036819D01*
X137472318Y-96003334D01*
X137498676Y-96000500D01*
X140241324Y-96000500D01*
X140308363Y-96020185D01*
G37*
%TD.AperFunction*%
%TA.AperFunction,Conductor*%
G36*
X144692539Y-90270185D02*
G01*
X144738294Y-90322989D01*
X144749500Y-90374500D01*
X144749500Y-97709657D01*
X144729815Y-97776696D01*
X144677011Y-97822451D01*
X144607853Y-97832395D01*
X144544297Y-97803370D01*
X144526696Y-97784583D01*
X144509536Y-97761954D01*
X144467922Y-97707078D01*
X144467920Y-97707077D01*
X144467920Y-97707076D01*
X144347343Y-97615639D01*
X144239484Y-97573105D01*
X144206564Y-97560123D01*
X144206563Y-97560122D01*
X144206561Y-97560122D01*
X144160926Y-97554642D01*
X144118102Y-97549500D01*
X144118097Y-97549500D01*
X143308675Y-97549500D01*
X143241636Y-97529815D01*
X143220994Y-97513181D01*
X142021303Y-96313490D01*
X140807314Y-95099500D01*
X140750250Y-95066554D01*
X140693187Y-95033608D01*
X140629539Y-95016554D01*
X140565892Y-94999500D01*
X137305892Y-94999500D01*
X137174107Y-94999500D01*
X137046812Y-95033608D01*
X136932686Y-95099500D01*
X136932683Y-95099502D01*
X135752181Y-96280005D01*
X135690858Y-96313490D01*
X135621166Y-96308506D01*
X135565233Y-96266634D01*
X135540816Y-96201170D01*
X135540500Y-96192324D01*
X135540500Y-92974438D01*
X135560185Y-92907399D01*
X135608204Y-92863954D01*
X135695405Y-92819524D01*
X135854646Y-92703828D01*
X135993828Y-92564646D01*
X136109524Y-92405405D01*
X136143679Y-92338370D01*
X136191652Y-92287575D01*
X136259473Y-92270779D01*
X136325608Y-92293316D01*
X136364648Y-92338370D01*
X136425370Y-92457542D01*
X136425373Y-92457547D01*
X136464728Y-92511716D01*
X137097037Y-91879408D01*
X137114075Y-91942993D01*
X137179901Y-92057007D01*
X137272993Y-92150099D01*
X137387007Y-92215925D01*
X137450590Y-92232962D01*
X136818282Y-92865269D01*
X136818282Y-92865270D01*
X136872449Y-92904624D01*
X137061782Y-93001095D01*
X137263870Y-93066757D01*
X137473754Y-93100000D01*
X137686246Y-93100000D01*
X137896127Y-93066757D01*
X137896130Y-93066757D01*
X138098217Y-93001095D01*
X138287554Y-92904622D01*
X138341716Y-92865270D01*
X138341717Y-92865270D01*
X137709408Y-92232962D01*
X137772993Y-92215925D01*
X137887007Y-92150099D01*
X137980099Y-92057007D01*
X138045925Y-91942993D01*
X138062962Y-91879408D01*
X138695269Y-92511716D01*
X138735771Y-92508529D01*
X138804148Y-92522893D01*
X138853905Y-92571944D01*
X138868107Y-92626746D01*
X138869119Y-92626667D01*
X138869500Y-92631511D01*
X138869500Y-92631517D01*
X138869501Y-92631518D01*
X138884354Y-92725304D01*
X138941950Y-92838342D01*
X138941952Y-92838344D01*
X138941954Y-92838347D01*
X139031652Y-92928045D01*
X139031654Y-92928046D01*
X139031658Y-92928050D01*
X139144694Y-92985645D01*
X139144698Y-92985647D01*
X139238475Y-93000499D01*
X139238481Y-93000500D01*
X139492325Y-93000499D01*
X139513571Y-93006737D01*
X139535656Y-93008317D01*
X139546437Y-93016387D01*
X139559363Y-93020183D01*
X139573865Y-93036919D01*
X139591590Y-93050188D01*
X139596296Y-93062806D01*
X139605118Y-93072987D01*
X139608269Y-93094905D01*
X139616008Y-93115652D01*
X139613145Y-93128813D01*
X139615062Y-93142146D01*
X139605863Y-93162287D01*
X139601157Y-93183925D01*
X139587885Y-93201653D01*
X139586037Y-93205701D01*
X139580006Y-93212179D01*
X139529006Y-93263180D01*
X139467683Y-93296666D01*
X139441324Y-93299500D01*
X139431005Y-93299500D01*
X139295677Y-93326418D01*
X139295667Y-93326421D01*
X139168195Y-93379221D01*
X139168182Y-93379228D01*
X139053458Y-93455885D01*
X139053454Y-93455888D01*
X138955888Y-93553454D01*
X138955885Y-93553458D01*
X138879228Y-93668182D01*
X138879221Y-93668195D01*
X138826421Y-93795667D01*
X138826418Y-93795677D01*
X138799500Y-93931004D01*
X138799500Y-93931007D01*
X138799500Y-94068993D01*
X138799500Y-94068995D01*
X138799499Y-94068995D01*
X138826418Y-94204322D01*
X138826421Y-94204332D01*
X138879221Y-94331804D01*
X138879228Y-94331817D01*
X138955885Y-94446541D01*
X138955888Y-94446545D01*
X139053454Y-94544111D01*
X139053458Y-94544114D01*
X139168182Y-94620771D01*
X139168195Y-94620778D01*
X139278154Y-94666324D01*
X139295672Y-94673580D01*
X139295676Y-94673580D01*
X139295677Y-94673581D01*
X139431004Y-94700500D01*
X139431007Y-94700500D01*
X139568995Y-94700500D01*
X139660041Y-94682389D01*
X139704328Y-94673580D01*
X139831811Y-94620775D01*
X139946542Y-94544114D01*
X140044114Y-94446542D01*
X140120775Y-94331811D01*
X140173580Y-94204328D01*
X140191428Y-94114602D01*
X140200500Y-94068995D01*
X140200500Y-94058676D01*
X140220185Y-93991637D01*
X140236819Y-93970995D01*
X140520496Y-93687318D01*
X140520499Y-93687315D01*
X140535124Y-93661985D01*
X140586392Y-93573186D01*
X140609481Y-93487016D01*
X140620500Y-93445893D01*
X140620500Y-93314108D01*
X140620500Y-93124499D01*
X140640185Y-93057460D01*
X140692989Y-93011705D01*
X140744500Y-93000499D01*
X141001517Y-93000499D01*
X141001518Y-93000499D01*
X141095304Y-92985646D01*
X141208342Y-92928050D01*
X141298050Y-92838342D01*
X141355646Y-92725304D01*
X141355646Y-92725302D01*
X141355647Y-92725301D01*
X141370499Y-92631524D01*
X141370500Y-92631519D01*
X141370499Y-90868482D01*
X141355646Y-90774696D01*
X141298050Y-90661658D01*
X141298046Y-90661654D01*
X141298045Y-90661652D01*
X141208347Y-90571954D01*
X141208344Y-90571952D01*
X141208342Y-90571950D01*
X141126566Y-90530283D01*
X141095301Y-90514352D01*
X141001524Y-90499500D01*
X139238482Y-90499500D01*
X139157519Y-90512323D01*
X139144696Y-90514354D01*
X139031658Y-90571950D01*
X139031657Y-90571951D01*
X139031652Y-90571954D01*
X138941954Y-90661652D01*
X138941951Y-90661657D01*
X138884352Y-90774698D01*
X138869499Y-90868477D01*
X138869118Y-90873331D01*
X138867918Y-90873236D01*
X138849815Y-90934891D01*
X138797011Y-90980646D01*
X138735771Y-90991470D01*
X138695269Y-90988282D01*
X138062962Y-91620590D01*
X138045925Y-91557007D01*
X137980099Y-91442993D01*
X137887007Y-91349901D01*
X137772993Y-91284075D01*
X137709409Y-91267037D01*
X138341716Y-90634728D01*
X138287550Y-90595375D01*
X138098217Y-90498904D01*
X138078294Y-90492431D01*
X138020619Y-90452994D01*
X137993420Y-90388635D01*
X138005335Y-90319789D01*
X138052579Y-90268313D01*
X138116612Y-90250500D01*
X144625500Y-90250500D01*
X144692539Y-90270185D01*
G37*
%TD.AperFunction*%
%TA.AperFunction,Conductor*%
G36*
X137110427Y-90270185D02*
G01*
X137156182Y-90322989D01*
X137166126Y-90392147D01*
X137137101Y-90455703D01*
X137081706Y-90492431D01*
X137061782Y-90498904D01*
X136872439Y-90595380D01*
X136818282Y-90634727D01*
X136818282Y-90634728D01*
X137450591Y-91267037D01*
X137387007Y-91284075D01*
X137272993Y-91349901D01*
X137179901Y-91442993D01*
X137114075Y-91557007D01*
X137097037Y-91620591D01*
X136464728Y-90988282D01*
X136464727Y-90988282D01*
X136425380Y-91042440D01*
X136425378Y-91042443D01*
X136364648Y-91161630D01*
X136316673Y-91212426D01*
X136248852Y-91229220D01*
X136182717Y-91206682D01*
X136143679Y-91161628D01*
X136109525Y-91094596D01*
X136071631Y-91042440D01*
X135993828Y-90935354D01*
X135854646Y-90796172D01*
X135695405Y-90680476D01*
X135686766Y-90676074D01*
X135520029Y-90591117D01*
X135332826Y-90530290D01*
X135138422Y-90499500D01*
X135138417Y-90499500D01*
X134941583Y-90499500D01*
X134941578Y-90499500D01*
X134744301Y-90530745D01*
X134675007Y-90521790D01*
X134621555Y-90476794D01*
X134600916Y-90410042D01*
X134619641Y-90342729D01*
X134637215Y-90320598D01*
X134670998Y-90286815D01*
X134732320Y-90253333D01*
X134758676Y-90250500D01*
X137043388Y-90250500D01*
X137110427Y-90270185D01*
G37*
%TD.AperFunction*%
%TA.AperFunction,Conductor*%
G36*
X153891655Y-86500685D02*
G01*
X153892290Y-86500506D01*
X153925167Y-86510525D01*
X153958064Y-86520185D01*
X153958494Y-86520681D01*
X153959125Y-86520874D01*
X153981369Y-86547081D01*
X154003819Y-86572989D01*
X154003912Y-86573639D01*
X154004339Y-86574142D01*
X154008876Y-86608161D01*
X154013763Y-86642147D01*
X154013489Y-86642746D01*
X154013576Y-86643398D01*
X153999012Y-86674445D01*
X153984738Y-86705703D01*
X153984090Y-86706258D01*
X153983905Y-86706654D01*
X153956997Y-86729494D01*
X153935731Y-86742856D01*
X153693080Y-86936363D01*
X153473621Y-87155822D01*
X153280114Y-87398473D01*
X153114989Y-87661267D01*
X152980339Y-87940871D01*
X152980330Y-87940893D01*
X152877830Y-88233819D01*
X152877826Y-88233831D01*
X152808765Y-88536410D01*
X152808762Y-88536424D01*
X152774016Y-88844813D01*
X152774016Y-89155186D01*
X152808762Y-89463575D01*
X152808765Y-89463589D01*
X152877826Y-89766168D01*
X152877830Y-89766180D01*
X152980330Y-90059106D01*
X152980339Y-90059128D01*
X153114989Y-90338732D01*
X153137464Y-90374500D01*
X153280115Y-90601528D01*
X153473622Y-90844178D01*
X153693080Y-91063636D01*
X153935730Y-91257143D01*
X154198520Y-91422265D01*
X154198525Y-91422268D01*
X154478129Y-91556918D01*
X154478138Y-91556921D01*
X154478145Y-91556925D01*
X154575793Y-91591093D01*
X154771077Y-91659427D01*
X154771089Y-91659431D01*
X155073668Y-91728493D01*
X155073677Y-91728494D01*
X155073682Y-91728495D01*
X155264550Y-91750000D01*
X155382072Y-91763241D01*
X155382075Y-91763242D01*
X155382078Y-91763242D01*
X155692441Y-91763242D01*
X155692442Y-91763241D01*
X155850054Y-91745483D01*
X156000833Y-91728495D01*
X156000836Y-91728494D01*
X156000848Y-91728493D01*
X156303427Y-91659431D01*
X156596371Y-91556925D01*
X156833592Y-91442686D01*
X156875990Y-91422268D01*
X156875990Y-91422267D01*
X156875996Y-91422265D01*
X157138786Y-91257143D01*
X157381436Y-91063636D01*
X157600894Y-90844178D01*
X157778554Y-90621399D01*
X157835741Y-90581260D01*
X157905553Y-90578410D01*
X157965823Y-90613755D01*
X157997416Y-90676074D01*
X157999500Y-90698713D01*
X157999500Y-132901286D01*
X157979815Y-132968325D01*
X157927011Y-133014080D01*
X157857853Y-133024024D01*
X157794297Y-132994999D01*
X157778553Y-132978599D01*
X157600894Y-132755822D01*
X157381435Y-132536363D01*
X157319811Y-132487220D01*
X157138786Y-132342857D01*
X156922848Y-132207174D01*
X156875990Y-132177731D01*
X156596386Y-132043081D01*
X156596364Y-132043072D01*
X156303438Y-131940572D01*
X156303426Y-131940568D01*
X156053629Y-131883554D01*
X156000848Y-131871507D01*
X156000845Y-131871506D01*
X156000833Y-131871504D01*
X155692444Y-131836758D01*
X155692438Y-131836758D01*
X155382078Y-131836758D01*
X155382071Y-131836758D01*
X155073682Y-131871504D01*
X155073668Y-131871507D01*
X154771089Y-131940568D01*
X154771077Y-131940572D01*
X154478151Y-132043072D01*
X154478129Y-132043081D01*
X154198525Y-132177731D01*
X153935731Y-132342856D01*
X153693080Y-132536363D01*
X153473621Y-132755822D01*
X153280114Y-132998473D01*
X153114989Y-133261267D01*
X152980339Y-133540871D01*
X152980330Y-133540893D01*
X152877830Y-133833819D01*
X152877826Y-133833831D01*
X152808765Y-134136410D01*
X152808762Y-134136424D01*
X152774016Y-134444813D01*
X152774016Y-134755186D01*
X152808762Y-135063575D01*
X152808765Y-135063589D01*
X152877826Y-135366168D01*
X152877830Y-135366180D01*
X152980330Y-135659106D01*
X152980339Y-135659128D01*
X153114989Y-135938732D01*
X153114993Y-135938738D01*
X153280115Y-136201528D01*
X153473622Y-136444178D01*
X153693080Y-136663636D01*
X153935730Y-136857143D01*
X154195721Y-137020506D01*
X154242012Y-137072841D01*
X154252660Y-137141894D01*
X154224285Y-137205743D01*
X154165896Y-137244115D01*
X154129749Y-137249500D01*
X94624500Y-137249500D01*
X94557461Y-137229815D01*
X94511706Y-137177011D01*
X94500500Y-137125500D01*
X94500500Y-101373753D01*
X97150000Y-101373753D01*
X97150000Y-101586246D01*
X97183242Y-101796127D01*
X97183242Y-101796130D01*
X97248904Y-101998217D01*
X97345375Y-102187550D01*
X97384728Y-102241716D01*
X98017037Y-101609408D01*
X98034075Y-101672993D01*
X98099901Y-101787007D01*
X98192993Y-101880099D01*
X98307007Y-101945925D01*
X98370590Y-101962962D01*
X97738282Y-102595269D01*
X97738282Y-102595270D01*
X97792449Y-102634624D01*
X97911629Y-102695350D01*
X97962425Y-102743325D01*
X97979220Y-102811146D01*
X97956682Y-102877281D01*
X97911630Y-102916319D01*
X97844597Y-102950474D01*
X97786502Y-102992683D01*
X97685354Y-103066172D01*
X97685352Y-103066174D01*
X97685351Y-103066174D01*
X97546174Y-103205351D01*
X97546174Y-103205352D01*
X97546172Y-103205354D01*
X97536639Y-103218475D01*
X97430476Y-103364594D01*
X97341117Y-103539970D01*
X97280290Y-103727173D01*
X97249500Y-103921577D01*
X97249500Y-104118422D01*
X97280290Y-104312826D01*
X97341117Y-104500029D01*
X97410217Y-104635645D01*
X97430476Y-104675405D01*
X97546172Y-104834646D01*
X97685354Y-104973828D01*
X97844595Y-105089524D01*
X97904771Y-105120185D01*
X98021213Y-105179515D01*
X98072009Y-105227489D01*
X98088804Y-105295310D01*
X98066267Y-105361445D01*
X98021213Y-105400485D01*
X97844594Y-105490476D01*
X97774111Y-105541686D01*
X97685354Y-105606172D01*
X97685352Y-105606174D01*
X97685351Y-105606174D01*
X97546174Y-105745351D01*
X97546174Y-105745352D01*
X97546172Y-105745354D01*
X97513225Y-105790701D01*
X97430476Y-105904594D01*
X97341117Y-106079970D01*
X97280290Y-106267173D01*
X97249500Y-106461577D01*
X97249500Y-106658422D01*
X97280290Y-106852826D01*
X97341117Y-107040029D01*
X97397405Y-107150499D01*
X97430476Y-107215405D01*
X97546172Y-107374646D01*
X97685354Y-107513828D01*
X97844595Y-107629524D01*
X97927455Y-107671743D01*
X98019970Y-107718882D01*
X98019972Y-107718882D01*
X98019975Y-107718884D01*
X98107950Y-107747469D01*
X98207173Y-107779709D01*
X98401578Y-107810500D01*
X98401583Y-107810500D01*
X98598422Y-107810500D01*
X98743793Y-107787474D01*
X98792826Y-107779709D01*
X98885905Y-107749464D01*
X98955741Y-107747469D01*
X99011901Y-107779715D01*
X106382686Y-115150500D01*
X106496814Y-115216392D01*
X106624107Y-115250500D01*
X106624108Y-115250500D01*
X119891323Y-115250500D01*
X119958362Y-115270185D01*
X119979004Y-115286819D01*
X120536769Y-115844584D01*
X120545131Y-115859899D01*
X120557549Y-115872163D01*
X120561529Y-115889929D01*
X120570254Y-115905907D01*
X120569009Y-115923312D01*
X120572825Y-115940343D01*
X120566568Y-115957440D01*
X120565270Y-115975599D01*
X120554746Y-115989748D01*
X120548815Y-116005957D01*
X120524014Y-116031069D01*
X120448006Y-116088708D01*
X120382694Y-116113531D01*
X120314330Y-116099103D01*
X120285399Y-116077585D01*
X120057316Y-115849502D01*
X120057314Y-115849500D01*
X119988846Y-115809970D01*
X119943187Y-115783608D01*
X119853922Y-115759690D01*
X119815892Y-115749500D01*
X119815891Y-115749500D01*
X101248676Y-115749500D01*
X101181637Y-115729815D01*
X101160995Y-115713181D01*
X99717263Y-114269449D01*
X99683778Y-114208126D01*
X99687012Y-114143452D01*
X99719709Y-114042826D01*
X99738595Y-113923581D01*
X99750500Y-113848422D01*
X99750500Y-113651577D01*
X99719709Y-113457173D01*
X99691487Y-113370317D01*
X99658884Y-113269975D01*
X99658882Y-113269972D01*
X99658882Y-113269970D01*
X99569523Y-113094594D01*
X99453828Y-112935354D01*
X99314646Y-112796172D01*
X99155405Y-112680476D01*
X99136770Y-112670981D01*
X98980029Y-112591117D01*
X98792826Y-112530290D01*
X98598422Y-112499500D01*
X98598417Y-112499500D01*
X98401583Y-112499500D01*
X98401578Y-112499500D01*
X98207173Y-112530290D01*
X98019970Y-112591117D01*
X97844594Y-112680476D01*
X97786969Y-112722344D01*
X97685354Y-112796172D01*
X97685352Y-112796174D01*
X97685351Y-112796174D01*
X97546174Y-112935351D01*
X97546174Y-112935352D01*
X97546172Y-112935354D01*
X97496485Y-113003741D01*
X97430476Y-113094594D01*
X97341117Y-113269970D01*
X97280290Y-113457173D01*
X97249500Y-113651577D01*
X97249500Y-113848422D01*
X97280290Y-114042826D01*
X97341117Y-114230029D01*
X97398343Y-114342341D01*
X97430476Y-114405405D01*
X97546172Y-114564646D01*
X97685354Y-114703828D01*
X97844595Y-114819524D01*
X97958523Y-114877573D01*
X98021213Y-114909515D01*
X98072009Y-114957489D01*
X98088804Y-115025310D01*
X98066267Y-115091445D01*
X98021213Y-115130485D01*
X97844594Y-115220476D01*
X97776177Y-115270185D01*
X97685354Y-115336172D01*
X97685352Y-115336174D01*
X97685351Y-115336174D01*
X97546174Y-115475351D01*
X97546174Y-115475352D01*
X97546172Y-115475354D01*
X97519965Y-115511425D01*
X97430476Y-115634594D01*
X97341117Y-115809970D01*
X97280290Y-115997173D01*
X97249500Y-116191577D01*
X97249500Y-116388422D01*
X97280290Y-116582826D01*
X97341117Y-116770029D01*
X97400217Y-116886018D01*
X97430476Y-116945405D01*
X97546172Y-117104646D01*
X97685354Y-117243828D01*
X97844595Y-117359524D01*
X97920362Y-117398129D01*
X98021213Y-117449515D01*
X98072009Y-117497489D01*
X98088804Y-117565310D01*
X98066267Y-117631445D01*
X98021213Y-117670485D01*
X97844594Y-117760476D01*
X97765683Y-117817809D01*
X97685354Y-117876172D01*
X97685352Y-117876174D01*
X97685351Y-117876174D01*
X97546174Y-118015351D01*
X97546174Y-118015352D01*
X97546172Y-118015354D01*
X97528555Y-118039602D01*
X97430476Y-118174594D01*
X97341117Y-118349970D01*
X97280290Y-118537173D01*
X97249500Y-118731577D01*
X97249500Y-118928422D01*
X97280290Y-119122826D01*
X97341117Y-119310029D01*
X97425181Y-119475013D01*
X97430476Y-119485405D01*
X97546172Y-119644646D01*
X97685354Y-119783828D01*
X97844595Y-119899524D01*
X97908182Y-119931923D01*
X98021213Y-119989515D01*
X98072009Y-120037489D01*
X98088804Y-120105310D01*
X98066267Y-120171445D01*
X98021213Y-120210485D01*
X97844594Y-120300476D01*
X97772729Y-120352690D01*
X97685354Y-120416172D01*
X97685352Y-120416174D01*
X97685351Y-120416174D01*
X97546174Y-120555351D01*
X97546174Y-120555352D01*
X97546172Y-120555354D01*
X97518004Y-120594124D01*
X97430476Y-120714594D01*
X97341117Y-120889970D01*
X97280290Y-121077173D01*
X97249500Y-121271577D01*
X97249500Y-121468422D01*
X97280290Y-121662826D01*
X97341117Y-121850029D01*
X97418197Y-122001306D01*
X97430476Y-122025405D01*
X97546172Y-122184646D01*
X97685354Y-122323828D01*
X97844595Y-122439524D01*
X97963287Y-122500000D01*
X98021213Y-122529515D01*
X98072009Y-122577489D01*
X98088804Y-122645310D01*
X98066267Y-122711445D01*
X98021213Y-122750485D01*
X97844594Y-122840476D01*
X97768874Y-122895491D01*
X97685354Y-122956172D01*
X97685352Y-122956174D01*
X97685351Y-122956174D01*
X97546174Y-123095351D01*
X97546174Y-123095352D01*
X97546172Y-123095354D01*
X97517082Y-123135393D01*
X97430476Y-123254594D01*
X97341117Y-123429970D01*
X97280290Y-123617173D01*
X97249500Y-123811577D01*
X97249500Y-124008422D01*
X97280290Y-124202826D01*
X97341117Y-124390029D01*
X97423072Y-124550873D01*
X97430476Y-124565405D01*
X97546172Y-124724646D01*
X97685354Y-124863828D01*
X97844595Y-124979524D01*
X97948210Y-125032318D01*
X98021213Y-125069515D01*
X98072009Y-125117489D01*
X98088804Y-125185310D01*
X98066267Y-125251445D01*
X98021213Y-125290485D01*
X97844594Y-125380476D01*
X97760416Y-125441636D01*
X97685354Y-125496172D01*
X97685352Y-125496174D01*
X97685351Y-125496174D01*
X97546174Y-125635351D01*
X97546174Y-125635352D01*
X97546172Y-125635354D01*
X97522203Y-125668345D01*
X97430476Y-125794594D01*
X97341117Y-125969970D01*
X97280290Y-126157173D01*
X97249500Y-126351577D01*
X97249500Y-126548422D01*
X97280290Y-126742826D01*
X97341117Y-126930029D01*
X97400043Y-127045677D01*
X97430476Y-127105405D01*
X97546172Y-127264646D01*
X97685354Y-127403828D01*
X97844595Y-127519524D01*
X97962924Y-127579815D01*
X98021213Y-127609515D01*
X98072009Y-127657489D01*
X98088804Y-127725310D01*
X98066267Y-127791445D01*
X98021213Y-127830485D01*
X97844594Y-127920476D01*
X97757014Y-127984108D01*
X97685354Y-128036172D01*
X97685352Y-128036174D01*
X97685351Y-128036174D01*
X97546174Y-128175351D01*
X97546174Y-128175352D01*
X97546172Y-128175354D01*
X97514098Y-128219500D01*
X97430476Y-128334594D01*
X97341117Y-128509970D01*
X97280290Y-128697173D01*
X97249500Y-128891577D01*
X97249500Y-129088422D01*
X97280290Y-129282826D01*
X97341117Y-129470029D01*
X97384465Y-129555103D01*
X97430476Y-129645405D01*
X97546172Y-129804646D01*
X97685354Y-129943828D01*
X97804784Y-130030600D01*
X97844596Y-130059525D01*
X97911628Y-130093679D01*
X97962425Y-130141653D01*
X97979220Y-130209474D01*
X97956683Y-130275609D01*
X97911630Y-130314648D01*
X97792443Y-130375378D01*
X97792440Y-130375380D01*
X97738282Y-130414727D01*
X97738282Y-130414728D01*
X98370591Y-131047037D01*
X98307007Y-131064075D01*
X98192993Y-131129901D01*
X98099901Y-131222993D01*
X98034075Y-131337007D01*
X98017037Y-131400591D01*
X97384728Y-130768282D01*
X97384727Y-130768282D01*
X97345380Y-130822439D01*
X97248904Y-131011782D01*
X97183242Y-131213869D01*
X97183242Y-131213872D01*
X97150000Y-131423753D01*
X97150000Y-131636246D01*
X97183242Y-131846127D01*
X97183242Y-131846130D01*
X97248904Y-132048217D01*
X97345375Y-132237550D01*
X97384728Y-132291716D01*
X98017037Y-131659408D01*
X98034075Y-131722993D01*
X98099901Y-131837007D01*
X98192993Y-131930099D01*
X98307007Y-131995925D01*
X98370590Y-132012962D01*
X97738282Y-132645269D01*
X97741470Y-132685771D01*
X97727106Y-132754148D01*
X97678055Y-132803905D01*
X97623253Y-132818107D01*
X97623333Y-132819119D01*
X97618488Y-132819500D01*
X97618482Y-132819501D01*
X97524696Y-132834354D01*
X97411658Y-132891950D01*
X97411657Y-132891951D01*
X97411652Y-132891954D01*
X97321954Y-132981652D01*
X97321951Y-132981657D01*
X97321950Y-132981658D01*
X97305430Y-133014080D01*
X97264352Y-133094698D01*
X97249500Y-133188475D01*
X97249500Y-134951517D01*
X97260292Y-135019657D01*
X97264354Y-135045304D01*
X97321950Y-135158342D01*
X97321952Y-135158344D01*
X97321954Y-135158347D01*
X97411652Y-135248045D01*
X97411654Y-135248046D01*
X97411658Y-135248050D01*
X97524694Y-135305645D01*
X97524698Y-135305647D01*
X97618475Y-135320499D01*
X97618481Y-135320500D01*
X99381518Y-135320499D01*
X99475304Y-135305646D01*
X99588342Y-135248050D01*
X99678050Y-135158342D01*
X99735646Y-135045304D01*
X99735646Y-135045302D01*
X99735647Y-135045301D01*
X99750500Y-134951524D01*
X99750500Y-134694500D01*
X99770185Y-134627461D01*
X99822989Y-134581706D01*
X99874500Y-134570500D01*
X114745890Y-134570500D01*
X114745892Y-134570500D01*
X114873186Y-134536392D01*
X114987314Y-134470500D01*
X116220994Y-133236818D01*
X116282317Y-133203334D01*
X116308675Y-133200500D01*
X116318995Y-133200500D01*
X116410041Y-133182389D01*
X116454328Y-133173580D01*
X116581811Y-133120775D01*
X116696542Y-133044114D01*
X116697340Y-133043316D01*
X116703838Y-133036819D01*
X116765161Y-133003334D01*
X116791519Y-133000500D01*
X118525501Y-133000500D01*
X118592540Y-133020185D01*
X118638295Y-133072989D01*
X118649501Y-133124500D01*
X118649501Y-133381518D01*
X118664354Y-133475304D01*
X118721950Y-133588342D01*
X118721952Y-133588344D01*
X118721954Y-133588347D01*
X118811652Y-133678045D01*
X118811654Y-133678046D01*
X118811658Y-133678050D01*
X118924694Y-133735645D01*
X118924698Y-133735647D01*
X119018475Y-133750499D01*
X119018481Y-133750500D01*
X120781518Y-133750499D01*
X120875304Y-133735646D01*
X120988342Y-133678050D01*
X121078050Y-133588342D01*
X121135646Y-133475304D01*
X121150500Y-133381519D01*
X121150499Y-133366732D01*
X121154271Y-133351795D01*
X121164499Y-133334452D01*
X121170168Y-133315131D01*
X121181887Y-133304971D01*
X121189766Y-133291613D01*
X121207747Y-133282553D01*
X121222961Y-133269364D01*
X121239852Y-133266376D01*
X121252163Y-133260174D01*
X121266451Y-133261672D01*
X121284230Y-133258528D01*
X121324729Y-133261715D01*
X121957037Y-132629408D01*
X121974075Y-132692993D01*
X122039901Y-132807007D01*
X122132993Y-132900099D01*
X122247007Y-132965925D01*
X122310590Y-132982962D01*
X121678282Y-133615269D01*
X121678282Y-133615270D01*
X121732449Y-133654624D01*
X121921782Y-133751095D01*
X122123870Y-133816757D01*
X122333754Y-133850000D01*
X122546246Y-133850000D01*
X122756127Y-133816757D01*
X122756130Y-133816757D01*
X122958217Y-133751095D01*
X123147554Y-133654622D01*
X123201716Y-133615270D01*
X123201717Y-133615270D01*
X122569408Y-132982962D01*
X122632993Y-132965925D01*
X122747007Y-132900099D01*
X122840099Y-132807007D01*
X122905925Y-132692993D01*
X122922962Y-132629408D01*
X123555270Y-133261717D01*
X123555270Y-133261716D01*
X123594622Y-133207554D01*
X123655350Y-133088370D01*
X123703324Y-133037574D01*
X123771145Y-133020779D01*
X123837280Y-133043316D01*
X123876320Y-133088370D01*
X123910476Y-133155405D01*
X124026172Y-133314646D01*
X124165354Y-133453828D01*
X124324595Y-133569524D01*
X124407455Y-133611743D01*
X124499970Y-133658882D01*
X124499972Y-133658882D01*
X124499975Y-133658884D01*
X124558962Y-133678050D01*
X124687173Y-133719709D01*
X124881578Y-133750500D01*
X124881583Y-133750500D01*
X125078422Y-133750500D01*
X125272826Y-133719709D01*
X125460025Y-133658884D01*
X125635405Y-133569524D01*
X125794646Y-133453828D01*
X125933828Y-133314646D01*
X126049524Y-133155405D01*
X126128706Y-133000000D01*
X126139515Y-132978787D01*
X126187489Y-132927990D01*
X126255310Y-132911195D01*
X126321445Y-132933732D01*
X126360485Y-132978787D01*
X126450474Y-133155403D01*
X126474503Y-133188475D01*
X126566172Y-133314646D01*
X126705354Y-133453828D01*
X126864595Y-133569524D01*
X126947455Y-133611743D01*
X127039970Y-133658882D01*
X127039972Y-133658882D01*
X127039975Y-133658884D01*
X127098962Y-133678050D01*
X127227173Y-133719709D01*
X127421578Y-133750500D01*
X127421583Y-133750500D01*
X127618422Y-133750500D01*
X127812826Y-133719709D01*
X128000025Y-133658884D01*
X128175405Y-133569524D01*
X128334646Y-133453828D01*
X128473828Y-133314646D01*
X128589524Y-133155405D01*
X128668706Y-133000000D01*
X128679515Y-132978787D01*
X128727489Y-132927990D01*
X128795310Y-132911195D01*
X128861445Y-132933732D01*
X128900485Y-132978787D01*
X128990474Y-133155403D01*
X129014503Y-133188475D01*
X129106172Y-133314646D01*
X129245354Y-133453828D01*
X129404595Y-133569524D01*
X129487455Y-133611743D01*
X129579970Y-133658882D01*
X129579972Y-133658882D01*
X129579975Y-133658884D01*
X129638962Y-133678050D01*
X129767173Y-133719709D01*
X129961578Y-133750500D01*
X129961583Y-133750500D01*
X130158422Y-133750500D01*
X130352826Y-133719709D01*
X130540025Y-133658884D01*
X130715405Y-133569524D01*
X130874646Y-133453828D01*
X131013828Y-133314646D01*
X131129524Y-133155405D01*
X131208706Y-133000000D01*
X131219515Y-132978787D01*
X131267489Y-132927990D01*
X131335310Y-132911195D01*
X131401445Y-132933732D01*
X131440485Y-132978787D01*
X131530474Y-133155403D01*
X131554503Y-133188475D01*
X131646172Y-133314646D01*
X131785354Y-133453828D01*
X131944595Y-133569524D01*
X132027455Y-133611743D01*
X132119970Y-133658882D01*
X132119972Y-133658882D01*
X132119975Y-133658884D01*
X132178962Y-133678050D01*
X132307173Y-133719709D01*
X132501578Y-133750500D01*
X132501583Y-133750500D01*
X132698422Y-133750500D01*
X132892826Y-133719709D01*
X133080025Y-133658884D01*
X133255405Y-133569524D01*
X133414646Y-133453828D01*
X133553828Y-133314646D01*
X133669524Y-133155405D01*
X133758884Y-132980025D01*
X133819709Y-132792826D01*
X133835521Y-132692993D01*
X133850500Y-132598422D01*
X133850500Y-132401577D01*
X133819709Y-132207173D01*
X133768060Y-132048217D01*
X133758884Y-132019975D01*
X133758882Y-132019972D01*
X133758882Y-132019970D01*
X133687170Y-131879228D01*
X133669524Y-131844595D01*
X133561682Y-131696164D01*
X133538202Y-131630357D01*
X133538000Y-131623278D01*
X133538000Y-131097844D01*
X145250000Y-131097844D01*
X145256401Y-131157372D01*
X145256403Y-131157379D01*
X145306645Y-131292086D01*
X145306649Y-131292093D01*
X145392809Y-131407187D01*
X145392812Y-131407190D01*
X145507906Y-131493350D01*
X145507913Y-131493354D01*
X145642620Y-131543596D01*
X145642627Y-131543598D01*
X145702155Y-131549999D01*
X145702172Y-131550000D01*
X145950000Y-131550000D01*
X146450000Y-131550000D01*
X146697828Y-131550000D01*
X146697844Y-131549999D01*
X146757372Y-131543598D01*
X146757379Y-131543596D01*
X146892086Y-131493354D01*
X146892093Y-131493350D01*
X147007187Y-131407190D01*
X147007190Y-131407187D01*
X147093350Y-131292093D01*
X147093354Y-131292086D01*
X147143596Y-131157379D01*
X147143598Y-131157372D01*
X147149999Y-131097844D01*
X149350000Y-131097844D01*
X149356401Y-131157372D01*
X149356403Y-131157379D01*
X149406645Y-131292086D01*
X149406649Y-131292093D01*
X149492809Y-131407187D01*
X149492812Y-131407190D01*
X149607906Y-131493350D01*
X149607913Y-131493354D01*
X149742620Y-131543596D01*
X149742627Y-131543598D01*
X149802155Y-131549999D01*
X149802172Y-131550000D01*
X150050000Y-131550000D01*
X150550000Y-131550000D01*
X150797828Y-131550000D01*
X150797844Y-131549999D01*
X150857372Y-131543598D01*
X150857379Y-131543596D01*
X150992086Y-131493354D01*
X150992093Y-131493350D01*
X151107187Y-131407190D01*
X151107190Y-131407187D01*
X151193350Y-131292093D01*
X151193354Y-131292086D01*
X151243596Y-131157379D01*
X151243598Y-131157372D01*
X151249999Y-131097844D01*
X151250000Y-131097827D01*
X151250000Y-130800000D01*
X150550000Y-130800000D01*
X150550000Y-131550000D01*
X150050000Y-131550000D01*
X150050000Y-130800000D01*
X149350000Y-130800000D01*
X149350000Y-131097844D01*
X147149999Y-131097844D01*
X147150000Y-131097827D01*
X147150000Y-130800000D01*
X146450000Y-130800000D01*
X146450000Y-131550000D01*
X145950000Y-131550000D01*
X145950000Y-130800000D01*
X145250000Y-130800000D01*
X145250000Y-131097844D01*
X133538000Y-131097844D01*
X133538000Y-128339525D01*
X133557685Y-128272486D01*
X133604431Y-128231980D01*
X133603683Y-128230715D01*
X133622645Y-128219501D01*
X133751865Y-128143081D01*
X133868081Y-128026865D01*
X133951744Y-127885398D01*
X133997598Y-127727569D01*
X134000500Y-127690694D01*
X134000500Y-126309306D01*
X133997598Y-126272431D01*
X133978264Y-126205885D01*
X133951745Y-126114606D01*
X133951744Y-126114603D01*
X133951744Y-126114602D01*
X133868081Y-125973135D01*
X133868079Y-125973133D01*
X133868076Y-125973129D01*
X133751870Y-125856923D01*
X133751862Y-125856917D01*
X133642625Y-125792315D01*
X133610398Y-125773256D01*
X133610397Y-125773255D01*
X133610396Y-125773255D01*
X133610393Y-125773254D01*
X133452573Y-125727402D01*
X133452567Y-125727401D01*
X133415701Y-125724500D01*
X133415694Y-125724500D01*
X132659306Y-125724500D01*
X132659298Y-125724500D01*
X132622436Y-125727401D01*
X132622427Y-125727403D01*
X132576839Y-125740647D01*
X132506969Y-125740446D01*
X132454565Y-125709251D01*
X130394816Y-123649502D01*
X130394814Y-123649500D01*
X130324730Y-123609037D01*
X130280687Y-123583608D01*
X130194064Y-123560398D01*
X130153392Y-123549500D01*
X130153391Y-123549500D01*
X129357675Y-123549500D01*
X129290636Y-123529815D01*
X129244881Y-123477011D01*
X129234937Y-123407853D01*
X129263962Y-123344297D01*
X129269994Y-123337819D01*
X129682827Y-122924986D01*
X132225001Y-122924986D01*
X132235494Y-123027697D01*
X132290641Y-123194119D01*
X132290643Y-123194124D01*
X132382684Y-123343345D01*
X132506654Y-123467315D01*
X132655875Y-123559356D01*
X132655880Y-123559358D01*
X132822302Y-123614505D01*
X132822309Y-123614506D01*
X132925019Y-123624999D01*
X133099999Y-123624999D01*
X133600000Y-123624999D01*
X133774972Y-123624999D01*
X133774986Y-123624998D01*
X133877697Y-123614505D01*
X134044119Y-123559358D01*
X134044124Y-123559356D01*
X134193345Y-123467315D01*
X134317315Y-123343345D01*
X134409356Y-123194124D01*
X134409358Y-123194119D01*
X134464505Y-123027697D01*
X134464506Y-123027690D01*
X134474999Y-122924986D01*
X134475000Y-122924973D01*
X134475000Y-122500000D01*
X133600000Y-122500000D01*
X133600000Y-123624999D01*
X133099999Y-123624999D01*
X133100000Y-123624998D01*
X133100000Y-122500000D01*
X132225001Y-122500000D01*
X132225001Y-122924986D01*
X129682827Y-122924986D01*
X131032800Y-121575013D01*
X132225000Y-121575013D01*
X132225000Y-122000000D01*
X133100000Y-122000000D01*
X133600000Y-122000000D01*
X134474999Y-122000000D01*
X134474999Y-121575028D01*
X134474998Y-121575013D01*
X134464505Y-121472302D01*
X134409358Y-121305880D01*
X134409356Y-121305875D01*
X134317315Y-121156654D01*
X134193345Y-121032684D01*
X134044124Y-120940643D01*
X134044119Y-120940641D01*
X133877697Y-120885494D01*
X133877690Y-120885493D01*
X133774986Y-120875000D01*
X133600000Y-120875000D01*
X133600000Y-122000000D01*
X133100000Y-122000000D01*
X133100000Y-120875000D01*
X132925029Y-120875000D01*
X132925012Y-120875001D01*
X132822302Y-120885494D01*
X132655880Y-120940641D01*
X132655875Y-120940643D01*
X132506654Y-121032684D01*
X132382684Y-121156654D01*
X132290643Y-121305875D01*
X132290641Y-121305880D01*
X132235494Y-121472302D01*
X132235493Y-121472309D01*
X132225000Y-121575013D01*
X131032800Y-121575013D01*
X131720994Y-120886819D01*
X131782317Y-120853334D01*
X131808675Y-120850500D01*
X132040686Y-120850500D01*
X132040694Y-120850500D01*
X132077569Y-120847598D01*
X132077571Y-120847597D01*
X132077573Y-120847597D01*
X132119191Y-120835505D01*
X132235398Y-120801744D01*
X132376865Y-120718081D01*
X132493081Y-120601865D01*
X132576744Y-120460398D01*
X132622598Y-120302569D01*
X132625500Y-120265694D01*
X132625500Y-119774500D01*
X132645185Y-119707461D01*
X132697989Y-119661706D01*
X132749500Y-119650500D01*
X135591324Y-119650500D01*
X135658363Y-119670185D01*
X135679005Y-119686819D01*
X136768148Y-120775962D01*
X136801633Y-120837285D01*
X136796649Y-120906977D01*
X136754777Y-120962910D01*
X136689313Y-120987327D01*
X136645874Y-120982720D01*
X136627569Y-120977402D01*
X136627566Y-120977401D01*
X136627567Y-120977401D01*
X136590701Y-120974500D01*
X136590694Y-120974500D01*
X135709306Y-120974500D01*
X135709298Y-120974500D01*
X135672432Y-120977401D01*
X135672426Y-120977402D01*
X135514606Y-121023254D01*
X135514603Y-121023255D01*
X135373137Y-121106917D01*
X135373129Y-121106923D01*
X135256923Y-121223129D01*
X135256917Y-121223137D01*
X135173255Y-121364603D01*
X135173254Y-121364606D01*
X135127402Y-121522426D01*
X135127401Y-121522432D01*
X135124500Y-121559298D01*
X135124500Y-122940701D01*
X135127401Y-122977567D01*
X135127402Y-122977573D01*
X135173254Y-123135393D01*
X135173255Y-123135396D01*
X135256917Y-123276862D01*
X135256923Y-123276870D01*
X135373129Y-123393076D01*
X135373133Y-123393079D01*
X135373135Y-123393081D01*
X135514602Y-123476744D01*
X135560095Y-123489960D01*
X135618980Y-123527567D01*
X135648187Y-123591039D01*
X135649500Y-123609037D01*
X135649500Y-125605356D01*
X135629815Y-125672395D01*
X135577011Y-125718150D01*
X135553488Y-125725543D01*
X135553515Y-125725634D01*
X135549367Y-125726839D01*
X135547783Y-125727337D01*
X135547433Y-125727400D01*
X135389606Y-125773254D01*
X135389603Y-125773255D01*
X135248137Y-125856917D01*
X135248129Y-125856923D01*
X135131923Y-125973129D01*
X135131917Y-125973137D01*
X135048255Y-126114603D01*
X135048254Y-126114606D01*
X135002402Y-126272426D01*
X135002401Y-126272432D01*
X134999500Y-126309298D01*
X134999500Y-127690701D01*
X135002401Y-127727567D01*
X135002402Y-127727573D01*
X135048254Y-127885393D01*
X135048255Y-127885396D01*
X135131917Y-128026862D01*
X135131923Y-128026870D01*
X135248129Y-128143076D01*
X135248133Y-128143079D01*
X135248135Y-128143081D01*
X135389602Y-128226744D01*
X135409177Y-128232431D01*
X135547426Y-128272597D01*
X135547429Y-128272597D01*
X135547431Y-128272598D01*
X135584306Y-128275500D01*
X135584314Y-128275500D01*
X136340686Y-128275500D01*
X136340694Y-128275500D01*
X136377569Y-128272598D01*
X136377571Y-128272597D01*
X136377573Y-128272597D01*
X136426734Y-128258314D01*
X136535398Y-128226744D01*
X136676865Y-128143081D01*
X136793081Y-128026865D01*
X136876744Y-127885398D01*
X136922598Y-127727569D01*
X136925500Y-127690694D01*
X136925500Y-126309306D01*
X136922598Y-126272431D01*
X136903264Y-126205885D01*
X136876745Y-126114606D01*
X136876744Y-126114603D01*
X136876744Y-126114602D01*
X136793081Y-125973135D01*
X136793079Y-125973133D01*
X136793076Y-125973129D01*
X136686819Y-125866872D01*
X136653334Y-125805549D01*
X136650500Y-125779191D01*
X136650500Y-125249986D01*
X138525001Y-125249986D01*
X138535494Y-125352697D01*
X138590641Y-125519119D01*
X138590643Y-125519124D01*
X138682684Y-125668345D01*
X138806654Y-125792315D01*
X138955875Y-125884356D01*
X138955880Y-125884358D01*
X139122302Y-125939505D01*
X139122309Y-125939506D01*
X139225019Y-125949999D01*
X139499999Y-125949999D01*
X140000000Y-125949999D01*
X140274972Y-125949999D01*
X140274986Y-125949998D01*
X140377697Y-125939505D01*
X140544119Y-125884358D01*
X140544124Y-125884356D01*
X140693345Y-125792315D01*
X140817315Y-125668345D01*
X140909356Y-125519124D01*
X140909358Y-125519119D01*
X140964505Y-125352697D01*
X140964506Y-125352690D01*
X140974999Y-125249986D01*
X140975000Y-125249973D01*
X140975000Y-125200000D01*
X140000000Y-125200000D01*
X140000000Y-125949999D01*
X139499999Y-125949999D01*
X139500000Y-125949998D01*
X139500000Y-125200000D01*
X138525001Y-125200000D01*
X138525001Y-125249986D01*
X136650500Y-125249986D01*
X136650500Y-123609037D01*
X136670185Y-123541998D01*
X136722989Y-123496243D01*
X136739900Y-123489962D01*
X136785398Y-123476744D01*
X136926865Y-123393081D01*
X137043081Y-123276865D01*
X137126744Y-123135398D01*
X137160505Y-123019191D01*
X137172597Y-122977573D01*
X137172598Y-122977567D01*
X137175500Y-122940694D01*
X137175500Y-121559306D01*
X137172598Y-121522431D01*
X137167280Y-121504126D01*
X137167478Y-121434260D01*
X137205419Y-121375589D01*
X137269057Y-121346745D01*
X137338187Y-121356884D01*
X137374037Y-121381851D01*
X138591519Y-122599333D01*
X138625004Y-122660656D01*
X138627456Y-122696742D01*
X138624500Y-122734297D01*
X138624500Y-123365701D01*
X138627401Y-123402567D01*
X138627402Y-123402573D01*
X138673254Y-123560393D01*
X138673255Y-123560396D01*
X138673256Y-123560398D01*
X138686982Y-123583608D01*
X138756917Y-123701862D01*
X138756923Y-123701870D01*
X138873129Y-123818076D01*
X138873132Y-123818078D01*
X138873135Y-123818081D01*
X138902192Y-123835265D01*
X138949875Y-123886332D01*
X138962381Y-123955073D01*
X138935736Y-124019663D01*
X138904170Y-124047535D01*
X138806656Y-124107682D01*
X138682684Y-124231654D01*
X138590643Y-124380875D01*
X138590641Y-124380880D01*
X138535494Y-124547302D01*
X138535493Y-124547309D01*
X138525000Y-124650013D01*
X138525000Y-124700000D01*
X140974999Y-124700000D01*
X140974999Y-124650028D01*
X140974998Y-124650013D01*
X140964505Y-124547302D01*
X140909358Y-124380880D01*
X140909356Y-124380875D01*
X140817315Y-124231654D01*
X140693344Y-124107683D01*
X140693340Y-124107680D01*
X140595830Y-124047535D01*
X140549105Y-123995588D01*
X140537884Y-123926625D01*
X140565727Y-123862543D01*
X140597806Y-123835266D01*
X140626865Y-123818081D01*
X140743081Y-123701865D01*
X140826744Y-123560398D01*
X140864637Y-123429970D01*
X140872597Y-123402573D01*
X140872598Y-123402567D01*
X140875500Y-123365694D01*
X140875500Y-122734306D01*
X140872598Y-122697431D01*
X140857455Y-122645310D01*
X140826745Y-122539606D01*
X140826744Y-122539603D01*
X140826744Y-122539602D01*
X140743081Y-122398135D01*
X140743079Y-122398133D01*
X140743076Y-122398129D01*
X140626870Y-122281923D01*
X140626862Y-122281917D01*
X140485396Y-122198255D01*
X140485393Y-122198254D01*
X140327573Y-122152402D01*
X140327567Y-122152401D01*
X140290701Y-122149500D01*
X140290694Y-122149500D01*
X139608676Y-122149500D01*
X139541637Y-122129815D01*
X139520995Y-122113181D01*
X136157316Y-118749502D01*
X136157314Y-118749500D01*
X136074462Y-118701665D01*
X136043187Y-118683608D01*
X135979539Y-118666554D01*
X135915892Y-118649500D01*
X135915891Y-118649500D01*
X132716010Y-118649500D01*
X132648971Y-118629815D01*
X132603216Y-118577011D01*
X132593272Y-118507853D01*
X132596934Y-118490905D01*
X132622597Y-118402573D01*
X132622598Y-118402567D01*
X132623012Y-118397309D01*
X132625500Y-118365694D01*
X132625500Y-117734306D01*
X132622598Y-117697431D01*
X132617941Y-117681403D01*
X132576745Y-117539606D01*
X132576744Y-117539603D01*
X132576744Y-117539602D01*
X132493081Y-117398135D01*
X132493079Y-117398133D01*
X132493076Y-117398129D01*
X132376870Y-117281923D01*
X132376862Y-117281917D01*
X132235396Y-117198255D01*
X132235393Y-117198254D01*
X132077573Y-117152402D01*
X132077567Y-117152401D01*
X132040701Y-117149500D01*
X132040694Y-117149500D01*
X131908676Y-117149500D01*
X131841637Y-117129815D01*
X131820995Y-117113181D01*
X131486819Y-116779005D01*
X131453334Y-116717682D01*
X131450500Y-116691324D01*
X131450500Y-116681004D01*
X131423581Y-116545677D01*
X131423580Y-116545676D01*
X131423580Y-116545672D01*
X131420327Y-116537819D01*
X131370778Y-116418195D01*
X131370771Y-116418182D01*
X131294114Y-116303458D01*
X131294111Y-116303454D01*
X131196545Y-116205888D01*
X131196541Y-116205885D01*
X131081817Y-116129228D01*
X131081804Y-116129221D01*
X130954332Y-116076421D01*
X130954322Y-116076418D01*
X130818995Y-116049500D01*
X130818993Y-116049500D01*
X130681007Y-116049500D01*
X130681005Y-116049500D01*
X130545677Y-116076418D01*
X130545667Y-116076421D01*
X130418195Y-116129221D01*
X130418182Y-116129228D01*
X130303458Y-116205885D01*
X130303454Y-116205888D01*
X130205888Y-116303454D01*
X130205885Y-116303458D01*
X130129228Y-116418182D01*
X130129221Y-116418195D01*
X130076421Y-116545667D01*
X130076418Y-116545677D01*
X130049500Y-116681004D01*
X130049500Y-116681007D01*
X130049500Y-116818993D01*
X130049500Y-116818995D01*
X130049499Y-116818995D01*
X130076418Y-116954322D01*
X130076421Y-116954332D01*
X130129221Y-117081804D01*
X130129228Y-117081817D01*
X130205885Y-117196541D01*
X130205888Y-117196545D01*
X130303454Y-117294111D01*
X130303458Y-117294114D01*
X130395801Y-117355816D01*
X130440606Y-117409428D01*
X130449313Y-117478753D01*
X130433644Y-117522036D01*
X130423255Y-117539603D01*
X130423254Y-117539606D01*
X130377402Y-117697426D01*
X130377401Y-117697432D01*
X130374500Y-117734298D01*
X130374500Y-118365701D01*
X130377401Y-118402567D01*
X130377402Y-118402573D01*
X130423254Y-118560393D01*
X130423255Y-118560396D01*
X130423256Y-118560398D01*
X130430006Y-118571811D01*
X130466749Y-118633941D01*
X130483932Y-118701665D01*
X130461772Y-118767928D01*
X130447698Y-118784743D01*
X130150244Y-119082196D01*
X130150245Y-119082197D01*
X130074500Y-119157942D01*
X130008608Y-119272068D01*
X129974500Y-119399364D01*
X129974500Y-119566322D01*
X129954815Y-119633361D01*
X129938181Y-119654003D01*
X129261459Y-120330723D01*
X129200136Y-120364208D01*
X129130444Y-120359224D01*
X129074511Y-120317352D01*
X129050094Y-120251888D01*
X129050542Y-120233327D01*
X129050279Y-120233312D01*
X129050500Y-120229620D01*
X129050500Y-119870381D01*
X129047039Y-119841562D01*
X129040117Y-119783923D01*
X129040078Y-119783825D01*
X129028479Y-119754411D01*
X129005242Y-119695489D01*
X128998961Y-119625904D01*
X129005241Y-119604514D01*
X129040117Y-119516077D01*
X129050500Y-119429618D01*
X129050500Y-119070382D01*
X129040117Y-118983923D01*
X129005242Y-118895489D01*
X128998961Y-118825904D01*
X129005241Y-118804514D01*
X129040117Y-118716077D01*
X129050500Y-118629618D01*
X129050500Y-118270382D01*
X129040117Y-118183923D01*
X128985862Y-118046342D01*
X128977770Y-118035671D01*
X128896500Y-117928499D01*
X128778660Y-117839139D01*
X128778658Y-117839138D01*
X128641077Y-117784883D01*
X128641076Y-117784882D01*
X128641074Y-117784882D01*
X128554619Y-117774500D01*
X128554618Y-117774500D01*
X128230204Y-117774500D01*
X128163165Y-117754815D01*
X128117410Y-117702011D01*
X128107466Y-117632853D01*
X128136491Y-117569297D01*
X128142523Y-117562819D01*
X129747902Y-115957440D01*
X131363000Y-114342342D01*
X131428892Y-114228214D01*
X131463000Y-114100920D01*
X131463000Y-113969135D01*
X131463000Y-112589525D01*
X131482685Y-112522486D01*
X131529431Y-112481980D01*
X131528683Y-112480715D01*
X131535398Y-112476744D01*
X131676865Y-112393081D01*
X131793081Y-112276865D01*
X131876744Y-112135398D01*
X131922598Y-111977569D01*
X131925500Y-111940694D01*
X131925500Y-111874500D01*
X131945185Y-111807461D01*
X131997989Y-111761706D01*
X132049500Y-111750500D01*
X132391324Y-111750500D01*
X132458363Y-111770185D01*
X132479005Y-111786819D01*
X145663181Y-124970995D01*
X145696666Y-125032318D01*
X145699500Y-125058676D01*
X145699500Y-127950252D01*
X145679815Y-128017291D01*
X145631795Y-128060737D01*
X145624696Y-128064353D01*
X145624696Y-128064354D01*
X145511658Y-128121950D01*
X145511657Y-128121951D01*
X145511652Y-128121954D01*
X145421954Y-128211652D01*
X145421951Y-128211657D01*
X145421950Y-128211658D01*
X145411366Y-128232431D01*
X145364352Y-128324698D01*
X145349500Y-128418475D01*
X145349500Y-129481517D01*
X145364354Y-129575305D01*
X145376450Y-129599044D01*
X145389346Y-129667713D01*
X145365232Y-129729649D01*
X145306649Y-129807906D01*
X145306645Y-129807913D01*
X145256403Y-129942620D01*
X145256401Y-129942627D01*
X145250000Y-130002155D01*
X145250000Y-130300000D01*
X147150000Y-130300000D01*
X147150000Y-130002172D01*
X147149999Y-130002155D01*
X147143598Y-129942627D01*
X147143596Y-129942620D01*
X147093354Y-129807913D01*
X147093352Y-129807910D01*
X147034767Y-129729651D01*
X147010349Y-129664187D01*
X147016545Y-129615683D01*
X147019436Y-129607117D01*
X147035646Y-129575304D01*
X147040483Y-129544761D01*
X147043831Y-129534844D01*
X147058111Y-129514460D01*
X147068774Y-129491968D01*
X147077812Y-129486339D01*
X147083922Y-129477620D01*
X147106957Y-129468192D01*
X147128085Y-129455037D01*
X147144616Y-129452780D01*
X147148585Y-129451156D01*
X147151953Y-129451778D01*
X147161319Y-129450500D01*
X149338681Y-129450500D01*
X149405720Y-129470185D01*
X149451475Y-129522989D01*
X149461154Y-129555103D01*
X149464353Y-129575302D01*
X149464353Y-129575303D01*
X149476450Y-129599044D01*
X149489346Y-129667713D01*
X149465232Y-129729649D01*
X149406649Y-129807906D01*
X149406645Y-129807913D01*
X149356403Y-129942620D01*
X149356401Y-129942627D01*
X149350000Y-130002155D01*
X149350000Y-130300000D01*
X151250000Y-130300000D01*
X151250000Y-130002172D01*
X151249999Y-130002155D01*
X151243598Y-129942627D01*
X151243596Y-129942620D01*
X151193354Y-129807913D01*
X151193352Y-129807910D01*
X151134767Y-129729651D01*
X151110349Y-129664187D01*
X151123548Y-129599046D01*
X151135646Y-129575304D01*
X151150500Y-129481519D01*
X151150499Y-128418482D01*
X151135646Y-128324696D01*
X151078050Y-128211658D01*
X151078046Y-128211654D01*
X151078045Y-128211652D01*
X150988347Y-128121954D01*
X150988344Y-128121952D01*
X150988342Y-128121950D01*
X150900516Y-128077200D01*
X150875301Y-128064352D01*
X150781524Y-128049500D01*
X149818482Y-128049500D01*
X149737519Y-128062323D01*
X149724696Y-128064354D01*
X149611658Y-128121950D01*
X149611657Y-128121951D01*
X149611652Y-128121954D01*
X149521954Y-128211652D01*
X149521951Y-128211657D01*
X149521950Y-128211658D01*
X149464354Y-128324696D01*
X149461154Y-128344897D01*
X149431226Y-128408032D01*
X149371915Y-128444963D01*
X149338681Y-128449500D01*
X147161319Y-128449500D01*
X147094280Y-128429815D01*
X147048525Y-128377011D01*
X147038846Y-128344897D01*
X147035647Y-128324700D01*
X147035647Y-128324699D01*
X147035646Y-128324697D01*
X147035646Y-128324696D01*
X146978050Y-128211658D01*
X146978046Y-128211654D01*
X146978045Y-128211652D01*
X146888347Y-128121954D01*
X146888344Y-128121952D01*
X146888342Y-128121950D01*
X146775304Y-128064354D01*
X146775303Y-128064353D01*
X146768205Y-128060737D01*
X146717409Y-128012762D01*
X146700500Y-127950252D01*
X146700500Y-124734110D01*
X146700500Y-124734108D01*
X146666392Y-124606814D01*
X146600500Y-124492686D01*
X146507314Y-124399500D01*
X142432800Y-120324986D01*
X144125001Y-120324986D01*
X144135494Y-120427697D01*
X144190641Y-120594119D01*
X144190643Y-120594124D01*
X144282684Y-120743345D01*
X144406654Y-120867315D01*
X144555875Y-120959356D01*
X144555880Y-120959358D01*
X144722302Y-121014505D01*
X144722309Y-121014506D01*
X144825019Y-121024999D01*
X145249999Y-121024999D01*
X145750000Y-121024999D01*
X146174972Y-121024999D01*
X146174986Y-121024998D01*
X146277697Y-121014505D01*
X146444119Y-120959358D01*
X146444124Y-120959356D01*
X146593345Y-120867315D01*
X146717315Y-120743345D01*
X146809356Y-120594124D01*
X146809358Y-120594119D01*
X146864505Y-120427697D01*
X146864506Y-120427690D01*
X146874999Y-120324986D01*
X146875000Y-120324973D01*
X146875000Y-120249986D01*
X148025001Y-120249986D01*
X148035494Y-120352697D01*
X148090641Y-120519119D01*
X148090643Y-120519124D01*
X148182684Y-120668345D01*
X148306654Y-120792315D01*
X148455875Y-120884356D01*
X148455880Y-120884358D01*
X148622302Y-120939505D01*
X148622309Y-120939506D01*
X148725019Y-120949999D01*
X148999999Y-120949999D01*
X149500000Y-120949999D01*
X149774972Y-120949999D01*
X149774986Y-120949998D01*
X149877697Y-120939505D01*
X150044119Y-120884358D01*
X150044124Y-120884356D01*
X150193345Y-120792315D01*
X150317315Y-120668345D01*
X150409356Y-120519124D01*
X150409358Y-120519119D01*
X150464505Y-120352697D01*
X150464506Y-120352690D01*
X150474999Y-120249986D01*
X150475000Y-120249973D01*
X150475000Y-120200000D01*
X149500000Y-120200000D01*
X149500000Y-120949999D01*
X148999999Y-120949999D01*
X149000000Y-120949998D01*
X149000000Y-120200000D01*
X148025001Y-120200000D01*
X148025001Y-120249986D01*
X146875000Y-120249986D01*
X146875000Y-120150000D01*
X145750000Y-120150000D01*
X145750000Y-121024999D01*
X145249999Y-121024999D01*
X145250000Y-121024998D01*
X145250000Y-120150000D01*
X144125001Y-120150000D01*
X144125001Y-120324986D01*
X142432800Y-120324986D01*
X141582827Y-119475013D01*
X144125000Y-119475013D01*
X144125000Y-119650000D01*
X145250000Y-119650000D01*
X145750000Y-119650000D01*
X146874999Y-119650000D01*
X146874999Y-119475028D01*
X146874998Y-119475013D01*
X146864505Y-119372302D01*
X146809358Y-119205880D01*
X146809356Y-119205875D01*
X146717315Y-119056654D01*
X146593345Y-118932684D01*
X146444124Y-118840643D01*
X146444119Y-118840641D01*
X146277697Y-118785494D01*
X146277690Y-118785493D01*
X146174986Y-118775000D01*
X145750000Y-118775000D01*
X145750000Y-119650000D01*
X145250000Y-119650000D01*
X145250000Y-118775000D01*
X144825028Y-118775000D01*
X144825012Y-118775001D01*
X144722302Y-118785494D01*
X144555880Y-118840641D01*
X144555875Y-118840643D01*
X144406654Y-118932684D01*
X144282684Y-119056654D01*
X144190643Y-119205875D01*
X144190641Y-119205880D01*
X144135494Y-119372302D01*
X144135493Y-119372309D01*
X144125000Y-119475013D01*
X141582827Y-119475013D01*
X136192112Y-114084298D01*
X144224500Y-114084298D01*
X144224500Y-114840701D01*
X144227401Y-114877567D01*
X144227402Y-114877573D01*
X144273254Y-115035393D01*
X144273255Y-115035396D01*
X144356917Y-115176862D01*
X144356923Y-115176870D01*
X144473129Y-115293076D01*
X144473133Y-115293079D01*
X144473135Y-115293081D01*
X144614602Y-115376744D01*
X144656224Y-115388836D01*
X144772426Y-115422597D01*
X144772429Y-115422597D01*
X144772431Y-115422598D01*
X144809306Y-115425500D01*
X144875500Y-115425500D01*
X144942539Y-115445185D01*
X144988294Y-115497989D01*
X144999500Y-115549500D01*
X144999500Y-115950500D01*
X144979815Y-116017539D01*
X144927011Y-116063294D01*
X144875500Y-116074500D01*
X144809298Y-116074500D01*
X144772432Y-116077401D01*
X144772426Y-116077402D01*
X144614606Y-116123254D01*
X144614603Y-116123255D01*
X144473137Y-116206917D01*
X144473129Y-116206923D01*
X144356923Y-116323129D01*
X144356917Y-116323137D01*
X144273255Y-116464603D01*
X144273254Y-116464606D01*
X144227402Y-116622426D01*
X144227401Y-116622432D01*
X144224500Y-116659298D01*
X144224500Y-117540701D01*
X144227401Y-117577567D01*
X144227402Y-117577573D01*
X144273254Y-117735393D01*
X144273255Y-117735396D01*
X144273256Y-117735398D01*
X144289754Y-117763294D01*
X144356917Y-117876862D01*
X144356923Y-117876870D01*
X144473129Y-117993076D01*
X144473133Y-117993079D01*
X144473135Y-117993081D01*
X144614602Y-118076744D01*
X144656224Y-118088836D01*
X144772426Y-118122597D01*
X144772429Y-118122597D01*
X144772431Y-118122598D01*
X144809306Y-118125500D01*
X144809314Y-118125500D01*
X146190686Y-118125500D01*
X146190694Y-118125500D01*
X146227569Y-118122598D01*
X146227571Y-118122597D01*
X146227573Y-118122597D01*
X146269191Y-118110505D01*
X146385398Y-118076744D01*
X146526865Y-117993081D01*
X146643081Y-117876865D01*
X146726744Y-117735398D01*
X146772598Y-117577569D01*
X146775500Y-117540694D01*
X146775500Y-116659306D01*
X146772598Y-116622431D01*
X146761263Y-116583417D01*
X146726745Y-116464606D01*
X146726744Y-116464603D01*
X146726744Y-116464602D01*
X146643081Y-116323135D01*
X146643079Y-116323133D01*
X146643076Y-116323129D01*
X146526870Y-116206923D01*
X146526862Y-116206917D01*
X146385396Y-116123255D01*
X146385393Y-116123254D01*
X146227573Y-116077402D01*
X146227567Y-116077401D01*
X146190701Y-116074500D01*
X146190694Y-116074500D01*
X146124500Y-116074500D01*
X146057461Y-116054815D01*
X146011706Y-116002011D01*
X146000500Y-115950500D01*
X146000500Y-115549500D01*
X146020185Y-115482461D01*
X146072989Y-115436706D01*
X146124500Y-115425500D01*
X146190686Y-115425500D01*
X146190694Y-115425500D01*
X146227569Y-115422598D01*
X146227571Y-115422597D01*
X146227573Y-115422597D01*
X146269191Y-115410505D01*
X146385398Y-115376744D01*
X146526865Y-115293081D01*
X146643081Y-115176865D01*
X146726744Y-115035398D01*
X146772598Y-114877569D01*
X146775500Y-114840694D01*
X146775500Y-114084306D01*
X146772598Y-114047431D01*
X146771260Y-114042826D01*
X146726745Y-113889606D01*
X146726744Y-113889603D01*
X146726744Y-113889602D01*
X146643081Y-113748135D01*
X146643079Y-113748133D01*
X146643076Y-113748129D01*
X146526870Y-113631923D01*
X146526862Y-113631917D01*
X146385396Y-113548255D01*
X146385393Y-113548254D01*
X146227573Y-113502402D01*
X146227567Y-113502401D01*
X146190701Y-113499500D01*
X146190694Y-113499500D01*
X144809306Y-113499500D01*
X144809298Y-113499500D01*
X144772432Y-113502401D01*
X144772426Y-113502402D01*
X144614606Y-113548254D01*
X144614603Y-113548255D01*
X144473137Y-113631917D01*
X144473129Y-113631923D01*
X144356923Y-113748129D01*
X144356917Y-113748137D01*
X144273255Y-113889603D01*
X144273254Y-113889606D01*
X144227402Y-114047426D01*
X144227401Y-114047432D01*
X144224500Y-114084298D01*
X136192112Y-114084298D01*
X133267112Y-111159298D01*
X144224500Y-111159298D01*
X144224500Y-111915701D01*
X144227401Y-111952567D01*
X144227402Y-111952573D01*
X144273254Y-112110393D01*
X144273255Y-112110396D01*
X144273256Y-112110398D01*
X144279044Y-112120185D01*
X144356917Y-112251862D01*
X144356923Y-112251870D01*
X144473129Y-112368076D01*
X144473133Y-112368079D01*
X144473135Y-112368081D01*
X144614602Y-112451744D01*
X144656224Y-112463836D01*
X144772426Y-112497597D01*
X144772429Y-112497597D01*
X144772431Y-112497598D01*
X144809306Y-112500500D01*
X144809314Y-112500500D01*
X146190686Y-112500500D01*
X146190694Y-112500500D01*
X146227569Y-112497598D01*
X146227571Y-112497597D01*
X146227573Y-112497597D01*
X146299348Y-112476744D01*
X146385398Y-112451744D01*
X146526865Y-112368081D01*
X146643081Y-112251865D01*
X146696594Y-112161378D01*
X146747663Y-112113696D01*
X146803326Y-112100500D01*
X148240504Y-112100500D01*
X148307543Y-112120185D01*
X148347236Y-112161379D01*
X148376828Y-112211417D01*
X148376834Y-112211425D01*
X148488574Y-112323165D01*
X148488578Y-112323168D01*
X148488580Y-112323170D01*
X148624610Y-112403618D01*
X148776373Y-112447709D01*
X148811837Y-112450500D01*
X149688162Y-112450499D01*
X149723627Y-112447709D01*
X149875390Y-112403618D01*
X150011420Y-112323170D01*
X150123170Y-112211420D01*
X150203618Y-112075390D01*
X150247709Y-111923627D01*
X150250500Y-111888163D01*
X150250499Y-111311838D01*
X150247709Y-111276373D01*
X150203618Y-111124610D01*
X150123170Y-110988580D01*
X150123168Y-110988578D01*
X150123165Y-110988574D01*
X150011425Y-110876834D01*
X150011416Y-110876827D01*
X149875390Y-110796382D01*
X149875385Y-110796380D01*
X149723633Y-110752292D01*
X149723620Y-110752290D01*
X149688163Y-110749500D01*
X148811849Y-110749500D01*
X148811824Y-110749501D01*
X148776372Y-110752291D01*
X148624614Y-110796380D01*
X148624609Y-110796382D01*
X148488583Y-110876827D01*
X148488574Y-110876834D01*
X148376834Y-110988574D01*
X148376828Y-110988582D01*
X148347236Y-111038621D01*
X148296167Y-111086304D01*
X148240504Y-111099500D01*
X146859038Y-111099500D01*
X146791999Y-111079815D01*
X146746244Y-111027011D01*
X146739962Y-111010096D01*
X146726745Y-110964604D01*
X146726744Y-110964603D01*
X146726744Y-110964602D01*
X146643081Y-110823135D01*
X146643079Y-110823133D01*
X146643076Y-110823129D01*
X146526870Y-110706923D01*
X146526862Y-110706917D01*
X146385396Y-110623255D01*
X146385393Y-110623254D01*
X146227573Y-110577402D01*
X146227567Y-110577401D01*
X146190701Y-110574500D01*
X146190694Y-110574500D01*
X144809306Y-110574500D01*
X144809298Y-110574500D01*
X144772432Y-110577401D01*
X144772426Y-110577402D01*
X144614606Y-110623254D01*
X144614603Y-110623255D01*
X144473137Y-110706917D01*
X144473129Y-110706923D01*
X144356923Y-110823129D01*
X144356917Y-110823137D01*
X144273255Y-110964603D01*
X144273254Y-110964606D01*
X144227402Y-111122426D01*
X144227401Y-111122432D01*
X144224500Y-111159298D01*
X133267112Y-111159298D01*
X132957314Y-110849500D01*
X132900250Y-110816554D01*
X132843187Y-110783608D01*
X132779539Y-110766554D01*
X132715892Y-110749500D01*
X132715891Y-110749500D01*
X132049500Y-110749500D01*
X131982461Y-110729815D01*
X131936706Y-110677011D01*
X131925500Y-110625500D01*
X131925500Y-110559313D01*
X131925499Y-110559298D01*
X131924426Y-110545667D01*
X131922598Y-110522431D01*
X131876744Y-110364602D01*
X131793081Y-110223135D01*
X131793079Y-110223133D01*
X131793076Y-110223129D01*
X131676870Y-110106923D01*
X131676862Y-110106917D01*
X131541509Y-110026870D01*
X131535398Y-110023256D01*
X131535397Y-110023255D01*
X131535396Y-110023255D01*
X131535393Y-110023254D01*
X131377573Y-109977402D01*
X131377567Y-109977401D01*
X131340701Y-109974500D01*
X131340694Y-109974500D01*
X130584306Y-109974500D01*
X130584298Y-109974500D01*
X130547432Y-109977401D01*
X130547426Y-109977402D01*
X130389606Y-110023254D01*
X130389603Y-110023255D01*
X130248137Y-110106917D01*
X130248129Y-110106923D01*
X130131923Y-110223129D01*
X130131917Y-110223137D01*
X130048255Y-110364603D01*
X130048254Y-110364606D01*
X130002402Y-110522426D01*
X130002401Y-110522432D01*
X129999500Y-110559298D01*
X129999500Y-111940701D01*
X130002401Y-111977567D01*
X130002402Y-111977573D01*
X130048254Y-112135393D01*
X130048255Y-112135396D01*
X130131917Y-112276862D01*
X130131923Y-112276870D01*
X130248129Y-112393076D01*
X130248133Y-112393079D01*
X130248135Y-112393081D01*
X130345222Y-112450498D01*
X130396317Y-112480715D01*
X130395301Y-112482431D01*
X130440944Y-112520398D01*
X130461975Y-112587027D01*
X130462000Y-112589525D01*
X130462000Y-113776352D01*
X130442315Y-113843391D01*
X130425681Y-113864033D01*
X127437181Y-116852533D01*
X127375858Y-116886018D01*
X127306166Y-116881034D01*
X127250233Y-116839162D01*
X127225816Y-116773698D01*
X127225500Y-116764852D01*
X127225500Y-116445381D01*
X127222039Y-116416562D01*
X127215117Y-116358923D01*
X127160862Y-116221342D01*
X127149925Y-116206919D01*
X127071500Y-116103499D01*
X126953660Y-116014139D01*
X126953658Y-116014138D01*
X126816077Y-115959883D01*
X126816076Y-115959882D01*
X126816074Y-115959882D01*
X126729619Y-115949500D01*
X126729618Y-115949500D01*
X126457676Y-115949500D01*
X126390637Y-115929815D01*
X126344882Y-115877011D01*
X126334938Y-115807853D01*
X126352581Y-115759690D01*
X126360047Y-115747766D01*
X126400500Y-115707314D01*
X126466392Y-115593186D01*
X126468719Y-115584500D01*
X126500500Y-115465893D01*
X126500500Y-115334108D01*
X126500500Y-110559298D01*
X127074500Y-110559298D01*
X127074500Y-111940701D01*
X127077401Y-111977567D01*
X127077402Y-111977573D01*
X127123254Y-112135393D01*
X127123255Y-112135396D01*
X127206917Y-112276862D01*
X127206923Y-112276870D01*
X127323129Y-112393076D01*
X127323133Y-112393079D01*
X127323135Y-112393081D01*
X127420222Y-112450498D01*
X127471317Y-112480715D01*
X127470301Y-112482431D01*
X127476873Y-112487898D01*
X127494203Y-112495812D01*
X127503179Y-112509780D01*
X127515944Y-112520398D01*
X127521678Y-112538564D01*
X127531977Y-112554590D01*
X127536361Y-112585082D01*
X127536975Y-112587027D01*
X127537000Y-112589525D01*
X127537000Y-112670981D01*
X127517315Y-112738020D01*
X127500681Y-112758662D01*
X127455888Y-112803454D01*
X127455885Y-112803458D01*
X127379228Y-112918182D01*
X127379221Y-112918195D01*
X127326421Y-113045667D01*
X127326418Y-113045677D01*
X127299500Y-113181004D01*
X127299500Y-113181007D01*
X127299500Y-113318993D01*
X127299500Y-113318995D01*
X127299499Y-113318995D01*
X127326418Y-113454322D01*
X127326421Y-113454332D01*
X127379221Y-113581804D01*
X127379228Y-113581817D01*
X127455885Y-113696541D01*
X127455888Y-113696545D01*
X127553454Y-113794111D01*
X127553458Y-113794114D01*
X127668182Y-113870771D01*
X127668195Y-113870778D01*
X127795667Y-113923578D01*
X127795672Y-113923580D01*
X127795676Y-113923580D01*
X127795677Y-113923581D01*
X127931004Y-113950500D01*
X127931007Y-113950500D01*
X128068995Y-113950500D01*
X128160041Y-113932389D01*
X128204328Y-113923580D01*
X128331811Y-113870775D01*
X128446542Y-113794114D01*
X128544114Y-113696542D01*
X128620775Y-113581811D01*
X128673580Y-113454328D01*
X128700500Y-113318993D01*
X128700500Y-113181007D01*
X128700500Y-113181004D01*
X128673581Y-113045677D01*
X128673580Y-113045676D01*
X128673580Y-113045672D01*
X128627885Y-112935354D01*
X128620778Y-112918195D01*
X128620771Y-112918182D01*
X128558898Y-112825583D01*
X128553247Y-112807536D01*
X128543023Y-112791627D01*
X128538571Y-112760667D01*
X128538020Y-112758906D01*
X128538000Y-112756692D01*
X128538000Y-112589525D01*
X128557685Y-112522486D01*
X128604431Y-112481980D01*
X128603683Y-112480715D01*
X128610398Y-112476744D01*
X128751865Y-112393081D01*
X128868081Y-112276865D01*
X128951744Y-112135398D01*
X128997598Y-111977569D01*
X129000500Y-111940694D01*
X129000500Y-110559306D01*
X128997598Y-110522431D01*
X128951744Y-110364602D01*
X128868081Y-110223135D01*
X128868079Y-110223133D01*
X128868076Y-110223129D01*
X128751870Y-110106923D01*
X128751862Y-110106917D01*
X128616509Y-110026870D01*
X128610398Y-110023256D01*
X128610397Y-110023255D01*
X128603683Y-110019285D01*
X128604694Y-110017574D01*
X128559032Y-109979564D01*
X128538024Y-109912927D01*
X128538000Y-109910473D01*
X128538000Y-108221176D01*
X128557685Y-108154137D01*
X128574319Y-108133495D01*
X129162319Y-107545495D01*
X129223642Y-107512010D01*
X129293334Y-107516994D01*
X129337681Y-107545495D01*
X130192686Y-108400500D01*
X130306814Y-108466392D01*
X130434108Y-108500500D01*
X130434110Y-108500500D01*
X135515890Y-108500500D01*
X135515892Y-108500500D01*
X135643186Y-108466392D01*
X135757314Y-108400500D01*
X137749333Y-106408478D01*
X137810654Y-106374995D01*
X137846742Y-106372543D01*
X137847427Y-106372596D01*
X137847431Y-106372598D01*
X137884306Y-106375500D01*
X137884314Y-106375500D01*
X138515686Y-106375500D01*
X138515694Y-106375500D01*
X138552569Y-106372598D01*
X138552571Y-106372597D01*
X138552573Y-106372597D01*
X138600781Y-106358591D01*
X138710398Y-106326744D01*
X138851865Y-106243081D01*
X138968081Y-106126865D01*
X139051744Y-105985398D01*
X139094014Y-105839904D01*
X139131620Y-105781019D01*
X139195092Y-105751813D01*
X139213090Y-105750500D01*
X140536910Y-105750500D01*
X140603949Y-105770185D01*
X140649704Y-105822989D01*
X140655986Y-105839905D01*
X140698254Y-105985393D01*
X140698255Y-105985396D01*
X140781917Y-106126862D01*
X140781923Y-106126870D01*
X140898129Y-106243076D01*
X140898132Y-106243078D01*
X140898135Y-106243081D01*
X140988623Y-106296595D01*
X141036304Y-106347661D01*
X141049500Y-106403325D01*
X141049500Y-106484108D01*
X141049500Y-106615892D01*
X141060896Y-106658422D01*
X141083608Y-106743187D01*
X141111772Y-106791968D01*
X141149500Y-106857314D01*
X143349500Y-109057314D01*
X143442686Y-109150500D01*
X143556814Y-109216392D01*
X143684108Y-109250500D01*
X150741324Y-109250500D01*
X150808363Y-109270185D01*
X150829005Y-109286819D01*
X151213181Y-109670995D01*
X151246666Y-109732318D01*
X151249500Y-109758676D01*
X151249500Y-112741323D01*
X151229815Y-112808362D01*
X151213181Y-112829004D01*
X149981806Y-114060378D01*
X149920483Y-114093863D01*
X149859531Y-114091774D01*
X149770139Y-114065804D01*
X149723627Y-114052291D01*
X149723625Y-114052290D01*
X149723620Y-114052290D01*
X149688163Y-114049500D01*
X148811849Y-114049500D01*
X148811824Y-114049501D01*
X148776372Y-114052291D01*
X148624614Y-114096380D01*
X148624609Y-114096382D01*
X148488583Y-114176827D01*
X148488574Y-114176834D01*
X148376834Y-114288574D01*
X148376827Y-114288583D01*
X148296382Y-114424609D01*
X148296380Y-114424614D01*
X148252292Y-114576366D01*
X148252290Y-114576379D01*
X148249500Y-114611829D01*
X148249500Y-115188150D01*
X148249501Y-115188175D01*
X148252291Y-115223627D01*
X148296380Y-115375385D01*
X148296382Y-115375390D01*
X148376827Y-115511416D01*
X148376834Y-115511425D01*
X148488574Y-115623165D01*
X148488583Y-115623172D01*
X148536998Y-115651804D01*
X148624610Y-115703618D01*
X148660094Y-115713926D01*
X148718979Y-115751532D01*
X148748187Y-115815004D01*
X148749500Y-115833003D01*
X148749500Y-117036909D01*
X148729815Y-117103948D01*
X148677011Y-117149703D01*
X148660095Y-117155985D01*
X148514606Y-117198253D01*
X148514603Y-117198255D01*
X148373137Y-117281917D01*
X148373129Y-117281923D01*
X148256923Y-117398129D01*
X148256917Y-117398137D01*
X148173255Y-117539603D01*
X148173254Y-117539606D01*
X148127402Y-117697426D01*
X148127401Y-117697432D01*
X148124500Y-117734298D01*
X148124500Y-118365701D01*
X148127401Y-118402567D01*
X148127402Y-118402573D01*
X148173254Y-118560393D01*
X148173255Y-118560396D01*
X148173256Y-118560398D01*
X148180006Y-118571811D01*
X148256917Y-118701862D01*
X148256923Y-118701870D01*
X148373129Y-118818076D01*
X148373132Y-118818078D01*
X148373135Y-118818081D01*
X148402192Y-118835265D01*
X148449875Y-118886332D01*
X148462381Y-118955073D01*
X148435736Y-119019663D01*
X148404170Y-119047535D01*
X148306656Y-119107682D01*
X148182684Y-119231654D01*
X148090643Y-119380875D01*
X148090641Y-119380880D01*
X148035494Y-119547302D01*
X148035493Y-119547309D01*
X148025000Y-119650013D01*
X148025000Y-119700000D01*
X150474999Y-119700000D01*
X150474999Y-119650028D01*
X150474998Y-119650013D01*
X150464505Y-119547302D01*
X150409358Y-119380880D01*
X150409356Y-119380875D01*
X150352523Y-119288735D01*
X150317315Y-119231654D01*
X150193344Y-119107683D01*
X150193340Y-119107680D01*
X150095830Y-119047535D01*
X150049105Y-118995588D01*
X150037884Y-118926625D01*
X150065727Y-118862543D01*
X150097806Y-118835266D01*
X150126865Y-118818081D01*
X150243081Y-118701865D01*
X150296594Y-118611378D01*
X150347663Y-118563696D01*
X150403326Y-118550500D01*
X151750890Y-118550500D01*
X151750892Y-118550500D01*
X151750893Y-118550499D01*
X151758948Y-118549439D01*
X151759383Y-118552744D01*
X151813728Y-118554025D01*
X151871600Y-118593173D01*
X151899119Y-118657395D01*
X151900000Y-118672146D01*
X151900000Y-118775000D01*
X152816988Y-118775000D01*
X152784075Y-118832007D01*
X152750000Y-118959174D01*
X152750000Y-119090826D01*
X152784075Y-119217993D01*
X152816988Y-119275000D01*
X151900000Y-119275000D01*
X151900000Y-119922844D01*
X151906401Y-119982372D01*
X151906403Y-119982379D01*
X151956645Y-120117086D01*
X151956649Y-120117093D01*
X152042809Y-120232187D01*
X152042812Y-120232190D01*
X152157906Y-120318350D01*
X152157913Y-120318354D01*
X152292620Y-120368596D01*
X152292627Y-120368598D01*
X152352155Y-120374999D01*
X152352172Y-120375000D01*
X153000000Y-120375000D01*
X153000000Y-119458012D01*
X153057007Y-119490925D01*
X153184174Y-119525000D01*
X153315826Y-119525000D01*
X153442993Y-119490925D01*
X153500000Y-119458012D01*
X153500000Y-120375000D01*
X154147828Y-120375000D01*
X154147844Y-120374999D01*
X154207372Y-120368598D01*
X154207379Y-120368596D01*
X154342086Y-120318354D01*
X154342093Y-120318350D01*
X154457187Y-120232190D01*
X154457190Y-120232187D01*
X154543350Y-120117093D01*
X154543354Y-120117086D01*
X154593596Y-119982379D01*
X154593598Y-119982372D01*
X154599999Y-119922844D01*
X154600000Y-119922827D01*
X154600000Y-119275000D01*
X153683012Y-119275000D01*
X153715925Y-119217993D01*
X153750000Y-119090826D01*
X153750000Y-118959174D01*
X153715925Y-118832007D01*
X153683012Y-118775000D01*
X154600000Y-118775000D01*
X154600000Y-118127172D01*
X154599999Y-118127155D01*
X154593598Y-118067627D01*
X154593596Y-118067620D01*
X154543354Y-117932913D01*
X154543350Y-117932906D01*
X154457190Y-117817812D01*
X154457187Y-117817809D01*
X154342093Y-117731649D01*
X154342086Y-117731645D01*
X154207379Y-117681403D01*
X154207372Y-117681401D01*
X154147844Y-117675000D01*
X154121216Y-117675000D01*
X154054177Y-117655315D01*
X154008422Y-117602511D01*
X153998478Y-117533353D01*
X154027503Y-117469797D01*
X154048329Y-117450683D01*
X154050805Y-117448884D01*
X154064646Y-117438828D01*
X154203828Y-117299646D01*
X154319524Y-117140405D01*
X154408884Y-116965025D01*
X154469709Y-116777826D01*
X154474195Y-116749500D01*
X154500500Y-116583422D01*
X154500500Y-116386577D01*
X154469709Y-116192173D01*
X154436091Y-116088708D01*
X154408884Y-116004975D01*
X154408882Y-116004972D01*
X154408882Y-116004970D01*
X154352930Y-115895159D01*
X154319524Y-115829595D01*
X154203828Y-115670354D01*
X154064646Y-115531172D01*
X153905405Y-115415476D01*
X153891726Y-115408506D01*
X153730029Y-115326117D01*
X153542826Y-115265290D01*
X153348422Y-115234500D01*
X153348417Y-115234500D01*
X153151583Y-115234500D01*
X153151578Y-115234500D01*
X152957173Y-115265290D01*
X152769970Y-115326117D01*
X152594594Y-115415476D01*
X152512183Y-115475352D01*
X152435354Y-115531172D01*
X152435352Y-115531174D01*
X152435351Y-115531174D01*
X152296174Y-115670351D01*
X152296174Y-115670352D01*
X152296172Y-115670354D01*
X152272005Y-115703617D01*
X152180476Y-115829594D01*
X152091117Y-116004970D01*
X152030290Y-116192173D01*
X151999500Y-116386577D01*
X151999500Y-116583422D01*
X152030291Y-116777827D01*
X152030291Y-116777830D01*
X152060533Y-116870903D01*
X152062528Y-116940744D01*
X152030283Y-116996902D01*
X151514005Y-117513181D01*
X151452682Y-117546666D01*
X151426324Y-117549500D01*
X150403326Y-117549500D01*
X150336287Y-117529815D01*
X150296594Y-117488621D01*
X150267147Y-117438828D01*
X150243081Y-117398135D01*
X150243079Y-117398133D01*
X150243076Y-117398129D01*
X150126870Y-117281923D01*
X150126862Y-117281917D01*
X149985396Y-117198255D01*
X149985393Y-117198253D01*
X149839905Y-117155985D01*
X149781019Y-117118379D01*
X149751813Y-117054906D01*
X149750500Y-117036909D01*
X149750500Y-115833003D01*
X149770185Y-115765964D01*
X149822989Y-115720209D01*
X149839900Y-115713928D01*
X149875390Y-115703618D01*
X150011420Y-115623170D01*
X150123170Y-115511420D01*
X150203618Y-115375390D01*
X150244365Y-115235136D01*
X150275757Y-115182055D01*
X152150500Y-113307314D01*
X152216392Y-113193186D01*
X152250500Y-113065892D01*
X152250500Y-112934107D01*
X152250500Y-109434108D01*
X152216392Y-109306814D01*
X152150500Y-109192686D01*
X152057314Y-109099500D01*
X151307314Y-108349500D01*
X151237682Y-108309298D01*
X151193187Y-108283608D01*
X151129539Y-108266554D01*
X151065892Y-108249500D01*
X151065891Y-108249500D01*
X144008676Y-108249500D01*
X143941637Y-108229815D01*
X143920995Y-108213181D01*
X142157198Y-106449384D01*
X142123713Y-106388061D01*
X142128697Y-106318369D01*
X142170569Y-106262436D01*
X142181737Y-106254984D01*
X142201865Y-106243081D01*
X142318081Y-106126865D01*
X142321600Y-106120916D01*
X142393268Y-105999730D01*
X142444336Y-105952046D01*
X142513078Y-105939542D01*
X142577668Y-105966187D01*
X142606732Y-105999730D01*
X142681914Y-106126859D01*
X142681923Y-106126870D01*
X142798129Y-106243076D01*
X142798132Y-106243078D01*
X142798135Y-106243081D01*
X142939602Y-106326744D01*
X142949498Y-106329619D01*
X143097426Y-106372597D01*
X143097429Y-106372597D01*
X143097431Y-106372598D01*
X143134306Y-106375500D01*
X143134314Y-106375500D01*
X143765686Y-106375500D01*
X143765694Y-106375500D01*
X143802569Y-106372598D01*
X143802571Y-106372597D01*
X143802573Y-106372597D01*
X143850781Y-106358591D01*
X143960398Y-106326744D01*
X144101865Y-106243081D01*
X144218081Y-106126865D01*
X144301744Y-105985398D01*
X144347598Y-105827569D01*
X144350500Y-105790694D01*
X144350500Y-104709306D01*
X144347598Y-104672431D01*
X144341226Y-104650500D01*
X144305747Y-104528381D01*
X144301744Y-104514602D01*
X144218081Y-104373135D01*
X144218079Y-104373133D01*
X144218076Y-104373129D01*
X144101870Y-104256923D01*
X144101862Y-104256917D01*
X143960396Y-104173255D01*
X143960395Y-104173254D01*
X143839904Y-104138248D01*
X143781019Y-104100641D01*
X143751813Y-104037169D01*
X143750500Y-104019172D01*
X143750500Y-102884500D01*
X143770185Y-102817461D01*
X143822989Y-102771706D01*
X143874500Y-102760500D01*
X144118097Y-102760500D01*
X144118102Y-102760500D01*
X144206564Y-102749877D01*
X144347342Y-102694361D01*
X144467922Y-102602922D01*
X144559361Y-102482342D01*
X144614877Y-102341564D01*
X144618667Y-102310001D01*
X146727704Y-102310001D01*
X146727899Y-102312486D01*
X146773718Y-102470198D01*
X146857314Y-102611552D01*
X146857321Y-102611561D01*
X146973438Y-102727678D01*
X146973447Y-102727685D01*
X147114803Y-102811282D01*
X147114806Y-102811283D01*
X147272504Y-102857099D01*
X147272510Y-102857100D01*
X147309350Y-102859999D01*
X147309366Y-102860000D01*
X147950000Y-102860000D01*
X148450000Y-102860000D01*
X149090634Y-102860000D01*
X149090649Y-102859999D01*
X149127489Y-102857100D01*
X149127495Y-102857099D01*
X149285193Y-102811283D01*
X149285196Y-102811282D01*
X149426552Y-102727685D01*
X149426561Y-102727678D01*
X149542678Y-102611561D01*
X149542685Y-102611552D01*
X149626281Y-102470198D01*
X149672100Y-102312486D01*
X149672295Y-102310001D01*
X149672295Y-102310000D01*
X148450000Y-102310000D01*
X148450000Y-102860000D01*
X147950000Y-102860000D01*
X147950000Y-102310000D01*
X146727705Y-102310000D01*
X146727704Y-102310001D01*
X144618667Y-102310001D01*
X144625500Y-102253102D01*
X144625500Y-101866898D01*
X144614877Y-101778436D01*
X144559361Y-101637658D01*
X144559360Y-101637657D01*
X144559360Y-101637656D01*
X144511361Y-101574360D01*
X144486538Y-101509049D01*
X144500966Y-101440685D01*
X144522485Y-101411753D01*
X144592678Y-101341561D01*
X144592685Y-101341552D01*
X144676281Y-101200198D01*
X144722100Y-101042486D01*
X144722295Y-101040001D01*
X146727704Y-101040001D01*
X146727899Y-101042486D01*
X146773718Y-101200198D01*
X146857314Y-101341552D01*
X146862100Y-101347722D01*
X146859753Y-101349542D01*
X146886564Y-101398642D01*
X146881580Y-101468334D01*
X146860541Y-101501069D01*
X146862100Y-101502278D01*
X146857314Y-101508447D01*
X146773718Y-101649801D01*
X146727899Y-101807513D01*
X146727704Y-101809998D01*
X146727705Y-101810000D01*
X147950000Y-101810000D01*
X148450000Y-101810000D01*
X149672295Y-101810000D01*
X149672295Y-101809998D01*
X149672100Y-101807513D01*
X149626281Y-101649801D01*
X149542685Y-101508447D01*
X149537900Y-101502278D01*
X149540252Y-101500453D01*
X149513445Y-101451405D01*
X149518402Y-101381712D01*
X149539465Y-101348936D01*
X149537900Y-101347722D01*
X149542685Y-101341552D01*
X149626281Y-101200198D01*
X149672100Y-101042486D01*
X149672295Y-101040001D01*
X149672295Y-101040000D01*
X148450000Y-101040000D01*
X148450000Y-101810000D01*
X147950000Y-101810000D01*
X147950000Y-101040000D01*
X146727705Y-101040000D01*
X146727704Y-101040001D01*
X144722295Y-101040001D01*
X144722295Y-101040000D01*
X141777705Y-101040000D01*
X141777704Y-101040001D01*
X141777899Y-101042486D01*
X141823718Y-101200198D01*
X141907314Y-101341552D01*
X141907321Y-101341561D01*
X141977515Y-101411755D01*
X142011000Y-101473078D01*
X142006016Y-101542770D01*
X141988638Y-101574361D01*
X141940639Y-101637656D01*
X141885122Y-101778438D01*
X141879253Y-101827314D01*
X141874500Y-101866898D01*
X141874500Y-102253102D01*
X141877918Y-102281561D01*
X141885122Y-102341561D01*
X141940639Y-102482343D01*
X142032077Y-102602922D01*
X142152656Y-102694360D01*
X142152657Y-102694360D01*
X142152658Y-102694361D01*
X142293436Y-102749877D01*
X142381898Y-102760500D01*
X142625500Y-102760500D01*
X142692539Y-102780185D01*
X142738294Y-102832989D01*
X142749500Y-102884500D01*
X142749500Y-104254191D01*
X142729815Y-104321230D01*
X142727755Y-104324333D01*
X142721276Y-104333777D01*
X142681919Y-104373135D01*
X142604610Y-104503857D01*
X142602255Y-104507291D01*
X142578275Y-104526840D01*
X142555663Y-104547953D01*
X142551433Y-104548722D01*
X142548101Y-104551439D01*
X142517355Y-104554921D01*
X142486922Y-104560457D01*
X142482948Y-104558817D01*
X142478675Y-104559302D01*
X142450928Y-104545608D01*
X142422332Y-104533812D01*
X142418825Y-104529765D01*
X142416020Y-104528381D01*
X142412383Y-104522331D01*
X142393268Y-104500270D01*
X142318081Y-104373135D01*
X142318079Y-104373133D01*
X142318076Y-104373129D01*
X142201870Y-104256923D01*
X142201862Y-104256917D01*
X142060396Y-104173255D01*
X142060393Y-104173254D01*
X141902573Y-104127402D01*
X141902567Y-104127401D01*
X141865701Y-104124500D01*
X141865694Y-104124500D01*
X141234306Y-104124500D01*
X141234298Y-104124500D01*
X141197432Y-104127401D01*
X141197426Y-104127402D01*
X141039606Y-104173254D01*
X141039603Y-104173255D01*
X140898137Y-104256917D01*
X140898129Y-104256923D01*
X140781923Y-104373129D01*
X140781917Y-104373137D01*
X140698255Y-104514603D01*
X140698254Y-104514606D01*
X140655986Y-104660095D01*
X140618380Y-104718981D01*
X140554908Y-104748187D01*
X140536910Y-104749500D01*
X139213090Y-104749500D01*
X139146051Y-104729815D01*
X139100296Y-104677011D01*
X139094014Y-104660095D01*
X139086911Y-104635645D01*
X139051744Y-104514602D01*
X138968081Y-104373135D01*
X138968079Y-104373133D01*
X138968076Y-104373129D01*
X138851870Y-104256923D01*
X138851867Y-104256921D01*
X138851865Y-104256919D01*
X138795712Y-104223710D01*
X138761378Y-104203405D01*
X138713695Y-104152335D01*
X138700500Y-104096673D01*
X138700500Y-103558676D01*
X138720185Y-103491637D01*
X138736819Y-103470995D01*
X139470995Y-102736819D01*
X139532318Y-102703334D01*
X139558676Y-102700500D01*
X140368097Y-102700500D01*
X140368102Y-102700500D01*
X140456564Y-102689877D01*
X140597342Y-102634361D01*
X140717922Y-102542922D01*
X140809361Y-102422342D01*
X140864877Y-102281564D01*
X140875500Y-102193102D01*
X140875500Y-101806898D01*
X140864877Y-101718436D01*
X140809361Y-101577658D01*
X140809360Y-101577657D01*
X140809360Y-101577656D01*
X140761361Y-101514360D01*
X140736538Y-101449049D01*
X140750966Y-101380685D01*
X140772485Y-101351753D01*
X140842678Y-101281561D01*
X140842685Y-101281552D01*
X140926281Y-101140198D01*
X140972100Y-100982486D01*
X140972295Y-100980001D01*
X140972295Y-100980000D01*
X138027705Y-100980000D01*
X138027704Y-100980001D01*
X138027899Y-100982486D01*
X138073718Y-101140198D01*
X138157314Y-101281552D01*
X138157321Y-101281561D01*
X138227515Y-101351755D01*
X138261000Y-101413078D01*
X138256016Y-101482770D01*
X138238638Y-101514361D01*
X138190639Y-101577656D01*
X138135122Y-101718438D01*
X138131715Y-101746814D01*
X138124500Y-101806898D01*
X138124500Y-102193102D01*
X138129723Y-102236596D01*
X138135122Y-102281561D01*
X138190639Y-102422343D01*
X138202593Y-102438106D01*
X138227417Y-102503417D01*
X138212990Y-102571781D01*
X138191471Y-102600713D01*
X137892686Y-102899500D01*
X137799502Y-102992683D01*
X137799500Y-102992686D01*
X137733608Y-103106812D01*
X137699500Y-103234108D01*
X137699500Y-104096673D01*
X137679815Y-104163712D01*
X137638622Y-104203405D01*
X137548135Y-104256919D01*
X137548129Y-104256923D01*
X137431923Y-104373129D01*
X137431917Y-104373137D01*
X137391407Y-104441637D01*
X137356875Y-104500029D01*
X137356732Y-104500270D01*
X137305663Y-104547953D01*
X137236922Y-104560457D01*
X137172332Y-104533812D01*
X137143268Y-104500270D01*
X137068081Y-104373135D01*
X137068079Y-104373133D01*
X137068076Y-104373129D01*
X136951870Y-104256923D01*
X136951867Y-104256921D01*
X136951865Y-104256919D01*
X136895712Y-104223710D01*
X136861378Y-104203405D01*
X136813695Y-104152335D01*
X136800500Y-104096673D01*
X136800500Y-103684110D01*
X136800500Y-103684108D01*
X136766392Y-103556814D01*
X136700500Y-103442686D01*
X136607314Y-103349500D01*
X135858527Y-102600713D01*
X135825042Y-102539390D01*
X135830026Y-102469698D01*
X135847401Y-102438111D01*
X135859361Y-102422342D01*
X135914877Y-102281564D01*
X135925500Y-102193102D01*
X135925500Y-101806898D01*
X135914877Y-101718436D01*
X135859361Y-101577658D01*
X135859360Y-101577657D01*
X135859360Y-101577656D01*
X135811361Y-101514360D01*
X135786538Y-101449049D01*
X135800966Y-101380685D01*
X135822485Y-101351753D01*
X135892678Y-101281561D01*
X135892685Y-101281552D01*
X135976281Y-101140198D01*
X136022100Y-100982486D01*
X136022295Y-100980001D01*
X136022295Y-100980000D01*
X133077705Y-100980000D01*
X133077704Y-100980001D01*
X133077899Y-100982486D01*
X133123718Y-101140198D01*
X133207314Y-101281552D01*
X133207321Y-101281561D01*
X133277515Y-101351755D01*
X133311000Y-101413078D01*
X133306016Y-101482770D01*
X133288638Y-101514361D01*
X133240639Y-101577656D01*
X133185122Y-101718438D01*
X133181715Y-101746814D01*
X133174500Y-101806898D01*
X133174500Y-102193102D01*
X133179723Y-102236596D01*
X133185122Y-102281561D01*
X133240639Y-102422343D01*
X133332077Y-102542922D01*
X133452656Y-102634360D01*
X133452657Y-102634360D01*
X133452658Y-102634361D01*
X133593436Y-102689877D01*
X133681898Y-102700500D01*
X134491324Y-102700500D01*
X134558363Y-102720185D01*
X134579005Y-102736819D01*
X135763181Y-103920995D01*
X135777884Y-103947922D01*
X135794477Y-103973741D01*
X135795368Y-103979941D01*
X135796666Y-103982318D01*
X135799500Y-104008676D01*
X135799500Y-104096673D01*
X135779815Y-104163712D01*
X135738622Y-104203405D01*
X135648135Y-104256919D01*
X135648129Y-104256923D01*
X135531923Y-104373129D01*
X135531917Y-104373137D01*
X135448255Y-104514603D01*
X135448254Y-104514606D01*
X135402402Y-104672426D01*
X135402401Y-104672432D01*
X135399500Y-104709298D01*
X135399500Y-105790701D01*
X135402401Y-105827567D01*
X135402402Y-105827573D01*
X135448254Y-105985393D01*
X135448255Y-105985396D01*
X135531917Y-106126862D01*
X135531923Y-106126870D01*
X135648129Y-106243076D01*
X135648132Y-106243078D01*
X135648135Y-106243081D01*
X135789602Y-106326744D01*
X135799498Y-106329619D01*
X135947426Y-106372597D01*
X135947429Y-106372597D01*
X135947431Y-106372598D01*
X135984306Y-106375500D01*
X136067324Y-106375500D01*
X136134363Y-106395185D01*
X136180118Y-106447989D01*
X136190062Y-106517147D01*
X136161037Y-106580703D01*
X136155005Y-106587181D01*
X135279005Y-107463181D01*
X135217682Y-107496666D01*
X135191324Y-107499500D01*
X130758676Y-107499500D01*
X130691637Y-107479815D01*
X130670995Y-107463181D01*
X129786819Y-106579005D01*
X129753334Y-106517682D01*
X129750500Y-106491324D01*
X129750500Y-102299500D01*
X129770185Y-102232461D01*
X129822989Y-102186706D01*
X129874500Y-102175500D01*
X129940686Y-102175500D01*
X129940694Y-102175500D01*
X129977569Y-102172598D01*
X129977571Y-102172597D01*
X129977573Y-102172597D01*
X130019191Y-102160505D01*
X130135398Y-102126744D01*
X130276865Y-102043081D01*
X130393081Y-101926865D01*
X130476744Y-101785398D01*
X130476745Y-101785396D01*
X130480715Y-101778683D01*
X130482427Y-101779696D01*
X130487903Y-101773115D01*
X130495813Y-101755797D01*
X130509790Y-101746814D01*
X130520417Y-101734044D01*
X130538573Y-101728316D01*
X130554591Y-101718023D01*
X130585121Y-101713633D01*
X130587050Y-101713025D01*
X130589526Y-101713000D01*
X130670982Y-101713000D01*
X130738021Y-101732685D01*
X130758664Y-101749320D01*
X130803454Y-101794111D01*
X130803458Y-101794114D01*
X130918182Y-101870771D01*
X130918195Y-101870778D01*
X131045667Y-101923578D01*
X131045672Y-101923580D01*
X131045676Y-101923580D01*
X131045677Y-101923581D01*
X131181004Y-101950500D01*
X131181007Y-101950500D01*
X131318995Y-101950500D01*
X131437828Y-101926862D01*
X131454328Y-101923580D01*
X131581811Y-101870775D01*
X131696542Y-101794114D01*
X131794114Y-101696542D01*
X131870775Y-101581811D01*
X131923580Y-101454328D01*
X131938229Y-101380685D01*
X131950500Y-101318995D01*
X131950500Y-101181004D01*
X131923581Y-101045677D01*
X131923580Y-101045676D01*
X131923580Y-101045672D01*
X131897408Y-100982486D01*
X131870778Y-100918195D01*
X131870771Y-100918182D01*
X131794114Y-100803458D01*
X131794111Y-100803454D01*
X131696545Y-100705888D01*
X131696541Y-100705885D01*
X131581817Y-100629228D01*
X131581804Y-100629221D01*
X131454332Y-100576421D01*
X131454322Y-100576418D01*
X131318995Y-100549500D01*
X131318993Y-100549500D01*
X131181007Y-100549500D01*
X131181005Y-100549500D01*
X131045677Y-100576418D01*
X131045667Y-100576421D01*
X130918195Y-100629221D01*
X130918182Y-100629228D01*
X130825583Y-100691102D01*
X130807536Y-100696752D01*
X130791627Y-100706977D01*
X130760667Y-100711428D01*
X130758906Y-100711980D01*
X130756692Y-100712000D01*
X130589526Y-100712000D01*
X130522487Y-100692315D01*
X130481980Y-100645568D01*
X130480715Y-100646317D01*
X130417838Y-100539998D01*
X130393081Y-100498135D01*
X130393079Y-100498133D01*
X130393076Y-100498129D01*
X130276870Y-100381923D01*
X130276862Y-100381917D01*
X130135396Y-100298255D01*
X130135393Y-100298254D01*
X129977573Y-100252402D01*
X129977567Y-100252401D01*
X129940701Y-100249500D01*
X129940694Y-100249500D01*
X128559306Y-100249500D01*
X128559298Y-100249500D01*
X128522432Y-100252401D01*
X128522426Y-100252402D01*
X128364606Y-100298254D01*
X128364603Y-100298255D01*
X128223137Y-100381917D01*
X128223129Y-100381923D01*
X128106923Y-100498129D01*
X128106917Y-100498137D01*
X128023255Y-100639603D01*
X128023254Y-100639606D01*
X127977402Y-100797426D01*
X127977401Y-100797432D01*
X127974500Y-100834298D01*
X127974500Y-101590701D01*
X127977401Y-101627567D01*
X127977402Y-101627573D01*
X128023254Y-101785393D01*
X128023255Y-101785396D01*
X128106917Y-101926862D01*
X128106923Y-101926870D01*
X128223129Y-102043076D01*
X128223133Y-102043079D01*
X128223135Y-102043081D01*
X128364602Y-102126744D01*
X128406224Y-102138836D01*
X128522426Y-102172597D01*
X128522429Y-102172597D01*
X128522431Y-102172598D01*
X128559306Y-102175500D01*
X128625500Y-102175500D01*
X128692539Y-102195185D01*
X128738294Y-102247989D01*
X128749500Y-102299500D01*
X128749500Y-106491324D01*
X128729815Y-106558363D01*
X128713181Y-106579005D01*
X127637002Y-107655183D01*
X127637000Y-107655186D01*
X127571108Y-107769312D01*
X127537000Y-107896608D01*
X127537000Y-109910473D01*
X127517315Y-109977512D01*
X127470568Y-110018018D01*
X127471317Y-110019285D01*
X127464602Y-110023255D01*
X127464602Y-110023256D01*
X127458491Y-110026870D01*
X127323137Y-110106917D01*
X127323129Y-110106923D01*
X127206923Y-110223129D01*
X127206917Y-110223137D01*
X127123255Y-110364603D01*
X127123254Y-110364606D01*
X127077402Y-110522426D01*
X127077401Y-110522432D01*
X127074500Y-110559298D01*
X126500500Y-110559298D01*
X126500500Y-101554108D01*
X126466392Y-101426814D01*
X126458461Y-101413078D01*
X126452836Y-101403334D01*
X126400500Y-101312686D01*
X126307314Y-101219500D01*
X124087495Y-98999681D01*
X124054010Y-98938358D01*
X124058994Y-98868666D01*
X124100866Y-98812733D01*
X124166330Y-98788316D01*
X124175176Y-98788000D01*
X127910474Y-98788000D01*
X127977513Y-98807685D01*
X128018019Y-98854431D01*
X128019285Y-98853683D01*
X128023255Y-98860397D01*
X128023256Y-98860398D01*
X128044015Y-98895499D01*
X128106917Y-99001862D01*
X128106923Y-99001870D01*
X128223129Y-99118076D01*
X128223133Y-99118079D01*
X128223135Y-99118081D01*
X128364602Y-99201744D01*
X128384459Y-99207513D01*
X128522426Y-99247597D01*
X128522429Y-99247597D01*
X128522431Y-99247598D01*
X128559306Y-99250500D01*
X128559314Y-99250500D01*
X129940686Y-99250500D01*
X129940694Y-99250500D01*
X129977569Y-99247598D01*
X129977571Y-99247597D01*
X129977573Y-99247597D01*
X130060056Y-99223633D01*
X130135398Y-99201744D01*
X130276865Y-99118081D01*
X130393081Y-99001865D01*
X130476744Y-98860398D01*
X130476744Y-98860397D01*
X130480715Y-98853683D01*
X130482427Y-98854696D01*
X130520417Y-98809044D01*
X130587050Y-98788025D01*
X130589526Y-98788000D01*
X133180307Y-98788000D01*
X133247346Y-98807685D01*
X133293101Y-98860489D01*
X133303045Y-98929647D01*
X133279111Y-98986924D01*
X133269438Y-98999681D01*
X133240638Y-99037658D01*
X133185122Y-99178438D01*
X133179697Y-99223620D01*
X133174500Y-99266898D01*
X133174500Y-99653102D01*
X133180126Y-99699954D01*
X133185122Y-99741561D01*
X133240639Y-99882343D01*
X133288638Y-99945639D01*
X133313461Y-100010951D01*
X133299033Y-100079314D01*
X133277515Y-100108245D01*
X133207321Y-100178438D01*
X133207314Y-100178447D01*
X133123718Y-100319801D01*
X133077899Y-100477513D01*
X133077704Y-100479998D01*
X133077705Y-100480000D01*
X134843235Y-100480000D01*
X134905234Y-100496612D01*
X134956814Y-100526392D01*
X135084107Y-100560500D01*
X135084108Y-100560500D01*
X135084109Y-100560500D01*
X142775890Y-100560500D01*
X142775892Y-100560500D01*
X142836632Y-100544225D01*
X142868725Y-100540000D01*
X144722295Y-100540000D01*
X144722295Y-100539998D01*
X144722100Y-100537513D01*
X144676281Y-100379801D01*
X144592685Y-100238447D01*
X144592678Y-100238438D01*
X144522484Y-100168244D01*
X144509050Y-100143643D01*
X144492858Y-100120752D01*
X144492530Y-100113388D01*
X144488999Y-100106921D01*
X144490998Y-100078962D01*
X144489752Y-100050952D01*
X144493574Y-100042935D01*
X144493983Y-100037229D01*
X144502973Y-100018227D01*
X144506780Y-100011679D01*
X144559361Y-99942342D01*
X144585185Y-99876855D01*
X144589904Y-99868741D01*
X144597531Y-99861513D01*
X144609413Y-99843398D01*
X144682810Y-99770001D01*
X146727704Y-99770001D01*
X146727899Y-99772486D01*
X146773718Y-99930198D01*
X146857314Y-100071552D01*
X146862100Y-100077722D01*
X146859753Y-100079542D01*
X146886564Y-100128642D01*
X146881580Y-100198334D01*
X146860541Y-100231069D01*
X146862100Y-100232278D01*
X146857314Y-100238447D01*
X146773718Y-100379801D01*
X146727899Y-100537513D01*
X146727704Y-100539998D01*
X146727705Y-100540000D01*
X147950000Y-100540000D01*
X148450000Y-100540000D01*
X149672295Y-100540000D01*
X149672295Y-100539998D01*
X149672100Y-100537513D01*
X149626281Y-100379801D01*
X149542685Y-100238447D01*
X149537900Y-100232278D01*
X149540252Y-100230453D01*
X149513445Y-100181405D01*
X149518402Y-100111712D01*
X149539465Y-100078936D01*
X149537900Y-100077722D01*
X149542685Y-100071552D01*
X149626281Y-99930198D01*
X149672100Y-99772486D01*
X149672295Y-99770001D01*
X149672295Y-99770000D01*
X148450000Y-99770000D01*
X148450000Y-100540000D01*
X147950000Y-100540000D01*
X147950000Y-99770000D01*
X146727705Y-99770000D01*
X146727704Y-99770001D01*
X144682810Y-99770001D01*
X145547104Y-98905706D01*
X145547109Y-98905703D01*
X145557312Y-98895499D01*
X145557314Y-98895499D01*
X145650500Y-98802313D01*
X145716392Y-98688185D01*
X145717485Y-98684107D01*
X145720638Y-98672342D01*
X145724460Y-98658073D01*
X145750500Y-98560892D01*
X145750500Y-98500001D01*
X146727704Y-98500001D01*
X146727899Y-98502486D01*
X146773718Y-98660198D01*
X146857314Y-98801552D01*
X146862100Y-98807722D01*
X146859753Y-98809542D01*
X146886564Y-98858642D01*
X146881580Y-98928334D01*
X146860541Y-98961069D01*
X146862100Y-98962278D01*
X146857314Y-98968447D01*
X146773718Y-99109801D01*
X146727899Y-99267513D01*
X146727704Y-99269998D01*
X146727705Y-99270000D01*
X147950000Y-99270000D01*
X148450000Y-99270000D01*
X149672295Y-99270000D01*
X149672295Y-99269998D01*
X149672100Y-99267513D01*
X149626281Y-99109801D01*
X149542685Y-98968447D01*
X149537900Y-98962278D01*
X149540252Y-98960453D01*
X149513445Y-98911405D01*
X149518402Y-98841712D01*
X149539465Y-98808936D01*
X149537900Y-98807722D01*
X149542685Y-98801552D01*
X149626281Y-98660198D01*
X149672100Y-98502486D01*
X149672295Y-98500001D01*
X149672295Y-98500000D01*
X148450000Y-98500000D01*
X148450000Y-99270000D01*
X147950000Y-99270000D01*
X147950000Y-98500000D01*
X146727705Y-98500000D01*
X146727704Y-98500001D01*
X145750500Y-98500001D01*
X145750500Y-98429107D01*
X145750500Y-97999998D01*
X146727704Y-97999998D01*
X146727705Y-98000000D01*
X147950000Y-98000000D01*
X148450000Y-98000000D01*
X149672295Y-98000000D01*
X149672295Y-97999998D01*
X149672100Y-97997513D01*
X149626281Y-97839801D01*
X149542685Y-97698447D01*
X149542678Y-97698438D01*
X149426561Y-97582321D01*
X149426552Y-97582314D01*
X149285196Y-97498717D01*
X149285193Y-97498716D01*
X149127495Y-97452900D01*
X149127489Y-97452899D01*
X149090649Y-97450000D01*
X148450000Y-97450000D01*
X148450000Y-98000000D01*
X147950000Y-98000000D01*
X147950000Y-97450000D01*
X147309350Y-97450000D01*
X147272510Y-97452899D01*
X147272504Y-97452900D01*
X147114806Y-97498716D01*
X147114803Y-97498717D01*
X146973447Y-97582314D01*
X146973438Y-97582321D01*
X146857321Y-97698438D01*
X146857314Y-97698447D01*
X146773718Y-97839801D01*
X146727899Y-97997513D01*
X146727704Y-97999998D01*
X145750500Y-97999998D01*
X145750500Y-89684108D01*
X145716392Y-89556814D01*
X145650500Y-89442686D01*
X145557314Y-89349500D01*
X145500250Y-89316554D01*
X145443187Y-89283608D01*
X145379539Y-89266554D01*
X145315892Y-89249500D01*
X134565892Y-89249500D01*
X134434107Y-89249500D01*
X134306812Y-89283608D01*
X134192686Y-89349500D01*
X134192683Y-89349502D01*
X133011901Y-90530283D01*
X132950578Y-90563768D01*
X132885903Y-90560533D01*
X132792827Y-90530291D01*
X132792822Y-90530290D01*
X132598422Y-90499500D01*
X132598417Y-90499500D01*
X132401583Y-90499500D01*
X132401578Y-90499500D01*
X132207173Y-90530290D01*
X132019970Y-90591117D01*
X131844594Y-90680476D01*
X131778660Y-90728381D01*
X131685354Y-90796172D01*
X131685352Y-90796174D01*
X131685351Y-90796174D01*
X131546174Y-90935351D01*
X131546174Y-90935352D01*
X131546172Y-90935354D01*
X131513265Y-90980646D01*
X131430476Y-91094594D01*
X131386045Y-91181795D01*
X131338070Y-91232591D01*
X131275560Y-91249500D01*
X128721607Y-91249500D01*
X128594312Y-91283608D01*
X128480186Y-91349500D01*
X128480183Y-91349502D01*
X128386998Y-91442688D01*
X126620433Y-93209251D01*
X126559110Y-93242736D01*
X126498157Y-93240646D01*
X126452573Y-93227402D01*
X126452567Y-93227401D01*
X126415701Y-93224500D01*
X126415694Y-93224500D01*
X125659306Y-93224500D01*
X125659298Y-93224500D01*
X125622432Y-93227401D01*
X125622426Y-93227402D01*
X125464606Y-93273254D01*
X125464603Y-93273255D01*
X125323137Y-93356917D01*
X125323129Y-93356923D01*
X125206923Y-93473129D01*
X125206917Y-93473137D01*
X125123255Y-93614603D01*
X125123254Y-93614606D01*
X125077402Y-93772426D01*
X125077401Y-93772432D01*
X125074500Y-93809298D01*
X125074500Y-93913624D01*
X125054815Y-93980663D01*
X125002011Y-94026418D01*
X124982601Y-94033397D01*
X124981814Y-94033607D01*
X124867686Y-94099500D01*
X124867683Y-94099502D01*
X121577687Y-97389498D01*
X121577686Y-97389500D01*
X121567686Y-97399500D01*
X121545086Y-97422099D01*
X121502901Y-97449768D01*
X121472195Y-97461877D01*
X121462658Y-97465639D01*
X121462657Y-97465639D01*
X121462656Y-97465640D01*
X121342075Y-97557079D01*
X121337681Y-97561474D01*
X121276358Y-97594959D01*
X121206666Y-97589975D01*
X121175750Y-97573105D01*
X121162646Y-97563308D01*
X121157922Y-97557078D01*
X121037342Y-97465639D01*
X121026059Y-97461189D01*
X121012750Y-97451239D01*
X121001351Y-97436031D01*
X120986352Y-97424356D01*
X120980828Y-97408650D01*
X120970845Y-97395331D01*
X120969477Y-97376376D01*
X120963171Y-97358444D01*
X120963000Y-97351927D01*
X120963000Y-96339525D01*
X120982685Y-96272486D01*
X121029431Y-96231980D01*
X121028683Y-96230715D01*
X121078641Y-96201170D01*
X121176865Y-96143081D01*
X121293081Y-96026865D01*
X121376744Y-95885398D01*
X121422598Y-95727569D01*
X121425500Y-95690694D01*
X121425500Y-94309306D01*
X121422598Y-94272431D01*
X121404022Y-94208494D01*
X121376745Y-94114606D01*
X121376744Y-94114603D01*
X121376744Y-94114602D01*
X121293081Y-93973135D01*
X121293079Y-93973133D01*
X121293076Y-93973129D01*
X121176870Y-93856923D01*
X121176862Y-93856917D01*
X121073310Y-93795677D01*
X121035398Y-93773256D01*
X121035397Y-93773255D01*
X121035396Y-93773255D01*
X121035393Y-93773254D01*
X120877573Y-93727402D01*
X120877567Y-93727401D01*
X120840701Y-93724500D01*
X120840694Y-93724500D01*
X120084306Y-93724500D01*
X120084298Y-93724500D01*
X120047432Y-93727401D01*
X120047426Y-93727402D01*
X119889606Y-93773254D01*
X119889603Y-93773255D01*
X119748137Y-93856917D01*
X119748129Y-93856923D01*
X119631923Y-93973129D01*
X119631917Y-93973137D01*
X119548255Y-94114603D01*
X119548254Y-94114606D01*
X119502402Y-94272426D01*
X119502401Y-94272432D01*
X119499500Y-94309298D01*
X119499500Y-95690701D01*
X119502401Y-95727567D01*
X119502402Y-95727573D01*
X119548254Y-95885393D01*
X119548255Y-95885396D01*
X119631917Y-96026862D01*
X119631923Y-96026870D01*
X119748129Y-96143076D01*
X119748133Y-96143079D01*
X119748135Y-96143081D01*
X119790590Y-96168189D01*
X119896317Y-96230715D01*
X119895301Y-96232431D01*
X119940944Y-96270398D01*
X119961975Y-96337027D01*
X119962000Y-96339525D01*
X119962000Y-97363598D01*
X119942315Y-97430637D01*
X119889511Y-97476392D01*
X119820353Y-97486336D01*
X119775878Y-97467759D01*
X119774734Y-97469795D01*
X119767345Y-97465640D01*
X119683407Y-97432539D01*
X119626564Y-97410123D01*
X119626563Y-97410122D01*
X119626561Y-97410122D01*
X119580926Y-97404642D01*
X119538102Y-97399500D01*
X119151898Y-97399500D01*
X119112853Y-97404188D01*
X119063438Y-97410122D01*
X118922656Y-97465639D01*
X118802077Y-97557077D01*
X118710639Y-97677656D01*
X118655122Y-97818438D01*
X118649188Y-97867853D01*
X118644500Y-97906898D01*
X118644500Y-97906903D01*
X118644500Y-97975500D01*
X118624815Y-98042539D01*
X118572011Y-98088294D01*
X118520500Y-98099500D01*
X116153326Y-98099500D01*
X116086287Y-98079815D01*
X116046594Y-98038621D01*
X116023754Y-98000000D01*
X115993081Y-97948135D01*
X115993079Y-97948133D01*
X115993076Y-97948129D01*
X115876870Y-97831923D01*
X115876862Y-97831917D01*
X115758553Y-97761950D01*
X115735398Y-97748256D01*
X115735397Y-97748255D01*
X115735396Y-97748255D01*
X115735393Y-97748254D01*
X115577573Y-97702402D01*
X115577567Y-97702401D01*
X115540701Y-97699500D01*
X115540694Y-97699500D01*
X115307676Y-97699500D01*
X115240637Y-97679815D01*
X115194882Y-97627011D01*
X115184938Y-97557853D01*
X115213963Y-97494297D01*
X115219995Y-97487819D01*
X115534236Y-97173578D01*
X116606254Y-96101558D01*
X116667575Y-96068075D01*
X116737266Y-96073059D01*
X116781615Y-96101561D01*
X116823129Y-96143076D01*
X116823133Y-96143079D01*
X116823135Y-96143081D01*
X116964602Y-96226744D01*
X116984177Y-96232431D01*
X117122426Y-96272597D01*
X117122429Y-96272597D01*
X117122431Y-96272598D01*
X117159306Y-96275500D01*
X117159314Y-96275500D01*
X117915686Y-96275500D01*
X117915694Y-96275500D01*
X117952569Y-96272598D01*
X117952571Y-96272597D01*
X117952573Y-96272597D01*
X117994191Y-96260505D01*
X118110398Y-96226744D01*
X118251865Y-96143081D01*
X118368081Y-96026865D01*
X118451744Y-95885398D01*
X118497598Y-95727569D01*
X118500500Y-95690694D01*
X118500500Y-94309306D01*
X118497598Y-94272431D01*
X118479022Y-94208494D01*
X118451745Y-94114606D01*
X118451744Y-94114603D01*
X118451744Y-94114602D01*
X118368081Y-93973135D01*
X118368079Y-93973133D01*
X118368076Y-93973129D01*
X118251870Y-93856923D01*
X118251862Y-93856917D01*
X118148310Y-93795677D01*
X118110398Y-93773256D01*
X118110397Y-93773255D01*
X118110396Y-93773255D01*
X118110393Y-93773254D01*
X117952573Y-93727402D01*
X117952567Y-93727401D01*
X117915701Y-93724500D01*
X117915694Y-93724500D01*
X117159306Y-93724500D01*
X117159298Y-93724500D01*
X117122432Y-93727401D01*
X117122426Y-93727402D01*
X116964606Y-93773254D01*
X116964603Y-93773255D01*
X116823137Y-93856917D01*
X116823129Y-93856923D01*
X116706923Y-93973129D01*
X116706917Y-93973137D01*
X116623255Y-94114603D01*
X116623254Y-94114606D01*
X116577402Y-94272426D01*
X116577401Y-94272432D01*
X116574500Y-94309298D01*
X116574500Y-94666324D01*
X116554815Y-94733363D01*
X116538181Y-94754005D01*
X113079005Y-98213181D01*
X113017682Y-98246666D01*
X112991324Y-98249500D01*
X106583004Y-98249500D01*
X106515965Y-98229815D01*
X106470210Y-98177011D01*
X106463928Y-98160095D01*
X106453619Y-98124614D01*
X106453618Y-98124611D01*
X106453618Y-98124610D01*
X106373170Y-97988580D01*
X106373168Y-97988578D01*
X106373165Y-97988574D01*
X106261425Y-97876834D01*
X106261416Y-97876827D01*
X106125390Y-97796382D01*
X106125385Y-97796380D01*
X105973633Y-97752292D01*
X105973620Y-97752290D01*
X105938163Y-97749500D01*
X105361849Y-97749500D01*
X105361824Y-97749501D01*
X105326372Y-97752291D01*
X105174614Y-97796380D01*
X105174609Y-97796382D01*
X105038583Y-97876827D01*
X105038574Y-97876834D01*
X104926834Y-97988574D01*
X104926827Y-97988583D01*
X104846382Y-98124609D01*
X104846380Y-98124614D01*
X104802292Y-98276366D01*
X104802290Y-98276379D01*
X104799500Y-98311829D01*
X104799500Y-99188150D01*
X104799501Y-99188175D01*
X104802291Y-99223627D01*
X104846380Y-99375385D01*
X104846382Y-99375390D01*
X104926827Y-99511416D01*
X104926834Y-99511425D01*
X105038574Y-99623165D01*
X105038578Y-99623168D01*
X105038580Y-99623170D01*
X105174610Y-99703618D01*
X105326373Y-99747709D01*
X105361837Y-99750500D01*
X105938162Y-99750499D01*
X105973627Y-99747709D01*
X106125390Y-99703618D01*
X106261420Y-99623170D01*
X106373170Y-99511420D01*
X106453618Y-99375390D01*
X106457945Y-99360493D01*
X106463928Y-99339905D01*
X106501534Y-99281019D01*
X106565007Y-99251813D01*
X106583004Y-99250500D01*
X112991324Y-99250500D01*
X113058363Y-99270185D01*
X113079005Y-99286819D01*
X113841519Y-100049333D01*
X113875004Y-100110656D01*
X113877456Y-100146742D01*
X113874500Y-100184297D01*
X113874500Y-100815701D01*
X113877456Y-100853256D01*
X113863091Y-100921633D01*
X113841519Y-100950665D01*
X110942686Y-103849500D01*
X110849502Y-103942683D01*
X110849500Y-103942686D01*
X110783608Y-104056812D01*
X110749500Y-104184108D01*
X110749500Y-107315891D01*
X110783608Y-107443187D01*
X110795152Y-107463181D01*
X110849500Y-107557314D01*
X112599500Y-109307314D01*
X112692686Y-109400500D01*
X112806814Y-109466392D01*
X112934108Y-109500500D01*
X117529824Y-109500500D01*
X117596863Y-109520185D01*
X117642618Y-109572989D01*
X117652562Y-109642147D01*
X117623537Y-109705703D01*
X117617523Y-109712162D01*
X117355185Y-109974500D01*
X117292012Y-110037673D01*
X117230689Y-110071157D01*
X117180140Y-110071608D01*
X117068996Y-110049500D01*
X117068993Y-110049500D01*
X116931007Y-110049500D01*
X116931005Y-110049500D01*
X116795677Y-110076418D01*
X116795667Y-110076421D01*
X116668195Y-110129221D01*
X116668182Y-110129228D01*
X116553458Y-110205885D01*
X116553454Y-110205888D01*
X116455888Y-110303454D01*
X116455885Y-110303458D01*
X116379228Y-110418182D01*
X116379221Y-110418195D01*
X116326421Y-110545667D01*
X116326418Y-110545677D01*
X116299500Y-110681004D01*
X116299500Y-110681007D01*
X116299500Y-110818993D01*
X116299500Y-110818995D01*
X116299499Y-110818995D01*
X116326418Y-110954322D01*
X116326421Y-110954332D01*
X116379221Y-111081804D01*
X116379228Y-111081817D01*
X116455885Y-111196541D01*
X116455888Y-111196545D01*
X116553454Y-111294111D01*
X116553458Y-111294114D01*
X116668182Y-111370771D01*
X116668195Y-111370778D01*
X116795667Y-111423578D01*
X116795672Y-111423580D01*
X116795676Y-111423580D01*
X116795677Y-111423581D01*
X116931004Y-111450500D01*
X116931007Y-111450500D01*
X117068995Y-111450500D01*
X117160041Y-111432389D01*
X117204328Y-111423580D01*
X117331811Y-111370775D01*
X117446542Y-111294114D01*
X117544114Y-111196542D01*
X117546294Y-111193278D01*
X117587399Y-111154781D01*
X117588579Y-111154099D01*
X117594814Y-111150500D01*
X118454567Y-110290745D01*
X118515888Y-110257262D01*
X118576838Y-110259351D01*
X118622431Y-110272598D01*
X118659306Y-110275500D01*
X118659314Y-110275500D01*
X119415686Y-110275500D01*
X119415694Y-110275500D01*
X119452569Y-110272598D01*
X119452571Y-110272597D01*
X119452573Y-110272597D01*
X119505355Y-110257262D01*
X119610398Y-110226744D01*
X119751865Y-110143081D01*
X119868081Y-110026865D01*
X119951744Y-109885398D01*
X119985505Y-109769191D01*
X119997597Y-109727573D01*
X119997598Y-109727567D01*
X119999192Y-109707314D01*
X120000500Y-109690694D01*
X120000500Y-108309306D01*
X119997598Y-108272431D01*
X119951744Y-108114602D01*
X119868081Y-107973135D01*
X119868079Y-107973133D01*
X119868076Y-107973129D01*
X119751870Y-107856923D01*
X119751862Y-107856917D01*
X119673374Y-107810500D01*
X119610398Y-107773256D01*
X119610397Y-107773255D01*
X119610396Y-107773255D01*
X119610393Y-107773254D01*
X119452573Y-107727402D01*
X119452567Y-107727401D01*
X119415701Y-107724500D01*
X119415694Y-107724500D01*
X118659306Y-107724500D01*
X118659298Y-107724500D01*
X118622432Y-107727401D01*
X118622426Y-107727402D01*
X118464606Y-107773254D01*
X118464603Y-107773255D01*
X118323137Y-107856917D01*
X118323129Y-107856923D01*
X118206923Y-107973129D01*
X118206917Y-107973137D01*
X118123255Y-108114603D01*
X118123254Y-108114606D01*
X118077402Y-108272426D01*
X118077401Y-108272432D01*
X118074500Y-108309298D01*
X118074500Y-108375500D01*
X118054815Y-108442539D01*
X118002011Y-108488294D01*
X117950500Y-108499500D01*
X113258676Y-108499500D01*
X113191637Y-108479815D01*
X113170995Y-108463181D01*
X111786819Y-107079005D01*
X111753334Y-107017682D01*
X111750500Y-106991324D01*
X111750500Y-104508676D01*
X111770185Y-104441637D01*
X111786819Y-104420995D01*
X112989339Y-103218475D01*
X113949500Y-103218475D01*
X113949500Y-104281517D01*
X113957195Y-104330102D01*
X113964354Y-104375304D01*
X114021950Y-104488342D01*
X114021952Y-104488344D01*
X114021954Y-104488347D01*
X114111652Y-104578045D01*
X114111654Y-104578046D01*
X114111658Y-104578050D01*
X114224694Y-104635645D01*
X114224698Y-104635647D01*
X114318475Y-104650499D01*
X114318481Y-104650500D01*
X116181518Y-104650499D01*
X116275304Y-104635646D01*
X116388342Y-104578050D01*
X116478050Y-104488342D01*
X116535646Y-104375304D01*
X116535646Y-104375302D01*
X116535647Y-104375301D01*
X116542806Y-104330102D01*
X116572735Y-104266967D01*
X116632047Y-104230036D01*
X116665279Y-104225500D01*
X118520500Y-104225500D01*
X118587539Y-104245185D01*
X118633294Y-104297989D01*
X118644500Y-104349500D01*
X118644500Y-104593102D01*
X118649609Y-104635645D01*
X118655122Y-104681561D01*
X118710639Y-104822343D01*
X118802077Y-104942922D01*
X118922656Y-105034360D01*
X118922657Y-105034360D01*
X118922658Y-105034361D01*
X119063436Y-105089877D01*
X119151898Y-105100500D01*
X119217324Y-105100500D01*
X119284363Y-105120185D01*
X119330118Y-105172989D01*
X119340062Y-105242147D01*
X119311037Y-105305703D01*
X119305005Y-105312181D01*
X118904005Y-105713181D01*
X118842682Y-105746666D01*
X118816324Y-105749500D01*
X116661319Y-105749500D01*
X116594280Y-105729815D01*
X116548525Y-105677011D01*
X116538846Y-105644897D01*
X116535647Y-105624700D01*
X116535647Y-105624699D01*
X116535646Y-105624697D01*
X116535646Y-105624696D01*
X116478050Y-105511658D01*
X116478046Y-105511654D01*
X116478045Y-105511652D01*
X116388347Y-105421954D01*
X116388344Y-105421952D01*
X116388342Y-105421950D01*
X116311517Y-105382805D01*
X116275301Y-105364352D01*
X116181524Y-105349500D01*
X114318482Y-105349500D01*
X114243064Y-105361445D01*
X114224696Y-105364354D01*
X114111658Y-105421950D01*
X114111657Y-105421951D01*
X114111652Y-105421954D01*
X114021954Y-105511652D01*
X114021951Y-105511657D01*
X113964352Y-105624698D01*
X113949500Y-105718475D01*
X113949500Y-106781517D01*
X113960292Y-106849657D01*
X113964354Y-106875304D01*
X114021950Y-106988342D01*
X114021952Y-106988344D01*
X114021954Y-106988347D01*
X114111652Y-107078045D01*
X114111654Y-107078046D01*
X114111658Y-107078050D01*
X114224694Y-107135645D01*
X114224698Y-107135647D01*
X114318475Y-107150499D01*
X114318481Y-107150500D01*
X116181518Y-107150499D01*
X116275304Y-107135646D01*
X116388342Y-107078050D01*
X116478050Y-106988342D01*
X116535646Y-106875304D01*
X116538845Y-106855102D01*
X116568774Y-106791968D01*
X116628085Y-106755037D01*
X116661319Y-106750500D01*
X119140890Y-106750500D01*
X119140892Y-106750500D01*
X119268186Y-106716392D01*
X119382314Y-106650500D01*
X120954914Y-105077898D01*
X120973428Y-105062663D01*
X120984586Y-105055164D01*
X121037342Y-105034361D01*
X121157922Y-104942922D01*
X121164473Y-104934282D01*
X121180838Y-104923286D01*
X121203128Y-104916242D01*
X121223642Y-104905041D01*
X121235819Y-104905911D01*
X121247461Y-104902233D01*
X121270017Y-104908357D01*
X121293334Y-104910025D01*
X121305898Y-104918099D01*
X121314889Y-104920541D01*
X121322069Y-104928492D01*
X121337681Y-104938526D01*
X121342075Y-104942920D01*
X121412925Y-104996647D01*
X121454448Y-105052839D01*
X121462000Y-105095451D01*
X121462000Y-107660473D01*
X121442315Y-107727512D01*
X121395568Y-107768018D01*
X121396317Y-107769285D01*
X121389602Y-107773255D01*
X121389602Y-107773256D01*
X121364517Y-107788090D01*
X121248137Y-107856917D01*
X121248129Y-107856923D01*
X121131923Y-107973129D01*
X121131917Y-107973137D01*
X121048255Y-108114603D01*
X121048254Y-108114606D01*
X121002402Y-108272426D01*
X121002401Y-108272432D01*
X120999500Y-108309298D01*
X120999500Y-109690701D01*
X121002401Y-109727567D01*
X121002402Y-109727573D01*
X121048254Y-109885393D01*
X121048255Y-109885396D01*
X121131917Y-110026862D01*
X121131923Y-110026870D01*
X121248129Y-110143076D01*
X121248133Y-110143079D01*
X121248135Y-110143081D01*
X121389602Y-110226744D01*
X121431224Y-110238836D01*
X121547426Y-110272597D01*
X121547429Y-110272597D01*
X121547431Y-110272598D01*
X121584306Y-110275500D01*
X121584314Y-110275500D01*
X122340686Y-110275500D01*
X122340694Y-110275500D01*
X122377569Y-110272598D01*
X122377571Y-110272597D01*
X122377573Y-110272597D01*
X122430355Y-110257262D01*
X122535398Y-110226744D01*
X122676865Y-110143081D01*
X122793081Y-110026865D01*
X122876744Y-109885398D01*
X122910505Y-109769191D01*
X122922597Y-109727573D01*
X122922598Y-109727567D01*
X122924192Y-109707314D01*
X122925500Y-109690694D01*
X122925500Y-108309306D01*
X122922598Y-108272431D01*
X122876744Y-108114602D01*
X122793081Y-107973135D01*
X122793079Y-107973133D01*
X122793076Y-107973129D01*
X122676870Y-107856923D01*
X122676862Y-107856917D01*
X122598374Y-107810500D01*
X122535398Y-107773256D01*
X122535397Y-107773255D01*
X122528683Y-107769285D01*
X122529694Y-107767574D01*
X122484032Y-107729564D01*
X122463024Y-107662927D01*
X122463000Y-107660473D01*
X122463000Y-105202019D01*
X122482685Y-105134980D01*
X122535489Y-105089225D01*
X122604647Y-105079281D01*
X122650122Y-105095287D01*
X122744803Y-105151282D01*
X122902514Y-105197100D01*
X122902511Y-105197100D01*
X122904998Y-105197295D01*
X122905000Y-105197295D01*
X122905000Y-102252703D01*
X122902503Y-102252900D01*
X122744806Y-102298716D01*
X122744803Y-102298717D01*
X122603447Y-102382314D01*
X122603438Y-102382321D01*
X122533245Y-102452515D01*
X122471922Y-102486000D01*
X122402230Y-102481016D01*
X122370639Y-102463638D01*
X122307343Y-102415639D01*
X122166561Y-102360122D01*
X122120926Y-102354642D01*
X122078102Y-102349500D01*
X121691898Y-102349500D01*
X121652853Y-102354188D01*
X121603438Y-102360122D01*
X121462656Y-102415639D01*
X121342075Y-102507079D01*
X121337681Y-102511474D01*
X121276358Y-102544959D01*
X121206666Y-102539975D01*
X121162319Y-102511474D01*
X121157924Y-102507079D01*
X121037343Y-102415639D01*
X120896561Y-102360122D01*
X120850926Y-102354642D01*
X120808102Y-102349500D01*
X120421898Y-102349500D01*
X120382853Y-102354188D01*
X120333438Y-102360122D01*
X120192656Y-102415639D01*
X120072075Y-102507079D01*
X120067681Y-102511474D01*
X120006358Y-102544959D01*
X119936666Y-102539975D01*
X119892319Y-102511474D01*
X119887924Y-102507079D01*
X119767343Y-102415639D01*
X119626561Y-102360122D01*
X119580926Y-102354642D01*
X119538102Y-102349500D01*
X119151898Y-102349500D01*
X119112853Y-102354188D01*
X119063438Y-102360122D01*
X118922656Y-102415639D01*
X118802077Y-102507077D01*
X118710639Y-102627656D01*
X118655122Y-102768438D01*
X118649994Y-102811146D01*
X118644500Y-102856898D01*
X118644500Y-102856903D01*
X118644500Y-103100500D01*
X118624815Y-103167539D01*
X118572011Y-103213294D01*
X118520500Y-103224500D01*
X116657360Y-103224500D01*
X116590321Y-103204815D01*
X116544566Y-103152011D01*
X116539088Y-103133842D01*
X116538663Y-103133981D01*
X116535647Y-103124699D01*
X116535646Y-103124697D01*
X116535646Y-103124696D01*
X116478050Y-103011658D01*
X116478046Y-103011654D01*
X116478045Y-103011652D01*
X116388347Y-102921954D01*
X116388344Y-102921952D01*
X116388342Y-102921950D01*
X116283137Y-102868345D01*
X116275301Y-102864352D01*
X116181524Y-102849500D01*
X114318482Y-102849500D01*
X114237519Y-102862323D01*
X114224696Y-102864354D01*
X114111658Y-102921950D01*
X114111657Y-102921951D01*
X114111652Y-102921954D01*
X114021954Y-103011652D01*
X114021951Y-103011657D01*
X113964352Y-103124698D01*
X113949500Y-103218475D01*
X112989339Y-103218475D01*
X114770995Y-101436819D01*
X114832318Y-101403334D01*
X114858676Y-101400500D01*
X115540686Y-101400500D01*
X115540694Y-101400500D01*
X115577569Y-101397598D01*
X115577571Y-101397597D01*
X115577573Y-101397597D01*
X115659643Y-101373753D01*
X115735398Y-101351744D01*
X115876865Y-101268081D01*
X115993081Y-101151865D01*
X116076744Y-101010398D01*
X116110505Y-100894191D01*
X116122597Y-100852573D01*
X116122598Y-100852567D01*
X116125499Y-100815701D01*
X116125500Y-100815694D01*
X116125500Y-100184306D01*
X116122598Y-100147431D01*
X116121538Y-100143783D01*
X116085060Y-100018227D01*
X116076744Y-99989602D01*
X115993081Y-99848135D01*
X115993079Y-99848133D01*
X115993076Y-99848129D01*
X115876870Y-99731923D01*
X115876859Y-99731914D01*
X115749730Y-99656732D01*
X115702046Y-99605664D01*
X115689542Y-99536922D01*
X115716187Y-99472332D01*
X115749730Y-99443268D01*
X115754411Y-99440500D01*
X115775414Y-99428078D01*
X115876859Y-99368085D01*
X115876860Y-99368083D01*
X115876865Y-99368081D01*
X115993081Y-99251865D01*
X116046594Y-99161378D01*
X116097663Y-99113696D01*
X116153326Y-99100500D01*
X118520500Y-99100500D01*
X118587539Y-99120185D01*
X118633294Y-99172989D01*
X118644500Y-99224500D01*
X118644500Y-99643102D01*
X118645701Y-99653102D01*
X118655122Y-99731561D01*
X118655122Y-99731563D01*
X118655123Y-99731564D01*
X118670280Y-99770000D01*
X118710639Y-99872343D01*
X118802077Y-99992922D01*
X118922656Y-100084360D01*
X118922657Y-100084360D01*
X118922658Y-100084361D01*
X119063436Y-100139877D01*
X119151898Y-100150500D01*
X119151903Y-100150500D01*
X119538097Y-100150500D01*
X119538102Y-100150500D01*
X119626564Y-100139877D01*
X119767342Y-100084361D01*
X119887922Y-99992922D01*
X119887924Y-99992920D01*
X119892319Y-99988526D01*
X119953642Y-99955041D01*
X120023334Y-99960025D01*
X120067681Y-99988526D01*
X120072075Y-99992920D01*
X120192656Y-100084360D01*
X120192657Y-100084360D01*
X120192658Y-100084361D01*
X120333436Y-100139877D01*
X120421898Y-100150500D01*
X120421903Y-100150500D01*
X120808097Y-100150500D01*
X120808102Y-100150500D01*
X120896564Y-100139877D01*
X121037342Y-100084361D01*
X121157922Y-99992922D01*
X121157924Y-99992920D01*
X121162319Y-99988526D01*
X121223642Y-99955041D01*
X121293334Y-99960025D01*
X121337681Y-99988526D01*
X121342075Y-99992920D01*
X121462656Y-100084360D01*
X121462657Y-100084360D01*
X121462658Y-100084361D01*
X121603436Y-100139877D01*
X121603440Y-100139877D01*
X121603442Y-100139878D01*
X121608615Y-100141186D01*
X121665910Y-100173724D01*
X123541834Y-102049648D01*
X123575319Y-102110971D01*
X123570335Y-102180663D01*
X123528463Y-102236596D01*
X123462999Y-102261013D01*
X123419559Y-102256406D01*
X123407492Y-102252900D01*
X123405000Y-102252703D01*
X123405000Y-105197295D01*
X123405001Y-105197295D01*
X123407486Y-105197100D01*
X123565198Y-105151281D01*
X123706552Y-105067685D01*
X123706561Y-105067678D01*
X123822678Y-104951561D01*
X123822684Y-104951553D01*
X123868768Y-104873630D01*
X123919837Y-104825947D01*
X123988578Y-104813443D01*
X124053168Y-104840088D01*
X124093098Y-104897423D01*
X124099500Y-104936751D01*
X124099500Y-115541324D01*
X124079815Y-115608363D01*
X124063181Y-115629005D01*
X123842685Y-115849501D01*
X123756940Y-115935244D01*
X123695617Y-115968729D01*
X123625925Y-115963743D01*
X123623772Y-115962917D01*
X123616082Y-115959884D01*
X123616074Y-115959882D01*
X123529619Y-115949500D01*
X123529618Y-115949500D01*
X123170382Y-115949500D01*
X123170381Y-115949500D01*
X123083925Y-115959882D01*
X123083917Y-115959884D01*
X123040367Y-115977058D01*
X123021487Y-115978762D01*
X123003726Y-115985387D01*
X122987410Y-115981837D01*
X122970780Y-115983339D01*
X122953975Y-115974565D01*
X122935453Y-115970536D01*
X122910543Y-115951888D01*
X122908844Y-115951001D01*
X122907199Y-115949385D01*
X122881126Y-115923312D01*
X122857314Y-115899500D01*
X122857311Y-115899498D01*
X120557314Y-113599500D01*
X120500250Y-113566554D01*
X120443187Y-113533608D01*
X120379539Y-113516554D01*
X120315892Y-113499500D01*
X120315891Y-113499500D01*
X108738676Y-113499500D01*
X108671637Y-113479815D01*
X108650995Y-113463181D01*
X99719715Y-104531901D01*
X99686230Y-104470578D01*
X99689464Y-104405905D01*
X99719709Y-104312826D01*
X99730422Y-104245185D01*
X99750500Y-104118422D01*
X99750500Y-103921577D01*
X99719709Y-103727173D01*
X99664355Y-103556814D01*
X99658884Y-103539975D01*
X99658882Y-103539972D01*
X99658882Y-103539970D01*
X99569523Y-103364594D01*
X99453828Y-103205354D01*
X99314646Y-103066172D01*
X99155405Y-102950476D01*
X99099421Y-102921951D01*
X99088370Y-102916320D01*
X99037574Y-102868345D01*
X99020779Y-102800524D01*
X99043316Y-102734389D01*
X99088370Y-102695350D01*
X99207554Y-102634622D01*
X99261716Y-102595270D01*
X99261717Y-102595270D01*
X98629408Y-101962962D01*
X98692993Y-101945925D01*
X98807007Y-101880099D01*
X98900099Y-101787007D01*
X98965925Y-101672993D01*
X98982962Y-101609408D01*
X99615270Y-102241717D01*
X99615270Y-102241716D01*
X99654622Y-102187554D01*
X99751095Y-101998217D01*
X99816757Y-101796130D01*
X99816757Y-101796127D01*
X99850000Y-101586246D01*
X99850000Y-101373753D01*
X99816757Y-101163872D01*
X99816757Y-101163869D01*
X99751095Y-100961782D01*
X99654624Y-100772449D01*
X99615270Y-100718282D01*
X99615269Y-100718282D01*
X98982962Y-101350590D01*
X98965925Y-101287007D01*
X98900099Y-101172993D01*
X98807007Y-101079901D01*
X98692993Y-101014075D01*
X98629409Y-100997037D01*
X99261716Y-100364728D01*
X99258529Y-100324229D01*
X99272893Y-100255851D01*
X99321944Y-100206094D01*
X99376746Y-100191897D01*
X99376667Y-100190881D01*
X99381510Y-100190499D01*
X99381518Y-100190499D01*
X99475304Y-100175646D01*
X99588342Y-100118050D01*
X99678050Y-100028342D01*
X99735646Y-99915304D01*
X99735646Y-99915302D01*
X99735647Y-99915301D01*
X99750500Y-99821524D01*
X99750500Y-99564500D01*
X99770185Y-99497461D01*
X99822989Y-99451706D01*
X99874500Y-99440500D01*
X101514160Y-99440500D01*
X101581199Y-99460185D01*
X101620893Y-99501381D01*
X101626827Y-99511416D01*
X101626834Y-99511425D01*
X101738574Y-99623165D01*
X101738578Y-99623168D01*
X101738580Y-99623170D01*
X101874610Y-99703618D01*
X102026373Y-99747709D01*
X102061837Y-99750500D01*
X102638162Y-99750499D01*
X102673627Y-99747709D01*
X102825390Y-99703618D01*
X102961420Y-99623170D01*
X103073170Y-99511420D01*
X103153618Y-99375390D01*
X103197709Y-99223627D01*
X103200500Y-99188163D01*
X103200499Y-98311838D01*
X103197709Y-98276373D01*
X103153618Y-98124610D01*
X103073170Y-97988580D01*
X103073168Y-97988578D01*
X103073165Y-97988574D01*
X102961425Y-97876834D01*
X102961416Y-97876827D01*
X102825390Y-97796382D01*
X102825385Y-97796380D01*
X102673633Y-97752292D01*
X102673620Y-97752290D01*
X102638163Y-97749500D01*
X102061849Y-97749500D01*
X102061824Y-97749501D01*
X102026372Y-97752291D01*
X101874614Y-97796380D01*
X101874609Y-97796382D01*
X101738583Y-97876827D01*
X101738574Y-97876834D01*
X101626834Y-97988574D01*
X101626827Y-97988583D01*
X101546382Y-98124609D01*
X101546380Y-98124614D01*
X101502292Y-98276366D01*
X101502290Y-98276379D01*
X101499500Y-98311829D01*
X101499500Y-98315500D01*
X101479815Y-98382539D01*
X101427011Y-98428294D01*
X101375500Y-98439500D01*
X99874499Y-98439500D01*
X99807460Y-98419815D01*
X99761705Y-98367011D01*
X99750499Y-98315500D01*
X99750499Y-98058482D01*
X99747974Y-98042539D01*
X99735646Y-97964696D01*
X99678050Y-97851658D01*
X99678046Y-97851654D01*
X99678045Y-97851652D01*
X99588347Y-97761954D01*
X99588344Y-97761952D01*
X99588342Y-97761950D01*
X99495417Y-97714602D01*
X99475301Y-97704352D01*
X99381524Y-97689500D01*
X97618482Y-97689500D01*
X97537519Y-97702323D01*
X97524696Y-97704354D01*
X97411658Y-97761950D01*
X97411657Y-97761951D01*
X97411652Y-97761954D01*
X97321954Y-97851652D01*
X97321951Y-97851657D01*
X97264352Y-97964698D01*
X97249500Y-98058475D01*
X97249500Y-99821517D01*
X97256980Y-99868741D01*
X97264354Y-99915304D01*
X97321950Y-100028342D01*
X97321952Y-100028344D01*
X97321954Y-100028347D01*
X97411652Y-100118045D01*
X97411654Y-100118046D01*
X97411658Y-100118050D01*
X97510169Y-100168244D01*
X97524698Y-100175647D01*
X97618477Y-100190500D01*
X97623331Y-100190882D01*
X97623236Y-100192087D01*
X97684867Y-100210168D01*
X97730634Y-100262961D01*
X97741470Y-100324229D01*
X97738282Y-100364728D01*
X98370591Y-100997037D01*
X98307007Y-101014075D01*
X98192993Y-101079901D01*
X98099901Y-101172993D01*
X98034075Y-101287007D01*
X98017037Y-101350591D01*
X97384728Y-100718282D01*
X97384727Y-100718282D01*
X97345380Y-100772439D01*
X97248904Y-100961782D01*
X97183242Y-101163869D01*
X97183242Y-101163872D01*
X97150000Y-101373753D01*
X94500500Y-101373753D01*
X94500500Y-90646233D01*
X94520185Y-90579194D01*
X94572989Y-90533439D01*
X94642147Y-90523495D01*
X94705703Y-90552520D01*
X94729494Y-90580261D01*
X94742857Y-90601528D01*
X94936364Y-90844178D01*
X95155822Y-91063636D01*
X95398472Y-91257143D01*
X95661262Y-91422265D01*
X95661267Y-91422268D01*
X95940871Y-91556918D01*
X95940880Y-91556921D01*
X95940887Y-91556925D01*
X96038535Y-91591093D01*
X96233819Y-91659427D01*
X96233831Y-91659431D01*
X96536410Y-91728493D01*
X96536419Y-91728494D01*
X96536424Y-91728495D01*
X96727292Y-91750000D01*
X96844814Y-91763241D01*
X96844817Y-91763242D01*
X96844820Y-91763242D01*
X97155183Y-91763242D01*
X97155184Y-91763241D01*
X97312796Y-91745483D01*
X97463575Y-91728495D01*
X97463578Y-91728494D01*
X97463590Y-91728493D01*
X97766169Y-91659431D01*
X98059113Y-91556925D01*
X98296334Y-91442686D01*
X98338732Y-91422268D01*
X98338732Y-91422267D01*
X98338738Y-91422265D01*
X98601528Y-91257143D01*
X98844178Y-91063636D01*
X99063636Y-90844178D01*
X99257143Y-90601528D01*
X99422265Y-90338738D01*
X99422268Y-90338732D01*
X99556918Y-90059128D01*
X99556919Y-90059124D01*
X99556925Y-90059113D01*
X99659431Y-89766169D01*
X99728493Y-89463590D01*
X99730849Y-89442686D01*
X99763241Y-89155186D01*
X99763242Y-89155182D01*
X99763242Y-88844817D01*
X99763241Y-88844813D01*
X99728495Y-88536424D01*
X99728494Y-88536419D01*
X99728493Y-88536410D01*
X99659431Y-88233831D01*
X99556925Y-87940887D01*
X99556921Y-87940880D01*
X99556918Y-87940871D01*
X99422268Y-87661267D01*
X99422265Y-87661262D01*
X99257143Y-87398472D01*
X99063636Y-87155822D01*
X98844178Y-86936364D01*
X98601528Y-86742857D01*
X98580261Y-86729494D01*
X98533970Y-86677159D01*
X98523322Y-86608106D01*
X98551697Y-86544257D01*
X98610086Y-86505885D01*
X98646233Y-86500500D01*
X153891025Y-86500500D01*
X153891655Y-86500685D01*
G37*
%TD.AperFunction*%
%TD*%
M02*
