%TF.GenerationSoftware,KiCad,Pcbnew,10.0.4*%
%TF.CreationDate,2026-09-15T11:26:03+03:00*%
%TF.ProjectId,AVR microcontroller,41565220-6d69-4637-926f-636f6e74726f,rev?*%
%TF.SameCoordinates,Original*%
%TF.FileFunction,Paste,Top*%
%TF.FilePolarity,Positive*%
%FSLAX46Y46*%
G04 Gerber Fmt 4.6, Leading zero omitted, Abs format (unit mm)*
G04 Created by KiCad (PCBNEW 10.0.4) date 2026-09-15 11:26:03*
%MOMM*%
%LPD*%
G01*
G04 APERTURE LIST*
G04 Aperture macros list*
%AMRoundRect*
0 Rectangle with rounded corners*
0 $1 Rounding radius*
0 $2 $3 $4 $5 $6 $7 $8 $9 X,Y pos of 4 corners*
0 Add a 4 corners polygon primitive as box body*
4,1,4,$2,$3,$4,$5,$6,$7,$8,$9,$2,$3,0*
0 Add four circle primitives for the rounded corners*
1,1,$1+$1,$2,$3*
1,1,$1+$1,$4,$5*
1,1,$1+$1,$6,$7*
1,1,$1+$1,$8,$9*
0 Add four rect primitives between the rounded corners*
20,1,$1+$1,$2,$3,$4,$5,0*
20,1,$1+$1,$4,$5,$6,$7,0*
20,1,$1+$1,$6,$7,$8,$9,0*
20,1,$1+$1,$8,$9,$2,$3,0*%
G04 Aperture macros list end*
%ADD10RoundRect,0.150000X0.825000X0.150000X-0.825000X0.150000X-0.825000X-0.150000X0.825000X-0.150000X0*%
%ADD11RoundRect,0.250000X-0.625000X0.312500X-0.625000X-0.312500X0.625000X-0.312500X0.625000X0.312500X0*%
%ADD12RoundRect,0.250000X0.625000X-0.375000X0.625000X0.375000X-0.625000X0.375000X-0.625000X-0.375000X0*%
%ADD13RoundRect,0.250000X0.475000X-0.250000X0.475000X0.250000X-0.475000X0.250000X-0.475000X-0.250000X0*%
%ADD14RoundRect,0.225000X0.225000X0.375000X-0.225000X0.375000X-0.225000X-0.375000X0.225000X-0.375000X0*%
%ADD15RoundRect,0.250000X0.312500X0.625000X-0.312500X0.625000X-0.312500X-0.625000X0.312500X-0.625000X0*%
%ADD16RoundRect,0.137500X-0.600000X-0.137500X0.600000X-0.137500X0.600000X0.137500X-0.600000X0.137500X0*%
%ADD17RoundRect,0.137500X-0.137500X-0.600000X0.137500X-0.600000X0.137500X0.600000X-0.137500X0.600000X0*%
%ADD18RoundRect,0.250000X-0.312500X-0.625000X0.312500X-0.625000X0.312500X0.625000X-0.312500X0.625000X0*%
%ADD19RoundRect,0.250000X-0.475000X0.250000X-0.475000X-0.250000X0.475000X-0.250000X0.475000X0.250000X0*%
%ADD20RoundRect,0.250000X-0.375000X-0.625000X0.375000X-0.625000X0.375000X0.625000X-0.375000X0.625000X0*%
%ADD21R,1.800000X1.000000*%
%ADD22RoundRect,0.225000X-0.375000X0.225000X-0.375000X-0.225000X0.375000X-0.225000X0.375000X0.225000X0*%
%ADD23RoundRect,0.250000X-0.250000X-0.475000X0.250000X-0.475000X0.250000X0.475000X-0.250000X0.475000X0*%
%ADD24R,0.900000X1.000000*%
%ADD25RoundRect,0.250000X0.250000X0.475000X-0.250000X0.475000X-0.250000X-0.475000X0.250000X-0.475000X0*%
%ADD26RoundRect,0.150000X0.150000X-0.825000X0.150000X0.825000X-0.150000X0.825000X-0.150000X-0.825000X0*%
G04 APERTURE END LIST*
D10*
%TO.C,U3*%
X148200000Y-102060000D03*
X148200000Y-100790000D03*
X148200000Y-99520000D03*
X148200000Y-98250000D03*
X143250000Y-98250000D03*
X143250000Y-99520000D03*
X143250000Y-100790000D03*
X143250000Y-102060000D03*
%TD*%
D11*
%TO.C,R4*%
X145500000Y-111537500D03*
X145500000Y-114462500D03*
%TD*%
D12*
%TO.C,D4*%
X145500000Y-119900000D03*
X145500000Y-117100000D03*
%TD*%
D11*
%TO.C,R3*%
X129250000Y-98287500D03*
X129250000Y-101212500D03*
%TD*%
D13*
%TO.C,C5*%
X106250000Y-120700000D03*
X106250000Y-118800000D03*
%TD*%
D14*
%TO.C,D6*%
X105650000Y-98750000D03*
X102350000Y-98750000D03*
%TD*%
D15*
%TO.C,R1*%
X121962500Y-109000000D03*
X119037500Y-109000000D03*
%TD*%
D16*
%TO.C,U1*%
X119587500Y-118450000D03*
X119587500Y-119250000D03*
X119587500Y-120050000D03*
X119587500Y-120850000D03*
X119587500Y-121650000D03*
X119587500Y-122450000D03*
X119587500Y-123250000D03*
X119587500Y-124050000D03*
D17*
X120950000Y-125412500D03*
X121750000Y-125412500D03*
X122550000Y-125412500D03*
X123350000Y-125412500D03*
X124150000Y-125412500D03*
X124950000Y-125412500D03*
X125750000Y-125412500D03*
X126550000Y-125412500D03*
D16*
X127912500Y-124050000D03*
X127912500Y-123250000D03*
X127912500Y-122450000D03*
X127912500Y-121650000D03*
X127912500Y-120850000D03*
X127912500Y-120050000D03*
X127912500Y-119250000D03*
X127912500Y-118450000D03*
D17*
X126550000Y-117087500D03*
X125750000Y-117087500D03*
X124950000Y-117087500D03*
X124150000Y-117087500D03*
X123350000Y-117087500D03*
X122550000Y-117087500D03*
X121750000Y-117087500D03*
X120950000Y-117087500D03*
%TD*%
D18*
%TO.C,R7*%
X133037500Y-127000000D03*
X135962500Y-127000000D03*
%TD*%
D19*
%TO.C,C7*%
X116250000Y-118550000D03*
X116250000Y-120450000D03*
%TD*%
D20*
%TO.C,D5*%
X133350000Y-122250000D03*
X136150000Y-122250000D03*
%TD*%
D18*
%TO.C,R5*%
X126037500Y-94500000D03*
X128962500Y-94500000D03*
%TD*%
D19*
%TO.C,C8*%
X131500000Y-118050000D03*
X131500000Y-119950000D03*
%TD*%
%TO.C,C4*%
X149250000Y-118050000D03*
X149250000Y-119950000D03*
%TD*%
D18*
%TO.C,R6*%
X128037500Y-111250000D03*
X130962500Y-111250000D03*
%TD*%
D21*
%TO.C,Y2*%
X115250000Y-106250000D03*
X115250000Y-103750000D03*
%TD*%
D13*
%TO.C,C6*%
X111250000Y-120450000D03*
X111250000Y-118550000D03*
%TD*%
D19*
%TO.C,C3*%
X115000000Y-98600000D03*
X115000000Y-100500000D03*
%TD*%
D22*
%TO.C,D7*%
X149250000Y-111600000D03*
X149250000Y-114900000D03*
%TD*%
D13*
%TO.C,C9*%
X139750000Y-124950000D03*
X139750000Y-123050000D03*
%TD*%
D10*
%TO.C,U2*%
X139500000Y-102000000D03*
X139500000Y-100730000D03*
X139500000Y-99460000D03*
X139500000Y-98190000D03*
X134550000Y-98190000D03*
X134550000Y-99460000D03*
X134550000Y-100730000D03*
X134550000Y-102000000D03*
%TD*%
D23*
%TO.C,C1*%
X141550000Y-105250000D03*
X143450000Y-105250000D03*
%TD*%
D24*
%TO.C,SW1*%
X150300000Y-130550000D03*
X146200000Y-130550000D03*
X150300000Y-128950000D03*
X146200000Y-128950000D03*
%TD*%
D25*
%TO.C,C2*%
X138200000Y-105250000D03*
X136300000Y-105250000D03*
%TD*%
D26*
%TO.C,U4*%
X119345000Y-103725000D03*
X120615000Y-103725000D03*
X121885000Y-103725000D03*
X123155000Y-103725000D03*
X123155000Y-98775000D03*
X121885000Y-98775000D03*
X120615000Y-98775000D03*
X119345000Y-98775000D03*
%TD*%
D15*
%TO.C,R2*%
X120462500Y-95000000D03*
X117537500Y-95000000D03*
%TD*%
M02*
